<?xml version="1.0" encoding="utf-8"?>
<!-- Generator: Adobe Illustrator 26.0.2, SVG Export Plug-In . SVG Version: 6.00 Build 0)  -->
<svg version="1.1" id="图层_1" xmlns="http://www.w3.org/2000/svg" xmlns:xlink="http://www.w3.org/1999/xlink" x="0px" y="0px"
	 viewBox="0 0 700 525" style="enable-background:new 0 0 700 525;" xml:space="preserve">
<style type="text/css">
	.st0{fill:none;stroke:#262626;stroke-width:0.8333;stroke-linecap:square;stroke-linejoin:round;stroke-miterlimit:10;}
	.st1{fill:#262626;}
	.st2{fill:none;stroke:#0072BD;stroke-width:0.8333;stroke-linejoin:round;stroke-miterlimit:10;}
	.st3{font-family:'AdobeSongStd-Light-GBpc-EUC-H';}
	.st4{font-size:16px;}
	.st5{font-size:16px;glyph-orientation-vertical:0;writing-mode:tb;}
</style>
<g>
	<line class="st0" x1="91" y1="467" x2="634" y2="467"/>
	<line class="st0" x1="91" y1="39" x2="634" y2="39"/>
	<line class="st0" x1="91" y1="467" x2="91" y2="461.6"/>
	<line class="st0" x1="145.3" y1="467" x2="145.3" y2="461.6"/>
	<line class="st0" x1="199.6" y1="467" x2="199.6" y2="461.6"/>
	<line class="st0" x1="253.9" y1="467" x2="253.9" y2="461.6"/>
	<line class="st0" x1="308.2" y1="467" x2="308.2" y2="461.6"/>
	<line class="st0" x1="362.5" y1="467" x2="362.5" y2="461.6"/>
	<line class="st0" x1="416.8" y1="467" x2="416.8" y2="461.6"/>
	<line class="st0" x1="471.1" y1="467" x2="471.1" y2="461.6"/>
	<line class="st0" x1="525.4" y1="467" x2="525.4" y2="461.6"/>
	<line class="st0" x1="579.7" y1="467" x2="579.7" y2="461.6"/>
	<line class="st0" x1="634" y1="467" x2="634" y2="461.6"/>
	<line class="st0" x1="91" y1="39" x2="91" y2="44.4"/>
	<line class="st0" x1="145.3" y1="39" x2="145.3" y2="44.4"/>
	<line class="st0" x1="199.6" y1="39" x2="199.6" y2="44.4"/>
	<line class="st0" x1="253.9" y1="39" x2="253.9" y2="44.4"/>
	<line class="st0" x1="308.2" y1="39" x2="308.2" y2="44.4"/>
	<line class="st0" x1="362.5" y1="39" x2="362.5" y2="44.4"/>
	<line class="st0" x1="416.8" y1="39" x2="416.8" y2="44.4"/>
	<line class="st0" x1="471.1" y1="39" x2="471.1" y2="44.4"/>
	<line class="st0" x1="525.4" y1="39" x2="525.4" y2="44.4"/>
	<line class="st0" x1="579.7" y1="39" x2="579.7" y2="44.4"/>
	<line class="st0" x1="634" y1="39" x2="634" y2="44.4"/>
</g>
<g transform="translate(91,473.6667)">
	<path class="st1" d="M-4.3,11c0-1.4,0.1-2.6,0.4-3.5c0.3-0.9,0.7-1.6,1.3-2C-1.9,5-1.2,4.8-0.3,4.8c0.7,0,1.2,0.1,1.7,0.4
		c0.5,0.3,0.9,0.6,1.2,1.1s0.6,1.1,0.8,1.8S3.6,9.8,3.6,11c0,1.4-0.1,2.6-0.4,3.5c-0.3,0.9-0.7,1.6-1.3,2c-0.6,0.5-1.3,0.7-2.2,0.7
		c-1.2,0-2.1-0.4-2.8-1.2C-3.9,14.9-4.3,13.3-4.3,11z M-2.8,11c0,2,0.2,3.3,0.7,4s1,1,1.7,1c0.7,0,1.3-0.3,1.7-1
		c0.5-0.7,0.7-2,0.7-4c0-2-0.2-3.3-0.7-4C0.9,6.3,0.4,6-0.3,6C-1,6-1.6,6.3-2,6.9C-2.5,7.6-2.8,9-2.8,11z"/>
</g>
<g transform="translate(145.3,473.6667)">
	<path class="st1" d="M-0.9,15.6V17h-8c0-0.4,0-0.7,0.2-1c0.2-0.6,0.5-1.1,1-1.6c0.4-0.5,1.1-1.1,2-1.8c1.3-1.1,2.2-1.9,2.7-2.6
		s0.7-1.2,0.7-1.8c0-0.6-0.2-1.1-0.6-1.5S-4.1,6-4.8,6c-0.7,0-1.3,0.2-1.7,0.6c-0.4,0.4-0.7,1-0.7,1.8l-1.5-0.2
		c0.1-1.1,0.5-2,1.2-2.6c0.7-0.6,1.6-0.9,2.8-0.9c1.2,0,2.1,0.3,2.8,1c0.7,0.6,1,1.4,1,2.4c0,0.5-0.1,1-0.3,1.4
		c-0.2,0.5-0.5,1-1,1.5c-0.5,0.5-1.2,1.2-2.3,2.1C-5.4,14-6,14.5-6.3,14.8c-0.3,0.3-0.5,0.5-0.6,0.8H-0.9z M0.5,11
		c0-1.4,0.1-2.6,0.4-3.5c0.3-0.9,0.7-1.6,1.3-2C2.8,5,3.5,4.8,4.4,4.8c0.7,0,1.2,0.1,1.7,0.4C6.6,5.4,7,5.8,7.4,6.3
		c0.3,0.5,0.6,1.1,0.8,1.8C8.3,8.8,8.4,9.8,8.4,11c0,1.4-0.1,2.6-0.4,3.5c-0.3,0.9-0.7,1.6-1.3,2c-0.6,0.5-1.3,0.7-2.2,0.7
		c-1.2,0-2.1-0.4-2.8-1.2C0.9,14.9,0.5,13.3,0.5,11z M2,11c0,2,0.2,3.3,0.7,4c0.5,0.7,1,1,1.7,1c0.7,0,1.3-0.3,1.7-1
		c0.5-0.7,0.7-2,0.7-4c0-2-0.2-3.3-0.7-4C5.7,6.3,5.1,6,4.4,6C3.7,6,3.2,6.3,2.8,6.9C2.3,7.6,2,9,2,11z"/>
</g>
<g transform="translate(199.6,473.6667)">
	<path class="st1" d="M-4,17v-2.9h-5.3v-1.4l5.5-7.9h1.2v7.9h1.7v1.4h-1.7V17H-4z M-4,12.7V7.2l-3.8,5.5H-4z M0.5,11
		c0-1.4,0.1-2.6,0.4-3.5c0.3-0.9,0.7-1.6,1.3-2C2.8,5,3.5,4.8,4.4,4.8c0.7,0,1.2,0.1,1.7,0.4C6.6,5.4,7,5.8,7.4,6.3
		c0.3,0.5,0.6,1.1,0.8,1.8C8.3,8.8,8.4,9.8,8.4,11c0,1.4-0.1,2.6-0.4,3.5c-0.3,0.9-0.7,1.6-1.3,2c-0.6,0.5-1.3,0.7-2.2,0.7
		c-1.2,0-2.1-0.4-2.8-1.2C0.9,14.9,0.5,13.3,0.5,11z M2,11c0,2,0.2,3.3,0.7,4c0.5,0.7,1,1,1.7,1c0.7,0,1.3-0.3,1.7-1
		c0.5-0.7,0.7-2,0.7-4c0-2-0.2-3.3-0.7-4C5.7,6.3,5.1,6,4.4,6C3.7,6,3.2,6.3,2.8,6.9C2.3,7.6,2,9,2,11z"/>
</g>
<g transform="translate(253.9,473.6667)">
	<path class="st1" d="M-1,7.8l-1.5,0.1c-0.1-0.6-0.3-1-0.6-1.3C-3.5,6.2-4,6-4.6,6c-0.5,0-0.9,0.1-1.3,0.4C-6.3,6.8-6.7,7.2-7,7.9
		c-0.3,0.7-0.4,1.6-0.4,2.8c0.4-0.5,0.8-0.9,1.3-1.2C-5.5,9.2-5,9.1-4.4,9.1c1,0,1.8,0.4,2.5,1.1c0.7,0.7,1,1.7,1,2.8
		c0,0.8-0.2,1.5-0.5,2.1c-0.3,0.7-0.8,1.2-1.4,1.5c-0.6,0.3-1.2,0.5-2,0.5c-1.2,0-2.3-0.5-3-1.4c-0.8-0.9-1.2-2.4-1.2-4.5
		c0-2.4,0.4-4.1,1.3-5.1c0.8-0.9,1.8-1.4,3.1-1.4c1,0,1.7,0.3,2.4,0.8C-1.5,6.1-1.2,6.9-1,7.8z M-7.1,13.1c0,0.5,0.1,1,0.3,1.5
		c0.2,0.5,0.5,0.8,0.9,1.1c0.4,0.3,0.8,0.4,1.2,0.4c0.6,0,1.2-0.3,1.6-0.8c0.5-0.5,0.7-1.2,0.7-2.1c0-0.8-0.2-1.5-0.7-2
		c-0.4-0.5-1-0.7-1.7-0.7c-0.7,0-1.2,0.2-1.7,0.7C-6.9,11.6-7.1,12.3-7.1,13.1z M0.5,11c0-1.4,0.1-2.6,0.4-3.5
		c0.3-0.9,0.7-1.6,1.3-2C2.8,5,3.5,4.8,4.4,4.8c0.7,0,1.2,0.1,1.7,0.4C6.6,5.4,7,5.8,7.4,6.3c0.3,0.5,0.6,1.1,0.8,1.8
		C8.3,8.8,8.4,9.8,8.4,11c0,1.4-0.1,2.6-0.4,3.5c-0.3,0.9-0.7,1.6-1.3,2c-0.6,0.5-1.3,0.7-2.2,0.7c-1.2,0-2.1-0.4-2.8-1.2
		C0.9,14.9,0.5,13.3,0.5,11z M2,11c0,2,0.2,3.3,0.7,4c0.5,0.7,1,1,1.7,1c0.7,0,1.3-0.3,1.7-1c0.5-0.7,0.7-2,0.7-4c0-2-0.2-3.3-0.7-4
		C5.7,6.3,5.1,6,4.4,6C3.7,6,3.2,6.3,2.8,6.9C2.3,7.6,2,9,2,11z"/>
</g>
<g transform="translate(308.2,473.6667)">
	<path class="st1" d="M-6.5,10.4c-0.6-0.2-1.1-0.6-1.4-1C-8.2,9-8.3,8.5-8.3,7.9c0-0.9,0.3-1.6,1-2.2c0.6-0.6,1.5-0.9,2.5-0.9
		c1.1,0,1.9,0.3,2.6,0.9c0.6,0.6,1,1.4,1,2.2c0,0.6-0.1,1.1-0.4,1.5s-0.7,0.7-1.3,1c0.7,0.2,1.3,0.6,1.7,1.2
		c0.4,0.5,0.6,1.2,0.6,1.9c0,1-0.4,1.9-1.1,2.6c-0.7,0.7-1.7,1.1-2.9,1.1c-1.2,0-2.2-0.4-2.9-1.1c-0.7-0.7-1.1-1.6-1.1-2.7
		c0-0.8,0.2-1.5,0.6-2C-7.8,11-7.2,10.6-6.5,10.4z M-6.8,7.9c0,0.6,0.2,1,0.6,1.4c0.4,0.4,0.9,0.5,1.4,0.5c0.6,0,1-0.2,1.4-0.5
		C-3,8.9-2.8,8.5-2.8,8c0-0.6-0.2-1-0.6-1.4C-3.8,6.2-4.3,6-4.8,6c-0.6,0-1,0.2-1.4,0.5S-6.8,7.4-6.8,7.9z M-7.3,13.5
		c0,0.4,0.1,0.8,0.3,1.2c0.2,0.4,0.5,0.7,0.9,0.9c0.4,0.2,0.8,0.3,1.3,0.3c0.7,0,1.3-0.2,1.8-0.7c0.5-0.5,0.7-1,0.7-1.8
		c0-0.7-0.2-1.3-0.7-1.8C-3.5,11.3-4.1,11-4.8,11c-0.7,0-1.3,0.2-1.8,0.7S-7.3,12.8-7.3,13.5z M0.5,11c0-1.4,0.1-2.6,0.4-3.5
		c0.3-0.9,0.7-1.6,1.3-2C2.8,5,3.5,4.8,4.4,4.8c0.7,0,1.2,0.1,1.7,0.4C6.6,5.4,7,5.8,7.4,6.3c0.3,0.5,0.6,1.1,0.8,1.8
		C8.3,8.8,8.4,9.8,8.4,11c0,1.4-0.1,2.6-0.4,3.5c-0.3,0.9-0.7,1.6-1.3,2c-0.6,0.5-1.3,0.7-2.2,0.7c-1.2,0-2.1-0.4-2.8-1.2
		C0.9,14.9,0.5,13.3,0.5,11z M2,11c0,2,0.2,3.3,0.7,4c0.5,0.7,1,1,1.7,1c0.7,0,1.3-0.3,1.7-1c0.5-0.7,0.7-2,0.7-4c0-2-0.2-3.3-0.7-4
		C5.7,6.3,5.1,6,4.4,6C3.7,6,3.2,6.3,2.8,6.9C2.3,7.6,2,9,2,11z"/>
</g>
<g transform="translate(362.5,473.6667)">
	<path class="st1" d="M-7.7,17h-1.5V7.5c-0.4,0.3-0.8,0.7-1.4,1s-1.1,0.6-1.6,0.8V7.8c0.8-0.4,1.6-0.9,2.2-1.4
		c0.6-0.6,1.1-1.1,1.3-1.6h1V17z M-4,11c0-1.4,0.1-2.6,0.4-3.5c0.3-0.9,0.7-1.6,1.3-2C-1.7,5-1,4.8-0.1,4.8c0.7,0,1.2,0.1,1.7,0.4
		c0.5,0.3,0.9,0.6,1.2,1.1s0.6,1.1,0.8,1.8S3.9,9.8,3.9,11c0,1.4-0.1,2.6-0.4,3.5c-0.3,0.9-0.7,1.6-1.3,2c-0.6,0.5-1.3,0.7-2.2,0.7
		c-1.2,0-2.1-0.4-2.8-1.2C-3.6,14.9-4,13.3-4,11z M-2.5,11c0,2,0.2,3.3,0.7,4s1,1,1.7,1c0.7,0,1.3-0.3,1.7-1c0.5-0.7,0.7-2,0.7-4
		c0-2-0.2-3.3-0.7-4C1.2,6.3,0.6,6-0.1,6c-0.7,0-1.2,0.3-1.6,0.9C-2.2,7.6-2.5,9-2.5,11z M5.2,11c0-1.4,0.1-2.6,0.4-3.5
		C6,6.6,6.4,6,7,5.5C7.6,5,8.3,4.8,9.2,4.8c0.7,0,1.2,0.1,1.7,0.4c0.5,0.3,0.9,0.6,1.2,1.1s0.6,1.1,0.8,1.8c0.2,0.7,0.3,1.7,0.3,2.9
		c0,1.4-0.1,2.6-0.4,3.5c-0.3,0.9-0.7,1.6-1.3,2c-0.6,0.5-1.3,0.7-2.2,0.7c-1.2,0-2.1-0.4-2.8-1.2C5.6,14.9,5.2,13.3,5.2,11z
		 M6.8,11c0,2,0.2,3.3,0.7,4s1,1,1.7,1c0.7,0,1.3-0.3,1.7-1c0.5-0.7,0.7-2,0.7-4c0-2-0.2-3.3-0.7-4c-0.5-0.7-1.1-1-1.8-1
		C8.5,6,7.9,6.3,7.5,6.9C7,7.6,6.8,9,6.8,11z"/>
</g>
<g transform="translate(416.8,473.6667)">
	<path class="st1" d="M-7.7,17h-1.5V7.5c-0.4,0.3-0.8,0.7-1.4,1s-1.1,0.6-1.6,0.8V7.8c0.8-0.4,1.6-0.9,2.2-1.4
		c0.6-0.6,1.1-1.1,1.3-1.6h1V17z M3.8,15.6V17h-8c0-0.4,0-0.7,0.2-1c0.2-0.6,0.5-1.1,1-1.6c0.4-0.5,1.1-1.1,2-1.8
		c1.3-1.1,2.2-1.9,2.7-2.6s0.7-1.2,0.7-1.8c0-0.6-0.2-1.1-0.6-1.5S0.7,6,0,6c-0.7,0-1.3,0.2-1.7,0.6c-0.4,0.4-0.7,1-0.7,1.8
		l-1.5-0.2c0.1-1.1,0.5-2,1.2-2.6C-2.1,5.1-1.1,4.8,0,4.8c1.2,0,2.1,0.3,2.8,1c0.7,0.6,1,1.4,1,2.4c0,0.5-0.1,1-0.3,1.4
		c-0.2,0.5-0.5,1-1,1.5c-0.5,0.5-1.2,1.2-2.3,2.1c-0.9,0.8-1.5,1.3-1.7,1.5s-0.5,0.5-0.6,0.8H3.8z M5.2,11c0-1.4,0.1-2.6,0.4-3.5
		C6,6.6,6.4,6,7,5.5C7.6,5,8.3,4.8,9.2,4.8c0.7,0,1.2,0.1,1.7,0.4c0.5,0.3,0.9,0.6,1.2,1.1s0.6,1.1,0.8,1.8c0.2,0.7,0.3,1.7,0.3,2.9
		c0,1.4-0.1,2.6-0.4,3.5c-0.3,0.9-0.7,1.6-1.3,2c-0.6,0.5-1.3,0.7-2.2,0.7c-1.2,0-2.1-0.4-2.8-1.2C5.6,14.9,5.2,13.3,5.2,11z
		 M6.8,11c0,2,0.2,3.3,0.7,4s1,1,1.7,1c0.7,0,1.3-0.3,1.7-1c0.5-0.7,0.7-2,0.7-4c0-2-0.2-3.3-0.7-4c-0.5-0.7-1.1-1-1.8-1
		C8.5,6,7.9,6.3,7.5,6.9C7,7.6,6.8,9,6.8,11z"/>
</g>
<g transform="translate(471.1,473.6667)">
	<path class="st1" d="M-7.7,17h-1.5V7.5c-0.4,0.3-0.8,0.7-1.4,1s-1.1,0.6-1.6,0.8V7.8c0.8-0.4,1.6-0.9,2.2-1.4
		c0.6-0.6,1.1-1.1,1.3-1.6h1V17z M0.8,17v-2.9h-5.3v-1.4L1,4.8h1.2v7.9h1.7v1.4H2.2V17H0.8z M0.8,12.7V7.2L-3,12.7H0.8z M5.2,11
		c0-1.4,0.1-2.6,0.4-3.5C6,6.6,6.4,6,7,5.5C7.6,5,8.3,4.8,9.2,4.8c0.7,0,1.2,0.1,1.7,0.4c0.5,0.3,0.9,0.6,1.2,1.1s0.6,1.1,0.8,1.8
		c0.2,0.7,0.3,1.7,0.3,2.9c0,1.4-0.1,2.6-0.4,3.5c-0.3,0.9-0.7,1.6-1.3,2c-0.6,0.5-1.3,0.7-2.2,0.7c-1.2,0-2.1-0.4-2.8-1.2
		C5.6,14.9,5.2,13.3,5.2,11z M6.8,11c0,2,0.2,3.3,0.7,4s1,1,1.7,1c0.7,0,1.3-0.3,1.7-1c0.5-0.7,0.7-2,0.7-4c0-2-0.2-3.3-0.7-4
		c-0.5-0.7-1.1-1-1.8-1C8.5,6,7.9,6.3,7.5,6.9C7,7.6,6.8,9,6.8,11z"/>
</g>
<g transform="translate(525.4,473.6667)">
	<path class="st1" d="M-7.7,17h-1.5V7.5c-0.4,0.3-0.8,0.7-1.4,1s-1.1,0.6-1.6,0.8V7.8c0.8-0.4,1.6-0.9,2.2-1.4
		c0.6-0.6,1.1-1.1,1.3-1.6h1V17z M3.7,7.8L2.2,7.9c-0.1-0.6-0.3-1-0.6-1.3C1.3,6.2,0.8,6,0.2,6c-0.5,0-0.9,0.1-1.3,0.4
		c-0.5,0.3-0.8,0.8-1.1,1.5c-0.3,0.7-0.4,1.6-0.4,2.8c0.4-0.5,0.8-0.9,1.3-1.2c0.5-0.3,1.1-0.4,1.6-0.4c1,0,1.8,0.4,2.5,1.1
		c0.7,0.7,1,1.7,1,2.8c0,0.8-0.2,1.5-0.5,2.1c-0.3,0.7-0.8,1.2-1.4,1.5c-0.6,0.3-1.2,0.5-2,0.5c-1.2,0-2.3-0.5-3-1.4
		c-0.8-0.9-1.2-2.4-1.2-4.5c0-2.4,0.4-4.1,1.3-5.1C-2,5.2-1,4.8,0.3,4.8c1,0,1.7,0.3,2.4,0.8S3.6,6.9,3.7,7.8z M-2.4,13.1
		c0,0.5,0.1,1,0.3,1.5c0.2,0.5,0.5,0.8,0.9,1.1c0.4,0.3,0.8,0.4,1.2,0.4c0.6,0,1.2-0.3,1.6-0.8c0.5-0.5,0.7-1.2,0.7-2.1
		c0-0.8-0.2-1.5-0.7-2c-0.4-0.5-1-0.7-1.7-0.7c-0.7,0-1.3,0.2-1.7,0.7C-2.1,11.6-2.4,12.3-2.4,13.1z M5.2,11c0-1.4,0.1-2.6,0.4-3.5
		C6,6.6,6.4,6,7,5.5C7.6,5,8.3,4.8,9.2,4.8c0.7,0,1.2,0.1,1.7,0.4c0.5,0.3,0.9,0.6,1.2,1.1s0.6,1.1,0.8,1.8c0.2,0.7,0.3,1.7,0.3,2.9
		c0,1.4-0.1,2.6-0.4,3.5c-0.3,0.9-0.7,1.6-1.3,2c-0.6,0.5-1.3,0.7-2.2,0.7c-1.2,0-2.1-0.4-2.8-1.2C5.6,14.9,5.2,13.3,5.2,11z
		 M6.8,11c0,2,0.2,3.3,0.7,4s1,1,1.7,1c0.7,0,1.3-0.3,1.7-1c0.5-0.7,0.7-2,0.7-4c0-2-0.2-3.3-0.7-4c-0.5-0.7-1.1-1-1.8-1
		C8.5,6,7.9,6.3,7.5,6.9C7,7.6,6.8,9,6.8,11z"/>
</g>
<g transform="translate(579.7,473.6667)">
	<path class="st1" d="M-7.7,17h-1.5V7.5c-0.4,0.3-0.8,0.7-1.4,1s-1.1,0.6-1.6,0.8V7.8c0.8-0.4,1.6-0.9,2.2-1.4
		c0.6-0.6,1.1-1.1,1.3-1.6h1V17z M-1.7,10.4c-0.6-0.2-1.1-0.6-1.4-1C-3.4,9-3.6,8.5-3.6,7.9c0-0.9,0.3-1.6,1-2.2
		C-2,5.1-1.1,4.8-0.1,4.8c1.1,0,1.9,0.3,2.6,0.9c0.6,0.6,1,1.4,1,2.2C3.5,8.5,3.3,9,3,9.4s-0.7,0.7-1.3,1C2.4,10.6,3,11,3.4,11.6
		C3.8,12.1,4,12.8,4,13.5c0,1-0.4,1.9-1.1,2.6c-0.7,0.7-1.7,1.1-2.9,1.1c-1.2,0-2.2-0.4-2.9-1.1C-3.7,15.4-4,14.5-4,13.5
		c0-0.8,0.2-1.5,0.6-2C-3,11-2.5,10.6-1.7,10.4z M-2,7.9c0,0.6,0.2,1,0.6,1.4C-1.1,9.6-0.6,9.8,0,9.8c0.6,0,1-0.2,1.4-0.5
		C1.8,8.9,1.9,8.5,1.9,8c0-0.6-0.2-1-0.6-1.4C1,6.2,0.5,6,0,6c-0.6,0-1,0.2-1.4,0.5S-2,7.4-2,7.9z M-2.5,13.5c0,0.4,0.1,0.8,0.3,1.2
		c0.2,0.4,0.5,0.7,0.9,0.9C-0.9,15.9-0.5,16,0,16c0.7,0,1.3-0.2,1.8-0.7s0.7-1,0.7-1.8c0-0.7-0.2-1.3-0.7-1.8
		C1.3,11.3,0.7,11-0.1,11c-0.7,0-1.3,0.2-1.8,0.7S-2.5,12.8-2.5,13.5z M5.2,11c0-1.4,0.1-2.6,0.4-3.5C6,6.6,6.4,6,7,5.5
		C7.6,5,8.3,4.8,9.2,4.8c0.7,0,1.2,0.1,1.7,0.4c0.5,0.3,0.9,0.6,1.2,1.1s0.6,1.1,0.8,1.8c0.2,0.7,0.3,1.7,0.3,2.9
		c0,1.4-0.1,2.6-0.4,3.5c-0.3,0.9-0.7,1.6-1.3,2c-0.6,0.5-1.3,0.7-2.2,0.7c-1.2,0-2.1-0.4-2.8-1.2C5.6,14.9,5.2,13.3,5.2,11z
		 M6.8,11c0,2,0.2,3.3,0.7,4s1,1,1.7,1c0.7,0,1.3-0.3,1.7-1c0.5-0.7,0.7-2,0.7-4c0-2-0.2-3.3-0.7-4c-0.5-0.7-1.1-1-1.8-1
		C8.5,6,7.9,6.3,7.5,6.9C7,7.6,6.8,9,6.8,11z"/>
</g>
<g transform="translate(634,473.6667)">
	<path class="st1" d="M-5.4,15.6V17h-8c0-0.4,0-0.7,0.2-1c0.2-0.6,0.5-1.1,1-1.6c0.4-0.5,1.1-1.1,2-1.8c1.3-1.1,2.2-1.9,2.7-2.6
		C-7.2,9.3-7,8.7-7,8.1C-7,7.5-7.2,7-7.6,6.6C-8.1,6.2-8.6,6-9.3,6C-10,6-10.6,6.2-11,6.7c-0.4,0.4-0.7,1-0.7,1.8l-1.5-0.2
		c0.1-1.1,0.5-2,1.2-2.6c0.7-0.6,1.6-0.9,2.8-0.9c1.2,0,2.1,0.3,2.8,1c0.7,0.6,1,1.4,1,2.4c0,0.5-0.1,1-0.3,1.4
		c-0.2,0.5-0.5,1-1,1.5C-7.2,11.6-8,12.3-9,13.2c-0.9,0.8-1.5,1.3-1.7,1.5c-0.3,0.3-0.5,0.5-0.6,0.8H-5.4z M-4,11
		c0-1.4,0.1-2.6,0.4-3.5c0.3-0.9,0.7-1.6,1.3-2C-1.7,5-1,4.8-0.1,4.8c0.7,0,1.2,0.1,1.7,0.4c0.5,0.3,0.9,0.6,1.2,1.1
		s0.6,1.1,0.8,1.8S3.9,9.8,3.9,11c0,1.4-0.1,2.6-0.4,3.5c-0.3,0.9-0.7,1.6-1.3,2c-0.6,0.5-1.3,0.7-2.2,0.7c-1.2,0-2.1-0.4-2.8-1.2
		C-3.6,14.9-4,13.3-4,11z M-2.5,11c0,2,0.2,3.3,0.7,4s1,1,1.7,1c0.7,0,1.3-0.3,1.7-1c0.5-0.7,0.7-2,0.7-4c0-2-0.2-3.3-0.7-4
		C1.2,6.3,0.6,6-0.1,6c-0.7,0-1.2,0.3-1.6,0.9C-2.2,7.6-2.5,9-2.5,11z M5.2,11c0-1.4,0.1-2.6,0.4-3.5C6,6.6,6.4,6,7,5.5
		C7.6,5,8.3,4.8,9.2,4.8c0.7,0,1.2,0.1,1.7,0.4c0.5,0.3,0.9,0.6,1.2,1.1s0.6,1.1,0.8,1.8c0.2,0.7,0.3,1.7,0.3,2.9
		c0,1.4-0.1,2.6-0.4,3.5c-0.3,0.9-0.7,1.6-1.3,2c-0.6,0.5-1.3,0.7-2.2,0.7c-1.2,0-2.1-0.4-2.8-1.2C5.6,14.9,5.2,13.3,5.2,11z
		 M6.8,11c0,2,0.2,3.3,0.7,4s1,1,1.7,1c0.7,0,1.3-0.3,1.7-1c0.5-0.7,0.7-2,0.7-4c0-2-0.2-3.3-0.7-4c-0.5-0.7-1.1-1-1.8-1
		C8.5,6,7.9,6.3,7.5,6.9C7,7.6,6.8,9,6.8,11z"/>
</g>
<g>
	<line class="st0" x1="91" y1="39" x2="91" y2="467"/>
	<line class="st0" x1="634" y1="39" x2="634" y2="467"/>
	<line class="st0" x1="91" y1="39" x2="96.4" y2="39"/>
	<line class="st0" x1="91" y1="110.3" x2="96.4" y2="110.3"/>
	<line class="st0" x1="91" y1="181.7" x2="96.4" y2="181.7"/>
	<line class="st0" x1="91" y1="253" x2="96.4" y2="253"/>
	<line class="st0" x1="91" y1="324.3" x2="96.4" y2="324.3"/>
	<line class="st0" x1="91" y1="395.7" x2="96.4" y2="395.7"/>
	<line class="st0" x1="91" y1="467" x2="96.4" y2="467"/>
	<line class="st0" x1="634" y1="39" x2="628.6" y2="39"/>
	<line class="st0" x1="634" y1="110.3" x2="628.6" y2="110.3"/>
	<line class="st0" x1="634" y1="181.7" x2="628.6" y2="181.7"/>
	<line class="st0" x1="634" y1="253" x2="628.6" y2="253"/>
	<line class="st0" x1="634" y1="324.3" x2="628.6" y2="324.3"/>
	<line class="st0" x1="634" y1="395.7" x2="628.6" y2="395.7"/>
	<line class="st0" x1="634" y1="467" x2="628.6" y2="467"/>
</g>
<g transform="translate(84.3333,39)">
	<path class="st1" d="M-16.8,427.1l1.5-0.2c0.2,0.8,0.5,1.5,0.9,1.8c0.4,0.4,0.9,0.6,1.5,0.6c0.7,0,1.3-0.2,1.8-0.7
		c0.5-0.5,0.7-1.1,0.7-1.8c0-0.7-0.2-1.3-0.7-1.7c-0.4-0.4-1-0.7-1.7-0.7c-0.3,0-0.6,0.1-1.1,0.2l0.2-1.3c0.1,0,0.2,0,0.2,0
		c0.6,0,1.2-0.2,1.7-0.5c0.5-0.3,0.8-0.8,0.8-1.5c0-0.5-0.2-1-0.6-1.4c-0.4-0.4-0.8-0.5-1.4-0.5c-0.6,0-1.1,0.2-1.5,0.5
		c-0.4,0.4-0.6,0.9-0.8,1.6l-1.5-0.3c0.2-1,0.6-1.8,1.2-2.3c0.6-0.6,1.5-0.8,2.4-0.8c0.7,0,1.3,0.1,1.8,0.4c0.6,0.3,1,0.7,1.3,1.2
		s0.4,1,0.4,1.6c0,0.5-0.1,1-0.4,1.4c-0.3,0.4-0.7,0.8-1.2,1c0.7,0.2,1.3,0.5,1.7,1c0.4,0.5,0.6,1.2,0.6,2c0,1.1-0.4,2-1.2,2.7
		c-0.8,0.7-1.8,1.1-2.9,1.1c-1.1,0-1.9-0.3-2.7-1C-16.3,428.9-16.7,428.1-16.8,427.1z"/>
</g>
<g transform="translate(84.3333,110.3333)">
	<path class="st1" d="M-26.3,286.5l1.5-0.2c0.2,0.8,0.5,1.5,0.9,1.8c0.4,0.4,0.9,0.6,1.5,0.6c0.7,0,1.3-0.2,1.8-0.7
		c0.5-0.5,0.7-1.1,0.7-1.8c0-0.7-0.2-1.3-0.7-1.7c-0.4-0.4-1-0.7-1.7-0.7c-0.3,0-0.6,0.1-1.1,0.2l0.2-1.3c0.1,0,0.2,0,0.2,0
		c0.6,0,1.2-0.2,1.7-0.5c0.5-0.3,0.8-0.8,0.8-1.5c0-0.5-0.2-1-0.6-1.4c-0.4-0.4-0.8-0.5-1.4-0.5s-1.1,0.2-1.5,0.5
		c-0.4,0.4-0.6,0.9-0.8,1.6l-1.5-0.3c0.2-1,0.6-1.8,1.2-2.3c0.6-0.6,1.5-0.8,2.4-0.8c0.7,0,1.3,0.1,1.8,0.4c0.6,0.3,1,0.7,1.3,1.2
		c0.3,0.5,0.4,1,0.4,1.6c0,0.5-0.1,1-0.4,1.4c-0.3,0.4-0.7,0.8-1.2,1c0.7,0.2,1.3,0.5,1.7,1c0.4,0.5,0.6,1.2,0.6,2
		c0,1.1-0.4,2-1.2,2.7c-0.8,0.7-1.8,1.1-2.9,1.1c-1.1,0-1.9-0.3-2.7-1C-25.8,288.3-26.2,287.5-26.3,286.5z M-16.2,289.7V288h1.7v1.7
		H-16.2z M-12.5,286.5l1.6-0.1c0.1,0.8,0.4,1.3,0.8,1.7c0.4,0.4,0.9,0.6,1.5,0.6c0.7,0,1.3-0.3,1.8-0.8c0.5-0.5,0.8-1.3,0.8-2.2
		c0-0.8-0.2-1.5-0.7-2c-0.5-0.5-1.1-0.7-1.9-0.7c-0.5,0-0.9,0.1-1.3,0.3c-0.4,0.2-0.7,0.5-0.9,0.9l-1.4-0.2l1.2-6.2h6v1.4h-4.9
		l-0.7,3.3c0.7-0.5,1.5-0.8,2.3-0.8c1.1,0,2,0.4,2.7,1.1c0.7,0.7,1.1,1.7,1.1,2.8c0,1.1-0.3,2.1-1,2.9c-0.8,1-1.8,1.5-3.2,1.5
		c-1.1,0-2-0.3-2.7-0.9C-12,288.4-12.4,287.6-12.5,286.5z"/>
</g>
<g transform="translate(84.3333,181.6667)">
	<path class="st1" d="M-10.2,149.4v-2.9h-5.3v-1.4l5.5-7.9h1.2v7.9H-7v1.4h-1.7v2.9H-10.2z M-10.2,145.1v-5.5l-3.8,5.5H-10.2z"/>
</g>
<g transform="translate(84.3333,253)">
	<path class="st1" d="M-18.5,6.5V3.6h-5.3V2.2l5.5-7.9h1.2v7.9h1.7v1.4H-17v2.9H-18.5z M-18.5,2.2v-5.5l-3.8,5.5H-18.5z M-13.2,6.5
		V4.8h1.7v1.7H-13.2z M-9.4,3.3l1.6-0.1C-7.7,3.9-7.4,4.5-7,4.9c0.4,0.4,0.9,0.6,1.5,0.6c0.7,0,1.3-0.3,1.8-0.8s0.8-1.3,0.8-2.2
		c0-0.8-0.2-1.5-0.7-2C-4.1,0-4.7-0.2-5.5-0.2c-0.5,0-0.9,0.1-1.3,0.3c-0.4,0.2-0.7,0.5-0.9,0.9l-1.4-0.2L-8-5.5h6v1.4h-4.9
		l-0.7,3.3c0.7-0.5,1.5-0.8,2.3-0.8c1.1,0,2,0.4,2.7,1.1c0.7,0.7,1.1,1.7,1.1,2.8c0,1.1-0.3,2.1-1,2.9c-0.8,1-1.8,1.5-3.2,1.5
		c-1.1,0-2-0.3-2.7-0.9C-8.9,5.2-9.3,4.3-9.4,3.3z"/>
</g>
<g transform="translate(84.3333,324.3333)">
	<path class="st1" d="M-13.7-140l1.6-0.1c0.1,0.8,0.4,1.3,0.8,1.7c0.4,0.4,0.9,0.6,1.5,0.6c0.7,0,1.3-0.3,1.8-0.8
		c0.5-0.5,0.8-1.3,0.8-2.2c0-0.8-0.2-1.5-0.7-2c-0.5-0.5-1.1-0.7-1.9-0.7c-0.5,0-0.9,0.1-1.3,0.3c-0.4,0.2-0.7,0.5-0.9,0.9l-1.4-0.2
		l1.2-6.2h6v1.4h-4.9l-0.7,3.3c0.7-0.5,1.5-0.8,2.3-0.8c1.1,0,2,0.4,2.7,1.1c0.7,0.7,1.1,1.7,1.1,2.8c0,1.1-0.3,2.1-1,2.9
		c-0.8,1-1.8,1.5-3.2,1.5c-1.1,0-2-0.3-2.7-0.9C-13.2-138.1-13.6-138.9-13.7-140z"/>
</g>
<g transform="translate(84.3333,395.6667)">
	<path class="st1" d="M-24.2-282.6l1.6-0.1c0.1,0.8,0.4,1.3,0.8,1.7c0.4,0.4,0.9,0.6,1.5,0.6c0.7,0,1.3-0.3,1.8-0.8
		c0.5-0.5,0.8-1.3,0.8-2.2c0-0.8-0.2-1.5-0.7-2c-0.5-0.5-1.1-0.7-1.9-0.7c-0.5,0-0.9,0.1-1.3,0.3c-0.4,0.2-0.7,0.5-0.9,0.9l-1.4-0.2
		l1.2-6.2h6v1.4h-4.9l-0.7,3.3c0.7-0.5,1.5-0.8,2.3-0.8c1.1,0,2,0.4,2.7,1.1c0.7,0.7,1.1,1.7,1.1,2.8c0,1.1-0.3,2.1-1,2.9
		c-0.8,1-1.8,1.5-3.2,1.5c-1.1,0-2-0.3-2.7-0.9C-23.7-280.8-24.1-281.6-24.2-282.6z M-14.1-279.4v-1.7h1.7v1.7H-14.1z M-10.4-282.6
		l1.6-0.1c0.1,0.8,0.4,1.3,0.8,1.7c0.4,0.4,0.9,0.6,1.5,0.6c0.7,0,1.3-0.3,1.8-0.8c0.5-0.5,0.8-1.3,0.8-2.2c0-0.8-0.2-1.5-0.7-2
		c-0.5-0.5-1.1-0.7-1.9-0.7c-0.5,0-0.9,0.1-1.3,0.3c-0.4,0.2-0.7,0.5-0.9,0.9l-1.4-0.2l1.2-6.2h6v1.4h-4.9l-0.7,3.3
		c0.7-0.5,1.5-0.8,2.3-0.8c1.1,0,2,0.4,2.7,1.1c0.7,0.7,1.1,1.7,1.1,2.8c0,1.1-0.3,2.1-1,2.9c-0.8,1-1.8,1.5-3.2,1.5
		c-1.1,0-2-0.3-2.7-0.9C-9.8-280.8-10.2-281.6-10.4-282.6z"/>
</g>
<g transform="translate(84.3333,467)">
	<path class="st1" d="M-3.8-428.5l-1.5,0.1c-0.1-0.6-0.3-1-0.6-1.3c-0.4-0.4-0.9-0.6-1.5-0.6c-0.5,0-0.9,0.1-1.3,0.4
		c-0.5,0.3-0.8,0.8-1.1,1.5c-0.3,0.7-0.4,1.6-0.4,2.8c0.4-0.5,0.8-0.9,1.3-1.2c0.5-0.3,1.1-0.4,1.6-0.4c1,0,1.8,0.4,2.5,1.1
		c0.7,0.7,1,1.7,1,2.8c0,0.8-0.2,1.5-0.5,2.1c-0.3,0.7-0.8,1.2-1.4,1.5c-0.6,0.3-1.2,0.5-2,0.5c-1.2,0-2.3-0.5-3-1.4
		c-0.8-0.9-1.2-2.4-1.2-4.5c0-2.4,0.4-4.1,1.3-5.1c0.8-0.9,1.8-1.4,3.1-1.4c1,0,1.7,0.3,2.4,0.8C-4.3-430.2-4-429.4-3.8-428.5z
		 M-9.9-423.2c0,0.5,0.1,1,0.3,1.5c0.2,0.5,0.5,0.8,0.9,1.1c0.4,0.2,0.8,0.4,1.2,0.4c0.6,0,1.2-0.3,1.6-0.8c0.5-0.5,0.7-1.2,0.7-2.1
		c0-0.8-0.2-1.5-0.7-2c-0.4-0.5-1-0.7-1.7-0.7c-0.7,0-1.2,0.2-1.7,0.7C-9.7-424.6-9.9-424-9.9-423.2z"/>
</g>
<g transform="translate(91,35)">
	<path class="st1" d="M2.5-0.5c0-0.1,0-0.2,0.1-0.2l3.5-3.5L2.6-7.8C2.5-7.8,2.5-7.9,2.5-8c0-0.1,0-0.2,0.1-0.2
		c0.1-0.1,0.1-0.1,0.2-0.1c0.1,0,0.2,0,0.2,0.1l3.5,3.5l3.5-3.5c0.1-0.1,0.2-0.1,0.2-0.1c0.1,0,0.2,0,0.2,0.1
		c0.1,0.1,0.1,0.1,0.1,0.2c0,0.1,0,0.2-0.1,0.2L7.1-4.2l3.5,3.5c0.1,0.1,0.1,0.2,0.1,0.2c0,0.1,0,0.2-0.1,0.2
		c-0.1,0.1-0.1,0.1-0.2,0.1c-0.1,0-0.2,0-0.2-0.1L6.6-3.8L3.1-0.3C3-0.2,2.9-0.2,2.8-0.2c-0.1,0-0.2,0-0.2-0.1
		C2.5-0.3,2.5-0.4,2.5-0.5z"/>
</g>
<g transform="translate(104,35)">
	<path class="st1" d="M6.3,0H4.8v-9.5C4.5-9.2,4-8.8,3.4-8.5S2.3-7.9,1.8-7.7v-1.5C2.7-9.6,3.4-10,4-10.6c0.6-0.6,1.1-1.1,1.3-1.6h1
		V0z M10-6c0-1.4,0.1-2.6,0.4-3.5c0.3-0.9,0.7-1.6,1.3-2c0.6-0.5,1.3-0.7,2.2-0.7c0.7,0,1.2,0.1,1.7,0.4c0.5,0.3,0.9,0.6,1.2,1.1
		c0.3,0.5,0.6,1.1,0.8,1.8s0.3,1.7,0.3,2.9c0,1.4-0.1,2.6-0.4,3.5s-0.7,1.6-1.3,2c-0.6,0.5-1.3,0.7-2.2,0.7c-1.2,0-2.1-0.4-2.8-1.2
		C10.4-2.1,10-3.7,10-6z M11.5-6c0,2,0.2,3.3,0.7,4c0.5,0.7,1,1,1.7,1c0.7,0,1.3-0.3,1.7-1c0.5-0.7,0.7-2,0.7-4c0-2-0.2-3.3-0.7-4
		c-0.5-0.7-1.1-1-1.8-1c-0.7,0-1.2,0.3-1.6,0.9C11.8-9.4,11.5-8,11.5-6z"/>
</g>
<g transform="translate(123,27)">
	<path class="st1" d="M0.7-2.2l1.1-0.1c0.1,0.5,0.3,0.9,0.5,1.1c0.3,0.2,0.6,0.4,1,0.4C3.7-0.8,4-0.9,4.3-1c0.3-0.2,0.5-0.4,0.7-0.6
		c0.2-0.3,0.3-0.6,0.4-1.1c0.1-0.5,0.2-0.9,0.2-1.4c0-0.1,0-0.1,0-0.2C5.3-4,5-3.7,4.6-3.5C4.2-3.3,3.8-3.2,3.3-3.2
		c-0.8,0-1.4-0.3-2-0.8C0.8-4.5,0.5-5.3,0.5-6.2c0-0.9,0.3-1.7,0.8-2.3s1.2-0.9,2.1-0.9c0.6,0,1.2,0.2,1.7,0.5
		C5.6-8.5,6-8.1,6.3-7.5C6.5-6.9,6.7-6,6.7-4.8c0,1.2-0.1,2.1-0.4,2.8C6-1.3,5.6-0.8,5.1-0.4C4.6,0,4,0.2,3.3,0.2
		C2.6,0.2,2,0,1.5-0.4C1.1-0.8,0.8-1.4,0.7-2.2z M5.4-6.3c0-0.7-0.2-1.2-0.5-1.6C4.5-8.2,4.1-8.4,3.6-8.4c-0.5,0-1,0.2-1.3,0.6
		c-0.4,0.4-0.6,1-0.6,1.6c0,0.6,0.2,1.1,0.5,1.4C2.6-4.4,3-4.2,3.6-4.2s1-0.2,1.3-0.6C5.2-5.1,5.4-5.6,5.4-6.3z"/>
</g>
<g>
	<path class="st2" d="M93.7,407.3h2.7l2.7-85.8h2.7h2.7h2.7l2.7-35.4l2.7-45.7h2.7h2.7h2.7h2.7h2.7h2.7l2.7-12.3h2.7h2.7l2.7-25.8
		h2.7h2.7h2.7h2.7l2.7-1.4h2.7h2.7h2.7h2.7h2.7l2.7-1.3l2.7-48.6h2.7h2.7h2.7h2.7h2.7h2.7h2.7h2.7l2.7-2.7h2.7h2.7h2.7h2.7h2.7h2.7
		h2.7h2.7h2.7h2.7h2.7l2.7-5.9l2.7-27.9h2.7h2.7h2.7h2.7h2.7h2.7h2.7h2.7h2.7h2.7h2.7l2.7-16.7h2.7h2.7h2.7h2.7h2.7l2.7,0h2.7h2.7
		h2.7h2.7h2.7h2.7h2.7h2.7h2.7h2.7h2.7h2.7h2.7h2.7h2.7h2.7h2.7h2.7h2.7h2.7h2.7h2.7h2.7h2.7h2.7h2.7h2.7h2.7h2.7h2.7h2.7h2.7h2.7
		h2.7h2.7h2.7h2.7h2.7h2.7h2.7h2.7h2.7h2.7h2.7h2.7h2.7h2.7h2.7h2.7h2.7h2.7h2.7h2.7h2.7h2.7h2.7h2.7h2.7h2.7h2.7h2.7h2.7h2.7h2.7
		h2.7h2.7h2.7h2.7h2.7h2.7h2.7h2.7h2.7h2.7h2.7h2.7h2.7h2.7h2.7h2.7h2.7h2.7h2.7h2.7h2.7h2.7h2.7h2.7h2.7h2.7h2.7h2.7h2.7h2.7h2.7
		h2.7h2.7h2.7h2.7h2.7h2.7h2.7h2.7h2.7h2.7h2.7h2.7h2.7h2.7h2.7h2.7h2.7h2.7h2.7h2.7h2.7h2.7h2.7h2.7h2.7h2.7h2.7h2.7h2.7h2.7h2.7
		h2.7h2.7h2.7h2.7"/>
</g>
<text transform="matrix(1 0 0 1 335.5319 509.9573)" class="st3 st4">迭代次数</text>
<text transform="matrix(1 0 0 1 41.1068 231.8286)" class="st3 st5">最优值</text>
<text transform="matrix(1 0 0 1 332.3616 25.043)" class="st3 st4">优化过程</text>
</svg>
