<?xml version="1.0" encoding="utf-8" standalone="no"?>
<!DOCTYPE svg PUBLIC "-//W3C//DTD SVG 1.1//EN"
  "http://www.w3.org/Graphics/SVG/1.1/DTD/svg11.dtd">
<svg xmlns:xlink="http://www.w3.org/1999/xlink" width="618.683125pt" height="374.5pt" viewBox="0 0 618.683125 374.5" xmlns="http://www.w3.org/2000/svg" version="1.1">
 <metadata>
  <rdf:RDF xmlns:dc="http://purl.org/dc/elements/1.1/" xmlns:cc="http://creativecommons.org/ns#" xmlns:rdf="http://www.w3.org/1999/02/22-rdf-syntax-ns#">
   <cc:Work>
    <dc:type rdf:resource="http://purl.org/dc/dcmitype/StillImage"/>
    <dc:date>2023-05-28T09:28:30.839736</dc:date>
    <dc:format>image/svg+xml</dc:format>
    <dc:creator>
     <cc:Agent>
      <dc:title>Matplotlib v3.7.1, https://matplotlib.org/</dc:title>
     </cc:Agent>
    </dc:creator>
   </cc:Work>
  </rdf:RDF>
 </metadata>
 <defs>
  <style type="text/css">*{stroke-linejoin: round; stroke-linecap: butt}</style>
 </defs>
 <g id="figure_1">
  <g id="patch_1">
   <path d="M -0 374.5 
L 618.683125 374.5 
L 618.683125 0 
L -0 0 
L -0 374.5 
z
" style="fill: none"/>
  </g>
  <g id="axes_1">
   <g id="patch_2">
    <path d="M 44.576875 342.879375 
L 602.576875 342.879375 
L 602.576875 10.239375 
L 44.576875 10.239375 
L 44.576875 342.879375 
z
" style="fill: none"/>
   </g>
   <g id="matplotlib.axis_1">
    <g id="xtick_1">
     <g id="line2d_1">
      <path d="M 44.576875 342.879375 
L 44.576875 10.239375 
" clip-path="url(#p05981cd9ea)" style="fill: none; stroke: #b0b0b0; stroke-width: 0.8; stroke-linecap: square"/>
     </g>
     <g id="line2d_2"/>
     <g id="text_1">
      <!-- 0.00 -->
      <g style="fill: #808080" transform="translate(35.670625 351.958125) scale(0.08 -0.08)">
       <defs>
        <path id="DejaVuSans-30" d="M 2034 4250 
Q 1547 4250 1301 3770 
Q 1056 3291 1056 2328 
Q 1056 1369 1301 889 
Q 1547 409 2034 409 
Q 2525 409 2770 889 
Q 3016 1369 3016 2328 
Q 3016 3291 2770 3770 
Q 2525 4250 2034 4250 
z
M 2034 4750 
Q 2819 4750 3233 4129 
Q 3647 3509 3647 2328 
Q 3647 1150 3233 529 
Q 2819 -91 2034 -91 
Q 1250 -91 836 529 
Q 422 1150 422 2328 
Q 422 3509 836 4129 
Q 1250 4750 2034 4750 
z
" transform="scale(0.015625)"/>
        <path id="DejaVuSans-2e" d="M 684 794 
L 1344 794 
L 1344 0 
L 684 0 
L 684 794 
z
" transform="scale(0.015625)"/>
       </defs>
       <use xlink:href="#DejaVuSans-30"/>
       <use xlink:href="#DejaVuSans-2e" x="63.623047"/>
       <use xlink:href="#DejaVuSans-30" x="95.410156"/>
       <use xlink:href="#DejaVuSans-30" x="159.033203"/>
      </g>
     </g>
    </g>
    <g id="xtick_2">
     <g id="line2d_3">
      <path d="M 137.576875 342.879375 
L 137.576875 10.239375 
" clip-path="url(#p05981cd9ea)" style="fill: none; stroke: #b0b0b0; stroke-width: 0.8; stroke-linecap: square"/>
     </g>
     <g id="line2d_4"/>
     <g id="text_2">
      <!-- 0.01 -->
      <g style="fill: #808080" transform="translate(128.670625 351.958125) scale(0.08 -0.08)">
       <defs>
        <path id="DejaVuSans-31" d="M 794 531 
L 1825 531 
L 1825 4091 
L 703 3866 
L 703 4441 
L 1819 4666 
L 2450 4666 
L 2450 531 
L 3481 531 
L 3481 0 
L 794 0 
L 794 531 
z
" transform="scale(0.015625)"/>
       </defs>
       <use xlink:href="#DejaVuSans-30"/>
       <use xlink:href="#DejaVuSans-2e" x="63.623047"/>
       <use xlink:href="#DejaVuSans-30" x="95.410156"/>
       <use xlink:href="#DejaVuSans-31" x="159.033203"/>
      </g>
     </g>
    </g>
    <g id="xtick_3">
     <g id="line2d_5">
      <path d="M 230.576875 342.879375 
L 230.576875 10.239375 
" clip-path="url(#p05981cd9ea)" style="fill: none; stroke: #b0b0b0; stroke-width: 0.8; stroke-linecap: square"/>
     </g>
     <g id="line2d_6"/>
     <g id="text_3">
      <!-- 0.02 -->
      <g style="fill: #808080" transform="translate(221.670625 351.958125) scale(0.08 -0.08)">
       <defs>
        <path id="DejaVuSans-32" d="M 1228 531 
L 3431 531 
L 3431 0 
L 469 0 
L 469 531 
Q 828 903 1448 1529 
Q 2069 2156 2228 2338 
Q 2531 2678 2651 2914 
Q 2772 3150 2772 3378 
Q 2772 3750 2511 3984 
Q 2250 4219 1831 4219 
Q 1534 4219 1204 4116 
Q 875 4013 500 3803 
L 500 4441 
Q 881 4594 1212 4672 
Q 1544 4750 1819 4750 
Q 2544 4750 2975 4387 
Q 3406 4025 3406 3419 
Q 3406 3131 3298 2873 
Q 3191 2616 2906 2266 
Q 2828 2175 2409 1742 
Q 1991 1309 1228 531 
z
" transform="scale(0.015625)"/>
       </defs>
       <use xlink:href="#DejaVuSans-30"/>
       <use xlink:href="#DejaVuSans-2e" x="63.623047"/>
       <use xlink:href="#DejaVuSans-30" x="95.410156"/>
       <use xlink:href="#DejaVuSans-32" x="159.033203"/>
      </g>
     </g>
    </g>
    <g id="xtick_4">
     <g id="line2d_7">
      <path d="M 323.576875 342.879375 
L 323.576875 10.239375 
" clip-path="url(#p05981cd9ea)" style="fill: none; stroke: #b0b0b0; stroke-width: 0.8; stroke-linecap: square"/>
     </g>
     <g id="line2d_8"/>
     <g id="text_4">
      <!-- 0.03 -->
      <g style="fill: #808080" transform="translate(314.670625 351.958125) scale(0.08 -0.08)">
       <defs>
        <path id="DejaVuSans-33" d="M 2597 2516 
Q 3050 2419 3304 2112 
Q 3559 1806 3559 1356 
Q 3559 666 3084 287 
Q 2609 -91 1734 -91 
Q 1441 -91 1130 -33 
Q 819 25 488 141 
L 488 750 
Q 750 597 1062 519 
Q 1375 441 1716 441 
Q 2309 441 2620 675 
Q 2931 909 2931 1356 
Q 2931 1769 2642 2001 
Q 2353 2234 1838 2234 
L 1294 2234 
L 1294 2753 
L 1863 2753 
Q 2328 2753 2575 2939 
Q 2822 3125 2822 3475 
Q 2822 3834 2567 4026 
Q 2313 4219 1838 4219 
Q 1578 4219 1281 4162 
Q 984 4106 628 3988 
L 628 4550 
Q 988 4650 1302 4700 
Q 1616 4750 1894 4750 
Q 2613 4750 3031 4423 
Q 3450 4097 3450 3541 
Q 3450 3153 3228 2886 
Q 3006 2619 2597 2516 
z
" transform="scale(0.015625)"/>
       </defs>
       <use xlink:href="#DejaVuSans-30"/>
       <use xlink:href="#DejaVuSans-2e" x="63.623047"/>
       <use xlink:href="#DejaVuSans-30" x="95.410156"/>
       <use xlink:href="#DejaVuSans-33" x="159.033203"/>
      </g>
     </g>
    </g>
    <g id="xtick_5">
     <g id="line2d_9">
      <path d="M 416.576875 342.879375 
L 416.576875 10.239375 
" clip-path="url(#p05981cd9ea)" style="fill: none; stroke: #b0b0b0; stroke-width: 0.8; stroke-linecap: square"/>
     </g>
     <g id="line2d_10"/>
     <g id="text_5">
      <!-- 0.04 -->
      <g style="fill: #808080" transform="translate(407.670625 351.958125) scale(0.08 -0.08)">
       <defs>
        <path id="DejaVuSans-34" d="M 2419 4116 
L 825 1625 
L 2419 1625 
L 2419 4116 
z
M 2253 4666 
L 3047 4666 
L 3047 1625 
L 3713 1625 
L 3713 1100 
L 3047 1100 
L 3047 0 
L 2419 0 
L 2419 1100 
L 313 1100 
L 313 1709 
L 2253 4666 
z
" transform="scale(0.015625)"/>
       </defs>
       <use xlink:href="#DejaVuSans-30"/>
       <use xlink:href="#DejaVuSans-2e" x="63.623047"/>
       <use xlink:href="#DejaVuSans-30" x="95.410156"/>
       <use xlink:href="#DejaVuSans-34" x="159.033203"/>
      </g>
     </g>
    </g>
    <g id="xtick_6">
     <g id="line2d_11">
      <path d="M 509.576875 342.879375 
L 509.576875 10.239375 
" clip-path="url(#p05981cd9ea)" style="fill: none; stroke: #b0b0b0; stroke-width: 0.8; stroke-linecap: square"/>
     </g>
     <g id="line2d_12"/>
     <g id="text_6">
      <!-- 0.05 -->
      <g style="fill: #808080" transform="translate(500.670625 351.958125) scale(0.08 -0.08)">
       <defs>
        <path id="DejaVuSans-35" d="M 691 4666 
L 3169 4666 
L 3169 4134 
L 1269 4134 
L 1269 2991 
Q 1406 3038 1543 3061 
Q 1681 3084 1819 3084 
Q 2600 3084 3056 2656 
Q 3513 2228 3513 1497 
Q 3513 744 3044 326 
Q 2575 -91 1722 -91 
Q 1428 -91 1123 -41 
Q 819 9 494 109 
L 494 744 
Q 775 591 1075 516 
Q 1375 441 1709 441 
Q 2250 441 2565 725 
Q 2881 1009 2881 1497 
Q 2881 1984 2565 2268 
Q 2250 2553 1709 2553 
Q 1456 2553 1204 2497 
Q 953 2441 691 2322 
L 691 4666 
z
" transform="scale(0.015625)"/>
       </defs>
       <use xlink:href="#DejaVuSans-30"/>
       <use xlink:href="#DejaVuSans-2e" x="63.623047"/>
       <use xlink:href="#DejaVuSans-30" x="95.410156"/>
       <use xlink:href="#DejaVuSans-35" x="159.033203"/>
      </g>
     </g>
    </g>
    <g id="xtick_7">
     <g id="line2d_13">
      <path d="M 602.576875 342.879375 
L 602.576875 10.239375 
" clip-path="url(#p05981cd9ea)" style="fill: none; stroke: #b0b0b0; stroke-width: 0.8; stroke-linecap: square"/>
     </g>
     <g id="line2d_14"/>
     <g id="text_7">
      <!-- 0.06 -->
      <g style="fill: #808080" transform="translate(593.670625 351.958125) scale(0.08 -0.08)">
       <defs>
        <path id="DejaVuSans-36" d="M 2113 2584 
Q 1688 2584 1439 2293 
Q 1191 2003 1191 1497 
Q 1191 994 1439 701 
Q 1688 409 2113 409 
Q 2538 409 2786 701 
Q 3034 994 3034 1497 
Q 3034 2003 2786 2293 
Q 2538 2584 2113 2584 
z
M 3366 4563 
L 3366 3988 
Q 3128 4100 2886 4159 
Q 2644 4219 2406 4219 
Q 1781 4219 1451 3797 
Q 1122 3375 1075 2522 
Q 1259 2794 1537 2939 
Q 1816 3084 2150 3084 
Q 2853 3084 3261 2657 
Q 3669 2231 3669 1497 
Q 3669 778 3244 343 
Q 2819 -91 2113 -91 
Q 1303 -91 875 529 
Q 447 1150 447 2328 
Q 447 3434 972 4092 
Q 1497 4750 2381 4750 
Q 2619 4750 2861 4703 
Q 3103 4656 3366 4563 
z
" transform="scale(0.015625)"/>
       </defs>
       <use xlink:href="#DejaVuSans-30"/>
       <use xlink:href="#DejaVuSans-2e" x="63.623047"/>
       <use xlink:href="#DejaVuSans-30" x="95.410156"/>
       <use xlink:href="#DejaVuSans-36" x="159.033203"/>
      </g>
     </g>
    </g>
    <g id="text_8">
     <!-- std -->
     <g transform="translate(315.837812 365.220312) scale(0.1 -0.1)">
      <defs>
       <path id="DejaVuSans-73" d="M 2834 3397 
L 2834 2853 
Q 2591 2978 2328 3040 
Q 2066 3103 1784 3103 
Q 1356 3103 1142 2972 
Q 928 2841 928 2578 
Q 928 2378 1081 2264 
Q 1234 2150 1697 2047 
L 1894 2003 
Q 2506 1872 2764 1633 
Q 3022 1394 3022 966 
Q 3022 478 2636 193 
Q 2250 -91 1575 -91 
Q 1294 -91 989 -36 
Q 684 19 347 128 
L 347 722 
Q 666 556 975 473 
Q 1284 391 1588 391 
Q 1994 391 2212 530 
Q 2431 669 2431 922 
Q 2431 1156 2273 1281 
Q 2116 1406 1581 1522 
L 1381 1569 
Q 847 1681 609 1914 
Q 372 2147 372 2553 
Q 372 3047 722 3315 
Q 1072 3584 1716 3584 
Q 2034 3584 2315 3537 
Q 2597 3491 2834 3397 
z
" transform="scale(0.015625)"/>
       <path id="DejaVuSans-74" d="M 1172 4494 
L 1172 3500 
L 2356 3500 
L 2356 3053 
L 1172 3053 
L 1172 1153 
Q 1172 725 1289 603 
Q 1406 481 1766 481 
L 2356 481 
L 2356 0 
L 1766 0 
Q 1100 0 847 248 
Q 594 497 594 1153 
L 594 3053 
L 172 3053 
L 172 3500 
L 594 3500 
L 594 4494 
L 1172 4494 
z
" transform="scale(0.015625)"/>
       <path id="DejaVuSans-64" d="M 2906 2969 
L 2906 4863 
L 3481 4863 
L 3481 0 
L 2906 0 
L 2906 525 
Q 2725 213 2448 61 
Q 2172 -91 1784 -91 
Q 1150 -91 751 415 
Q 353 922 353 1747 
Q 353 2572 751 3078 
Q 1150 3584 1784 3584 
Q 2172 3584 2448 3432 
Q 2725 3281 2906 2969 
z
M 947 1747 
Q 947 1113 1208 752 
Q 1469 391 1925 391 
Q 2381 391 2643 752 
Q 2906 1113 2906 1747 
Q 2906 2381 2643 2742 
Q 2381 3103 1925 3103 
Q 1469 3103 1208 2742 
Q 947 2381 947 1747 
z
" transform="scale(0.015625)"/>
      </defs>
      <use xlink:href="#DejaVuSans-73"/>
      <use xlink:href="#DejaVuSans-74" x="52.099609"/>
      <use xlink:href="#DejaVuSans-64" x="91.308594"/>
     </g>
    </g>
   </g>
   <g id="matplotlib.axis_2">
    <g id="ytick_1">
     <g id="line2d_15">
      <path d="M 44.576875 342.879375 
L 602.576875 342.879375 
" clip-path="url(#p05981cd9ea)" style="fill: none; stroke: #b0b0b0; stroke-width: 0.8; stroke-linecap: square"/>
     </g>
     <g id="line2d_16"/>
     <g id="text_9">
      <!-- -0.12 -->
      <g style="fill: #808080" transform="translate(20.878125 345.91875) scale(0.08 -0.08)">
       <defs>
        <path id="DejaVuSans-2d" d="M 313 2009 
L 1997 2009 
L 1997 1497 
L 313 1497 
L 313 2009 
z
" transform="scale(0.015625)"/>
       </defs>
       <use xlink:href="#DejaVuSans-2d"/>
       <use xlink:href="#DejaVuSans-30" x="36.083984"/>
       <use xlink:href="#DejaVuSans-2e" x="99.707031"/>
       <use xlink:href="#DejaVuSans-31" x="131.494141"/>
       <use xlink:href="#DejaVuSans-32" x="195.117188"/>
      </g>
     </g>
    </g>
    <g id="ytick_2">
     <g id="line2d_17">
      <path d="M 44.576875 301.299375 
L 602.576875 301.299375 
" clip-path="url(#p05981cd9ea)" style="fill: none; stroke: #b0b0b0; stroke-width: 0.8; stroke-linecap: square"/>
     </g>
     <g id="line2d_18"/>
     <g id="text_10">
      <!-- -0.10 -->
      <g style="fill: #808080" transform="translate(20.878125 304.33875) scale(0.08 -0.08)">
       <use xlink:href="#DejaVuSans-2d"/>
       <use xlink:href="#DejaVuSans-30" x="36.083984"/>
       <use xlink:href="#DejaVuSans-2e" x="99.707031"/>
       <use xlink:href="#DejaVuSans-31" x="131.494141"/>
       <use xlink:href="#DejaVuSans-30" x="195.117188"/>
      </g>
     </g>
    </g>
    <g id="ytick_3">
     <g id="line2d_19">
      <path d="M 44.576875 259.719375 
L 602.576875 259.719375 
" clip-path="url(#p05981cd9ea)" style="fill: none; stroke: #b0b0b0; stroke-width: 0.8; stroke-linecap: square"/>
     </g>
     <g id="line2d_20"/>
     <g id="text_11">
      <!-- -0.08 -->
      <g style="fill: #808080" transform="translate(20.878125 262.75875) scale(0.08 -0.08)">
       <defs>
        <path id="DejaVuSans-38" d="M 2034 2216 
Q 1584 2216 1326 1975 
Q 1069 1734 1069 1313 
Q 1069 891 1326 650 
Q 1584 409 2034 409 
Q 2484 409 2743 651 
Q 3003 894 3003 1313 
Q 3003 1734 2745 1975 
Q 2488 2216 2034 2216 
z
M 1403 2484 
Q 997 2584 770 2862 
Q 544 3141 544 3541 
Q 544 4100 942 4425 
Q 1341 4750 2034 4750 
Q 2731 4750 3128 4425 
Q 3525 4100 3525 3541 
Q 3525 3141 3298 2862 
Q 3072 2584 2669 2484 
Q 3125 2378 3379 2068 
Q 3634 1759 3634 1313 
Q 3634 634 3220 271 
Q 2806 -91 2034 -91 
Q 1263 -91 848 271 
Q 434 634 434 1313 
Q 434 1759 690 2068 
Q 947 2378 1403 2484 
z
M 1172 3481 
Q 1172 3119 1398 2916 
Q 1625 2713 2034 2713 
Q 2441 2713 2670 2916 
Q 2900 3119 2900 3481 
Q 2900 3844 2670 4047 
Q 2441 4250 2034 4250 
Q 1625 4250 1398 4047 
Q 1172 3844 1172 3481 
z
" transform="scale(0.015625)"/>
       </defs>
       <use xlink:href="#DejaVuSans-2d"/>
       <use xlink:href="#DejaVuSans-30" x="36.083984"/>
       <use xlink:href="#DejaVuSans-2e" x="99.707031"/>
       <use xlink:href="#DejaVuSans-30" x="131.494141"/>
       <use xlink:href="#DejaVuSans-38" x="195.117188"/>
      </g>
     </g>
    </g>
    <g id="ytick_4">
     <g id="line2d_21">
      <path d="M 44.576875 218.139375 
L 602.576875 218.139375 
" clip-path="url(#p05981cd9ea)" style="fill: none; stroke: #b0b0b0; stroke-width: 0.8; stroke-linecap: square"/>
     </g>
     <g id="line2d_22"/>
     <g id="text_12">
      <!-- -0.06 -->
      <g style="fill: #808080" transform="translate(20.878125 221.17875) scale(0.08 -0.08)">
       <use xlink:href="#DejaVuSans-2d"/>
       <use xlink:href="#DejaVuSans-30" x="36.083984"/>
       <use xlink:href="#DejaVuSans-2e" x="99.707031"/>
       <use xlink:href="#DejaVuSans-30" x="131.494141"/>
       <use xlink:href="#DejaVuSans-36" x="195.117188"/>
      </g>
     </g>
    </g>
    <g id="ytick_5">
     <g id="line2d_23">
      <path d="M 44.576875 176.559375 
L 602.576875 176.559375 
" clip-path="url(#p05981cd9ea)" style="fill: none; stroke: #b0b0b0; stroke-width: 0.8; stroke-linecap: square"/>
     </g>
     <g id="line2d_24"/>
     <g id="text_13">
      <!-- -0.04 -->
      <g style="fill: #808080" transform="translate(20.878125 179.59875) scale(0.08 -0.08)">
       <use xlink:href="#DejaVuSans-2d"/>
       <use xlink:href="#DejaVuSans-30" x="36.083984"/>
       <use xlink:href="#DejaVuSans-2e" x="99.707031"/>
       <use xlink:href="#DejaVuSans-30" x="131.494141"/>
       <use xlink:href="#DejaVuSans-34" x="195.117188"/>
      </g>
     </g>
    </g>
    <g id="ytick_6">
     <g id="line2d_25">
      <path d="M 44.576875 134.979375 
L 602.576875 134.979375 
" clip-path="url(#p05981cd9ea)" style="fill: none; stroke: #b0b0b0; stroke-width: 0.8; stroke-linecap: square"/>
     </g>
     <g id="line2d_26"/>
     <g id="text_14">
      <!-- -0.02 -->
      <g style="fill: #808080" transform="translate(20.878125 138.01875) scale(0.08 -0.08)">
       <use xlink:href="#DejaVuSans-2d"/>
       <use xlink:href="#DejaVuSans-30" x="36.083984"/>
       <use xlink:href="#DejaVuSans-2e" x="99.707031"/>
       <use xlink:href="#DejaVuSans-30" x="131.494141"/>
       <use xlink:href="#DejaVuSans-32" x="195.117188"/>
      </g>
     </g>
    </g>
    <g id="ytick_7">
     <g id="line2d_27">
      <path d="M 44.576875 93.399375 
L 602.576875 93.399375 
" clip-path="url(#p05981cd9ea)" style="fill: none; stroke: #b0b0b0; stroke-width: 0.8; stroke-linecap: square"/>
     </g>
     <g id="line2d_28"/>
     <g id="text_15">
      <!-- 0.00 -->
      <g style="fill: #808080" transform="translate(23.764375 96.43875) scale(0.08 -0.08)">
       <use xlink:href="#DejaVuSans-30"/>
       <use xlink:href="#DejaVuSans-2e" x="63.623047"/>
       <use xlink:href="#DejaVuSans-30" x="95.410156"/>
       <use xlink:href="#DejaVuSans-30" x="159.033203"/>
      </g>
     </g>
    </g>
    <g id="ytick_8">
     <g id="line2d_29">
      <path d="M 44.576875 51.819375 
L 602.576875 51.819375 
" clip-path="url(#p05981cd9ea)" style="fill: none; stroke: #b0b0b0; stroke-width: 0.8; stroke-linecap: square"/>
     </g>
     <g id="line2d_30"/>
     <g id="text_16">
      <!-- 0.02 -->
      <g style="fill: #808080" transform="translate(23.764375 54.85875) scale(0.08 -0.08)">
       <use xlink:href="#DejaVuSans-30"/>
       <use xlink:href="#DejaVuSans-2e" x="63.623047"/>
       <use xlink:href="#DejaVuSans-30" x="95.410156"/>
       <use xlink:href="#DejaVuSans-32" x="159.033203"/>
      </g>
     </g>
    </g>
    <g id="ytick_9">
     <g id="line2d_31">
      <path d="M 44.576875 10.239375 
L 602.576875 10.239375 
" clip-path="url(#p05981cd9ea)" style="fill: none; stroke: #b0b0b0; stroke-width: 0.8; stroke-linecap: square"/>
     </g>
     <g id="line2d_32"/>
     <g id="text_17">
      <!-- 0.04 -->
      <g style="fill: #808080" transform="translate(23.764375 13.27875) scale(0.08 -0.08)">
       <use xlink:href="#DejaVuSans-30"/>
       <use xlink:href="#DejaVuSans-2e" x="63.623047"/>
       <use xlink:href="#DejaVuSans-30" x="95.410156"/>
       <use xlink:href="#DejaVuSans-34" x="159.033203"/>
      </g>
     </g>
    </g>
    <g id="text_18">
     <!-- CGO -->
     <g transform="translate(14.798438 187.860937) rotate(-90) scale(0.1 -0.1)">
      <defs>
       <path id="DejaVuSans-43" d="M 4122 4306 
L 4122 3641 
Q 3803 3938 3442 4084 
Q 3081 4231 2675 4231 
Q 1875 4231 1450 3742 
Q 1025 3253 1025 2328 
Q 1025 1406 1450 917 
Q 1875 428 2675 428 
Q 3081 428 3442 575 
Q 3803 722 4122 1019 
L 4122 359 
Q 3791 134 3420 21 
Q 3050 -91 2638 -91 
Q 1578 -91 968 557 
Q 359 1206 359 2328 
Q 359 3453 968 4101 
Q 1578 4750 2638 4750 
Q 3056 4750 3426 4639 
Q 3797 4528 4122 4306 
z
" transform="scale(0.015625)"/>
       <path id="DejaVuSans-47" d="M 3809 666 
L 3809 1919 
L 2778 1919 
L 2778 2438 
L 4434 2438 
L 4434 434 
Q 4069 175 3628 42 
Q 3188 -91 2688 -91 
Q 1594 -91 976 548 
Q 359 1188 359 2328 
Q 359 3472 976 4111 
Q 1594 4750 2688 4750 
Q 3144 4750 3555 4637 
Q 3966 4525 4313 4306 
L 4313 3634 
Q 3963 3931 3569 4081 
Q 3175 4231 2741 4231 
Q 1884 4231 1454 3753 
Q 1025 3275 1025 2328 
Q 1025 1384 1454 906 
Q 1884 428 2741 428 
Q 3075 428 3337 486 
Q 3600 544 3809 666 
z
" transform="scale(0.015625)"/>
       <path id="DejaVuSans-4f" d="M 2522 4238 
Q 1834 4238 1429 3725 
Q 1025 3213 1025 2328 
Q 1025 1447 1429 934 
Q 1834 422 2522 422 
Q 3209 422 3611 934 
Q 4013 1447 4013 2328 
Q 4013 3213 3611 3725 
Q 3209 4238 2522 4238 
z
M 2522 4750 
Q 3503 4750 4090 4092 
Q 4678 3434 4678 2328 
Q 4678 1225 4090 567 
Q 3503 -91 2522 -91 
Q 1538 -91 948 565 
Q 359 1222 359 2328 
Q 359 3434 948 4092 
Q 1538 4750 2522 4750 
z
" transform="scale(0.015625)"/>
      </defs>
      <use xlink:href="#DejaVuSans-43"/>
      <use xlink:href="#DejaVuSans-47" x="69.824219"/>
      <use xlink:href="#DejaVuSans-4f" x="147.314453"/>
     </g>
    </g>
   </g>
   <g id="PathCollection_1">
    <defs>
     <path id="m7a7404081f" d="M 0 3 
C 0.795609 3 1.55874 2.683901 2.12132 2.12132 
C 2.683901 1.55874 3 0.795609 3 0 
C 3 -0.795609 2.683901 -1.55874 2.12132 -2.12132 
C 1.55874 -2.683901 0.795609 -3 0 -3 
C -0.795609 -3 -1.55874 -2.683901 -2.12132 -2.12132 
C -2.683901 -1.55874 -3 -0.795609 -3 0 
C -3 0.795609 -2.683901 1.55874 -2.12132 2.12132 
C -1.55874 2.683901 -0.795609 3 0 3 
z
" style="stroke: #000000"/>
    </defs>
    <g clip-path="url(#p05981cd9ea)">
     <use xlink:href="#m7a7404081f" x="514.228926" y="117.910718" style="stroke: #000000"/>
     <use xlink:href="#m7a7404081f" x="605.658861" y="149.359469" style="stroke: #000000"/>
     <use xlink:href="#m7a7404081f" x="458.227257" y="151.64776" style="stroke: #000000"/>
     <use xlink:href="#m7a7404081f" x="458.079601" y="116.669436" style="stroke: #000000"/>
     <use xlink:href="#m7a7404081f" x="539.783421" y="125.563807" style="stroke: #000000"/>
     <use xlink:href="#m7a7404081f" x="523.541006" y="113.479436" style="stroke: #000000"/>
     <use xlink:href="#m7a7404081f" x="476.287289" y="129.348871" style="stroke: #000000"/>
     <use xlink:href="#m7a7404081f" x="467.057443" y="136.716155" style="stroke: #000000"/>
     <use xlink:href="#m7a7404081f" x="533.596704" y="184.641948" style="stroke: #000000"/>
     <use xlink:href="#m7a7404081f" x="460.316682" y="157.381192" style="stroke: #000000"/>
     <use xlink:href="#m7a7404081f" x="495.401526" y="140.350912" style="stroke: #000000"/>
     <use xlink:href="#m7a7404081f" x="495.111462" y="127.811629" style="stroke: #000000"/>
     <use xlink:href="#m7a7404081f" x="536.817848" y="111.69077" style="stroke: #000000"/>
     <use xlink:href="#m7a7404081f" x="576.055939" y="148.932518" style="stroke: #000000"/>
     <use xlink:href="#m7a7404081f" x="504.904853" y="156.310482" style="stroke: #000000"/>
     <use xlink:href="#m7a7404081f" x="547.785046" y="156.883234" style="stroke: #000000"/>
     <use xlink:href="#m7a7404081f" x="530.535311" y="125.461597" style="stroke: #000000"/>
     <use xlink:href="#m7a7404081f" x="490.04749" y="122.924905" style="stroke: #000000"/>
     <use xlink:href="#m7a7404081f" x="482.82862" y="157.804883" style="stroke: #000000"/>
     <use xlink:href="#m7a7404081f" x="468.47772" y="149.179362" style="stroke: #000000"/>
     <use xlink:href="#m7a7404081f" x="530.78722" y="177.863307" style="stroke: #000000"/>
     <use xlink:href="#m7a7404081f" x="505.807229" y="140.62569" style="stroke: #000000"/>
     <use xlink:href="#m7a7404081f" x="555.896685" y="167.716471" style="stroke: #000000"/>
     <use xlink:href="#m7a7404081f" x="528.108119" y="141.346747" style="stroke: #000000"/>
     <use xlink:href="#m7a7404081f" x="503.442718" y="136.637683" style="stroke: #000000"/>
     <use xlink:href="#m7a7404081f" x="491.041721" y="152.763225" style="stroke: #000000"/>
     <use xlink:href="#m7a7404081f" x="477.131241" y="149.711133" style="stroke: #000000"/>
     <use xlink:href="#m7a7404081f" x="546.510645" y="113.154117" style="stroke: #000000"/>
     <use xlink:href="#m7a7404081f" x="444.189442" y="164.839519" style="stroke: #000000"/>
     <use xlink:href="#m7a7404081f" x="511.543061" y="136.704192" style="stroke: #000000"/>
     <use xlink:href="#m7a7404081f" x="551.914139" y="142.810545" style="stroke: #000000"/>
     <use xlink:href="#m7a7404081f" x="521.622713" y="128.897408" style="stroke: #000000"/>
     <use xlink:href="#m7a7404081f" x="493.381336" y="150.477605" style="stroke: #000000"/>
     <use xlink:href="#m7a7404081f" x="566.845116" y="166.162559" style="stroke: #000000"/>
     <use xlink:href="#m7a7404081f" x="532.533059" y="119.08774" style="stroke: #000000"/>
     <use xlink:href="#m7a7404081f" x="563.794197" y="120.353662" style="stroke: #000000"/>
     <use xlink:href="#m7a7404081f" x="545.508976" y="132.723443" style="stroke: #000000"/>
     <use xlink:href="#m7a7404081f" x="450.296554" y="173.308048" style="stroke: #000000"/>
     <use xlink:href="#m7a7404081f" x="446.689123" y="145.728902" style="stroke: #000000"/>
     <use xlink:href="#m7a7404081f" x="514.282909" y="133.016885" style="stroke: #000000"/>
     <use xlink:href="#m7a7404081f" x="539.260129" y="145.996941" style="stroke: #000000"/>
     <use xlink:href="#m7a7404081f" x="473.353893" y="119.618556" style="stroke: #000000"/>
     <use xlink:href="#m7a7404081f" x="404.323918" y="124.550404" style="stroke: #000000"/>
     <use xlink:href="#m7a7404081f" x="495.633915" y="115.418017" style="stroke: #000000"/>
     <use xlink:href="#m7a7404081f" x="588.190259" y="159.326484" style="stroke: #000000"/>
     <use xlink:href="#m7a7404081f" x="505.882309" y="174.037334" style="stroke: #000000"/>
     <use xlink:href="#m7a7404081f" x="542.599085" y="149.803826" style="stroke: #000000"/>
     <use xlink:href="#m7a7404081f" x="504.289529" y="155.845599" style="stroke: #000000"/>
     <use xlink:href="#m7a7404081f" x="397.436527" y="136.401301" style="stroke: #000000"/>
     <use xlink:href="#m7a7404081f" x="453.928017" y="154.188473" style="stroke: #000000"/>
     <use xlink:href="#m7a7404081f" x="437.967914" y="144.378294" style="stroke: #000000"/>
     <use xlink:href="#m7a7404081f" x="541.512535" y="126.423098" style="stroke: #000000"/>
     <use xlink:href="#m7a7404081f" x="440.298239" y="141.476691" style="stroke: #000000"/>
     <use xlink:href="#m7a7404081f" x="460.873856" y="103.643299" style="stroke: #000000"/>
     <use xlink:href="#m7a7404081f" x="504.613819" y="165.635904" style="stroke: #000000"/>
     <use xlink:href="#m7a7404081f" x="503.519413" y="158.55276" style="stroke: #000000"/>
     <use xlink:href="#m7a7404081f" x="551.63512" y="137.012708" style="stroke: #000000"/>
     <use xlink:href="#m7a7404081f" x="539.994229" y="141.452563" style="stroke: #000000"/>
     <use xlink:href="#m7a7404081f" x="551.806414" y="112.835998" style="stroke: #000000"/>
     <use xlink:href="#m7a7404081f" x="509.055698" y="142.99289" style="stroke: #000000"/>
     <use xlink:href="#m7a7404081f" x="507.808827" y="122.466718" style="stroke: #000000"/>
     <use xlink:href="#m7a7404081f" x="489.272794" y="113.632627" style="stroke: #000000"/>
     <use xlink:href="#m7a7404081f" x="387.153755" y="139.749768" style="stroke: #000000"/>
     <use xlink:href="#m7a7404081f" x="505.891414" y="118.296737" style="stroke: #000000"/>
     <use xlink:href="#m7a7404081f" x="424.129025" y="167.855027" style="stroke: #000000"/>
     <use xlink:href="#m7a7404081f" x="510.500103" y="145.709492" style="stroke: #000000"/>
     <use xlink:href="#m7a7404081f" x="520.047917" y="147.463882" style="stroke: #000000"/>
     <use xlink:href="#m7a7404081f" x="418.008766" y="132.315485" style="stroke: #000000"/>
     <use xlink:href="#m7a7404081f" x="554.149789" y="124.213991" style="stroke: #000000"/>
     <use xlink:href="#m7a7404081f" x="549.334989" y="172.65919" style="stroke: #000000"/>
     <use xlink:href="#m7a7404081f" x="528.969955" y="145.350388" style="stroke: #000000"/>
     <use xlink:href="#m7a7404081f" x="421.144913" y="147.92504" style="stroke: #000000"/>
     <use xlink:href="#m7a7404081f" x="527.482141" y="153.040876" style="stroke: #000000"/>
     <use xlink:href="#m7a7404081f" x="563.809519" y="162.256044" style="stroke: #000000"/>
     <use xlink:href="#m7a7404081f" x="529.392354" y="116.537762" style="stroke: #000000"/>
     <use xlink:href="#m7a7404081f" x="534.405527" y="141.945235" style="stroke: #000000"/>
     <use xlink:href="#m7a7404081f" x="485.809532" y="111.254183" style="stroke: #000000"/>
     <use xlink:href="#m7a7404081f" x="491.132508" y="133.226803" style="stroke: #000000"/>
     <use xlink:href="#m7a7404081f" x="492.019927" y="150.037137" style="stroke: #000000"/>
     <use xlink:href="#m7a7404081f" x="521.6849" y="129.079189" style="stroke: #000000"/>
     <use xlink:href="#m7a7404081f" x="547.059384" y="132.387591" style="stroke: #000000"/>
     <use xlink:href="#m7a7404081f" x="501.286324" y="114.088265" style="stroke: #000000"/>
     <use xlink:href="#m7a7404081f" x="524.542586" y="121.452159" style="stroke: #000000"/>
     <use xlink:href="#m7a7404081f" x="580.231611" y="128.508932" style="stroke: #000000"/>
     <use xlink:href="#m7a7404081f" x="496.252199" y="152.633369" style="stroke: #000000"/>
     <use xlink:href="#m7a7404081f" x="428.885509" y="143.110257" style="stroke: #000000"/>
     <use xlink:href="#m7a7404081f" x="514.634098" y="142.356472" style="stroke: #000000"/>
     <use xlink:href="#m7a7404081f" x="568.847474" y="130.807543" style="stroke: #000000"/>
     <use xlink:href="#m7a7404081f" x="514.506672" y="127.62941" style="stroke: #000000"/>
     <use xlink:href="#m7a7404081f" x="511.058468" y="103.892468" style="stroke: #000000"/>
     <use xlink:href="#m7a7404081f" x="499.253784" y="153.72072" style="stroke: #000000"/>
     <use xlink:href="#m7a7404081f" x="490.880236" y="134.35528" style="stroke: #000000"/>
     <use xlink:href="#m7a7404081f" x="486.069053" y="109.042788" style="stroke: #000000"/>
     <use xlink:href="#m7a7404081f" x="500.315884" y="147.149336" style="stroke: #000000"/>
     <use xlink:href="#m7a7404081f" x="483.248459" y="105.170451" style="stroke: #000000"/>
     <use xlink:href="#m7a7404081f" x="475.166869" y="136.997448" style="stroke: #000000"/>
     <use xlink:href="#m7a7404081f" x="558.956179" y="115.842143" style="stroke: #000000"/>
     <use xlink:href="#m7a7404081f" x="486.384948" y="100.499474" style="stroke: #000000"/>
     <use xlink:href="#m7a7404081f" x="571.569609" y="119.20695" style="stroke: #000000"/>
     <use xlink:href="#m7a7404081f" x="494.32863" y="130.217871" style="stroke: #000000"/>
    </g>
   </g>
   <g id="patch_3">
    <path d="M 44.576875 342.879375 
L 44.576875 10.239375 
" style="fill: #ffffff; opacity: 0.5; stroke: #000000; stroke-width: 0.8; stroke-linejoin: miter; stroke-linecap: square"/>
   </g>
   <g id="patch_4">
    <path d="M 602.576875 342.879375 
L 602.576875 10.239375 
" style="fill: none; stroke: #000000; stroke-width: 0.8; stroke-linejoin: miter; stroke-linecap: square"/>
   </g>
   <g id="patch_5">
    <path d="M 44.576875 342.879375 
L 602.576875 342.879375 
" style="fill: #ffffff; opacity: 0.5; stroke: #000000; stroke-width: 0.8; stroke-linejoin: miter; stroke-linecap: square"/>
   </g>
   <g id="patch_6">
    <path d="M 44.576875 10.239375 
L 602.576875 10.239375 
" style="fill: none; stroke: #000000; stroke-width: 0.8; stroke-linejoin: miter; stroke-linecap: square"/>
   </g>
  </g>
 </g>
 <defs>
  <clipPath id="p05981cd9ea">
   <rect x="44.576875" y="10.239375" width="558" height="332.64"/>
  </clipPath>
 </defs>
</svg>
