<?xml version="1.0" encoding="utf-8"?>
<!-- Generator: Adobe Illustrator 26.0.2, SVG Export Plug-In . SVG Version: 6.00 Build 0)  -->
<svg version="1.1" id="图层_1" xmlns="http://www.w3.org/2000/svg" xmlns:xlink="http://www.w3.org/1999/xlink" x="0px" y="0px"
	 viewBox="0 0 1920 906" style="enable-background:new 0 0 1920 906;" xml:space="preserve">
<style type="text/css">
	.st0{fill:none;stroke:#808080;stroke-width:0.8333;stroke-linejoin:round;stroke-miterlimit:10;stroke-opacity:0.149;}
	.st1{fill:none;stroke:#262626;stroke-width:0.8333;stroke-linecap:square;stroke-linejoin:round;stroke-miterlimit:10;}
	.st2{fill:#262626;}
	.st3{fill:none;stroke:#0000FF;stroke-width:0.8333;stroke-linejoin:bevel;stroke-miterlimit:1;stroke-dasharray:8,3,2,3;}
	.st4{fill:#D95319;}
	.st5{fill:none;stroke:#EDB120;stroke-width:0.8333;stroke-linejoin:round;stroke-miterlimit:10;}
	.st6{fill:none;stroke:#7E2F8E;stroke-width:0.8333;stroke-linejoin:round;stroke-miterlimit:10;}
	.st7{fill:none;stroke:#77AC30;stroke-width:3.3333;stroke-linejoin:round;stroke-miterlimit:10;}
	.st8{fill:#77AC30;}
	.st9{fill:none;stroke:#77AC30;stroke-width:3.3333;stroke-miterlimit:10;}
	.st10{fill:#A2142F;}
	.st11{fill:none;stroke:#0072BD;stroke-width:0.8333;stroke-linejoin:round;stroke-miterlimit:10;}
	.st12{fill:none;stroke:#D95319;stroke-width:0.8333;stroke-linejoin:round;stroke-miterlimit:10;}
	.st13{fill:none;stroke:#808080;stroke-width:3.3333;stroke-linejoin:round;stroke-miterlimit:10;}
	.st14{fill:#808080;}
	.st15{fill:none;stroke:#808080;stroke-width:3.3333;stroke-miterlimit:10;}
	.st16{fill:none;stroke:#4DBEEE;stroke-width:0.8333;stroke-linejoin:round;stroke-miterlimit:10;}
	.st17{fill:none;stroke:#A2142F;stroke-width:0.8333;stroke-linejoin:round;stroke-miterlimit:10;}
	.st18{fill:none;stroke:#0072BD;stroke-width:3.3333;stroke-linejoin:round;stroke-miterlimit:10;}
	.st19{fill:#0072BD;}
	.st20{fill:none;stroke:#0072BD;stroke-width:3.3333;stroke-miterlimit:10;}
	.st21{fill:#EDB120;}
	.st22{fill:none;stroke:#FF0000;stroke-width:3.3333;stroke-linejoin:round;stroke-miterlimit:10;}
	.st23{fill:none;stroke:#EDB120;stroke-width:3.3333;stroke-linejoin:round;stroke-miterlimit:10;}
	.st24{fill:none;stroke:#EDB120;stroke-width:3.3333;stroke-miterlimit:10;}
	.st25{fill:none;stroke:#262626;stroke-width:0.8333;stroke-miterlimit:10;}
	.st26{font-family:'AdobeSongStd-Light-GBpc-EUC-H';}
	.st27{font-size:12px;}
</style>
<g>
	<line class="st0" x1="625" y1="806" x2="625" y2="68"/>
	<line class="st0" x1="698.8" y1="806" x2="698.8" y2="68"/>
	<line class="st0" x1="772.6" y1="806" x2="772.6" y2="68"/>
	<line class="st0" x1="846.4" y1="806" x2="846.4" y2="68"/>
	<line class="st0" x1="920.2" y1="806" x2="920.2" y2="68"/>
	<line class="st0" x1="994" y1="806" x2="994" y2="68"/>
	<line class="st0" x1="1067.8" y1="806" x2="1067.8" y2="68"/>
	<line class="st0" x1="1141.6" y1="806" x2="1141.6" y2="68"/>
	<line class="st0" x1="1215.4" y1="806" x2="1215.4" y2="68"/>
	<line class="st0" x1="1289.2" y1="806" x2="1289.2" y2="68"/>
	<line class="st0" x1="1363" y1="806" x2="1363" y2="68"/>
	<line class="st0" x1="1363" y1="806" x2="625" y2="806"/>
	<line class="st0" x1="1363" y1="732.2" x2="625" y2="732.2"/>
	<line class="st0" x1="1363" y1="658.4" x2="625" y2="658.4"/>
	<line class="st0" x1="1363" y1="584.6" x2="625" y2="584.6"/>
	<line class="st0" x1="1363" y1="510.8" x2="625" y2="510.8"/>
	<line class="st0" x1="1363" y1="437" x2="625" y2="437"/>
	<line class="st0" x1="1363" y1="363.2" x2="625" y2="363.2"/>
	<line class="st0" x1="1363" y1="289.4" x2="625" y2="289.4"/>
	<line class="st0" x1="1363" y1="215.6" x2="625" y2="215.6"/>
	<line class="st0" x1="1363" y1="141.8" x2="625" y2="141.8"/>
	<line class="st0" x1="1363" y1="68" x2="625" y2="68"/>
</g>
<g>
	<line class="st1" x1="625" y1="806" x2="1363" y2="806"/>
	<line class="st1" x1="625" y1="806" x2="625" y2="798.6"/>
	<line class="st1" x1="698.8" y1="806" x2="698.8" y2="798.6"/>
	<line class="st1" x1="772.6" y1="806" x2="772.6" y2="798.6"/>
	<line class="st1" x1="846.4" y1="806" x2="846.4" y2="798.6"/>
	<line class="st1" x1="920.2" y1="806" x2="920.2" y2="798.6"/>
	<line class="st1" x1="994" y1="806" x2="994" y2="798.6"/>
	<line class="st1" x1="1067.8" y1="806" x2="1067.8" y2="798.6"/>
	<line class="st1" x1="1141.6" y1="806" x2="1141.6" y2="798.6"/>
	<line class="st1" x1="1215.4" y1="806" x2="1215.4" y2="798.6"/>
	<line class="st1" x1="1289.2" y1="806" x2="1289.2" y2="798.6"/>
	<line class="st1" x1="1363" y1="806" x2="1363" y2="798.6"/>
</g>
<g transform="translate(625,812.6667)">
	<path class="st2" d="M-4.3,11c0-1.4,0.1-2.6,0.4-3.5c0.3-0.9,0.7-1.6,1.3-2C-1.9,5-1.2,4.8-0.3,4.8c0.7,0,1.2,0.1,1.7,0.4
		c0.5,0.3,0.9,0.6,1.2,1.1s0.6,1.1,0.8,1.8S3.6,9.8,3.6,11c0,1.4-0.1,2.6-0.4,3.5c-0.3,0.9-0.7,1.6-1.3,2c-0.6,0.5-1.3,0.7-2.2,0.7
		c-1.2,0-2.1-0.4-2.8-1.2C-3.9,14.9-4.3,13.3-4.3,11z M-2.8,11c0,2,0.2,3.3,0.7,4s1,1,1.7,1c0.7,0,1.3-0.3,1.7-1
		c0.5-0.7,0.7-2,0.7-4c0-2-0.2-3.3-0.7-4C0.9,6.3,0.4,6-0.3,6C-1,6-1.6,6.3-2,6.9C-2.5,7.6-2.8,9-2.8,11z"/>
</g>
<g transform="translate(698.8,812.6667)">
	<path class="st2" d="M-11.3,11c0-1.4,0.1-2.6,0.4-3.5c0.3-0.9,0.7-1.6,1.3-2C-8.9,5-8.2,4.8-7.3,4.8c0.7,0,1.2,0.1,1.7,0.4
		c0.5,0.3,0.9,0.6,1.2,1.1c0.3,0.5,0.6,1.1,0.8,1.8s0.3,1.7,0.3,2.9c0,1.4-0.1,2.6-0.4,3.5c-0.3,0.9-0.7,1.6-1.3,2
		c-0.6,0.5-1.3,0.7-2.2,0.7c-1.2,0-2.1-0.4-2.8-1.2C-10.9,14.9-11.3,13.3-11.3,11z M-9.8,11c0,2,0.2,3.3,0.7,4s1,1,1.7,1
		c0.7,0,1.3-0.3,1.7-1c0.5-0.7,0.7-2,0.7-4c0-2-0.2-3.3-0.7-4c-0.5-0.7-1.1-1-1.8-1C-8,6-8.6,6.3-9,6.9C-9.5,7.6-9.8,9-9.8,11z
		 M-1.2,17v-1.7h1.7V17H-1.2z M8.2,17H6.7V7.5c-0.4,0.3-0.8,0.7-1.4,1S4.2,9.1,3.7,9.3V7.8C4.6,7.4,5.3,7,5.9,6.4
		C6.6,5.8,7,5.3,7.3,4.8h1V17z"/>
</g>
<g transform="translate(772.6,812.6667)">
	<path class="st2" d="M-11.3,11c0-1.4,0.1-2.6,0.4-3.5c0.3-0.9,0.7-1.6,1.3-2C-8.9,5-8.2,4.8-7.3,4.8c0.7,0,1.2,0.1,1.7,0.4
		c0.5,0.3,0.9,0.6,1.2,1.1c0.3,0.5,0.6,1.1,0.8,1.8s0.3,1.7,0.3,2.9c0,1.4-0.1,2.6-0.4,3.5c-0.3,0.9-0.7,1.6-1.3,2
		c-0.6,0.5-1.3,0.7-2.2,0.7c-1.2,0-2.1-0.4-2.8-1.2C-10.9,14.9-11.3,13.3-11.3,11z M-9.8,11c0,2,0.2,3.3,0.7,4s1,1,1.7,1
		c0.7,0,1.3-0.3,1.7-1c0.5-0.7,0.7-2,0.7-4c0-2-0.2-3.3-0.7-4c-0.5-0.7-1.1-1-1.8-1C-8,6-8.6,6.3-9,6.9C-9.5,7.6-9.8,9-9.8,11z
		 M-1.2,17v-1.7h1.7V17H-1.2z M10.5,15.6V17h-8c0-0.4,0-0.7,0.2-1c0.2-0.6,0.5-1.1,1-1.6c0.4-0.5,1.1-1.1,2-1.8
		c1.3-1.1,2.2-1.9,2.7-2.6c0.5-0.6,0.7-1.2,0.7-1.8c0-0.6-0.2-1.1-0.6-1.5C7.8,6.2,7.3,6,6.6,6C5.9,6,5.3,6.2,4.9,6.7
		c-0.4,0.4-0.7,1-0.7,1.8L2.7,8.3c0.1-1.1,0.5-2,1.2-2.6c0.7-0.6,1.6-0.9,2.8-0.9c1.2,0,2.1,0.3,2.8,1s1,1.4,1,2.4
		c0,0.5-0.1,1-0.3,1.4c-0.2,0.5-0.5,1-1,1.5c-0.5,0.5-1.2,1.2-2.3,2.1c-0.9,0.8-1.5,1.3-1.7,1.5c-0.3,0.3-0.5,0.5-0.6,0.8H10.5z"/>
</g>
<g transform="translate(846.4,812.6667)">
	<path class="st2" d="M-11.3,11c0-1.4,0.1-2.6,0.4-3.5c0.3-0.9,0.7-1.6,1.3-2C-8.9,5-8.2,4.8-7.3,4.8c0.7,0,1.2,0.1,1.7,0.4
		c0.5,0.3,0.9,0.6,1.2,1.1c0.3,0.5,0.6,1.1,0.8,1.8s0.3,1.7,0.3,2.9c0,1.4-0.1,2.6-0.4,3.5c-0.3,0.9-0.7,1.6-1.3,2
		c-0.6,0.5-1.3,0.7-2.2,0.7c-1.2,0-2.1-0.4-2.8-1.2C-10.9,14.9-11.3,13.3-11.3,11z M-9.8,11c0,2,0.2,3.3,0.7,4s1,1,1.7,1
		c0.7,0,1.3-0.3,1.7-1c0.5-0.7,0.7-2,0.7-4c0-2-0.2-3.3-0.7-4c-0.5-0.7-1.1-1-1.8-1C-8,6-8.6,6.3-9,6.9C-9.5,7.6-9.8,9-9.8,11z
		 M-1.2,17v-1.7h1.7V17H-1.2z M2.6,13.8l1.5-0.2C4.3,14.4,4.6,15,5,15.4C5.4,15.8,5.9,16,6.5,16c0.7,0,1.3-0.2,1.8-0.7
		C8.7,14.8,9,14.2,9,13.4c0-0.7-0.2-1.3-0.7-1.7c-0.4-0.4-1-0.7-1.7-0.7c-0.3,0-0.6,0.1-1.1,0.2l0.2-1.3c0.1,0,0.2,0,0.2,0
		c0.6,0,1.2-0.2,1.7-0.5c0.5-0.3,0.8-0.8,0.8-1.5c0-0.5-0.2-1-0.6-1.4C7.5,6.2,7,6,6.5,6S5.4,6.2,5,6.6C4.6,6.9,4.4,7.5,4.3,8.2
		L2.8,7.9c0.2-1,0.6-1.8,1.2-2.3c0.6-0.6,1.5-0.8,2.4-0.8c0.7,0,1.3,0.1,1.8,0.4c0.6,0.3,1,0.7,1.3,1.2s0.4,1,0.4,1.6
		c0,0.5-0.1,1-0.4,1.4c-0.3,0.4-0.7,0.8-1.2,1c0.7,0.2,1.3,0.5,1.7,1c0.4,0.5,0.6,1.2,0.6,2c0,1.1-0.4,2-1.2,2.7
		c-0.8,0.7-1.8,1.1-2.9,1.1c-1.1,0-1.9-0.3-2.7-1C3.1,15.6,2.7,14.8,2.6,13.8z"/>
</g>
<g transform="translate(920.2,812.6667)">
	<path class="st2" d="M-11.3,11c0-1.4,0.1-2.6,0.4-3.5c0.3-0.9,0.7-1.6,1.3-2C-8.9,5-8.2,4.8-7.3,4.8c0.7,0,1.2,0.1,1.7,0.4
		c0.5,0.3,0.9,0.6,1.2,1.1c0.3,0.5,0.6,1.1,0.8,1.8s0.3,1.7,0.3,2.9c0,1.4-0.1,2.6-0.4,3.5c-0.3,0.9-0.7,1.6-1.3,2
		c-0.6,0.5-1.3,0.7-2.2,0.7c-1.2,0-2.1-0.4-2.8-1.2C-10.9,14.9-11.3,13.3-11.3,11z M-9.8,11c0,2,0.2,3.3,0.7,4s1,1,1.7,1
		c0.7,0,1.3-0.3,1.7-1c0.5-0.7,0.7-2,0.7-4c0-2-0.2-3.3-0.7-4c-0.5-0.7-1.1-1-1.8-1C-8,6-8.6,6.3-9,6.9C-9.5,7.6-9.8,9-9.8,11z
		 M-1.2,17v-1.7h1.7V17H-1.2z M7.4,17v-2.9H2.1v-1.4l5.5-7.9h1.2v7.9h1.7v1.4H8.9V17H7.4z M7.4,12.7V7.2l-3.8,5.5H7.4z"/>
</g>
<g transform="translate(994,812.6667)">
	<path class="st2" d="M-11.3,11c0-1.4,0.1-2.6,0.4-3.5c0.3-0.9,0.7-1.6,1.3-2C-8.9,5-8.2,4.8-7.3,4.8c0.7,0,1.2,0.1,1.7,0.4
		c0.5,0.3,0.9,0.6,1.2,1.1c0.3,0.5,0.6,1.1,0.8,1.8s0.3,1.7,0.3,2.9c0,1.4-0.1,2.6-0.4,3.5c-0.3,0.9-0.7,1.6-1.3,2
		c-0.6,0.5-1.3,0.7-2.2,0.7c-1.2,0-2.1-0.4-2.8-1.2C-10.9,14.9-11.3,13.3-11.3,11z M-9.8,11c0,2,0.2,3.3,0.7,4s1,1,1.7,1
		c0.7,0,1.3-0.3,1.7-1c0.5-0.7,0.7-2,0.7-4c0-2-0.2-3.3-0.7-4c-0.5-0.7-1.1-1-1.8-1C-8,6-8.6,6.3-9,6.9C-9.5,7.6-9.8,9-9.8,11z
		 M-1.2,17v-1.7h1.7V17H-1.2z M2.6,13.8l1.6-0.1C4.3,14.4,4.6,15,5,15.4C5.4,15.8,5.9,16,6.5,16c0.7,0,1.3-0.3,1.8-0.8
		c0.5-0.5,0.8-1.3,0.8-2.2c0-0.8-0.2-1.5-0.7-2c-0.5-0.5-1.1-0.7-1.9-0.7c-0.5,0-0.9,0.1-1.3,0.3c-0.4,0.2-0.7,0.5-0.9,0.9l-1.4-0.2
		L4,5h6v1.4H5.2L4.6,9.7c0.7-0.5,1.5-0.8,2.3-0.8c1.1,0,2,0.4,2.7,1.1c0.7,0.7,1.1,1.7,1.1,2.8c0,1.1-0.3,2.1-1,2.9
		c-0.8,1-1.8,1.5-3.2,1.5c-1.1,0-2-0.3-2.7-0.9C3.1,15.7,2.7,14.8,2.6,13.8z"/>
</g>
<g transform="translate(1067.8,812.6667)">
	<path class="st2" d="M-11.3,11c0-1.4,0.1-2.6,0.4-3.5c0.3-0.9,0.7-1.6,1.3-2C-8.9,5-8.2,4.8-7.3,4.8c0.7,0,1.2,0.1,1.7,0.4
		c0.5,0.3,0.9,0.6,1.2,1.1c0.3,0.5,0.6,1.1,0.8,1.8s0.3,1.7,0.3,2.9c0,1.4-0.1,2.6-0.4,3.5c-0.3,0.9-0.7,1.6-1.3,2
		c-0.6,0.5-1.3,0.7-2.2,0.7c-1.2,0-2.1-0.4-2.8-1.2C-10.9,14.9-11.3,13.3-11.3,11z M-9.8,11c0,2,0.2,3.3,0.7,4s1,1,1.7,1
		c0.7,0,1.3-0.3,1.7-1c0.5-0.7,0.7-2,0.7-4c0-2-0.2-3.3-0.7-4c-0.5-0.7-1.1-1-1.8-1C-8,6-8.6,6.3-9,6.9C-9.5,7.6-9.8,9-9.8,11z
		 M-1.2,17v-1.7h1.7V17H-1.2z M10.3,7.8L8.9,7.9c-0.1-0.6-0.3-1-0.6-1.3C7.9,6.2,7.4,6,6.8,6C6.3,6,5.9,6.1,5.5,6.4
		C5.1,6.8,4.7,7.2,4.4,7.9C4.2,8.6,4,9.5,4,10.7c0.4-0.5,0.8-0.9,1.3-1.2C5.9,9.2,6.4,9.1,7,9.1c1,0,1.8,0.4,2.5,1.1
		c0.7,0.7,1,1.7,1,2.8c0,0.8-0.2,1.5-0.5,2.1c-0.3,0.7-0.8,1.2-1.4,1.5c-0.6,0.3-1.2,0.5-2,0.5c-1.2,0-2.3-0.5-3-1.4
		c-0.8-0.9-1.2-2.4-1.2-4.5C2.5,9,3,7.2,3.8,6.2c0.8-0.9,1.8-1.4,3.1-1.4c1,0,1.7,0.3,2.4,0.8C9.9,6.1,10.2,6.9,10.3,7.8z M4.3,13.1
		c0,0.5,0.1,1,0.3,1.5c0.2,0.5,0.5,0.8,0.9,1.1C5.9,15.9,6.3,16,6.7,16c0.6,0,1.2-0.3,1.6-0.8C8.8,14.7,9,14,9,13.1
		c0-0.8-0.2-1.5-0.7-2c-0.4-0.5-1-0.7-1.7-0.7S5.4,10.7,5,11.1C4.5,11.6,4.3,12.3,4.3,13.1z"/>
</g>
<g transform="translate(1141.6,812.6667)">
	<path class="st2" d="M-11.3,11c0-1.4,0.1-2.6,0.4-3.5c0.3-0.9,0.7-1.6,1.3-2C-8.9,5-8.2,4.8-7.3,4.8c0.7,0,1.2,0.1,1.7,0.4
		c0.5,0.3,0.9,0.6,1.2,1.1c0.3,0.5,0.6,1.1,0.8,1.8s0.3,1.7,0.3,2.9c0,1.4-0.1,2.6-0.4,3.5c-0.3,0.9-0.7,1.6-1.3,2
		c-0.6,0.5-1.3,0.7-2.2,0.7c-1.2,0-2.1-0.4-2.8-1.2C-10.9,14.9-11.3,13.3-11.3,11z M-9.8,11c0,2,0.2,3.3,0.7,4s1,1,1.7,1
		c0.7,0,1.3-0.3,1.7-1c0.5-0.7,0.7-2,0.7-4c0-2-0.2-3.3-0.7-4c-0.5-0.7-1.1-1-1.8-1C-8,6-8.6,6.3-9,6.9C-9.5,7.6-9.8,9-9.8,11z
		 M-1.2,17v-1.7h1.7V17H-1.2z M2.7,6.4V5h7.9v1.2C9.8,7,9,8.1,8.3,9.4c-0.8,1.4-1.3,2.8-1.8,4.2c-0.3,1-0.5,2.1-0.6,3.3H4.4
		c0-1,0.2-2.1,0.6-3.5c0.4-1.4,0.9-2.7,1.5-3.9c0.7-1.3,1.4-2.3,2.1-3.2H2.7z"/>
</g>
<g transform="translate(1215.4,812.6667)">
	<path class="st2" d="M-11.3,11c0-1.4,0.1-2.6,0.4-3.5c0.3-0.9,0.7-1.6,1.3-2C-8.9,5-8.2,4.8-7.3,4.8c0.7,0,1.2,0.1,1.7,0.4
		c0.5,0.3,0.9,0.6,1.2,1.1c0.3,0.5,0.6,1.1,0.8,1.8s0.3,1.7,0.3,2.9c0,1.4-0.1,2.6-0.4,3.5c-0.3,0.9-0.7,1.6-1.3,2
		c-0.6,0.5-1.3,0.7-2.2,0.7c-1.2,0-2.1-0.4-2.8-1.2C-10.9,14.9-11.3,13.3-11.3,11z M-9.8,11c0,2,0.2,3.3,0.7,4s1,1,1.7,1
		c0.7,0,1.3-0.3,1.7-1c0.5-0.7,0.7-2,0.7-4c0-2-0.2-3.3-0.7-4c-0.5-0.7-1.1-1-1.8-1C-8,6-8.6,6.3-9,6.9C-9.5,7.6-9.8,9-9.8,11z
		 M-1.2,17v-1.7h1.7V17H-1.2z M4.9,10.4c-0.6-0.2-1.1-0.6-1.4-1C3.2,9,3.1,8.5,3.1,7.9c0-0.9,0.3-1.6,1-2.2c0.6-0.6,1.5-0.9,2.5-0.9
		c1.1,0,1.9,0.3,2.6,0.9c0.6,0.6,1,1.4,1,2.2c0,0.6-0.1,1.1-0.4,1.5s-0.7,0.7-1.3,1c0.7,0.2,1.3,0.6,1.7,1.2
		c0.4,0.5,0.6,1.2,0.6,1.9c0,1-0.4,1.9-1.1,2.6c-0.7,0.7-1.7,1.1-2.9,1.1c-1.2,0-2.2-0.4-2.9-1.1c-0.7-0.7-1.1-1.6-1.1-2.7
		c0-0.8,0.2-1.5,0.6-2C3.6,11,4.2,10.6,4.9,10.4z M4.6,7.9c0,0.6,0.2,1,0.6,1.4C5.5,9.6,6,9.8,6.6,9.8c0.6,0,1-0.2,1.4-0.5
		C8.4,8.9,8.6,8.5,8.6,8c0-0.6-0.2-1-0.6-1.4C7.6,6.2,7.1,6,6.6,6C6,6,5.5,6.2,5.2,6.6S4.6,7.4,4.6,7.9z M4.1,13.5
		c0,0.4,0.1,0.8,0.3,1.2c0.2,0.4,0.5,0.7,0.9,0.9C5.7,15.9,6.2,16,6.6,16c0.7,0,1.3-0.2,1.8-0.7c0.5-0.5,0.7-1,0.7-1.8
		c0-0.7-0.2-1.3-0.7-1.8C7.9,11.3,7.3,11,6.6,11c-0.7,0-1.3,0.2-1.8,0.7S4.1,12.8,4.1,13.5z"/>
</g>
<g transform="translate(1289.2,812.6667)">
	<path class="st2" d="M-11.3,11c0-1.4,0.1-2.6,0.4-3.5c0.3-0.9,0.7-1.6,1.3-2C-8.9,5-8.2,4.8-7.3,4.8c0.7,0,1.2,0.1,1.7,0.4
		c0.5,0.3,0.9,0.6,1.2,1.1c0.3,0.5,0.6,1.1,0.8,1.8s0.3,1.7,0.3,2.9c0,1.4-0.1,2.6-0.4,3.5c-0.3,0.9-0.7,1.6-1.3,2
		c-0.6,0.5-1.3,0.7-2.2,0.7c-1.2,0-2.1-0.4-2.8-1.2C-10.9,14.9-11.3,13.3-11.3,11z M-9.8,11c0,2,0.2,3.3,0.7,4s1,1,1.7,1
		c0.7,0,1.3-0.3,1.7-1c0.5-0.7,0.7-2,0.7-4c0-2-0.2-3.3-0.7-4c-0.5-0.7-1.1-1-1.8-1C-8,6-8.6,6.3-9,6.9C-9.5,7.6-9.8,9-9.8,11z
		 M-1.2,17v-1.7h1.7V17H-1.2z M2.8,14.2L4.3,14c0.1,0.7,0.4,1.2,0.7,1.5C5.3,15.8,5.7,16,6.3,16c0.5,0,0.9-0.1,1.2-0.3
		c0.3-0.2,0.6-0.5,0.9-0.8c0.2-0.3,0.4-0.8,0.6-1.4c0.1-0.6,0.2-1.2,0.2-1.8c0-0.1,0-0.2,0-0.3c-0.3,0.5-0.7,0.9-1.2,1.2
		c-0.5,0.3-1.1,0.4-1.7,0.4c-1,0-1.9-0.4-2.6-1.1c-0.7-0.7-1-1.7-1-2.9c0-1.2,0.4-2.2,1.1-3c0.7-0.8,1.6-1.1,2.7-1.1
		c0.8,0,1.5,0.2,2.2,0.6c0.7,0.4,1.2,1,1.5,1.8s0.5,1.9,0.5,3.4c0,1.6-0.2,2.8-0.5,3.7c-0.3,0.9-0.8,1.6-1.5,2.1
		c-0.7,0.5-1.4,0.7-2.3,0.7c-0.9,0-1.7-0.3-2.3-0.8C3.3,15.9,2.9,15.1,2.8,14.2z M8.9,8.8c0-0.9-0.2-1.5-0.7-2S7.2,6,6.6,6
		C5.9,6,5.4,6.3,4.9,6.8S4.1,8.1,4.1,8.9c0,0.8,0.2,1.4,0.7,1.9c0.5,0.5,1,0.7,1.7,0.7c0.7,0,1.3-0.2,1.7-0.7
		C8.7,10.3,8.9,9.7,8.9,8.8z"/>
</g>
<g transform="translate(1363,812.6667)">
	<path class="st2" d="M1.3,17h-1.5V7.5c-0.4,0.3-0.8,0.7-1.4,1s-1.1,0.6-1.6,0.8V7.8C-2.3,7.4-1.6,7-1,6.4c0.6-0.6,1.1-1.1,1.3-1.6
		h1V17z"/>
</g>
<g transform="translate(994.0004,835.3333)">
	<path class="st2" d="M-29.2,4.4l2.1,0.9L-27.8,6c0.3,2.5,0.8,4.6,1.4,6.3c0.7,1.7,1.6,3.2,2.7,4.4c1.2,1.2,2.4,1.9,3.8,2.1v0.4
		c-0.9,0-1.6,0.4-2,1c-1.3-0.9-2.3-1.9-3.1-3.1s-1.5-2.5-2-3.8c-0.5-1.4-0.9-3.2-1.1-5.6c-0.2,2.2-0.5,4.1-1,5.7
		c-0.5,1.5-1.3,2.9-2.4,4.1c-1.1,1.2-2.7,2.3-4.6,3.1l-0.1-0.2c2-1.2,3.5-2.6,4.5-4c1-1.4,1.7-3.2,2-5.4
		C-29.3,8.8-29.1,6.6-29.2,4.4z M-3.9,14.6c0,1.5,0,2.7,0.1,3.6l-1.1,0.5v-1.6h-9.3v1.5l-1,0.5c0-1.6,0.1-3.8,0.1-6.7
		c0-2.9,0-4.9-0.1-6.1l1.1,0.7H-5l0.6-0.8l1.1,1l-0.6,0.4V14.6z M-14.2,7.5v9.1h9.3V7.5H-14.2z M4.4,5.7v1.8h4.1V5.7H4.4z M9.4,5.7
		v1.8h4.2V5.7H9.4z M4.4,7.9v1.6h4.1V7.9H4.4z M9.4,7.9v1.6h4.2V7.9H9.4z M14.4,6c0,0.7,0,1.4,0,2.1s0,1.5,0.1,2.2l-1,0.4V9.9H4.4
		v0.6l-1,0.3c0-1.2,0.1-2.3,0.1-3.5s0-2.1-0.1-2.7l1,0.6h9.1l0.5-0.6l1,0.8L14.4,6z M9.6,10.9C9,11,8.4,11.1,7.8,11.4
		c-0.7,0.3-1.6,0.7-3,1.2l4.8-0.1c0.7-0.5,1.3-0.9,1.8-1.4l0.9,1.1c-0.4,0-1.2,0.3-2.3,0.8c-1.2,0.6-2.9,1.4-5.1,2.2l8.2-0.5
		c-0.4-0.5-0.9-0.9-1.3-1.4l0.2-0.1c1.4,0.7,2.2,1.2,2.5,1.5c0.3,0.4,0.4,0.7,0.4,1c0,0.3-0.1,0.5-0.2,0.7c-0.1,0.2-0.2,0.3-0.2,0.3
		c-0.1,0-0.2-0.1-0.3-0.4c-0.2-0.4-0.5-0.8-0.7-1.1l-3.7,0.3v3.2c0.1,1-0.5,1.6-1.5,1.8c0-0.7-0.7-1.2-2.2-1.5v-0.3
		c1.3,0.1,2.1,0.2,2.4,0.2c0.3,0,0.5-0.3,0.5-0.8v-2.5C7.8,15.7,6.9,15.8,6,16c-0.9,0.1-1.7,0.4-2.3,0.7L3,15.2
		c0.7-0.1,1.5-0.3,2.3-0.6c0.8-0.3,2.1-0.9,3.9-1.7c-2,0.2-3.3,0.3-3.9,0.4c-0.6,0.1-1,0.2-1.3,0.4l-0.6-1.3c0.6,0,1.4-0.2,2.5-0.7
		c1.1-0.5,2-1.1,2.7-1.8L9.6,10.9z M7.1,17.6c-0.6,0.1-1.3,0.4-2.2,0.9c-0.9,0.6-2.1,1.2-3.7,1.8l-0.1-0.2c1.2-0.6,2.2-1.3,3-1.9
		c0.8-0.7,1.4-1.3,1.9-1.8L7.1,17.6z M11.1,16.5c1.7,0.6,2.9,1.1,3.5,1.4c0.6,0.4,0.9,0.7,1,1.1c0,0.4,0,0.6-0.1,0.8
		s-0.2,0.3-0.2,0.3c-0.2,0-0.4-0.2-0.8-0.7c-0.5-0.8-1.7-1.7-3.4-2.8L11.1,16.5z M20.7,5l0.1-0.2c1,0.5,1.7,0.9,2.1,1.2
		c0.4,0.3,0.6,0.7,0.6,1c0,0.3-0.1,0.6-0.2,0.7C23.1,7.8,23,7.9,23,7.9c-0.2,0-0.5-0.3-0.6-0.8C22,6.3,21.5,5.7,20.7,5z M22.6,17.9
		l2.8-2.4l0.1,0.2c-1.6,2.1-2.7,3.5-3,4.2l-1-1.2c0.2-0.3,0.3-0.7,0.3-1.3v-6.3h-1.8h0.6c-0.3,0-0.7,0.1-1.2,0.2l-0.6-0.6h2.9
		l0.8-0.8l1,1l-0.7,0.5V17.9z M28.8,10.8c0-3.1,0-5.2-0.1-6.1l1.7,0.8L29.9,6v4.8H33L34,9.9l1.3,1.3h-5.3v6.4c0,0.9,0,1.8,0.1,2.6
		l-1.2,0.5c0-1.5,0.1-2.6,0.1-3.3v-6.2h-3.6h1c-0.6,0-1.1,0.1-1.6,0.2L24,10.8H28.8z"/>
</g>
<g>
	<line class="st1" x1="625" y1="806" x2="625" y2="68"/>
	<line class="st1" x1="625" y1="806" x2="632.4" y2="806"/>
	<line class="st1" x1="625" y1="732.2" x2="632.4" y2="732.2"/>
	<line class="st1" x1="625" y1="658.4" x2="632.4" y2="658.4"/>
	<line class="st1" x1="625" y1="584.6" x2="632.4" y2="584.6"/>
	<line class="st1" x1="625" y1="510.8" x2="632.4" y2="510.8"/>
	<line class="st1" x1="625" y1="437" x2="632.4" y2="437"/>
	<line class="st1" x1="625" y1="363.2" x2="632.4" y2="363.2"/>
	<line class="st1" x1="625" y1="289.4" x2="632.4" y2="289.4"/>
	<line class="st1" x1="625" y1="215.6" x2="632.4" y2="215.6"/>
	<line class="st1" x1="625" y1="141.8" x2="632.4" y2="141.8"/>
	<line class="st1" x1="625" y1="68" x2="632.4" y2="68"/>
</g>
<g transform="translate(618.3333,806)">
	<path class="st2" d="M-9.3,0.5c0-1.4,0.1-2.6,0.4-3.5c0.3-0.9,0.7-1.6,1.3-2c0.6-0.5,1.3-0.7,2.2-0.7c0.7,0,1.2,0.1,1.7,0.4
		c0.5,0.3,0.9,0.6,1.2,1.1s0.6,1.1,0.8,1.8s0.3,1.7,0.3,2.9c0,1.4-0.1,2.6-0.4,3.5s-0.7,1.6-1.3,2c-0.6,0.5-1.3,0.7-2.2,0.7
		c-1.2,0-2.1-0.4-2.8-1.2C-8.9,4.4-9.3,2.8-9.3,0.5z M-7.8,0.5c0,2,0.2,3.3,0.7,4s1,1,1.7,1c0.7,0,1.3-0.3,1.7-1
		c0.5-0.7,0.7-2,0.7-4c0-2-0.2-3.3-0.7-4c-0.5-0.7-1.1-1-1.8-1C-6-4.5-6.6-4.2-7-3.6C-7.5-2.9-7.8-1.5-7.8,0.5z"/>
</g>
<g transform="translate(618.3333,732.2)">
	<path class="st2" d="M-23.3,0.5c0-1.4,0.1-2.6,0.4-3.5c0.3-0.9,0.7-1.6,1.3-2c0.6-0.5,1.3-0.7,2.2-0.7c0.7,0,1.2,0.1,1.7,0.4
		c0.5,0.3,0.9,0.6,1.2,1.1s0.6,1.1,0.8,1.8c0.2,0.7,0.3,1.7,0.3,2.9c0,1.4-0.1,2.6-0.4,3.5c-0.3,0.9-0.7,1.6-1.3,2
		c-0.6,0.5-1.3,0.7-2.2,0.7c-1.2,0-2.1-0.4-2.8-1.2C-22.9,4.4-23.3,2.8-23.3,0.5z M-21.8,0.5c0,2,0.2,3.3,0.7,4c0.5,0.7,1,1,1.7,1
		c0.7,0,1.3-0.3,1.7-1c0.5-0.7,0.7-2,0.7-4c0-2-0.2-3.3-0.7-4c-0.5-0.7-1.1-1-1.8-1c-0.7,0-1.2,0.3-1.6,0.9
		C-21.5-2.9-21.8-1.5-21.8,0.5z M-13.2,6.5V4.8h1.7v1.7H-13.2z M-3.8,6.5h-1.5V-3c-0.4,0.3-0.8,0.7-1.4,1s-1.1,0.6-1.6,0.8v-1.5
		c0.8-0.4,1.6-0.9,2.2-1.4C-5.4-4.7-5-5.2-4.7-5.7h1V6.5z"/>
</g>
<g transform="translate(618.3333,658.4)">
	<path class="st2" d="M-23.3,0.5c0-1.4,0.1-2.6,0.4-3.5c0.3-0.9,0.7-1.6,1.3-2c0.6-0.5,1.3-0.7,2.2-0.7c0.7,0,1.2,0.1,1.7,0.4
		c0.5,0.3,0.9,0.6,1.2,1.1s0.6,1.1,0.8,1.8c0.2,0.7,0.3,1.7,0.3,2.9c0,1.4-0.1,2.6-0.4,3.5c-0.3,0.9-0.7,1.6-1.3,2
		c-0.6,0.5-1.3,0.7-2.2,0.7c-1.2,0-2.1-0.4-2.8-1.2C-22.9,4.4-23.3,2.8-23.3,0.5z M-21.8,0.5c0,2,0.2,3.3,0.7,4c0.5,0.7,1,1,1.7,1
		c0.7,0,1.3-0.3,1.7-1c0.5-0.7,0.7-2,0.7-4c0-2-0.2-3.3-0.7-4c-0.5-0.7-1.1-1-1.8-1c-0.7,0-1.2,0.3-1.6,0.9
		C-21.5-2.9-21.8-1.5-21.8,0.5z M-13.2,6.5V4.8h1.7v1.7H-13.2z M-1.5,5.1v1.4h-8c0-0.4,0-0.7,0.2-1c0.2-0.6,0.5-1.1,1-1.6
		C-8,3.3-7.3,2.7-6.5,2c1.3-1.1,2.2-1.9,2.7-2.6c0.5-0.6,0.7-1.2,0.7-1.8c0-0.6-0.2-1.1-0.6-1.5c-0.4-0.4-1-0.6-1.6-0.6
		c-0.7,0-1.3,0.2-1.7,0.6c-0.4,0.4-0.7,1-0.7,1.8l-1.5-0.2c0.1-1.1,0.5-2,1.2-2.6c0.7-0.6,1.6-0.9,2.8-0.9c1.2,0,2.1,0.3,2.8,1
		s1,1.4,1,2.4c0,0.5-0.1,1-0.3,1.4c-0.2,0.5-0.5,1-1,1.5c-0.5,0.5-1.2,1.2-2.3,2.1C-6.1,3.5-6.6,4-6.9,4.3c-0.3,0.3-0.5,0.5-0.6,0.8
		H-1.5z"/>
</g>
<g transform="translate(618.3333,584.6)">
	<path class="st2" d="M-23.3,0.5c0-1.4,0.1-2.6,0.4-3.5c0.3-0.9,0.7-1.6,1.3-2c0.6-0.5,1.3-0.7,2.2-0.7c0.7,0,1.2,0.1,1.7,0.4
		c0.5,0.3,0.9,0.6,1.2,1.1s0.6,1.1,0.8,1.8c0.2,0.7,0.3,1.7,0.3,2.9c0,1.4-0.1,2.6-0.4,3.5c-0.3,0.9-0.7,1.6-1.3,2
		c-0.6,0.5-1.3,0.7-2.2,0.7c-1.2,0-2.1-0.4-2.8-1.2C-22.9,4.4-23.3,2.8-23.3,0.5z M-21.8,0.5c0,2,0.2,3.3,0.7,4c0.5,0.7,1,1,1.7,1
		c0.7,0,1.3-0.3,1.7-1c0.5-0.7,0.7-2,0.7-4c0-2-0.2-3.3-0.7-4c-0.5-0.7-1.1-1-1.8-1c-0.7,0-1.2,0.3-1.6,0.9
		C-21.5-2.9-21.8-1.5-21.8,0.5z M-13.2,6.5V4.8h1.7v1.7H-13.2z M-9.4,3.3l1.5-0.2C-7.7,3.9-7.4,4.5-7,4.9s0.9,0.6,1.5,0.6
		c0.7,0,1.3-0.2,1.8-0.7C-3.3,4.3-3,3.7-3,2.9c0-0.7-0.2-1.3-0.7-1.7c-0.4-0.4-1-0.7-1.7-0.7c-0.3,0-0.6,0.1-1.1,0.2l0.2-1.3
		c0.1,0,0.2,0,0.2,0c0.6,0,1.2-0.2,1.7-0.5s0.8-0.8,0.8-1.5c0-0.5-0.2-1-0.6-1.4C-4.5-4.3-5-4.5-5.5-4.5S-6.6-4.3-7-3.9
		C-7.4-3.6-7.6-3-7.7-2.3l-1.5-0.3c0.2-1,0.6-1.8,1.3-2.3c0.6-0.6,1.5-0.8,2.4-0.8c0.7,0,1.3,0.1,1.8,0.4c0.6,0.3,1,0.7,1.3,1.2
		S-2-3.1-2-2.6c0,0.5-0.1,1-0.4,1.4s-0.7,0.8-1.2,1C-3,0.1-2.4,0.4-2,0.9s0.6,1.2,0.6,2c0,1.1-0.4,2-1.2,2.7
		c-0.8,0.7-1.8,1.1-2.9,1.1c-1.1,0-1.9-0.3-2.7-1C-8.9,5.1-9.3,4.3-9.4,3.3z"/>
</g>
<g transform="translate(618.3333,510.8)">
	<path class="st2" d="M-23.3,0.5c0-1.4,0.1-2.6,0.4-3.5c0.3-0.9,0.7-1.6,1.3-2c0.6-0.5,1.3-0.7,2.2-0.7c0.7,0,1.2,0.1,1.7,0.4
		c0.5,0.3,0.9,0.6,1.2,1.1s0.6,1.1,0.8,1.8c0.2,0.7,0.3,1.7,0.3,2.9c0,1.4-0.1,2.6-0.4,3.5c-0.3,0.9-0.7,1.6-1.3,2
		c-0.6,0.5-1.3,0.7-2.2,0.7c-1.2,0-2.1-0.4-2.8-1.2C-22.9,4.4-23.3,2.8-23.3,0.5z M-21.8,0.5c0,2,0.2,3.3,0.7,4c0.5,0.7,1,1,1.7,1
		c0.7,0,1.3-0.3,1.7-1c0.5-0.7,0.7-2,0.7-4c0-2-0.2-3.3-0.7-4c-0.5-0.7-1.1-1-1.8-1c-0.7,0-1.2,0.3-1.6,0.9
		C-21.5-2.9-21.8-1.5-21.8,0.5z M-13.2,6.5V4.8h1.7v1.7H-13.2z M-4.6,6.5V3.6h-5.3V2.2l5.5-7.9h1.2v7.9h1.7v1.4h-1.7v2.9H-4.6z
		 M-4.6,2.2v-5.5l-3.8,5.5H-4.6z"/>
</g>
<g transform="translate(618.3333,437)">
	<path class="st2" d="M-23.3,0.5c0-1.4,0.1-2.6,0.4-3.5c0.3-0.9,0.7-1.6,1.3-2c0.6-0.5,1.3-0.7,2.2-0.7c0.7,0,1.2,0.1,1.7,0.4
		c0.5,0.3,0.9,0.6,1.2,1.1s0.6,1.1,0.8,1.8c0.2,0.7,0.3,1.7,0.3,2.9c0,1.4-0.1,2.6-0.4,3.5c-0.3,0.9-0.7,1.6-1.3,2
		c-0.6,0.5-1.3,0.7-2.2,0.7c-1.2,0-2.1-0.4-2.8-1.2C-22.9,4.4-23.3,2.8-23.3,0.5z M-21.8,0.5c0,2,0.2,3.3,0.7,4c0.5,0.7,1,1,1.7,1
		c0.7,0,1.3-0.3,1.7-1c0.5-0.7,0.7-2,0.7-4c0-2-0.2-3.3-0.7-4c-0.5-0.7-1.1-1-1.8-1c-0.7,0-1.2,0.3-1.6,0.9
		C-21.5-2.9-21.8-1.5-21.8,0.5z M-13.2,6.5V4.8h1.7v1.7H-13.2z M-9.4,3.3l1.6-0.1C-7.7,3.9-7.4,4.5-7,4.9c0.4,0.4,0.9,0.6,1.5,0.6
		c0.7,0,1.3-0.3,1.8-0.8s0.8-1.3,0.8-2.2c0-0.8-0.2-1.5-0.7-2C-4.1,0-4.7-0.2-5.5-0.2c-0.5,0-0.9,0.1-1.3,0.3
		c-0.4,0.2-0.7,0.5-0.9,0.9l-1.4-0.2L-8-5.5h6v1.4h-4.9l-0.7,3.3c0.7-0.5,1.5-0.8,2.3-0.8c1.1,0,2,0.4,2.7,1.1
		c0.7,0.7,1.1,1.7,1.1,2.8c0,1.1-0.3,2.1-1,2.9c-0.8,1-1.8,1.5-3.2,1.5c-1.1,0-2-0.3-2.7-0.9C-8.9,5.2-9.3,4.3-9.4,3.3z"/>
</g>
<g transform="translate(618.3333,363.2)">
	<path class="st2" d="M-23.3,0.5c0-1.4,0.1-2.6,0.4-3.5c0.3-0.9,0.7-1.6,1.3-2c0.6-0.5,1.3-0.7,2.2-0.7c0.7,0,1.2,0.1,1.7,0.4
		c0.5,0.3,0.9,0.6,1.2,1.1s0.6,1.1,0.8,1.8c0.2,0.7,0.3,1.7,0.3,2.9c0,1.4-0.1,2.6-0.4,3.5c-0.3,0.9-0.7,1.6-1.3,2
		c-0.6,0.5-1.3,0.7-2.2,0.7c-1.2,0-2.1-0.4-2.8-1.2C-22.9,4.4-23.3,2.8-23.3,0.5z M-21.8,0.5c0,2,0.2,3.3,0.7,4c0.5,0.7,1,1,1.7,1
		c0.7,0,1.3-0.3,1.7-1c0.5-0.7,0.7-2,0.7-4c0-2-0.2-3.3-0.7-4c-0.5-0.7-1.1-1-1.8-1c-0.7,0-1.2,0.3-1.6,0.9
		C-21.5-2.9-21.8-1.5-21.8,0.5z M-13.2,6.5V4.8h1.7v1.7H-13.2z M-1.7-2.7l-1.5,0.1c-0.1-0.6-0.3-1-0.6-1.3c-0.4-0.4-0.9-0.6-1.5-0.6
		c-0.5,0-0.9,0.1-1.3,0.4c-0.5,0.3-0.8,0.8-1.1,1.5C-7.8-1.9-8-1-8,0.2C-7.6-0.3-7.2-0.7-6.7-1C-6.1-1.3-5.6-1.4-5-1.4
		c1,0,1.8,0.4,2.5,1.1c0.7,0.7,1,1.7,1,2.8c0,0.8-0.2,1.5-0.5,2.1c-0.3,0.7-0.8,1.2-1.4,1.5c-0.6,0.3-1.2,0.5-2,0.5
		c-1.2,0-2.3-0.5-3-1.4s-1.2-2.4-1.2-4.5c0-2.4,0.4-4.1,1.3-5.1c0.8-0.9,1.8-1.4,3.1-1.4c1,0,1.7,0.3,2.4,0.8
		C-2.1-4.4-1.8-3.6-1.7-2.7z M-7.7,2.6c0,0.5,0.1,1,0.3,1.5c0.2,0.5,0.5,0.8,0.9,1.1c0.4,0.2,0.8,0.4,1.2,0.4c0.6,0,1.2-0.3,1.6-0.8
		C-3.2,4.2-3,3.5-3,2.6c0-0.8-0.2-1.5-0.7-2c-0.4-0.5-1-0.7-1.7-0.7S-6.6,0.2-7,0.6C-7.5,1.1-7.7,1.8-7.7,2.6z"/>
</g>
<g transform="translate(618.3333,289.4)">
	<path class="st2" d="M-23.3,0.5c0-1.4,0.1-2.6,0.4-3.5c0.3-0.9,0.7-1.6,1.3-2c0.6-0.5,1.3-0.7,2.2-0.7c0.7,0,1.2,0.1,1.7,0.4
		c0.5,0.3,0.9,0.6,1.2,1.1s0.6,1.1,0.8,1.8c0.2,0.7,0.3,1.7,0.3,2.9c0,1.4-0.1,2.6-0.4,3.5c-0.3,0.9-0.7,1.6-1.3,2
		c-0.6,0.5-1.3,0.7-2.2,0.7c-1.2,0-2.1-0.4-2.8-1.2C-22.9,4.4-23.3,2.8-23.3,0.5z M-21.8,0.5c0,2,0.2,3.3,0.7,4c0.5,0.7,1,1,1.7,1
		c0.7,0,1.3-0.3,1.7-1c0.5-0.7,0.7-2,0.7-4c0-2-0.2-3.3-0.7-4c-0.5-0.7-1.1-1-1.8-1c-0.7,0-1.2,0.3-1.6,0.9
		C-21.5-2.9-21.8-1.5-21.8,0.5z M-13.2,6.5V4.8h1.7v1.7H-13.2z M-9.3-4.1v-1.4h7.9v1.2C-2.2-3.5-3-2.4-3.7-1.1
		c-0.8,1.4-1.3,2.8-1.8,4.2c-0.3,1-0.5,2.1-0.6,3.3h-1.5c0-1,0.2-2.1,0.6-3.5c0.4-1.4,0.9-2.7,1.5-3.9c0.7-1.3,1.4-2.3,2.1-3.2H-9.3
		z"/>
</g>
<g transform="translate(618.3333,215.6)">
	<path class="st2" d="M-23.3,0.5c0-1.4,0.1-2.6,0.4-3.5c0.3-0.9,0.7-1.6,1.3-2c0.6-0.5,1.3-0.7,2.2-0.7c0.7,0,1.2,0.1,1.7,0.4
		c0.5,0.3,0.9,0.6,1.2,1.1s0.6,1.1,0.8,1.8c0.2,0.7,0.3,1.7,0.3,2.9c0,1.4-0.1,2.6-0.4,3.5c-0.3,0.9-0.7,1.6-1.3,2
		c-0.6,0.5-1.3,0.7-2.2,0.7c-1.2,0-2.1-0.4-2.8-1.2C-22.9,4.4-23.3,2.8-23.3,0.5z M-21.8,0.5c0,2,0.2,3.3,0.7,4c0.5,0.7,1,1,1.7,1
		c0.7,0,1.3-0.3,1.7-1c0.5-0.7,0.7-2,0.7-4c0-2-0.2-3.3-0.7-4c-0.5-0.7-1.1-1-1.8-1c-0.7,0-1.2,0.3-1.6,0.9
		C-21.5-2.9-21.8-1.5-21.8,0.5z M-13.2,6.5V4.8h1.7v1.7H-13.2z M-7.1-0.1c-0.6-0.2-1.1-0.6-1.4-1C-8.8-1.5-8.9-2-8.9-2.6
		c0-0.9,0.3-1.6,1-2.2c0.6-0.6,1.5-0.9,2.5-0.9c1.1,0,1.9,0.3,2.6,0.9c0.6,0.6,1,1.4,1,2.2c0,0.6-0.1,1.1-0.4,1.5s-0.7,0.7-1.3,1
		C-2.9,0.1-2.4,0.5-2,1.1C-1.6,1.6-1.4,2.3-1.4,3c0,1-0.4,1.9-1.1,2.6c-0.7,0.7-1.7,1.1-2.9,1.1c-1.2,0-2.2-0.4-2.9-1.1
		C-9.1,4.9-9.4,4-9.4,3c0-0.8,0.2-1.5,0.6-2C-8.4,0.5-7.8,0.1-7.1-0.1z M-7.4-2.6c0,0.6,0.2,1,0.6,1.4C-6.5-0.9-6-0.7-5.4-0.7
		c0.6,0,1-0.2,1.4-0.5C-3.6-1.6-3.4-2-3.4-2.5c0-0.6-0.2-1-0.6-1.4s-0.9-0.6-1.4-0.6c-0.6,0-1,0.2-1.4,0.5S-7.4-3.1-7.4-2.6z
		 M-7.9,3c0,0.4,0.1,0.8,0.3,1.2c0.2,0.4,0.5,0.7,0.9,0.9c0.4,0.2,0.8,0.3,1.3,0.3c0.7,0,1.3-0.2,1.8-0.7c0.5-0.5,0.7-1,0.7-1.8
		c0-0.7-0.2-1.3-0.7-1.8c-0.5-0.5-1.1-0.7-1.8-0.7c-0.7,0-1.3,0.2-1.8,0.7S-7.9,2.3-7.9,3z"/>
</g>
<g transform="translate(618.3333,141.8)">
	<path class="st2" d="M-23.3,0.5c0-1.4,0.1-2.6,0.4-3.5c0.3-0.9,0.7-1.6,1.3-2c0.6-0.5,1.3-0.7,2.2-0.7c0.7,0,1.2,0.1,1.7,0.4
		c0.5,0.3,0.9,0.6,1.2,1.1s0.6,1.1,0.8,1.8c0.2,0.7,0.3,1.7,0.3,2.9c0,1.4-0.1,2.6-0.4,3.5c-0.3,0.9-0.7,1.6-1.3,2
		c-0.6,0.5-1.3,0.7-2.2,0.7c-1.2,0-2.1-0.4-2.8-1.2C-22.9,4.4-23.3,2.8-23.3,0.5z M-21.8,0.5c0,2,0.2,3.3,0.7,4c0.5,0.7,1,1,1.7,1
		c0.7,0,1.3-0.3,1.7-1c0.5-0.7,0.7-2,0.7-4c0-2-0.2-3.3-0.7-4c-0.5-0.7-1.1-1-1.8-1c-0.7,0-1.2,0.3-1.6,0.9
		C-21.5-2.9-21.8-1.5-21.8,0.5z M-13.2,6.5V4.8h1.7v1.7H-13.2z M-9.2,3.7l1.4-0.1C-7.6,4.2-7.4,4.7-7,5c0.3,0.3,0.8,0.5,1.3,0.5
		c0.5,0,0.9-0.1,1.2-0.3C-4.2,5-3.9,4.7-3.7,4.3C-3.4,4-3.3,3.5-3.1,2.9C-3,2.3-2.9,1.7-2.9,1.1c0-0.1,0-0.2,0-0.3
		c-0.3,0.5-0.7,0.9-1.2,1.2c-0.5,0.3-1.1,0.4-1.7,0.4c-1,0-1.9-0.4-2.6-1.1c-0.7-0.7-1-1.7-1-2.9c0-1.2,0.4-2.2,1.1-3
		c0.7-0.8,1.6-1.1,2.7-1.1c0.8,0,1.5,0.2,2.2,0.6c0.7,0.4,1.2,1,1.5,1.8s0.5,1.9,0.5,3.4c0,1.6-0.2,2.8-0.5,3.7S-2.8,5.5-3.4,6
		c-0.7,0.5-1.4,0.7-2.3,0.7c-0.9,0-1.7-0.3-2.3-0.8C-8.7,5.4-9.1,4.6-9.2,3.7z M-3.1-1.7c0-0.9-0.2-1.5-0.7-2s-1-0.8-1.6-0.8
		c-0.7,0-1.2,0.3-1.7,0.8s-0.7,1.2-0.7,2.1c0,0.8,0.2,1.4,0.7,1.9C-6.7,0.8-6.1,1-5.4,1c0.7,0,1.3-0.2,1.7-0.7
		C-3.3-0.2-3.1-0.8-3.1-1.7z"/>
</g>
<g transform="translate(618.3333,68)">
	<path class="st2" d="M-3.7,6.5h-1.5V-3C-5.5-2.7-6-2.3-6.6-2s-1.1,0.6-1.6,0.8v-1.5C-7.3-3.1-6.6-3.5-6-4.1
		c0.6-0.6,1.1-1.1,1.3-1.6h1V6.5z"/>
</g>
<g transform="translate(589.3333,436.9996) rotate(-90)">
	<path class="st2" d="M-40.2-17.5c0,1.9,0,3.2,0,4c0,0.8-0.1,1.4-0.1,1.8c-0.1,0.4-0.2,0.7-0.5,1c-0.3,0.3-0.7,0.5-1.4,0.8
		c0-0.6-0.7-1.1-2.2-1.5v-0.4c1.2,0.1,1.9,0.2,2.2,0.2s0.6-0.1,0.7-0.2c0.1-0.2,0.2-0.7,0.2-1.7c0-0.9,0-2.4,0-4.3h-5v12.1h5.5
		l1.2-1.2l1.6,1.6h-14c-0.6,0-1.2,0.1-1.7,0.2l-0.6-0.6h7v-12.1H-50c-0.6,0-1.2,0.1-1.7,0.2l-0.6-0.6h11l0.6-0.8l1.2,0.9L-40.2-17.5
		z M-32.2-18.6l1.6,0.9c-0.5,0.2-1,1.1-1.7,2.6h4.2c0-2.2,0-3.7-0.1-4.7l1.7,0.7l-0.6,0.5v3.5h4l1-1l1.3,1.5h-6.4v4.4h3.2l1.1-1
		l1.3,1.5h-5.6v5.1h5.1l1.1-1.1l1.4,1.6h-14c-0.6,0-1.2,0.1-1.7,0.2l-0.6-0.6h7.7v-5.1h-2.7c-0.6,0-1.2,0.1-1.7,0.2l-0.6-0.6h5v-4.4
		h-4.3c-1.1,2-2,3.5-2.9,4.3l-0.2-0.1c0.8-1.2,1.5-2.6,2-4C-32.9-15.9-32.5-17.3-32.2-18.6z M-5.5-15.6l1.1-1.9h-5.2
		c-0.8,1-1.7,1.9-2.8,2.5l-0.1-0.1c0.8-0.7,1.4-1.4,1.8-2.2c0.5-0.8,0.8-1.6,1.1-2.4l1.3,0.7l-0.6,0.3l-0.7,0.8h5l0.6-0.8l1.3,1.1
		c-0.7,0.1-1.5,0.8-2.7,2.1L-5.5-15.6z M-8.3-16.9l1.5,0.6L-7.3-16l-0.1,0.3c1.2,1.7,3.1,2.8,5.7,3.1v0.2C-2.5-12.3-3-12-3.2-11.5
		c-2.1-1-3.6-2.3-4.4-3.9c-0.8,2-3,3.2-6.6,3.6l-0.1-0.2c2.2-0.5,3.8-1.2,4.7-2S-8.3-15.8-8.3-16.9z M-15.9-19.1
		c1.3,0.2,2,0.5,2.2,0.7c0.2,0.2,0.3,0.4,0.3,0.6c0,0.1-0.1,0.3-0.2,0.6c-0.1,0.3-0.2,0.4-0.3,0.4c-0.1,0-0.3-0.2-0.4-0.5
		c-0.3-0.5-0.9-1-1.7-1.5L-15.9-19.1z M-11.5-18.4l0.2,0.1c-1.1,1.4-1.9,2.3-2.4,2.9c-0.5,0.6-0.8,1.1-0.9,1.5
		c-0.1,0.4-0.2,1-0.2,1.7c0,0.5-0.1,0.7-0.4,0.7c0,0-0.2-0.1-0.5-0.2c-0.3-0.2-0.4-0.4-0.4-0.6c0-0.2,0-0.4,0.1-0.6
		c0.2-0.5,0.3-0.9,0.4-1.2c0.1-0.3-0.4-0.6-1.4-0.9l0.1-0.2c0.7,0.1,1.1,0.1,1.3,0.1c0.2,0,0.4-0.1,0.7-0.2
		C-14.5-15.5-13.4-16.5-11.5-18.4z M-14.3-6.1c0-1.2,0.1-2.2,0.1-3c0-0.8,0-1.7-0.1-2.6l1,0.4h7.5l0.4-0.6l1.1,0.8l-0.6,0.5
		c0,1.6,0,2.8,0.1,3.7l-1,0.5v-4.4h-7.5v4.4L-14.3-6.1z M-10-10.2l1.8,0.9L-9-8.8C-9.2-7.3-9.5-6.3-10-5.7c-0.5,0.6-1.3,1.1-2.4,1.5
		c-1.1,0.4-2.5,0.7-4.4,0.9l-0.1-0.2c1.2-0.2,2.3-0.6,3.4-1c1.1-0.4,1.9-0.9,2.3-1.4c0.4-0.5,0.7-1.1,0.8-1.7S-10-9.2-10-10.2z
		 M-9.2-6v-0.3C-7.4-6-6-5.7-5-5.5c1,0.2,1.6,0.5,1.8,0.8C-3-4.4-2.9-4.1-2.9-3.8c0,0.3-0.1,0.5-0.2,0.5c-0.1,0-0.4-0.1-0.7-0.3
		C-4.5-4.1-5.2-4.5-6-4.9C-6.9-5.2-7.9-5.6-9.2-6z M10.1-14.9v2h4.6v-2H10.1z M10.1-12.5v2.1h4.6v-2.1H10.1z M9.5-8.7l1.3,1
		c-0.5,0.2-1.1,0.7-1.6,1.3C8.5-5.8,7.6-5,6.4-4.1L6.3-4.3C7.9-5.9,9-7.4,9.5-8.7z M13.5-8.2l0.1-0.2c1.6,1,2.5,1.6,2.7,2
		c0.3,0.3,0.4,0.6,0.4,0.9c0,0.2-0.1,0.5-0.2,0.8c-0.1,0.3-0.3,0.5-0.4,0.5c-0.1,0-0.3-0.3-0.6-0.8C15.3-5.9,14.6-7,13.5-8.2z
		 M9.1-9.2c0-1.2,0.1-2.4,0.1-3.4s0-2.2-0.1-3.3l1,0.6h1c0.5-1.1,0.7-1.9,0.8-2.5H7.6c0,1.9,0,3.8,0,5.5c0,1.8-0.4,3.4-1,4.8
		c-0.7,1.4-1.6,2.7-3,4L3.4-3.7c1.2-1.5,2-3,2.5-4.5c0.5-1.5,0.7-3.4,0.7-5.6c0-2.2,0-3.9-0.1-5.2l1,0.7h7.3l1-1l1.3,1.4h-5l1.1,0.6
		c-0.4,0.1-0.7,0.3-0.9,0.5c-0.2,0.2-0.5,0.6-1,1.3h3.2l0.5-0.7l1,0.9l-0.6,0.5c0,2.9,0,4.5,0.1,4.9l-1,0.5v-0.7h-1.8v4.6
		c0,0.9-0.5,1.5-1.5,1.8c0-0.7-0.6-1.1-1.7-1.3v-0.3C10.3-5,10.8-5,11.3-5c0.4,0,0.6-0.2,0.6-0.5v-4.4h-1.8v0.3L9.1-9.2z M6-17
		c-1.4,5.1-2.2,8-2.4,8.6C3.6-7.8,3.5-7,3.5-6.2c0,0.8,0,1.4,0,1.8c0,0.2-0.1,0.3-0.3,0.3c-0.1,0-0.4-0.1-0.7-0.2
		C2.3-4.4,2.1-4.7,2.1-5.1c0-0.3,0-0.7,0.1-1c0.1-0.5,0.2-0.8,0.2-1.1S2.4-7.7,2.1-7.9C1.9-8.1,1.5-8.3,0.8-8.5v-0.3
		c0.8,0.1,1.4,0.1,1.6,0.1c0.2,0,0.4-0.2,0.7-0.6c0.3-0.4,1.2-3,2.7-7.8L6-17z M0.8-15.1c1.6,0.8,2.5,1.4,2.5,1.8
		c0,0.5-0.1,0.8-0.3,1c-0.2,0.2-0.3,0.3-0.4,0.3c-0.1,0-0.3-0.2-0.4-0.7c-0.2-0.6-0.7-1.4-1.5-2.2L0.8-15.1z M2.3-19.1
		c1.4,0.6,2.1,1,2.2,1.4c0.1,0.4,0.1,0.8-0.1,1.1c-0.2,0.3-0.4,0.5-0.5,0.5c-0.2,0-0.3-0.2-0.4-0.6c-0.2-0.6-0.7-1.3-1.4-2.2
		L2.3-19.1z M23-18.3v1.8h4.1v-1.8H23z M28-18.3v1.8h4.2v-1.8H28z M23-16.1v1.6h4.1v-1.6H23z M28-16.1v1.6h4.2v-1.6H28z M33.1-18
		c0,0.7,0,1.4,0,2.1s0,1.5,0.1,2.2l-1,0.4v-0.8H23v0.6l-1,0.3c0-1.2,0.1-2.3,0.1-3.5c0-1.2,0-2.1-0.1-2.7l1,0.6h9.1l0.5-0.6l1,0.8
		L33.1-18z M28.2-13.1c-0.6,0.1-1.2,0.2-1.8,0.5c-0.7,0.3-1.6,0.7-3,1.2l4.8-0.1c0.7-0.5,1.3-0.9,1.8-1.4l0.9,1.1
		c-0.4,0-1.2,0.3-2.3,0.8c-1.2,0.6-2.9,1.4-5.1,2.2l8.2-0.5c-0.4-0.5-0.9-0.9-1.3-1.4l0.2-0.1c1.4,0.7,2.2,1.2,2.5,1.5
		c0.3,0.4,0.4,0.7,0.4,1c0,0.3-0.1,0.5-0.2,0.7c-0.1,0.2-0.2,0.3-0.2,0.3c-0.1,0-0.2-0.1-0.3-0.4C32.5-8,32.3-8.4,32-8.8l-3.7,0.3
		v3.2c0.1,1-0.5,1.6-1.5,1.8c0-0.7-0.8-1.2-2.2-1.5v-0.3c1.3,0.1,2.1,0.2,2.4,0.2c0.3,0,0.5-0.3,0.5-0.8v-2.5
		c-0.9,0.1-1.8,0.2-2.8,0.4c-0.9,0.1-1.7,0.4-2.2,0.7l-0.8-1.5c0.7-0.1,1.5-0.3,2.3-0.6c0.8-0.3,2.1-0.9,3.9-1.7
		c-2,0.2-3.3,0.3-3.9,0.4c-0.6,0.1-1,0.2-1.3,0.4l-0.6-1.3c0.6,0,1.4-0.2,2.5-0.7c1.1-0.5,2-1.1,2.7-1.8L28.2-13.1z M25.7-6.4
		c-0.6,0.1-1.3,0.4-2.2,0.9c-0.9,0.6-2.1,1.2-3.7,1.8l-0.1-0.2c1.2-0.6,2.2-1.3,3-1.9c0.8-0.7,1.4-1.3,1.9-1.8L25.7-6.4z M29.8-7.5
		c1.7,0.6,2.9,1.1,3.5,1.4c0.6,0.4,0.9,0.7,1,1.1c0,0.4,0,0.6-0.1,0.8C34-4,33.9-3.9,33.9-3.9c-0.2,0-0.4-0.2-0.8-0.7
		c-0.5-0.8-1.7-1.7-3.4-2.8L29.8-7.5z M39.4-19l0.1-0.2c1,0.5,1.7,0.9,2.1,1.2s0.6,0.7,0.6,1c0,0.3-0.1,0.6-0.2,0.7
		c-0.2,0.1-0.3,0.2-0.3,0.2c-0.2,0-0.5-0.3-0.6-0.8C40.7-17.7,40.2-18.3,39.4-19z M41.3-6.1l2.8-2.4l0.1,0.2c-1.6,2.1-2.7,3.5-3,4.2
		l-1-1.2c0.2-0.3,0.3-0.7,0.3-1.3v-6.3h-1.8h0.6c-0.3,0-0.7,0.1-1.2,0.2l-0.6-0.6h2.9l0.8-0.8l1,1l-0.7,0.5V-6.1z M47.5-13.2
		c0-3.1,0-5.2-0.1-6.1l1.7,0.8L48.6-18v4.8h3.2l0.9-0.9l1.3,1.3h-5.3v6.4c0,0.9,0,1.8,0.1,2.6l-1.2,0.5c0-1.5,0.1-2.6,0.1-3.3v-6.2
		h-3.6h1c-0.6,0-1.1,0.1-1.6,0.2l-0.6-0.6H47.5z"/>
</g>
<g transform="translate(994.001,65.25)">
	<path d="M-38.5-3.4c0-0.8,0.1-3,0.1-6.5c-1,0.5-1.9,0.8-2.7,1l-0.1-0.2c2.1-0.8,4.1-2.1,6-4.1c-0.8-1.2-1.4-2.4-1.7-3.5
		c-0.8,1.5-1.6,2.7-2.5,3.7l-0.2-0.1c0.7-0.9,1.2-1.9,1.7-3c0.4-1.1,0.8-2.3,1.2-3.6l1.4,0.8l-0.6,0.4c-0.2,0.4-0.4,0.8-0.6,1.3h4.3
		l0.6-0.7l1.1,1.1l-0.6,0.3c-1.1,1.4-2,2.6-2.8,3.4c1.4,1.4,3.1,2.2,5.2,2.3v0.3c-0.8,0.1-1.2,0.5-1.3,1c-1.7-0.7-3.2-1.7-4.5-3
		c-1.2,1.1-2.4,2-3.7,2.7l0.8,0.4h5l0.6-0.6l1,0.9l-0.6,0.4c0,2.5,0,4.1,0.1,4.9l-1,0.4v-1.3h-5.2v1L-38.5-3.4z M-37.5-9.1v3.9h5.2
		v-3.9H-37.5z M-36.7-16.8c0.6,1.3,1.2,2.3,2,3.1c0.8-0.8,1.6-1.9,2.3-3.1H-36.7z M-39.5-16.5c-1.7,5.1-2.6,7.9-2.7,8.5
		c-0.1,0.6-0.1,1.3-0.1,2c0,0.8,0,1.3,0,1.6s-0.1,0.4-0.2,0.4c-0.1,0-0.3-0.1-0.6-0.3c-0.3-0.2-0.5-0.4-0.5-0.8c0-0.3,0-0.6,0.1-0.9
		c0.1-0.4,0.2-0.7,0.2-1c0-0.3-0.1-0.5-0.4-0.8C-44-7.8-44.4-8-45.2-8.2v-0.3c0.8,0.1,1.4,0.1,1.6,0.1c0.2,0,0.5-0.3,0.8-0.7
		c0.3-0.4,1.3-2.9,3-7.5L-39.5-16.5z M-45.1-15.1c1.4,0.8,2.2,1.3,2.2,1.7c0,0.4-0.1,0.7-0.2,0.9c-0.2,0.2-0.3,0.3-0.4,0.3
		c-0.1,0-0.3-0.2-0.4-0.6c-0.2-0.6-0.6-1.3-1.3-2.1L-45.1-15.1z M-43.4-19c1.2,0.6,1.8,1,2,1.2c0.1,0.2,0.2,0.4,0.2,0.7
		c0,0.2-0.1,0.5-0.2,0.7c-0.1,0.2-0.3,0.4-0.4,0.4c-0.1,0-0.2-0.2-0.3-0.6c-0.2-0.6-0.7-1.3-1.4-2.1L-43.4-19z M-23-6.9
		c0,0.9,0,2,0.1,3.2l-1.1,0.6c0-1.5,0.1-2.7,0.1-3.7v-7.5c-0.9,1.5-1.8,2.7-2.7,3.7L-27-11c0.6-0.8,1.3-1.8,2-3.3
		c0.7-1.4,1.4-3.3,2-5.5l1.5,0.9l-0.6,0.4c-0.6,1.4-1.2,2.5-1.7,3.5l1.3,0.6l-0.6,0.5V-6.9z M-15.8-18.7l-0.7,0.3
		c0.8,1.5,1.7,2.7,2.8,3.7c1.1,1,2.2,1.6,3.2,1.8v0.3c-0.8,0-1.3,0.3-1.5,0.8c-0.7-0.4-1.5-1.1-2.3-2.1c-0.8-1-1.6-2.3-2.4-4.1
		c-1,2.1-2,3.7-2.9,4.7s-1.9,1.8-2.9,2.4l-0.1-0.2c1.2-1,2.2-2.2,3.1-3.8c0.9-1.5,1.6-3.1,2.1-4.7L-15.8-18.7z M-13-10.9l-0.9,0.1
		c-1.6,0.9-3.1,1.6-4.5,2.2v2.7c-0.1,0.7,0.3,1,1.1,1h3.6c0.4-0.1,0.7-0.4,0.8-1c0.1-0.6,0.2-1.4,0.2-2.3h0.3c0,0.8,0,1.4,0.1,2
		c0.1,0.6,0.3,0.9,0.8,1c-0.3,0.7-0.8,1-1.5,1.1h-4.9c-1.1,0-1.6-0.4-1.6-1.3v-4.7c0-0.8,0-1.8-0.1-2.9l1.7,0.8l-0.6,0.5v2.8
		c1.7-0.9,3.1-2,4.2-3.2L-13-10.9z M1-5.6c1.4,0,2.9-0.1,4.4-0.1C5.1-6.7,4.6-7.5,4.2-8.2l0.2-0.1C6.1-6.9,6.9-6,6.9-5.4
		c0,0.6-0.1,1-0.3,1.2S6.2-3.9,6.1-3.9C6-3.9,6-4,6-4.2C5.9-4.5,5.8-4.9,5.6-5.4C2.8-5,1.1-4.6,0.6-4.2l-0.8-1.5
		c0.5-0.2,1-0.6,1.5-1.2c0.5-0.6,1.2-1.7,2.2-3.4c-1.6,0.2-2.7,0.5-3.3,1.1l-0.8-1.4c0.3-0.1,0.6-0.3,0.9-0.6s0.6-0.9,1.1-1.7
		c0.5-0.9,0.8-1.7,0.9-2.4l1.4,0.9c-0.5,0.3-1.1,0.9-1.7,1.8c-0.6,1-1.1,1.7-1.5,2.1c1-0.1,2-0.1,3.1-0.1c0.6-1,1-1.9,1.2-2.6
		l1.3,1.1C5.7-12,5-11.2,4-9.6C3-8.1,2-6.8,1-5.6z M-7.4-5.5c0.5-0.1,1-0.4,1.4-0.9s1.3-1.8,2.7-4c-1.9,0.2-3.1,0.6-3.5,1l-0.8-1.3
		c0.7-0.1,1.3-0.8,1.9-1.9c0.6-1.1,1-2.1,1.3-2.9l1.4,1l-0.7,0.3c-1.4,2-2.3,3.1-2.7,3.5c1.1,0,2.1-0.1,3.2-0.1
		c0.5-0.9,0.8-1.7,1.1-2.5l1.3,1c-0.4,0.1-1.1,1-2.1,2.5c-1,1.6-2.1,3-3.2,4.2c1.4-0.1,2.7-0.2,3.9-0.2c-0.2-0.7-0.5-1.4-0.9-2.1
		L-2.6-8c1.4,1.3,2.1,2.2,2.2,2.7c0.1,0.5,0,0.9-0.3,1.2C-1-3.8-1.2-3.7-1.3-3.7c-0.1,0-0.1-0.1-0.1-0.2c-0.1-0.3-0.2-0.8-0.4-1.5
		C-4.5-5-6-4.5-6.5-4.1L-7.4-5.5z M-4.4-19.2l0.2-0.1c0.8,0.4,1.4,0.8,1.9,1.3c0.4,0.4,0.7,0.8,0.7,1.1c0,0.4-0.2,0.8-0.6,1.2h3.2
		c0.8-1.6,1.4-2.9,1.5-3.8l1.5,1l-0.7,0.3c-0.8,1-1.4,1.9-1.9,2.5h3.8L6.3-17l1.5,1.5H-6c-0.6,0-1.2,0.1-1.7,0.2l-0.6-0.6h5.6
		C-2.9-16.4-3-17-3.3-17.5C-3.5-17.9-3.9-18.5-4.4-19.2z M20.4-10.6v5.1h2.9v-5.1H20.4z M11.8-16.4l1.1,0.6h2.8c0-1.7,0-3.1-0.1-4
		l1.6,0.8l-0.6,0.5v2.7h2.9c0-1.9,0-3.2-0.1-4l1.7,0.8l-0.7,0.4v2.7h2.8l0.6-0.7l1.1,0.9l-0.6,0.5c0,6.1,0,9.7,0.1,10.8l-1,0.5v-1.3
		H12.9V-4l-1.1,0.5c0.1-2.2,0.1-4.4,0.1-6.6C11.9-12.3,11.9-14.4,11.8-16.4z M12.9-15.3v4.3h2.8v-4.3H12.9z M16.6-15.3v4.3h2.9v-4.3
		H16.6z M20.4-15.3v4.3h2.9v-4.3H20.4z M12.9-10.6v5.1h2.8v-5.1H12.9z M16.6-10.6v5.1h2.9v-5.1H16.6z M38.3-14.6
		c0,0.7,0,1.5,0.1,2.6l3.3-0.3l0.9-1.1l1.4,1.2l-5.5,0.6c0.1,1.4,0.4,2.6,0.7,3.4c1-0.9,1.8-1.9,2.5-3l1.3,1.3l-0.6,0.1
		c-0.9,0.8-1.8,1.7-2.7,2.5c0.8,1.2,1.8,2,3,2.5l1-3.4l0.3,0.1c-0.1,1.1-0.2,2-0.2,2.7c0,0.7,0.1,1.3,0.3,1.7c0,0.1,0.1,0.2,0.1,0.2
		c0,0.2-0.2,0.2-0.7,0.2c-0.5-0.1-1.1-0.4-2-0.8c-0.8-0.5-1.7-1.3-2.5-2.4c-0.8,0.6-1.7,1-2.6,1.4c-0.9,0.4-2,0.8-3.3,1.1L33-4.3
		c2-0.8,3.8-1.8,5.4-3.1c-0.4-1.3-0.7-2.6-0.8-4.1l-2.9,0.3l-0.6,0.3l-0.8-0.6l4.1-0.4c0-0.7-0.1-1.5-0.1-2.7l-2,0.1l-0.4,0.3
		l-0.6-0.6l3.1-0.2c0-1.6-0.1-3.3-0.1-4.9l1.6,0.8l-0.6,0.5c0,1,0,2.2,0.1,3.6l3-0.3l0.9-1l1.4,1.3L38.3-14.6z M39.4-18.6l0.1-0.2
		c1.5,0.4,2.3,0.7,2.4,0.9c0.1,0.3,0.2,0.5,0.2,0.7c0,0.2,0,0.5-0.1,0.7c-0.1,0.2-0.2,0.4-0.3,0.4s-0.2-0.2-0.4-0.6
		C40.9-17.2,40.2-17.8,39.4-18.6z M31.6-19.5l1.4,0.9c-0.4,0.1-0.8,0.6-1.2,1.4c-0.4,0.8-1.2,2-2.3,3.6l2.9-0.3
		c0.6-0.9,1-1.9,1.3-2.8l1.3,0.9c-0.3,0.2-0.9,0.9-1.7,2c-0.8,1.2-1.8,2.6-3.1,4.2c0.7-0.1,2.1-0.4,4.4-0.8v0.3
		c-1.3,0.3-2.3,0.6-3,0.9c-0.7,0.3-1.4,0.6-2.1,1.1l-0.8-1.5c0.5-0.1,1.1-0.7,1.8-1.5c0.7-0.9,1.3-1.7,1.8-2.6
		c-0.5,0.1-1,0.2-1.6,0.4c-0.6,0.2-1.1,0.5-1.5,0.9l-0.8-1.3c0.5-0.1,1.1-0.8,1.8-2C30.8-16.9,31.3-18.2,31.6-19.5z M28.2-6.1
		c1.3-0.2,2.4-0.4,3.2-0.5s2.1-0.4,3.9-0.8L35.3-7c-2.1,0.6-3.6,1.1-4.6,1.4c-1,0.3-1.6,0.6-1.8,0.9L28.2-6.1z"/>
</g>
<g>
	<path class="st3" d="M625,806l52.7-52.7l52.7-52.7l52.7-52.7l52.7-52.7l52.7-52.7l52.7-52.7L994,437l52.7-52.7l52.7-52.7l52.7-52.7
		l52.7-52.7l52.7-52.7l52.7-52.7L1363,68"/>
	<path class="st4" d="M625,801.4c2.5,0,4.6,2.1,4.6,4.6l0,0c0,2.5-2.1,4.6-4.6,4.6s-4.6-2.1-4.6-4.6S622.5,801.4,625,801.4z
		 M625,800.6c-3,0-5.4,2.4-5.4,5.4s2.4,5.4,5.4,5.4s5.4-2.4,5.4-5.4l0,0C630.4,803,628,800.6,625,800.6z"/>
	<path class="st4" d="M677.7,791.5c2.5,0,4.6,2.1,4.6,4.6l0,0c0,2.5-2.1,4.6-4.6,4.6s-4.6-2.1-4.6-4.6S675.2,791.5,677.7,791.5z
		 M677.7,790.7c-3,0-5.4,2.4-5.4,5.4s2.4,5.4,5.4,5.4s5.4-2.4,5.4-5.4l0,0C683.1,793.1,680.7,790.7,677.7,790.7z"/>
	<path class="st4" d="M730.4,768c2.5,0,4.6,2.1,4.6,4.6l0,0c0,2.5-2.1,4.6-4.6,4.6s-4.6-2.1-4.6-4.6S727.9,768,730.4,768z
		 M730.4,767.1c-3,0-5.4,2.4-5.4,5.4s2.4,5.4,5.4,5.4s5.4-2.4,5.4-5.4l0,0C735.8,769.6,733.4,767.1,730.4,767.1z"/>
	<path class="st4" d="M783.1,744.4c2.5,0,4.6,2.1,4.6,4.6l0,0c0,2.5-2.1,4.6-4.6,4.6s-4.6-2.1-4.6-4.6S780.6,744.4,783.1,744.4z
		 M783.1,743.6c-3,0-5.4,2.4-5.4,5.4s2.4,5.4,5.4,5.4s5.4-2.4,5.4-5.4l0,0C788.6,746,786.1,743.6,783.1,743.6z"/>
	<path class="st4" d="M835.9,700.4c2.5,0,4.6,2.1,4.6,4.6l0,0c0,2.5-2.1,4.6-4.6,4.6s-4.6-2.1-4.6-4.6S833.3,700.4,835.9,700.4z
		 M835.9,699.6c-3,0-5.4,2.4-5.4,5.4s2.4,5.4,5.4,5.4s5.4-2.4,5.4-5.4l0,0C841.3,702,838.8,699.6,835.9,699.6z"/>
	<path class="st4" d="M888.6,653.7c2.5,0,4.6,2.1,4.6,4.6l0,0c0,2.5-2.1,4.6-4.6,4.6s-4.6-2.1-4.6-4.6S886,653.7,888.6,653.7z
		 M888.6,652.9c-3,0-5.4,2.4-5.4,5.4s2.4,5.4,5.4,5.4s5.4-2.4,5.4-5.4l0,0C894,655.3,891.6,652.9,888.6,652.9z"/>
	<path class="st4" d="M941.3,606c2.5,0,4.6,2.1,4.6,4.6l0,0c0,2.5-2.1,4.6-4.6,4.6s-4.6-2.1-4.6-4.6S938.8,606,941.3,606z
		 M941.3,605.1c-3,0-5.4,2.4-5.4,5.4s2.4,5.4,5.4,5.4s5.4-2.4,5.4-5.4l0,0C946.7,607.6,944.3,605.1,941.3,605.1z"/>
	<path class="st4" d="M994,552.4c2.5,0,4.6,2.1,4.6,4.6l0,0c0,2.5-2.1,4.6-4.6,4.6s-4.6-2.1-4.6-4.6S991.5,552.4,994,552.4z
		 M994,551.6c-3,0-5.4,2.4-5.4,5.4s2.4,5.4,5.4,5.4s5.4-2.4,5.4-5.4l0,0C999.4,554,997,551.6,994,551.6z"/>
	<path class="st4" d="M1046.7,493.8c2.5,0,4.6,2.1,4.6,4.6l0,0c0,2.5-2.1,4.6-4.6,4.6s-4.6-2.1-4.6-4.6S1044.2,493.8,1046.7,493.8z
		 M1046.7,493c-3,0-5.4,2.4-5.4,5.4s2.4,5.4,5.4,5.4s5.4-2.4,5.4-5.4l0,0C1052.1,495.4,1049.7,493,1046.7,493z"/>
	<path class="st4" d="M1099.4,431.7c2.5,0,4.6,2.1,4.6,4.6l0,0c0,2.5-2.1,4.6-4.6,4.6s-4.6-2.1-4.6-4.6S1096.9,431.7,1099.4,431.7z
		 M1099.4,430.9c-3,0-5.4,2.4-5.4,5.4s2.4,5.4,5.4,5.4s5.4-2.4,5.4-5.4l0,0C1104.8,433.3,1102.4,430.9,1099.4,430.9z"/>
	<path class="st4" d="M1152.1,369c2.5,0,4.6,2.1,4.6,4.6l0,0c0,2.5-2.1,4.6-4.6,4.6s-4.6-2.1-4.6-4.6S1149.6,369,1152.1,369z
		 M1152.1,368.1c-3,0-5.4,2.4-5.4,5.4s2.4,5.4,5.4,5.4s5.4-2.4,5.4-5.4l0,0C1157.6,370.6,1155.1,368.1,1152.1,368.1z"/>
	<path class="st4" d="M1204.9,305.7c2.5,0,4.6,2.1,4.6,4.6l0,0c0,2.5-2.1,4.6-4.6,4.6s-4.6-2.1-4.6-4.6S1202.3,305.7,1204.9,305.7z
		 M1204.9,304.8c-3,0-5.4,2.4-5.4,5.4s2.4,5.4,5.4,5.4s5.4-2.4,5.4-5.4l0,0C1210.3,307.2,1207.8,304.8,1204.9,304.8z"/>
	<path class="st4" d="M1257.6,241c2.5,0,4.6,2.1,4.6,4.6l0,0c0,2.5-2.1,4.6-4.6,4.6s-4.6-2.1-4.6-4.6S1255,241,1257.6,241z
		 M1257.6,240.2c-3,0-5.4,2.4-5.4,5.4s2.4,5.4,5.4,5.4s5.4-2.4,5.4-5.4l0,0C1263,242.6,1260.6,240.2,1257.6,240.2z"/>
	<path class="st4" d="M1310.3,157.8c2.5,0,4.6,2.1,4.6,4.6l0,0c0,2.5-2.1,4.6-4.6,4.6s-4.6-2.1-4.6-4.6S1307.8,157.8,1310.3,157.8z
		 M1310.3,156.9c-3,0-5.4,2.4-5.4,5.4s2.4,5.4,5.4,5.4s5.4-2.4,5.4-5.4l0,0C1315.7,159.4,1313.3,156.9,1310.3,156.9z"/>
	<path class="st4" d="M1363,63.4c2.5,0,4.6,2.1,4.6,4.6l0,0c0,2.5-2.1,4.6-4.6,4.6s-4.6-2.1-4.6-4.6S1360.5,63.4,1363,63.4z
		 M1363,62.6c-3,0-5.4,2.4-5.4,5.4s2.4,5.4,5.4,5.4s5.4-2.4,5.4-5.4l0,0C1368.4,65,1366,62.6,1363,62.6z"/>
</g>
<g>
	<path class="st5" d="M629.8,806.1L629.8,806.1l5-1.1l4.9-1.1l4.9-1.1l4.9-1.1l4.9-1.1l4.9-1.2l4.9-1.3l4.9-1.3l4.9-1.4l4.9-1.5
		l4.9-1.6l4.9-1.6l4.9-1.7l4.9-1.8l4.9-1.9l4.9-1.9l4.9-2l4.9-2l4.9-2.1l4.9-2.1l4.9-2.2l4.9-2.2l4.9-2.3l4.9-2.4l4.9-2.4l4.9-2.5
		l4.9-2.6l4.9-2.7l4.9-2.9l4.9-3l4.9-3.1l4.9-3.2l4.9-3.4l4.9-3.5l4.9-3.6l4.9-3.7l4.9-3.8l4.9-3.9l4.9-4l4.9-4.1l4.9-4.1l4.9-4.2
		l4.9-4.2l4.9-4.3l4.9-4.3l4.9-4.3l4.9-4.4l4.9-4.4l4.9-4.4l4.9-4.4l4.9-4.4l4.9-4.5l4.9-4.5l4.9-4.5l4.9-4.5l4.9-4.5l4.9-4.5
		l4.9-4.5l4.9-4.6l4.9-4.6l4.9-4.6l4.9-4.7l4.9-4.7l4.9-4.8l4.9-4.8l4.9-4.8l4.9-4.9l4.9-4.9l4.9-5l4.9-5l4.9-5.1l4.9-5.1l4.9-5.2
		l4.9-5.2l4.9-5.3l4.9-5.3l4.9-5.3l4.9-5.4l4.9-5.4l4.9-5.5l4.9-5.5l4.9-5.5l4.9-5.6l4.9-5.6l4.9-5.6l4.9-5.7l4.9-5.7l4.9-5.7
		l4.9-5.7l4.9-5.8l4.9-5.8l4.9-5.8l4.9-5.8l4.9-5.8l4.9-5.8l4.9-5.8l4.9-5.8l4.9-5.8l4.9-5.8l4.9-5.8l4.9-5.8l4.9-5.8l4.9-5.8
		l4.9-5.8l4.9-5.8l4.9-5.8l4.9-5.8l4.9-5.8l4.9-5.8l4.9-5.8l4.9-5.8l4.9-5.8l4.9-5.9l4.9-5.9l4.9-5.9l4.9-5.9l4.9-5.9l4.9-6l4.9-6
		l4.9-6.1l4.9-6.1l4.9-6.2l4.9-6.3l4.9-6.4l4.9-6.5l4.9-6.6l4.9-6.8l4.9-6.9l4.9-7.1l4.9-7.2l4.9-7.3l4.9-7.5l4.9-7.6l4.9-7.7
		l4.9-7.8l4.9-8l4.9-8.1l4.9-8.2l4.9-8.3l4.9-8.4l4.9-8.5l4.9-8.5l4.9-8.6l4.9-8.7l4.9-8.7l4.9-8.7l4.9-8.8l4.9-8.8l4.9-8.8"/>
	<line class="st6" x1="625" y1="806" x2="1363" y2="68"/>
	<path class="st7" d="M625,806l52.7-9.9l52.7-23.5l52.7-23.5l52.7-44l52.7-46.7l52.7-47.8L994,557l52.7-58.6l52.7-62.1l52.7-62.8
		l52.7-63.3l52.7-64.7l52.7-83.2L1363,68"/>
</g>
<g transform="translate(625,806)">
	<path class="st8" d="M-4-4v8h8v-8H-4z"/>
</g>
<g transform="translate(625,806)">
	<path class="st9" d="M-4-4v8h8v-8H-4z"/>
</g>
<g transform="translate(677.7143,796.0787)">
	<path class="st8" d="M-4-4v8h8v-8H-4z"/>
</g>
<g transform="translate(677.7143,796.0787)">
	<path class="st9" d="M-4-4v8h8v-8H-4z"/>
</g>
<g transform="translate(730.4286,772.5585)">
	<path class="st8" d="M-4-4v8h8v-8H-4z"/>
</g>
<g transform="translate(730.4286,772.5585)">
	<path class="st9" d="M-4-4v8h8v-8H-4z"/>
</g>
<g transform="translate(783.1429,749.027)">
	<path class="st8" d="M-4-4v8h8v-8H-4z"/>
</g>
<g transform="translate(783.1429,749.027)">
	<path class="st9" d="M-4-4v8h8v-8H-4z"/>
</g>
<g transform="translate(835.8572,704.9887)">
	<path class="st8" d="M-4-4v8h8v-8H-4z"/>
</g>
<g transform="translate(835.8572,704.9887)">
	<path class="st9" d="M-4-4v8h8v-8H-4z"/>
</g>
<g transform="translate(888.5714,658.3083)">
	<path class="st8" d="M-4-4v8h8v-8H-4z"/>
</g>
<g transform="translate(888.5714,658.3083)">
	<path class="st9" d="M-4-4v8h8v-8H-4z"/>
</g>
<g transform="translate(941.2857,610.5433)">
	<path class="st8" d="M-4-4v8h8v-8H-4z"/>
</g>
<g transform="translate(941.2857,610.5433)">
	<path class="st9" d="M-4-4v8h8v-8H-4z"/>
</g>
<g transform="translate(994,557.0214)">
	<path class="st8" d="M-4-4v8h8v-8H-4z"/>
</g>
<g transform="translate(994,557.0214)">
	<path class="st9" d="M-4-4v8h8v-8H-4z"/>
</g>
<g transform="translate(1046.7144,498.4326)">
	<path class="st8" d="M-4-4v8h8v-8H-4z"/>
</g>
<g transform="translate(1046.7144,498.4326)">
	<path class="st9" d="M-4-4v8h8v-8H-4z"/>
</g>
<g transform="translate(1099.4286,436.3242)">
	<path class="st8" d="M-4-4v8h8v-8H-4z"/>
</g>
<g transform="translate(1099.4286,436.3242)">
	<path class="st9" d="M-4-4v8h8v-8H-4z"/>
</g>
<g transform="translate(1152.1428,373.5428)">
	<path class="st8" d="M-4-4v8h8v-8H-4z"/>
</g>
<g transform="translate(1152.1428,373.5428)">
	<path class="st9" d="M-4-4v8h8v-8H-4z"/>
</g>
<g transform="translate(1204.8572,310.24)">
	<path class="st8" d="M-4-4v8h8v-8H-4z"/>
</g>
<g transform="translate(1204.8572,310.24)">
	<path class="st9" d="M-4-4v8h8v-8H-4z"/>
</g>
<g transform="translate(1257.5714,245.5747)">
	<path class="st8" d="M-4-4v8h8v-8H-4z"/>
</g>
<g transform="translate(1257.5714,245.5747)">
	<path class="st9" d="M-4-4v8h8v-8H-4z"/>
</g>
<g transform="translate(1310.2856,162.3643)">
	<path class="st8" d="M-4-4v8h8v-8H-4z"/>
</g>
<g transform="translate(1310.2856,162.3643)">
	<path class="st9" d="M-4-4v8h8v-8H-4z"/>
</g>
<g transform="translate(1363,68)">
	<path class="st8" d="M-4-4v8h8v-8H-4z"/>
</g>
<g transform="translate(1363,68)">
	<path class="st9" d="M-4-4v8h8v-8H-4z"/>
</g>
<g>
	<path class="st3" d="M625,806l52.7-52.7l52.7-52.7l52.7-52.7l52.7-52.7l52.7-52.7l52.7-52.7L994,437l52.7-52.7l52.7-52.7l52.7-52.7
		l52.7-52.7l52.7-52.7l52.7-52.7L1363,68"/>
	<path class="st10" d="M625,801.4c2.5,0,4.6,2.1,4.6,4.6l0,0c0,2.5-2.1,4.6-4.6,4.6s-4.6-2.1-4.6-4.6S622.5,801.4,625,801.4z
		 M625,800.6c-3,0-5.4,2.4-5.4,5.4s2.4,5.4,5.4,5.4s5.4-2.4,5.4-5.4l0,0C630.4,803,628,800.6,625,800.6z"/>
	<path class="st10" d="M677.7,788.2c2.5,0,4.6,2.1,4.6,4.6l0,0c0,2.5-2.1,4.6-4.6,4.6s-4.6-2.1-4.6-4.6S675.2,788.2,677.7,788.2z
		 M677.7,787.4c-3,0-5.4,2.4-5.4,5.4s2.4,5.4,5.4,5.4s5.4-2.4,5.4-5.4l0,0C683.1,789.8,680.7,787.4,677.7,787.4z"/>
	<path class="st10" d="M730.4,772.6c2.5,0,4.6,2.1,4.6,4.6l0,0c0,2.5-2.1,4.6-4.6,4.6s-4.6-2.1-4.6-4.6S727.9,772.6,730.4,772.6z
		 M730.4,771.7c-3,0-5.4,2.4-5.4,5.4s2.4,5.4,5.4,5.4s5.4-2.4,5.4-5.4l0,0C735.8,774.2,733.4,771.7,730.4,771.7z"/>
	<path class="st10" d="M783.1,746.2c2.5,0,4.6,2.1,4.6,4.6l0,0c0,2.5-2.1,4.6-4.6,4.6s-4.6-2.1-4.6-4.6S780.6,746.2,783.1,746.2z
		 M783.1,745.4c-3,0-5.4,2.4-5.4,5.4s2.4,5.4,5.4,5.4s5.4-2.4,5.4-5.4l0,0C788.6,747.8,786.1,745.4,783.1,745.4z"/>
	<path class="st10" d="M835.9,714.6c2.5,0,4.6,2.1,4.6,4.6l0,0c0,2.5-2.1,4.6-4.6,4.6s-4.6-2.1-4.6-4.6S833.3,714.6,835.9,714.6z
		 M835.9,713.8c-3,0-5.4,2.4-5.4,5.4s2.4,5.4,5.4,5.4s5.4-2.4,5.4-5.4l0,0C841.3,716.2,838.8,713.8,835.9,713.8z"/>
	<path class="st10" d="M888.6,677.8c2.5,0,4.6,2.1,4.6,4.6l0,0c0,2.5-2.1,4.6-4.6,4.6s-4.6-2.1-4.6-4.6S886,677.8,888.6,677.8z
		 M888.6,676.9c-3,0-5.4,2.4-5.4,5.4s2.4,5.4,5.4,5.4s5.4-2.4,5.4-5.4l0,0C894,679.4,891.6,676.9,888.6,676.9z"/>
	<path class="st10" d="M941.3,629.5c2.5,0,4.6,2.1,4.6,4.6l0,0c0,2.5-2.1,4.6-4.6,4.6s-4.6-2.1-4.6-4.6S938.8,629.5,941.3,629.5z
		 M941.3,628.7c-3,0-5.4,2.4-5.4,5.4s2.4,5.4,5.4,5.4s5.4-2.4,5.4-5.4l0,0C946.7,631.1,944.3,628.7,941.3,628.7z"/>
	<path class="st10" d="M994,576.8c2.5,0,4.6,2.1,4.6,4.6l0,0c0,2.5-2.1,4.6-4.6,4.6s-4.6-2.1-4.6-4.6S991.5,576.8,994,576.8z
		 M994,576c-3,0-5.4,2.4-5.4,5.4s2.4,5.4,5.4,5.4s5.4-2.4,5.4-5.4l0,0C999.4,578.4,997,576,994,576z"/>
	<path class="st10" d="M1046.7,522.2c2.5,0,4.6,2.1,4.6,4.6l0,0c0,2.5-2.1,4.6-4.6,4.6s-4.6-2.1-4.6-4.6S1044.2,522.2,1046.7,522.2z
		 M1046.7,521.4c-3,0-5.4,2.4-5.4,5.4s2.4,5.4,5.4,5.4s5.4-2.4,5.4-5.4l0,0C1052.1,523.8,1049.7,521.4,1046.7,521.4z"/>
	<path class="st10" d="M1099.4,464.1c2.5,0,4.6,2.1,4.6,4.6l0,0c0,2.5-2.1,4.6-4.6,4.6s-4.6-2.1-4.6-4.6S1096.9,464.1,1099.4,464.1z
		 M1099.4,463.2c-3,0-5.4,2.4-5.4,5.4s2.4,5.4,5.4,5.4s5.4-2.4,5.4-5.4l0,0C1104.8,465.6,1102.4,463.2,1099.4,463.2z"/>
	<path class="st10" d="M1152.1,400.3c2.5,0,4.6,2.1,4.6,4.6l0,0c0,2.5-2.1,4.6-4.6,4.6s-4.6-2.1-4.6-4.6S1149.6,400.3,1152.1,400.3z
		 M1152.1,399.4c-3,0-5.4,2.4-5.4,5.4s2.4,5.4,5.4,5.4s5.4-2.4,5.4-5.4l0,0C1157.6,401.9,1155.1,399.4,1152.1,399.4z"/>
	<path class="st10" d="M1204.9,329.6c2.5,0,4.6,2.1,4.6,4.6l0,0c0,2.5-2.1,4.6-4.6,4.6s-4.6-2.1-4.6-4.6S1202.3,329.6,1204.9,329.6z
		 M1204.9,328.7c-3,0-5.4,2.4-5.4,5.4s2.4,5.4,5.4,5.4s5.4-2.4,5.4-5.4l0,0C1210.3,331.1,1207.8,328.7,1204.9,328.7z"/>
	<path class="st10" d="M1257.6,251.2c2.5,0,4.6,2.1,4.6,4.6l0,0c0,2.5-2.1,4.6-4.6,4.6s-4.6-2.1-4.6-4.6
		C1253,253.2,1255,251.2,1257.6,251.2z M1257.6,250.4c-3,0-5.4,2.4-5.4,5.4c0,3,2.4,5.4,5.4,5.4s5.4-2.4,5.4-5.4l0,0
		C1263,252.8,1260.6,250.4,1257.6,250.4z"/>
	<path class="st10" d="M1310.3,164.9c2.5,0,4.6,2.1,4.6,4.6l0,0c0,2.5-2.1,4.6-4.6,4.6s-4.6-2.1-4.6-4.6S1307.8,164.9,1310.3,164.9z
		 M1310.3,164.1c-3,0-5.4,2.4-5.4,5.4s2.4,5.4,5.4,5.4s5.4-2.4,5.4-5.4l0,0C1315.7,166.5,1313.3,164.1,1310.3,164.1z"/>
	<path class="st10" d="M1363,63.4c2.5,0,4.6,2.1,4.6,4.6l0,0c0,2.5-2.1,4.6-4.6,4.6s-4.6-2.1-4.6-4.6S1360.5,63.4,1363,63.4z
		 M1363,62.6c-3,0-5.4,2.4-5.4,5.4s2.4,5.4,5.4,5.4s5.4-2.4,5.4-5.4l0,0C1368.4,65,1366,62.6,1363,62.6z"/>
</g>
<g>
	<path class="st11" d="M626.2,806.1l3.8-0.9l4.9-1.2l4.9-1.2l4.9-1.2l4.9-1.2l4.9-1.2l4.9-1.2l4.9-1.3l4.9-1.3l4.9-1.3l4.9-1.3
		l4.9-1.4l4.9-1.4l4.9-1.4l4.9-1.5l4.9-1.5l4.9-1.6l4.9-1.7l4.9-1.7l4.9-1.8l4.9-1.9l4.9-1.9l4.9-2l4.9-2.1l4.9-2.2l4.9-2.2l4.9-2.3
		l4.9-2.4l4.9-2.4l4.9-2.5l4.9-2.6l4.9-2.6l4.9-2.7l4.9-2.7l4.9-2.8l4.9-2.8l4.9-2.9l4.9-2.9l4.9-3l4.9-3l4.9-3.1l4.9-3.2l4.9-3.2
		l4.9-3.3l4.9-3.3l4.9-3.4l4.9-3.4l4.9-3.5l4.9-3.6l4.9-3.7l4.9-3.7l4.9-3.8l4.9-3.9l4.9-4l4.9-4.1l4.9-4.2l4.9-4.2l4.9-4.3l4.9-4.4
		l4.9-4.4l4.9-4.5l4.9-4.6l4.9-4.6l4.9-4.7l4.9-4.7l4.9-4.8l4.9-4.8l4.9-4.8l4.9-4.9l4.9-4.9l4.9-4.9l4.9-5l4.9-5l4.9-5l4.9-5l4.9-5
		l4.9-5.1l4.9-5.1l4.9-5.1l4.9-5.1l4.9-5.1l4.9-5.2l4.9-5.2l4.9-5.2l4.9-5.2l4.9-5.3l4.9-5.3l4.9-5.3l4.9-5.3l4.9-5.4l4.9-5.4
		l4.9-5.5l4.9-5.5l4.9-5.5l4.9-5.6l4.9-5.6l4.9-5.7l4.9-5.7l4.9-5.8l4.9-5.8l4.9-5.9l4.9-5.9l4.9-6l4.9-6l4.9-6.1l4.9-6.2l4.9-6.2
		l4.9-6.3l4.9-6.3l4.9-6.4l4.9-6.5l4.9-6.5l4.9-6.6l4.9-6.6l4.9-6.7l4.9-6.8l4.9-6.8l4.9-6.9l4.9-7l4.9-7l4.9-7.1l4.9-7.2l4.9-7.3
		l4.9-7.3l4.9-7.4l4.9-7.5l4.9-7.6l4.9-7.6l4.9-7.7l4.9-7.8l4.9-7.9l4.9-8l4.9-8.1l4.9-8.2l4.9-8.3l4.9-8.4l4.9-8.5l4.9-8.6l4.9-8.7
		l4.9-8.8l4.9-8.9l4.9-9l4.9-9.1l4.9-9.2l4.9-9.2l4.9-9.3l4.9-9.3l4.9-9.3l4.9-9.4l4.9-9.4"/>
	<line class="st12" x1="625" y1="806" x2="1363" y2="68"/>
	<path class="st13" d="M625,806l52.7-13.2l52.7-15.7l52.7-26.3l52.7-31.6l52.7-36.9l52.7-48.2l52.7-52.7l52.7-54.6l52.7-58.2
		l52.7-63.8l52.7-70.7l52.7-78.4l52.7-86.3L1363,68"/>
</g>
<g transform="translate(625,806)">
	<path class="st14" d="M-4-4v8h8v-8H-4z"/>
</g>
<g transform="translate(625,806)">
	<path class="st15" d="M-4-4v8h8v-8H-4z"/>
</g>
<g transform="translate(677.7143,792.8079)">
	<path class="st14" d="M-4-4v8h8v-8H-4z"/>
</g>
<g transform="translate(677.7143,792.8079)">
	<path class="st15" d="M-4-4v8h8v-8H-4z"/>
</g>
<g transform="translate(730.4286,777.1442)">
	<path class="st14" d="M-4-4v8h8v-8H-4z"/>
</g>
<g transform="translate(730.4286,777.1442)">
	<path class="st15" d="M-4-4v8h8v-8H-4z"/>
</g>
<g transform="translate(783.1429,750.8073)">
	<path class="st14" d="M-4-4v8h8v-8H-4z"/>
</g>
<g transform="translate(783.1429,750.8073)">
	<path class="st15" d="M-4-4v8h8v-8H-4z"/>
</g>
<g transform="translate(835.8572,719.2003)">
	<path class="st14" d="M-4-4v8h8v-8H-4z"/>
</g>
<g transform="translate(835.8572,719.2003)">
	<path class="st15" d="M-4-4v8h8v-8H-4z"/>
</g>
<g transform="translate(888.5714,682.3492)">
	<path class="st14" d="M-4-4v8h8v-8H-4z"/>
</g>
<g transform="translate(888.5714,682.3492)">
	<path class="st15" d="M-4-4v8h8v-8H-4z"/>
</g>
<g transform="translate(941.2857,634.1087)">
	<path class="st14" d="M-4-4v8h8v-8H-4z"/>
</g>
<g transform="translate(941.2857,634.1087)">
	<path class="st15" d="M-4-4v8h8v-8H-4z"/>
</g>
<g transform="translate(994,581.3728)">
	<path class="st14" d="M-4-4v8h8v-8H-4z"/>
</g>
<g transform="translate(994,581.3728)">
	<path class="st15" d="M-4-4v8h8v-8H-4z"/>
</g>
<g transform="translate(1046.7144,526.8003)">
	<path class="st14" d="M-4-4v8h8v-8H-4z"/>
</g>
<g transform="translate(1046.7144,526.8003)">
	<path class="st15" d="M-4-4v8h8v-8H-4z"/>
</g>
<g transform="translate(1099.4286,468.6371)">
	<path class="st14" d="M-4-4v8h8v-8H-4z"/>
</g>
<g transform="translate(1099.4286,468.6371)">
	<path class="st15" d="M-4-4v8h8v-8H-4z"/>
</g>
<g transform="translate(1152.1428,404.8426)">
	<path class="st14" d="M-4-4v8h8v-8H-4z"/>
</g>
<g transform="translate(1152.1428,404.8426)">
	<path class="st15" d="M-4-4v8h8v-8H-4z"/>
</g>
<g transform="translate(1204.8572,334.1378)">
	<path class="st14" d="M-4-4v8h8v-8H-4z"/>
</g>
<g transform="translate(1204.8572,334.1378)">
	<path class="st15" d="M-4-4v8h8v-8H-4z"/>
</g>
<g transform="translate(1257.5714,255.7803)">
	<path class="st14" d="M-4-4v8h8v-8H-4z"/>
</g>
<g transform="translate(1257.5714,255.7803)">
	<path class="st15" d="M-4-4v8h8v-8H-4z"/>
</g>
<g transform="translate(1310.2856,169.4809)">
	<path class="st14" d="M-4-4v8h8v-8H-4z"/>
</g>
<g transform="translate(1310.2856,169.4809)">
	<path class="st15" d="M-4-4v8h8v-8H-4z"/>
</g>
<g transform="translate(1363,68)">
	<path class="st14" d="M-4-4v8h8v-8H-4z"/>
</g>
<g transform="translate(1363,68)">
	<path class="st15" d="M-4-4v8h8v-8H-4z"/>
</g>
<g>
	<path class="st3" d="M625,806l52.7-52.7l52.7-52.7l52.7-52.7l52.7-52.7l52.7-52.7l52.7-52.7L994,437l52.7-52.7l52.7-52.7l52.7-52.7
		l52.7-52.7l52.7-52.7l52.7-52.7L1363,68"/>
	<path class="st8" d="M625,801.4c2.5,0,4.6,2.1,4.6,4.6l0,0c0,2.5-2.1,4.6-4.6,4.6s-4.6-2.1-4.6-4.6S622.5,801.4,625,801.4z
		 M625,800.6c-3,0-5.4,2.4-5.4,5.4s2.4,5.4,5.4,5.4s5.4-2.4,5.4-5.4l0,0C630.4,803,628,800.6,625,800.6z"/>
	<path class="st8" d="M677.7,786.1c2.5,0,4.6,2.1,4.6,4.6l0,0c0,2.5-2.1,4.6-4.6,4.6s-4.6-2.1-4.6-4.6S675.2,786.1,677.7,786.1z
		 M677.7,785.3c-3,0-5.4,2.4-5.4,5.4s2.4,5.4,5.4,5.4s5.4-2.4,5.4-5.4l0,0C683.1,787.7,680.7,785.3,677.7,785.3z"/>
	<path class="st8" d="M730.4,770.2c2.5,0,4.6,2.1,4.6,4.6l0,0c0,2.5-2.1,4.6-4.6,4.6s-4.6-2.1-4.6-4.6S727.9,770.2,730.4,770.2z
		 M730.4,769.3c-3,0-5.4,2.4-5.4,5.4s2.4,5.4,5.4,5.4s5.4-2.4,5.4-5.4l0,0C735.8,771.7,733.4,769.3,730.4,769.3z"/>
	<path class="st8" d="M783.1,753c2.5,0,4.6,2.1,4.6,4.6l0,0c0,2.5-2.1,4.6-4.6,4.6s-4.6-2.1-4.6-4.6S780.6,753,783.1,753z
		 M783.1,752.2c-3,0-5.4,2.4-5.4,5.4s2.4,5.4,5.4,5.4s5.4-2.4,5.4-5.4l0,0C788.6,754.6,786.1,752.2,783.1,752.2z"/>
	<path class="st8" d="M835.9,735.1c2.5,0,4.6,2.1,4.6,4.6l0,0c0,2.5-2.1,4.6-4.6,4.6s-4.6-2.1-4.6-4.6S833.3,735.1,835.9,735.1z
		 M835.9,734.3c-3,0-5.4,2.4-5.4,5.4s2.4,5.4,5.4,5.4s5.4-2.4,5.4-5.4l0,0C841.3,736.7,838.8,734.3,835.9,734.3z"/>
	<path class="st8" d="M888.6,695.5c2.5,0,4.6,2.1,4.6,4.6l0,0c0,2.5-2.1,4.6-4.6,4.6s-4.6-2.1-4.6-4.6S886,695.5,888.6,695.5z
		 M888.6,694.6c-3,0-5.4,2.4-5.4,5.4s2.4,5.4,5.4,5.4s5.4-2.4,5.4-5.4l0,0C894,697.1,891.6,694.6,888.6,694.6z"/>
	<path class="st8" d="M941.3,651.1c2.5,0,4.6,2.1,4.6,4.6l0,0c0,2.5-2.1,4.6-4.6,4.6s-4.6-2.1-4.6-4.6S938.8,651.1,941.3,651.1z
		 M941.3,650.3c-3,0-5.4,2.4-5.4,5.4s2.4,5.4,5.4,5.4s5.4-2.4,5.4-5.4l0,0C946.7,652.7,944.3,650.3,941.3,650.3z"/>
	<path class="st8" d="M994,603.1c2.5,0,4.6,2.1,4.6,4.6l0,0c0,2.5-2.1,4.6-4.6,4.6s-4.6-2.1-4.6-4.6S991.5,603.1,994,603.1z
		 M994,602.3c-3,0-5.4,2.4-5.4,5.4s2.4,5.4,5.4,5.4s5.4-2.4,5.4-5.4l0,0C999.4,604.7,997,602.3,994,602.3z"/>
	<path class="st8" d="M1046.7,539.6c2.5,0,4.6,2.1,4.6,4.6l0,0c0,2.5-2.1,4.6-4.6,4.6s-4.6-2.1-4.6-4.6S1044.2,539.6,1046.7,539.6z
		 M1046.7,538.8c-3,0-5.4,2.4-5.4,5.4s2.4,5.4,5.4,5.4s5.4-2.4,5.4-5.4l0,0C1052.1,541.2,1049.7,538.8,1046.7,538.8z"/>
	<path class="st8" d="M1099.4,472.5c2.5,0,4.6,2.1,4.6,4.6l0,0c0,2.5-2.1,4.6-4.6,4.6s-4.6-2.1-4.6-4.6S1096.9,472.5,1099.4,472.5z
		 M1099.4,471.7c-3,0-5.4,2.4-5.4,5.4s2.4,5.4,5.4,5.4s5.4-2.4,5.4-5.4l0,0C1104.8,474.1,1102.4,471.7,1099.4,471.7z"/>
	<path class="st8" d="M1152.1,401.2c2.5,0,4.6,2.1,4.6,4.6l0,0c0,2.5-2.1,4.6-4.6,4.6s-4.6-2.1-4.6-4.6S1149.6,401.2,1152.1,401.2z
		 M1152.1,400.4c-3,0-5.4,2.4-5.4,5.4s2.4,5.4,5.4,5.4s5.4-2.4,5.4-5.4l0,0C1157.6,402.8,1155.1,400.4,1152.1,400.4z"/>
	<path class="st8" d="M1204.9,328.3c2.5,0,4.6,2.1,4.6,4.6l0,0c0,2.5-2.1,4.6-4.6,4.6s-4.6-2.1-4.6-4.6S1202.3,328.3,1204.9,328.3z
		 M1204.9,327.5c-3,0-5.4,2.4-5.4,5.4s2.4,5.4,5.4,5.4s5.4-2.4,5.4-5.4l0,0C1210.3,329.9,1207.8,327.5,1204.9,327.5z"/>
	<path class="st8" d="M1257.6,255.2c2.5,0,4.6,2.1,4.6,4.6l0,0c0,2.5-2.1,4.6-4.6,4.6s-4.6-2.1-4.6-4.6S1255,255.2,1257.6,255.2z
		 M1257.6,254.4c-3,0-5.4,2.4-5.4,5.4s2.4,5.4,5.4,5.4s5.4-2.4,5.4-5.4l0,0C1263,256.8,1260.6,254.4,1257.6,254.4z"/>
	<path class="st8" d="M1310.3,173.4c2.5,0,4.6,2.1,4.6,4.6l0,0c0,2.5-2.1,4.6-4.6,4.6s-4.6-2.1-4.6-4.6S1307.8,173.4,1310.3,173.4z
		 M1310.3,172.5c-3,0-5.4,2.4-5.4,5.4s2.4,5.4,5.4,5.4s5.4-2.4,5.4-5.4l0,0C1315.7,174.9,1313.3,172.5,1310.3,172.5z"/>
	<path class="st8" d="M1363,63.4c2.5,0,4.6,2.1,4.6,4.6l0,0c0,2.5-2.1,4.6-4.6,4.6s-4.6-2.1-4.6-4.6S1360.5,63.4,1363,63.4z
		 M1363,62.6c-3,0-5.4,2.4-5.4,5.4s2.4,5.4,5.4,5.4s5.4-2.4,5.4-5.4l0,0C1368.4,65,1366,62.6,1363,62.6z"/>
</g>
<g>
	<path class="st16" d="M625,806l4.9-1.4l4.9-1.4l4.9-1.4l4.9-1.4l4.9-1.4l4.9-1.4l4.9-1.4l4.9-1.4l4.9-1.4l4.9-1.4l4.9-1.4l4.9-1.4
		l4.9-1.4l4.9-1.4l4.9-1.4l4.9-1.4l4.9-1.5l4.9-1.5l4.9-1.5l4.9-1.5l4.9-1.5l4.9-1.5l4.9-1.5l4.9-1.5l4.9-1.5l4.9-1.5l4.9-1.5
		l4.9-1.5l4.9-1.5l4.9-1.6l4.9-1.6l4.9-1.6l4.9-1.7l4.9-1.7l4.9-1.8l4.9-1.8l4.9-1.9l4.9-2l4.9-2.1l4.9-2.2l4.9-2.3l4.9-2.5l4.9-2.6
		l4.9-2.8l4.9-2.9l4.9-3.1l4.9-3.2l4.9-3.3l4.9-3.4l4.9-3.5l4.9-3.6l4.9-3.7l4.9-3.8l4.9-3.8l4.9-3.9l4.9-4l4.9-4l4.9-4.1l4.9-4.1
		l4.9-4.2l4.9-4.2l4.9-4.3l4.9-4.3l4.9-4.4l4.9-4.4l4.9-4.4l4.9-4.5l4.9-4.6l4.9-4.6l4.9-4.7l4.9-4.8l4.9-4.9l4.9-5l4.9-5.1l4.9-5.2
		l4.9-5.3l4.9-5.4l4.9-5.5l4.9-5.6l4.9-5.7l4.9-5.8l4.9-5.8l4.9-5.9l4.9-6l4.9-6l4.9-6.1l4.9-6.1l4.9-6.2l4.9-6.2l4.9-6.3l4.9-6.3
		l4.9-6.3l4.9-6.4l4.9-6.4l4.9-6.5l4.9-6.5l4.9-6.5l4.9-6.5l4.9-6.6l4.9-6.6l4.9-6.6l4.9-6.6l4.9-6.6l4.9-6.7l4.9-6.7l4.9-6.7
		l4.9-6.7l4.9-6.7l4.9-6.7l4.9-6.7l4.9-6.7l4.9-6.7l4.9-6.7l4.9-6.7l4.9-6.7l4.9-6.7l4.9-6.7l4.9-6.7l4.9-6.7l4.9-6.8l4.9-6.8
		l4.9-6.8l4.9-6.9l4.9-6.9l4.9-7l4.9-7l4.9-7.1l4.9-7.2l4.9-7.3l4.9-7.4l4.9-7.5l4.9-7.6l4.9-7.8l4.9-7.9l4.9-8.1l4.9-8.2l4.9-8.4
		l4.9-8.6l4.9-8.8l4.9-9l4.9-9.2l4.9-9.3l4.9-9.5l4.9-9.6l4.9-9.7l4.9-9.8l4.9-9.9l4.9-10l4.9-10l4.9-10"/>
	<line class="st17" x1="625" y1="806" x2="1363" y2="68"/>
	<path class="st18" d="M625,806l52.7-15.3l52.7-16l52.7-17.1l52.7-17.9l52.7-39.6l52.7-44.4l52.7-48l52.7-63.5l52.7-67.1l52.7-71.3
		l52.7-72.9l52.7-73.1l52.7-81.9L1363,68"/>
</g>
<g transform="translate(625,806)">
	<path class="st19" d="M-4-4v8h8v-8H-4z"/>
</g>
<g transform="translate(625,806)">
	<path class="st20" d="M-4-4v8h8v-8H-4z"/>
</g>
<g transform="translate(677.7143,790.7119)">
	<path class="st19" d="M-4-4v8h8v-8H-4z"/>
</g>
<g transform="translate(677.7143,790.7119)">
	<path class="st20" d="M-4-4v8h8v-8H-4z"/>
</g>
<g transform="translate(730.4286,774.7344)">
	<path class="st19" d="M-4-4v8h8v-8H-4z"/>
</g>
<g transform="translate(730.4286,774.7344)">
	<path class="st20" d="M-4-4v8h8v-8H-4z"/>
</g>
<g transform="translate(783.1429,757.6217)">
	<path class="st19" d="M-4-4v8h8v-8H-4z"/>
</g>
<g transform="translate(783.1429,757.6217)">
	<path class="st20" d="M-4-4v8h8v-8H-4z"/>
</g>
<g transform="translate(835.8572,739.6976)">
	<path class="st19" d="M-4-4v8h8v-8H-4z"/>
</g>
<g transform="translate(835.8572,739.6976)">
	<path class="st20" d="M-4-4v8h8v-8H-4z"/>
</g>
<g transform="translate(888.5714,700.0618)">
	<path class="st19" d="M-4-4v8h8v-8H-4z"/>
</g>
<g transform="translate(888.5714,700.0618)">
	<path class="st20" d="M-4-4v8h8v-8H-4z"/>
</g>
<g transform="translate(941.2857,655.7104)">
	<path class="st19" d="M-4-4v8h8v-8H-4z"/>
</g>
<g transform="translate(941.2857,655.7104)">
	<path class="st20" d="M-4-4v8h8v-8H-4z"/>
</g>
<g transform="translate(994,607.7114)">
	<path class="st19" d="M-4-4v8h8v-8H-4z"/>
</g>
<g transform="translate(994,607.7114)">
	<path class="st20" d="M-4-4v8h8v-8H-4z"/>
</g>
<g transform="translate(1046.7144,544.2135)">
	<path class="st19" d="M-4-4v8h8v-8H-4z"/>
</g>
<g transform="translate(1046.7144,544.2135)">
	<path class="st20" d="M-4-4v8h8v-8H-4z"/>
</g>
<g transform="translate(1099.4286,477.1073)">
	<path class="st19" d="M-4-4v8h8v-8H-4z"/>
</g>
<g transform="translate(1099.4286,477.1073)">
	<path class="st20" d="M-4-4v8h8v-8H-4z"/>
</g>
<g transform="translate(1152.1428,405.8156)">
	<path class="st19" d="M-4-4v8h8v-8H-4z"/>
</g>
<g transform="translate(1152.1428,405.8156)">
	<path class="st20" d="M-4-4v8h8v-8H-4z"/>
</g>
<g transform="translate(1204.8572,332.8723)">
	<path class="st19" d="M-4-4v8h8v-8H-4z"/>
</g>
<g transform="translate(1204.8572,332.8723)">
	<path class="st20" d="M-4-4v8h8v-8H-4z"/>
</g>
<g transform="translate(1257.5714,259.8084)">
	<path class="st19" d="M-4-4v8h8v-8H-4z"/>
</g>
<g transform="translate(1257.5714,259.8084)">
	<path class="st20" d="M-4-4v8h8v-8H-4z"/>
</g>
<g transform="translate(1310.2856,177.937)">
	<path class="st19" d="M-4-4v8h8v-8H-4z"/>
</g>
<g transform="translate(1310.2856,177.937)">
	<path class="st20" d="M-4-4v8h8v-8H-4z"/>
</g>
<g transform="translate(1363,68)">
	<path class="st19" d="M-4-4v8h8v-8H-4z"/>
</g>
<g transform="translate(1363,68)">
	<path class="st20" d="M-4-4v8h8v-8H-4z"/>
</g>
<g>
	<path class="st3" d="M625,806l52.7-52.7l52.7-52.7l52.7-52.7l52.7-52.7l52.7-52.7l52.7-52.7L994,437l52.7-52.7l52.7-52.7l52.7-52.7
		l52.7-52.7l52.7-52.7l52.7-52.7L1363,68"/>
	<path class="st21" d="M625,801.4c2.5,0,4.6,2.1,4.6,4.6l0,0c0,2.5-2.1,4.6-4.6,4.6s-4.6-2.1-4.6-4.6S622.5,801.4,625,801.4z
		 M625,800.6c-3,0-5.4,2.4-5.4,5.4s2.4,5.4,5.4,5.4s5.4-2.4,5.4-5.4l0,0C630.4,803,628,800.6,625,800.6z"/>
	<path class="st21" d="M677.7,790.2c2.5,0,4.6,2.1,4.6,4.6l0,0c0,2.5-2.1,4.6-4.6,4.6s-4.6-2.1-4.6-4.6S675.2,790.2,677.7,790.2z
		 M677.7,789.4c-3,0-5.4,2.4-5.4,5.4s2.4,5.4,5.4,5.4s5.4-2.4,5.4-5.4l0,0C683.1,791.8,680.7,789.4,677.7,789.4z"/>
	<path class="st21" d="M730.4,772.2c2.5,0,4.6,2.1,4.6,4.6l0,0c0,2.5-2.1,4.6-4.6,4.6s-4.6-2.1-4.6-4.6S727.9,772.2,730.4,772.2z
		 M730.4,771.3c-3,0-5.4,2.4-5.4,5.4s2.4,5.4,5.4,5.4s5.4-2.4,5.4-5.4l0,0C735.8,773.8,733.4,771.3,730.4,771.3z"/>
	<path class="st21" d="M783.1,745.8c2.5,0,4.6,2.1,4.6,4.6l0,0c0,2.5-2.1,4.6-4.6,4.6s-4.6-2.1-4.6-4.6S780.6,745.8,783.1,745.8z
		 M783.1,745c-3,0-5.4,2.4-5.4,5.4s2.4,5.4,5.4,5.4s5.4-2.4,5.4-5.4l0,0C788.6,747.4,786.1,745,783.1,745z"/>
	<path class="st21" d="M835.9,709.2c2.5,0,4.6,2.1,4.6,4.6l0,0c0,2.5-2.1,4.6-4.6,4.6s-4.6-2.1-4.6-4.6S833.3,709.2,835.9,709.2z
		 M835.9,708.4c-3,0-5.4,2.4-5.4,5.4s2.4,5.4,5.4,5.4s5.4-2.4,5.4-5.4l0,0C841.3,710.8,838.8,708.4,835.9,708.4z"/>
	<path class="st21" d="M888.6,666.9c2.5,0,4.6,2.1,4.6,4.6l0,0c0,2.5-2.1,4.6-4.6,4.6s-4.6-2.1-4.6-4.6S886,666.9,888.6,666.9z
		 M888.6,666.1c-3,0-5.4,2.4-5.4,5.4s2.4,5.4,5.4,5.4s5.4-2.4,5.4-5.4l0,0C894,668.5,891.6,666.1,888.6,666.1z"/>
	<path class="st21" d="M941.3,622c2.5,0,4.6,2.1,4.6,4.6l0,0c0,2.5-2.1,4.6-4.6,4.6s-4.6-2.1-4.6-4.6S938.8,622,941.3,622z
		 M941.3,621.2c-3,0-5.4,2.4-5.4,5.4s2.4,5.4,5.4,5.4s5.4-2.4,5.4-5.4l0,0C946.7,623.6,944.3,621.2,941.3,621.2z"/>
	<path class="st21" d="M994,575.4c2.5,0,4.6,2.1,4.6,4.6l0,0c0,2.5-2.1,4.6-4.6,4.6s-4.6-2.1-4.6-4.6S991.5,575.4,994,575.4z
		 M994,574.5c-3,0-5.4,2.4-5.4,5.4s2.4,5.4,5.4,5.4s5.4-2.4,5.4-5.4l0,0C999.4,576.9,997,574.5,994,574.5z"/>
	<path class="st21" d="M1046.7,519.7c2.5,0,4.6,2.1,4.6,4.6l0,0c0,2.5-2.1,4.6-4.6,4.6s-4.6-2.1-4.6-4.6S1044.2,519.7,1046.7,519.7z
		 M1046.7,518.8c-3,0-5.4,2.4-5.4,5.4s2.4,5.4,5.4,5.4s5.4-2.4,5.4-5.4l0,0C1052.1,521.3,1049.7,518.8,1046.7,518.8z"/>
	<path class="st21" d="M1099.4,457.2c2.5,0,4.6,2.1,4.6,4.6l0,0c0,2.5-2.1,4.6-4.6,4.6s-4.6-2.1-4.6-4.6S1096.9,457.2,1099.4,457.2z
		 M1099.4,456.4c-3,0-5.4,2.4-5.4,5.4s2.4,5.4,5.4,5.4s5.4-2.4,5.4-5.4l0,0C1104.8,458.8,1102.4,456.4,1099.4,456.4z"/>
	<path class="st21" d="M1152.1,394.5c2.5,0,4.6,2.1,4.6,4.6l0,0c0,2.5-2.1,4.6-4.6,4.6s-4.6-2.1-4.6-4.6S1149.6,394.5,1152.1,394.5z
		 M1152.1,393.6c-3,0-5.4,2.4-5.4,5.4s2.4,5.4,5.4,5.4s5.4-2.4,5.4-5.4l0,0C1157.6,396.1,1155.1,393.6,1152.1,393.6z"/>
	<path class="st21" d="M1204.9,324.7c2.5,0,4.6,2.1,4.6,4.6l0,0c0,2.5-2.1,4.6-4.6,4.6s-4.6-2.1-4.6-4.6S1202.3,324.7,1204.9,324.7z
		 M1204.9,323.9c-3,0-5.4,2.4-5.4,5.4s2.4,5.4,5.4,5.4s5.4-2.4,5.4-5.4l0,0C1210.3,326.3,1207.8,323.9,1204.9,323.9z"/>
	<path class="st21" d="M1257.6,249.5c2.5,0,4.6,2.1,4.6,4.6l0,0c0,2.5-2.1,4.6-4.6,4.6s-4.6-2.1-4.6-4.6S1255,249.5,1257.6,249.5z
		 M1257.6,248.6c-3,0-5.4,2.4-5.4,5.4s2.4,5.4,5.4,5.4s5.4-2.4,5.4-5.4l0,0C1263,251.1,1260.6,248.6,1257.6,248.6z"/>
	<path class="st21" d="M1310.3,164.8c2.5,0,4.6,2.1,4.6,4.6l0,0c0,2.5-2.1,4.6-4.6,4.6s-4.6-2.1-4.6-4.6S1307.8,164.8,1310.3,164.8z
		 M1310.3,164c-3,0-5.4,2.4-5.4,5.4s2.4,5.4,5.4,5.4s5.4-2.4,5.4-5.4l0,0C1315.7,166.4,1313.3,164,1310.3,164z"/>
	<path class="st21" d="M1363,63.4c2.5,0,4.6,2.1,4.6,4.6l0,0c0,2.5-2.1,4.6-4.6,4.6s-4.6-2.1-4.6-4.6S1360.5,63.4,1363,63.4z
		 M1363,62.6c-3,0-5.4,2.4-5.4,5.4s2.4,5.4,5.4,5.4s5.4-2.4,5.4-5.4l0,0C1368.4,65,1366,62.6,1363,62.6z"/>
</g>
<g>
	<path class="st6" d="M627.8,806.1l2.1-0.5l4.9-1.1l4.9-1.1l4.9-1.1l4.9-1.1l4.9-1.1l4.9-1.2l4.9-1.2l4.9-1.2l4.9-1.3l4.9-1.3
		l4.9-1.4l4.9-1.4l4.9-1.5l4.9-1.6l4.9-1.6l4.9-1.7l4.9-1.8l4.9-1.8l4.9-1.9l4.9-2l4.9-2.1l4.9-2.1l4.9-2.2l4.9-2.3l4.9-2.4l4.9-2.5
		l4.9-2.5l4.9-2.6l4.9-2.7l4.9-2.8l4.9-2.9l4.9-3l4.9-3.1l4.9-3.1l4.9-3.2l4.9-3.3l4.9-3.4l4.9-3.4l4.9-3.5l4.9-3.6l4.9-3.6l4.9-3.7
		l4.9-3.7l4.9-3.8l4.9-3.8l4.9-3.9l4.9-3.9l4.9-3.9l4.9-4l4.9-4l4.9-4l4.9-4l4.9-4.1l4.9-4.1l4.9-4.1l4.9-4.1l4.9-4.1l4.9-4.2
		l4.9-4.2l4.9-4.2l4.9-4.2l4.9-4.2l4.9-4.3l4.9-4.3l4.9-4.3l4.9-4.3l4.9-4.4l4.9-4.4l4.9-4.5l4.9-4.5l4.9-4.6l4.9-4.6l4.9-4.7
		l4.9-4.8l4.9-4.8l4.9-4.9l4.9-5l4.9-5l4.9-5.1l4.9-5.2l4.9-5.2l4.9-5.3l4.9-5.4l4.9-5.4l4.9-5.5l4.9-5.5l4.9-5.6l4.9-5.6l4.9-5.7
		l4.9-5.7l4.9-5.7l4.9-5.8l4.9-5.8l4.9-5.8l4.9-5.8l4.9-5.9l4.9-5.9l4.9-5.9l4.9-5.9l4.9-5.9l4.9-6l4.9-6l4.9-6l4.9-6.1l4.9-6.1
		l4.9-6.1l4.9-6.2l4.9-6.2l4.9-6.3l4.9-6.3l4.9-6.4l4.9-6.4l4.9-6.5l4.9-6.5l4.9-6.6l4.9-6.6l4.9-6.7l4.9-6.7l4.9-6.8l4.9-6.9
		l4.9-6.9l4.9-7l4.9-7.1l4.9-7.2l4.9-7.2l4.9-7.3l4.9-7.4l4.9-7.5l4.9-7.6l4.9-7.7l4.9-7.8l4.9-7.9l4.9-8l4.9-8.1l4.9-8.2l4.9-8.3
		l4.9-8.5l4.9-8.6l4.9-8.7l4.9-8.8l4.9-8.9l4.9-9l4.9-9.1l4.9-9.2l4.9-9.2l4.9-9.3l4.9-9.3l4.9-9.3l4.9-9.4"/>
	<line class="st22" x1="625" y1="806" x2="1363" y2="68"/>
	<path class="st23" d="M625,806l52.7-11.2l52.7-18l52.7-26.3l52.7-36.6l52.7-42.3l52.7-44.9l52.7-46.6l52.7-55.7l52.7-62.4
		l52.7-62.7l52.7-69.8l52.7-75.2l52.7-84.6L1363,68"/>
</g>
<g transform="translate(625,806)">
	<path class="st21" d="M-4-4v8h8v-8H-4z"/>
</g>
<g transform="translate(625,806)">
	<path class="st24" d="M-4-4v8h8v-8H-4z"/>
</g>
<g transform="translate(677.7143,794.7878)">
	<path class="st21" d="M-4-4v8h8v-8H-4z"/>
</g>
<g transform="translate(677.7143,794.7878)">
	<path class="st24" d="M-4-4v8h8v-8H-4z"/>
</g>
<g transform="translate(730.4286,776.7479)">
	<path class="st21" d="M-4-4v8h8v-8H-4z"/>
</g>
<g transform="translate(730.4286,776.7479)">
	<path class="st24" d="M-4-4v8h8v-8H-4z"/>
</g>
<g transform="translate(783.1429,750.408)">
	<path class="st21" d="M-4-4v8h8v-8H-4z"/>
</g>
<g transform="translate(783.1429,750.408)">
	<path class="st24" d="M-4-4v8h8v-8H-4z"/>
</g>
<g transform="translate(835.8572,713.7669)">
	<path class="st21" d="M-4-4v8h8v-8H-4z"/>
</g>
<g transform="translate(835.8572,713.7669)">
	<path class="st24" d="M-4-4v8h8v-8H-4z"/>
</g>
<g transform="translate(888.5714,671.5014)">
	<path class="st21" d="M-4-4v8h8v-8H-4z"/>
</g>
<g transform="translate(888.5714,671.5014)">
	<path class="st24" d="M-4-4v8h8v-8H-4z"/>
</g>
<g transform="translate(941.2857,626.5684)">
	<path class="st21" d="M-4-4v8h8v-8H-4z"/>
</g>
<g transform="translate(941.2857,626.5684)">
	<path class="st24" d="M-4-4v8h8v-8H-4z"/>
</g>
<g transform="translate(994,579.941)">
	<path class="st21" d="M-4-4v8h8v-8H-4z"/>
</g>
<g transform="translate(994,579.941)">
	<path class="st24" d="M-4-4v8h8v-8H-4z"/>
</g>
<g transform="translate(1046.7144,524.2472)">
	<path class="st21" d="M-4-4v8h8v-8H-4z"/>
</g>
<g transform="translate(1046.7144,524.2472)">
	<path class="st24" d="M-4-4v8h8v-8H-4z"/>
</g>
<g transform="translate(1099.4286,461.8061)">
	<path class="st21" d="M-4-4v8h8v-8H-4z"/>
</g>
<g transform="translate(1099.4286,461.8061)">
	<path class="st24" d="M-4-4v8h8v-8H-4z"/>
</g>
<g transform="translate(1152.1428,399.0632)">
	<path class="st21" d="M-4-4v8h8v-8H-4z"/>
</g>
<g transform="translate(1152.1428,399.0632)">
	<path class="st24" d="M-4-4v8h8v-8H-4z"/>
</g>
<g transform="translate(1204.8572,329.2749)">
	<path class="st21" d="M-4-4v8h8v-8H-4z"/>
</g>
<g transform="translate(1204.8572,329.2749)">
	<path class="st24" d="M-4-4v8h8v-8H-4z"/>
</g>
<g transform="translate(1257.5714,254.0634)">
	<path class="st21" d="M-4-4v8h8v-8H-4z"/>
</g>
<g transform="translate(1257.5714,254.0634)">
	<path class="st24" d="M-4-4v8h8v-8H-4z"/>
</g>
<g transform="translate(1310.2856,169.4226)">
	<path class="st21" d="M-4-4v8h8v-8H-4z"/>
</g>
<g transform="translate(1310.2856,169.4226)">
	<path class="st24" d="M-4-4v8h8v-8H-4z"/>
</g>
<g transform="translate(1363,68)">
	<path class="st21" d="M-4-4v8h8v-8H-4z"/>
</g>
<g transform="translate(1363,68)">
	<path class="st24" d="M-4-4v8h8v-8H-4z"/>
</g>
<g>
	<g>
		<path class="st7" d="M722,252.7h50.1H722z"/>
	</g>
	<g transform="translate(735.0684,212.0285)">
		<path class="st8" d="M6,36.7v8h8v-8H6z"/>
	</g>
	<g transform="translate(735.0684,212.0285)">
		<path class="st9" d="M7,36.7v8h8v-8H7z"/>
	</g>
	<g>
		<line class="st13" x1="720" y1="222.6" x2="770.1" y2="222.6"/>
	</g>
	<g transform="translate(735.0684,315.1844)">
		<path class="st14" d="M6-96.6v8h8v-8H6z"/>
	</g>
	<g transform="translate(735.0684,315.1844)">
		<path class="st15" d="M6-96.6v8h8v-8H6z"/>
	</g>
	<g>
		<line class="st18" x1="721" y1="196.3" x2="771.1" y2="196.3"/>
	</g>
	<g transform="translate(735.0684,418.3403)">
		<path class="st19" d="M7-226.1v8h8v-8H7z"/>
	</g>
	<g transform="translate(735.0684,418.3403)">
		<path class="st20" d="M7-226.1v8h8v-8H7z"/>
	</g>
	<g>
		<path class="st23" d="M722.1,172.6h50.1H722.1z"/>
	</g>
	<g transform="translate(735.0684,521.4963)">
		<path class="st21" d="M6.1-352.3v8h8v-8H6.1z"/>
	</g>
	<path class="st24" d="M741.2,169.2v6.9h8v-6.9H741.2z"/>
	<path class="st25" d="M689,291.7V128.1h213.5v163.6H689z"/>
	<g>
		<line class="st22" x1="722" y1="149.8" x2="772.1" y2="149.8"/>
	</g>
	<text transform="matrix(1 0 0 1 791.2262 148.7824)" class="st26 st27">绝对平均线</text>
	<text transform="matrix(1 0 0 1 787.2054 227.9102)" class="st26 st27">执业医师和注册护士</text>
	<text transform="matrix(1 0 0 1 788.7899 257.8883)" class="st26 st27">床位</text>
	<text transform="matrix(1 0 0 1 791.6531 174.6658)" class="st26 st27">医疗机构</text>
	<text transform="matrix(1 0 0 1 790.1857 202.7752)" class="st26 st27">医疗技术人员</text>
</g>
</svg>
