<?xml version="1.0" encoding="utf-8"?>
<!-- Generator: Adobe Illustrator 26.0.2, SVG Export Plug-In . SVG Version: 6.00 Build 0)  -->
<svg version="1.1" id="图层_1" xmlns="http://www.w3.org/2000/svg" xmlns:xlink="http://www.w3.org/1999/xlink" x="0px" y="0px"
	 viewBox="0 0 1920 937" style="enable-background:new 0 0 1920 937;" xml:space="preserve">
<style type="text/css">
	.st0{fill:none;stroke:#262626;stroke-width:0.8333;stroke-linejoin:round;stroke-miterlimit:10;stroke-opacity:0.149;}
	.st1{fill:none;stroke:#262626;stroke-width:0.8333;stroke-linecap:square;stroke-linejoin:round;stroke-miterlimit:10;}
	.st2{fill:#262626;}
	.st3{fill:none;stroke:#0000FF;stroke-width:0.8333;stroke-linejoin:bevel;stroke-miterlimit:1;stroke-dasharray:8,3,2,3;}
	.st4{fill:#D95319;}
	.st5{fill:none;stroke:#EDB120;stroke-width:0.8333;stroke-linejoin:round;stroke-miterlimit:10;}
	.st6{fill:none;stroke:#7E2F8E;stroke-width:0.8333;stroke-linejoin:round;stroke-miterlimit:10;}
	.st7{fill:none;stroke:#77AC30;stroke-width:3.3333;stroke-linejoin:round;stroke-miterlimit:10;}
	.st8{fill:#77AC30;}
	.st9{fill:none;stroke:#77AC30;stroke-width:3.3333;stroke-miterlimit:10;}
	.st10{fill:#A2142F;}
	.st11{fill:none;stroke:#0072BD;stroke-width:0.8333;stroke-linejoin:round;stroke-miterlimit:10;}
	.st12{fill:none;stroke:#D95319;stroke-width:0.8333;stroke-linejoin:round;stroke-miterlimit:10;}
	.st13{fill:none;stroke:#FF6929;stroke-width:3.3333;stroke-linejoin:round;stroke-miterlimit:10;}
	.st14{fill:#FF6929;}
	.st15{fill:none;stroke:#FF6929;stroke-width:3.3333;stroke-miterlimit:10;}
	.st16{fill:none;stroke:#4DBEEE;stroke-width:0.8333;stroke-linejoin:round;stroke-miterlimit:10;}
	.st17{fill:none;stroke:#A2142F;stroke-width:0.8333;stroke-linejoin:round;stroke-miterlimit:10;}
	.st18{fill:none;stroke:#808080;stroke-width:3.3333;stroke-linejoin:round;stroke-miterlimit:10;}
	.st19{fill:#808080;}
	.st20{fill:none;stroke:#808080;stroke-width:3.3333;stroke-miterlimit:10;}
	.st21{fill:#EDB120;}
	.st22{fill:none;stroke:#FF0000;stroke-width:3.3333;stroke-linejoin:round;stroke-miterlimit:10;}
	.st23{fill:none;stroke:#0072BD;stroke-width:3.3333;stroke-linejoin:round;stroke-miterlimit:10;}
	.st24{fill:#0072BD;}
	.st25{fill:none;stroke:#0072BD;stroke-width:3.3333;stroke-miterlimit:10;}
	.st26{font-family:'AdobeSongStd-Light-GBpc-EUC-H';}
	.st27{font-size:10.2942px;}
</style>
<g>
	<line class="st0" x1="604.1" y1="722.2" x2="604.1" y2="66.8"/>
	<line class="st0" x1="669.7" y1="722.2" x2="669.7" y2="66.8"/>
	<line class="st0" x1="735.2" y1="722.2" x2="735.2" y2="66.8"/>
	<line class="st0" x1="800.7" y1="722.2" x2="800.7" y2="66.8"/>
	<line class="st0" x1="866.3" y1="722.2" x2="866.3" y2="66.8"/>
	<line class="st0" x1="931.8" y1="722.2" x2="931.8" y2="66.8"/>
	<line class="st0" x1="997.4" y1="722.2" x2="997.4" y2="66.8"/>
	<line class="st0" x1="1062.9" y1="722.2" x2="1062.9" y2="66.8"/>
	<line class="st0" x1="1128.4" y1="722.2" x2="1128.4" y2="66.8"/>
	<line class="st0" x1="1194" y1="722.2" x2="1194" y2="66.8"/>
	<line class="st0" x1="1259.5" y1="722.2" x2="1259.5" y2="66.8"/>
	<line class="st0" x1="1259.5" y1="722.2" x2="604.1" y2="722.2"/>
	<line class="st0" x1="1259.5" y1="656.6" x2="604.1" y2="656.6"/>
	<line class="st0" x1="1259.5" y1="591.1" x2="604.1" y2="591.1"/>
	<line class="st0" x1="1259.5" y1="525.6" x2="604.1" y2="525.6"/>
	<line class="st0" x1="1259.5" y1="460" x2="604.1" y2="460"/>
	<line class="st0" x1="1259.5" y1="394.5" x2="604.1" y2="394.5"/>
	<line class="st0" x1="1259.5" y1="328.9" x2="604.1" y2="328.9"/>
	<line class="st0" x1="1259.5" y1="263.4" x2="604.1" y2="263.4"/>
	<line class="st0" x1="1259.5" y1="197.9" x2="604.1" y2="197.9"/>
	<line class="st0" x1="1259.5" y1="132.3" x2="604.1" y2="132.3"/>
	<line class="st0" x1="1259.5" y1="66.8" x2="604.1" y2="66.8"/>
	<line class="st1" x1="604.1" y1="722.2" x2="1259.5" y2="722.2"/>
	<line class="st1" x1="604.1" y1="722.2" x2="604.1" y2="715.7"/>
	<line class="st1" x1="669.7" y1="722.2" x2="669.7" y2="715.7"/>
	<line class="st1" x1="735.2" y1="722.2" x2="735.2" y2="715.7"/>
	<line class="st1" x1="800.7" y1="722.2" x2="800.7" y2="715.7"/>
	<line class="st1" x1="866.3" y1="722.2" x2="866.3" y2="715.7"/>
	<line class="st1" x1="931.8" y1="722.2" x2="931.8" y2="715.7"/>
	<line class="st1" x1="997.4" y1="722.2" x2="997.4" y2="715.7"/>
	<line class="st1" x1="1062.9" y1="722.2" x2="1062.9" y2="715.7"/>
	<line class="st1" x1="1128.4" y1="722.2" x2="1128.4" y2="715.7"/>
	<line class="st1" x1="1194" y1="722.2" x2="1194" y2="715.7"/>
	<line class="st1" x1="1259.5" y1="722.2" x2="1259.5" y2="715.7"/>
</g>
<g transform="translate(612,840.6667)">
	<path class="st2" d="M-11.6-103.3c0-1.2,0.1-2.2,0.3-3c0.3-0.8,0.6-1.4,1.1-1.7c0.6-0.4,1.2-0.6,2-0.6c0.6,0,1,0.1,1.5,0.3
		c0.4,0.3,0.8,0.5,1,0.9c0.3,0.4,0.5,0.9,0.7,1.5c0.2,0.6,0.2,1.5,0.2,2.5c0,1.2-0.1,2.2-0.3,3c-0.3,0.8-0.6,1.4-1.1,1.7
		C-6.8-98.2-7.4-98-8.1-98c-1,0-1.8-0.3-2.4-1C-11.2-100-11.6-101.4-11.6-103.3z M-10.3-103.3c0,1.7,0.2,2.8,0.6,3.4
		c0.4,0.6,0.9,0.9,1.5,0.9s1.1-0.3,1.5-0.9c0.4-0.6,0.6-1.7,0.6-3.4c0-1.7-0.2-2.8-0.6-3.4c-0.3-0.6-0.8-0.9-1.4-0.9
		c-0.6,0-1.1,0.3-1.5,0.8C-10-106.2-10.3-105-10.3-103.3z"/>
</g>
<g transform="translate(688.4,840.6667)">
	<path class="st2" d="M-28.4-103.3c0-1.2,0.1-2.2,0.3-3c0.3-0.8,0.6-1.4,1.1-1.7c0.6-0.4,1.2-0.6,2-0.6c0.6,0,1,0.1,1.5,0.3
		c0.4,0.3,0.8,0.5,1,0.9s0.5,0.9,0.7,1.5c0.2,0.6,0.3,1.5,0.3,2.5c0,1.2-0.1,2.2-0.3,3c-0.3,0.8-0.6,1.4-1.1,1.7
		c-0.5,0.4-1.1,0.6-1.9,0.6c-1,0-1.8-0.3-2.4-1C-28.1-100-28.4-101.4-28.4-103.3z M-27.2-103.3c0,1.7,0.2,2.8,0.6,3.4
		c0.4,0.6,0.9,0.9,1.5,0.9s1.1-0.3,1.5-0.9c0.4-0.6,0.6-1.7,0.6-3.4c0-1.7-0.2-2.8-0.6-3.4s-0.9-0.9-1.5-0.9c-0.4,0-0.9,0.3-1.3,0.8
		C-26.9-106.2-27.2-105-27.2-103.3z M-19.8-98.2v-1.5h1.5v1.5H-19.8z M-11.7-98.2H-13v-8.1c-0.3,0.3-0.7,0.6-1.2,0.9
		c-0.5,0.3-0.9,0.5-1.4,0.7v-1.3c0.8-0.3,1.4-0.7,1.9-1.2c0.6-0.5,0.9-0.9,1.2-1.4h0.9L-11.7-98.2L-11.7-98.2z"/>
</g>
<g transform="translate(764.8,840.6667)">
	<path class="st2" d="M-39.3-103.3c0-1.2,0.1-2.2,0.3-3c0.3-0.8,0.6-1.4,1.1-1.7c0.6-0.4,1.2-0.6,2-0.6c0.6,0,1,0.1,1.5,0.3
		s0.8,0.5,1,0.9s0.5,0.9,0.7,1.5c0.2,0.6,0.3,1.5,0.3,2.5c0,1.2-0.1,2.2-0.3,3c-0.3,0.8-0.6,1.4-1.1,1.7c-0.5,0.4-1.1,0.6-1.9,0.6
		c-1,0-1.8-0.3-2.4-1C-39-100-39.3-101.4-39.3-103.3z M-38-103.3c0,1.7,0.2,2.8,0.6,3.4C-37-99.3-36.6-99-36-99
		c0.6,0,1.1-0.3,1.5-0.9c0.4-0.6,0.6-1.7,0.6-3.4c0-1.7-0.2-2.8-0.6-3.4c-0.4-0.6-0.9-0.9-1.5-0.9c-0.4,0-0.9,0.3-1.3,0.8
		C-37.8-106.2-38-105-38-103.3z M-30.6-98.2v-1.5h1.5v1.5H-30.6z M-20.6-99.4v1.2h-6.9c0-0.3,0-0.6,0.2-0.9c0.2-0.5,0.4-0.9,0.9-1.4
		c0.3-0.4,0.9-0.9,1.7-1.5c1.1-0.9,1.9-1.6,2.3-2.2c0.4-0.5,0.6-1,0.6-1.5c0-0.5-0.2-0.9-0.5-1.3c-0.6-0.4-1-0.6-1.6-0.6
		s-1.1,0.2-1.5,0.6c-0.3,0.3-0.6,0.9-0.6,1.5l-1.3-0.2c0.1-0.9,0.4-1.7,1-2.2s1.4-0.8,2.4-0.8c1,0,1.8,0.3,2.4,0.9s0.9,1.2,0.9,2.1
		c0,0.4-0.1,0.9-0.3,1.2c-0.2,0.4-0.4,0.9-0.9,1.3c-0.4,0.4-1,1-2,1.8c-0.8,0.7-1.3,1.1-1.5,1.3c-0.3,0.3-0.4,0.4-0.5,0.7
		L-20.6-99.4L-20.6-99.4z"/>
</g>
<g transform="translate(841.2,840.6667)">
	<path class="st2" d="M-50.2-103.3c0-1.2,0.1-2.2,0.3-3c0.3-0.8,0.6-1.4,1.1-1.7c0.6-0.4,1.2-0.6,2-0.6c0.6,0,1,0.1,1.5,0.3
		c0.4,0.3,0.8,0.5,1,0.9s0.5,0.9,0.7,1.5c0.2,0.6,0.3,1.5,0.3,2.5c0,1.2-0.1,2.2-0.3,3c-0.3,0.8-0.6,1.4-1.1,1.7
		c-0.5,0.4-1.1,0.6-1.9,0.6c-1,0-1.8-0.3-2.4-1C-49.8-100-50.2-101.4-50.2-103.3z M-48.9-103.3c0,1.7,0.2,2.8,0.6,3.4
		c0.4,0.6,0.9,0.9,1.5,0.9s1.1-0.3,1.5-0.9c0.4-0.6,0.6-1.7,0.6-3.4c0-1.7-0.2-2.8-0.6-3.4s-0.9-0.9-1.5-0.9c-0.4,0-0.9,0.3-1.3,0.8
		C-48.6-106.2-48.9-105-48.9-103.3z M-41.5-98.2v-1.5h1.5v1.5H-41.5z M-38.2-100.9l1.3-0.2c0.2,0.7,0.4,1.2,0.8,1.5s0.8,0.5,1.3,0.5
		c0.6,0,1.1-0.2,1.5-0.6c0.3-0.4,0.6-0.9,0.6-1.6c0-0.6-0.2-1.1-0.6-1.5c-0.3-0.3-0.9-0.6-1.5-0.6c-0.3,0-0.5,0.1-0.9,0.2l0.2-1.1
		c0.1,0,0.2,0,0.2,0c0.5,0,1-0.2,1.5-0.4c0.4-0.3,0.7-0.7,0.7-1.3c0-0.4-0.2-0.9-0.5-1.2c-0.3-0.3-0.7-0.4-1.1-0.4s-0.9,0.2-1.3,0.5
		c-0.3,0.3-0.5,0.8-0.6,1.4l-1.3-0.3c0.2-0.9,0.5-1.5,1-2c0.5-0.5,1.3-0.7,2.1-0.7c0.6,0,1.1,0.1,1.5,0.3c0.5,0.3,0.9,0.6,1.1,1
		c0.3,0.4,0.3,0.9,0.3,1.4c0,0.4-0.1,0.9-0.3,1.2c-0.3,0.3-0.6,0.7-1,0.9c0.6,0.2,1.1,0.4,1.5,0.9c0.3,0.4,0.5,1,0.5,1.7
		c0,0.9-0.3,1.7-1,2.3c-0.7,0.6-1.5,0.9-2.5,0.9s-1.6-0.3-2.3-0.9C-37.8-99.4-38.1-100.1-38.2-100.9z"/>
</g>
<g transform="translate(917.6,840.6667)">
	<path class="st2" d="M-61-103.3c0-1.2,0.1-2.2,0.3-3c0.3-0.8,0.6-1.4,1.1-1.7c0.6-0.4,1.2-0.6,2-0.6c0.6,0,1,0.1,1.5,0.3
		c0.4,0.3,0.8,0.5,1,0.9s0.5,0.9,0.7,1.5c0.2,0.6,0.3,1.5,0.3,2.5c0,1.2-0.1,2.2-0.3,3c-0.3,0.8-0.6,1.4-1.1,1.7
		c-0.5,0.4-1.1,0.6-1.9,0.6c-1,0-1.8-0.3-2.4-1C-60.7-100-61-101.4-61-103.3z M-59.7-103.3c0,1.7,0.2,2.8,0.6,3.4
		c0.4,0.6,0.9,0.9,1.5,0.9c0.6,0,1.1-0.3,1.5-0.9c0.4-0.6,0.6-1.7,0.6-3.4c0-1.7-0.2-2.8-0.6-3.4c-0.4-0.6-0.9-0.9-1.5-0.9
		c-0.4,0-0.9,0.3-1.3,0.8C-59.5-106.2-59.7-105-59.7-103.3z M-52.4-98.2v-1.5h1.5v1.5H-52.4z M-45-98.2v-2.5h-4.5v-1.2l4.7-6.8h1
		v6.8h1.5v1.2h-1.4v2.5H-45z M-45-101.9v-4.7l-3.3,4.7H-45z"/>
</g>
<g transform="translate(994,840.6667)">
	<path class="st2" d="M-71.9-103.3c0-1.2,0.1-2.2,0.3-3c0.3-0.8,0.6-1.4,1.1-1.7c0.6-0.4,1.2-0.6,2-0.6c0.6,0,1,0.1,1.5,0.3
		c0.4,0.3,0.8,0.5,1,0.9s0.5,0.9,0.7,1.5c0.2,0.6,0.3,1.5,0.3,2.5c0,1.2-0.1,2.2-0.3,3c-0.3,0.8-0.6,1.4-1.1,1.7
		c-0.5,0.4-1.1,0.6-1.9,0.6c-1,0-1.8-0.3-2.4-1C-71.5-100-71.9-101.4-71.9-103.3z M-70.6-103.3c0,1.7,0.2,2.8,0.6,3.4
		c0.4,0.6,0.9,0.9,1.5,0.9s1.1-0.3,1.5-0.9c0.4-0.6,0.6-1.7,0.6-3.4c0-1.7-0.2-2.8-0.6-3.4s-0.9-0.9-1.5-0.9c-0.4,0-0.9,0.3-1.3,0.8
		C-70.3-106.2-70.6-105-70.6-103.3z M-63.2-98.2v-1.5h1.5v1.5H-63.2z M-60-100.9l1.4-0.1c0.1,0.6,0.3,1.1,0.7,1.5
		c0.3,0.3,0.8,0.5,1.3,0.5c0.6,0,1.1-0.3,1.5-0.7c0.4-0.4,0.7-1.1,0.7-1.9c0-0.7-0.2-1.3-0.6-1.7c-0.4-0.4-0.9-0.6-1.6-0.6
		c-0.4,0-0.8,0.1-1.1,0.3c-0.3,0.2-0.6,0.4-0.8,0.8l-1.2-0.2l0.9-5.4h5.1v1.2h-4.1l-0.5,2.8c0.6-0.4,1.3-0.7,2-0.7
		c0.9,0,1.7,0.3,2.3,0.9c0.6,0.6,0.9,1.5,0.9,2.4s-0.3,1.8-0.9,2.5c-0.7,0.9-1.5,1.3-2.7,1.3c-0.9,0-1.7-0.3-2.3-0.8
		C-59.5-99.3-59.9-100.1-60-100.9z"/>
</g>
<g transform="translate(1070.4,840.6667)">
	<path class="st2" d="M-82.7-103.3c0-1.2,0.1-2.2,0.3-3c0.3-0.8,0.6-1.4,1.1-1.7c0.6-0.4,1.2-0.6,2-0.6c0.6,0,1,0.1,1.5,0.3
		s0.8,0.5,1,0.9s0.5,0.9,0.7,1.5c0.2,0.6,0.3,1.5,0.3,2.5c0,1.2-0.1,2.2-0.3,3c-0.3,0.8-0.6,1.4-1.1,1.7c-0.5,0.4-1.1,0.6-1.9,0.6
		c-1,0-1.8-0.3-2.4-1C-82.4-100-82.7-101.4-82.7-103.3z M-81.5-103.3c0,1.7,0.2,2.8,0.6,3.4c0.4,0.6,0.9,0.9,1.5,0.9
		c0.6,0,1.1-0.3,1.5-0.9c0.4-0.6,0.6-1.7,0.6-3.4c0-1.7-0.2-2.8-0.6-3.4s-0.9-0.9-1.5-0.9c-0.4,0-0.9,0.3-1.3,0.8
		C-81.2-106.2-81.5-105-81.5-103.3z M-74.1-98.2v-1.5h1.5v1.5H-74.1z M-64.2-106.1l-1.2,0.1c-0.1-0.5-0.3-0.9-0.5-1.1
		c-0.3-0.3-0.8-0.5-1.3-0.5c-0.4,0-0.8,0.1-1.1,0.3c-0.3,0.3-0.7,0.7-0.9,1.3c-0.2,0.6-0.3,1.4-0.3,2.4c0.3-0.4,0.7-0.8,1.1-1
		c0.5-0.3,0.9-0.3,1.5-0.3c0.9,0,1.5,0.3,2.1,0.9s0.9,1.5,0.9,2.4c0,0.7-0.2,1.3-0.4,1.8c-0.3,0.6-0.7,1-1.2,1.3
		c-0.5,0.3-1,0.4-1.7,0.4c-1,0-2-0.4-2.6-1.2c-0.7-0.8-1-2.1-1-3.9c0.1-1.9,0.5-3.4,1.2-4.3c0.7-0.8,1.5-1.2,2.7-1.2
		c0.9,0,1.5,0.3,2.1,0.7C-64.6-107.5-64.3-106.8-64.2-106.1z M-69.4-101.5c0,0.4,0.1,0.9,0.3,1.3c0.2,0.4,0.4,0.7,0.8,0.9
		c0.3,0.2,0.7,0.3,1,0.3c0.5,0,1-0.3,1.4-0.7c0.4-0.4,0.6-1,0.6-1.8c0-0.7-0.2-1.3-0.6-1.7c-0.3-0.4-0.9-0.6-1.5-0.6s-1,0.3-1.4,0.6
		C-69.2-102.8-69.4-102.2-69.4-101.5z"/>
</g>
<g transform="translate(1146.8,840.6667)">
	<path class="st2" d="M-93.6-103.3c0-1.2,0.1-2.2,0.3-3c0.3-0.8,0.6-1.4,1.1-1.7c0.6-0.4,1.2-0.6,2-0.6c0.6,0,1,0.1,1.5,0.3
		c0.4,0.3,0.8,0.5,1,0.9s0.5,0.9,0.7,1.5c0.2,0.6,0.3,1.5,0.3,2.5c0,1.2-0.1,2.2-0.3,3c-0.3,0.8-0.6,1.4-1.1,1.7
		c-0.5,0.4-1.1,0.6-1.9,0.6c-1,0-1.8-0.3-2.4-1C-93.3-100-93.6-101.4-93.6-103.3z M-92.3-103.3c0,1.7,0.2,2.8,0.6,3.4
		c0.4,0.6,0.9,0.9,1.5,0.9s1.1-0.3,1.5-0.9c0.4-0.6,0.6-1.7,0.6-3.4c0-1.7-0.2-2.8-0.6-3.4c-0.4-0.6-0.9-0.9-1.5-0.9
		c-0.4,0-0.9,0.3-1.3,0.8C-92.1-106.2-92.3-105-92.3-103.3z M-84.9-98.2v-1.5h1.5v1.5H-84.9z M-81.6-107.3v-1.2h6.8v1
		c-0.7,0.7-1.4,1.6-2,2.7c-0.7,1.2-1.1,2.4-1.5,3.6c-0.3,0.9-0.4,1.8-0.5,2.8h-1.3c0-0.9,0.2-1.8,0.5-3s0.8-2.3,1.3-3.3
		c0.6-1.1,1.2-2,1.8-2.7L-81.6-107.3L-81.6-107.3z"/>
</g>
<g transform="translate(1223.2,840.6667)">
	<path class="st2" d="M-104.5-103.3c0-1.2,0.1-2.2,0.3-3c0.3-0.8,0.6-1.4,1.1-1.7c0.6-0.4,1.2-0.6,2-0.6c0.6,0,1,0.1,1.5,0.3
		c0.4,0.3,0.8,0.5,1,0.9s0.5,0.9,0.7,1.5c0.2,0.6,0.3,1.5,0.3,2.5c0,1.2-0.1,2.2-0.3,3c-0.3,0.8-0.6,1.4-1.1,1.7
		c-0.5,0.4-1.1,0.6-1.9,0.6c-1,0-1.8-0.3-2.4-1C-104.1-100-104.5-101.4-104.5-103.3z M-103.2-103.3c0,1.7,0.2,2.8,0.6,3.4
		c0.4,0.6,0.9,0.9,1.5,0.9s1.1-0.3,1.5-0.9c0.4-0.6,0.6-1.7,0.6-3.4c0-1.7-0.2-2.8-0.6-3.4s-0.9-0.9-1.5-0.9c-0.4,0-0.9,0.3-1.3,0.8
		C-102.9-106.2-103.2-105-103.2-103.3z M-95.8-98.2v-1.5h1.5v1.5H-95.8z M-90.6-103.8c-0.5-0.2-0.9-0.5-1.2-0.9s-0.3-0.8-0.3-1.3
		c0-0.8,0.3-1.4,0.9-1.9c0.5-0.5,1.3-0.8,2.1-0.8c0.9,0,1.6,0.3,2.2,0.8c0.5,0.5,0.9,1.2,0.9,1.9c0,0.5-0.1,0.9-0.3,1.3
		s-0.6,0.6-1.1,0.9c0.6,0.2,1.1,0.5,1.5,1c0.3,0.4,0.5,1,0.5,1.6c0,0.9-0.3,1.6-0.9,2.2c-0.6,0.6-1.5,0.9-2.5,0.9
		c-1,0-1.9-0.3-2.5-0.9c-0.6-0.6-0.9-1.4-0.9-2.3c0-0.7,0.2-1.3,0.5-1.7C-91.7-103.3-91.2-103.7-90.6-103.8z M-90.8-106
		c0,0.5,0.2,0.9,0.5,1.2c0.3,0.3,0.7,0.4,1.2,0.4s0.9-0.2,1.2-0.4c0.3-0.3,0.5-0.7,0.5-1.1c0-0.5-0.2-0.9-0.5-1.2s-0.8-0.5-1.2-0.5
		c-0.5,0-0.9,0.2-1.2,0.5S-90.8-106.4-90.8-106z M-91.2-101.2c0,0.3,0.1,0.7,0.3,1c0.2,0.3,0.4,0.6,0.8,0.8c0.3,0.3,0.8,0.3,1.1,0.3
		c0.6,0,1.1-0.2,1.5-0.6s0.6-0.9,0.6-1.5c0-0.6-0.2-1.1-0.6-1.5c-0.4-0.3-0.9-0.6-1.5-0.6s-1.1,0.2-1.5,0.6
		C-91.1-102.3-91.2-101.8-91.2-101.2z"/>
</g>
<g transform="translate(1299.6,840.6667)">
	<path class="st2" d="M-115.3-103.3c0-1.2,0.1-2.2,0.3-3c0.3-0.8,0.6-1.4,1.1-1.7c0.6-0.4,1.2-0.6,2-0.6c0.6,0,1,0.1,1.5,0.3
		s0.8,0.5,1,0.9s0.5,0.9,0.7,1.5c0.2,0.6,0.3,1.5,0.3,2.5c0,1.2-0.1,2.2-0.3,3c-0.3,0.8-0.6,1.4-1.1,1.7c-0.5,0.4-1.1,0.6-1.9,0.6
		c-1,0-1.8-0.3-2.4-1C-115-100-115.3-101.4-115.3-103.3z M-114-103.3c0,1.7,0.2,2.8,0.6,3.4c0.4,0.6,0.9,0.9,1.5,0.9
		c0.6,0,1.1-0.3,1.5-0.9c0.4-0.6,0.6-1.7,0.6-3.4c0-1.7-0.2-2.8-0.6-3.4s-0.9-0.9-1.5-0.9c-0.4,0-0.9,0.3-1.3,0.8
		C-113.8-106.2-114-105-114-103.3z M-106.7-98.2v-1.5h1.5v1.5H-106.7z M-103.2-100.6l1.3-0.2c0.1,0.6,0.3,1,0.6,1.3s0.6,0.4,1.1,0.4
		c0.4,0,0.8-0.1,1-0.3s0.5-0.4,0.8-0.7c0.2-0.3,0.3-0.7,0.5-1.2c0.1-0.5,0.2-1,0.2-1.5c0-0.1,0-0.2,0-0.3c-0.3,0.4-0.6,0.8-1,1
		s-0.9,0.3-1.5,0.3c-0.9,0-1.6-0.3-2.2-0.9c-0.6-0.6-0.9-1.5-0.9-2.5c0-1,0.3-1.9,0.9-2.6c0.6-0.7,1.4-0.9,2.3-0.9
		c0.7,0,1.3,0.2,1.9,0.5c0.6,0.3,1,0.9,1.3,1.5s0.4,1.6,0.4,2.9c0,1.4-0.2,2.4-0.4,3.2c-0.3,0.8-0.7,1.4-1.3,1.8
		c-0.6,0.4-1.2,0.6-2,0.6c-0.8,0-1.5-0.3-2-0.7C-102.8-99.1-103.1-99.8-103.2-100.6z M-98-105.2c0-0.8-0.2-1.3-0.6-1.7
		c-0.3-0.4-0.9-0.7-1.4-0.7c-0.6,0-1,0.3-1.5,0.7s-0.7,1.1-0.7,1.8s0.2,1.2,0.6,1.6s0.9,0.6,1.5,0.6c0.6,0,1.1-0.2,1.5-0.6
		C-98.2-103.9-98-104.4-98-105.2z"/>
</g>
<g transform="translate(1376,840.6667)">
	<path class="st2" d="M-115.4-98.2h-1.3v-8.1c-0.3,0.3-0.7,0.6-1.2,0.9c-0.5,0.3-0.9,0.5-1.4,0.7v-1.3c0.8-0.3,1.4-0.7,1.9-1.2
		s0.9-0.9,1.1-1.4h0.9V-98.2z"/>
</g>
<g transform="translate(994.0004,863.3333)">
	<path class="st2" d="M-87.2-112.2l1.8,0.8l-0.6,0.6c0.3,2.1,0.7,3.9,1.2,5.4c0.6,1.5,1.4,2.7,2.3,3.8c1,1,2.1,1.6,3.3,1.8v0.3
		c-0.8,0-1.4,0.3-1.7,0.9c-1.1-0.8-2-1.6-2.7-2.7c-0.7-1-1.3-2.1-1.7-3.3c-0.4-1.2-0.8-2.7-0.9-4.8c-0.2,1.9-0.4,3.5-0.9,4.9
		c-0.4,1.3-1.1,2.5-2.1,3.5c-0.9,1-2.3,2-3.9,2.7l-0.1-0.2c1.7-1,3-2.2,3.9-3.4c0.9-1.2,1.5-2.7,1.7-4.6
		C-87.3-108.4-87.1-110.3-87.2-112.2z M-65.5-103.5c0,1.3,0,2.3,0.1,3.1l-0.9,0.4v-1.4h-8v1.3l-0.9,0.4c0-1.4,0.1-3.3,0.1-5.7
		s0-4.2-0.1-5.2l0.9,0.6h7.8l0.5-0.7l0.9,0.9l-0.5,0.3V-103.5z M-74.4-109.6v7.8h8v-7.8H-74.4z M-58.4-111.1v1.5h3.5v-1.5H-58.4z
		 M-54.1-111.1v1.5h3.6v-1.5H-54.1z M-58.4-109.2v1.4h3.5v-1.4H-58.4z M-54.1-109.2v1.4h3.6v-1.4H-54.1z M-49.8-110.8
		c0,0.6,0,1.2,0,1.8s0,1.3,0.1,1.9l-0.9,0.3v-0.7h-7.8v0.5l-0.9,0.3c0-1,0.1-2,0.1-3c0-1,0-1.8-0.1-2.3l0.9,0.5h7.8l0.4-0.5l0.9,0.7
		L-49.8-110.8z M-53.9-106.6c-0.5,0.1-1,0.2-1.5,0.4c-0.6,0.3-1.4,0.6-2.6,1l4.1-0.1c0.6-0.4,1.1-0.8,1.5-1.2l0.8,0.9
		c-0.3,0-1,0.3-2,0.7c-1,0.5-2.5,1.2-4.4,1.9l7-0.4c-0.3-0.4-0.8-0.8-1.1-1.2l0.2-0.1c1.2,0.6,1.9,1,2.1,1.3
		c0.3,0.3,0.3,0.6,0.3,0.9s-0.1,0.4-0.2,0.6c-0.1,0.2-0.2,0.3-0.2,0.3c-0.1,0-0.2-0.1-0.3-0.3c-0.2-0.3-0.4-0.7-0.6-0.9l-3.2,0.3
		v2.7c0.1,0.9-0.4,1.4-1.3,1.5c0-0.6-0.6-1-1.9-1.3v-0.3c1.1,0.1,1.8,0.2,2.1,0.2s0.4-0.3,0.4-0.7v-2.1c-1,0.1-1.8,0.2-2.6,0.3
		c-0.8,0.1-1.5,0.3-2,0.6l-0.6-1.3c0.6-0.1,1.3-0.3,2-0.5c0.7-0.3,1.8-0.8,3.3-1.5c-1.7,0.2-2.8,0.3-3.3,0.3s-0.9,0.2-1.1,0.3
		l-0.5-1.1c0.5,0,1.2-0.2,2.1-0.6c0.9-0.4,1.7-0.9,2.3-1.5L-53.9-106.6z M-56.1-100.9c-0.5,0.1-1.1,0.3-1.9,0.8
		c-0.8,0.5-1.8,1-3.2,1.5l-0.1-0.2c1-0.5,1.9-1.1,2.6-1.6c0.7-0.6,1.2-1.1,1.6-1.5L-56.1-100.9z M-52.7-101.8c1.5,0.5,2.5,0.9,3,1.2
		c0.5,0.3,0.8,0.6,0.9,0.9c0,0.3,0,0.5-0.1,0.7c-0.1,0.2-0.2,0.3-0.2,0.3c-0.2,0-0.3-0.2-0.7-0.6C-50.2-100-51.2-100.8-52.7-101.8
		L-52.7-101.8z M-44.4-111.7l0.1-0.2c0.9,0.4,1.5,0.8,1.8,1s0.5,0.6,0.5,0.9s-0.1,0.5-0.2,0.6c-0.2,0.1-0.3,0.2-0.3,0.2
		c-0.2,0-0.4-0.3-0.5-0.7C-43.3-110.6-43.7-111.1-44.4-111.7z M-42.8-100.6l2.4-2.1l0.1,0.2c-1.4,1.8-2.3,3-2.6,3.6l-0.9-1
		c0.2-0.3,0.3-0.6,0.3-1.1v-5.4H-45h0.5c-0.3,0-0.6,0.1-1,0.2l-0.5-0.5h2.5l0.7-0.7l0.9,0.9l-0.6,0.4v5.6H-42.8z M-37.5-106.7
		c0-2.7,0-4.5-0.1-5.2l1.5,0.7l-0.4,0.4v4.1h2.7l0.9-0.8l1.1,1.1h-4.5v5.5c0,0.8,0,1.5,0.1,2.2l-1,0.4c0-1.3,0.1-2.2,0.1-2.8v-5.3
		h-3.1h0.9c-0.5,0-0.9,0.1-1.4,0.2l-0.7-0.5H-37.5z"/>
</g>
<g>
	<line class="st1" x1="604.1" y1="722.2" x2="604.1" y2="66.8"/>
	<line class="st1" x1="604.1" y1="722.2" x2="610.6" y2="722.2"/>
	<line class="st1" x1="604.1" y1="656.6" x2="610.6" y2="656.6"/>
	<line class="st1" x1="604.1" y1="591.1" x2="610.6" y2="591.1"/>
	<line class="st1" x1="604.1" y1="525.6" x2="610.6" y2="525.6"/>
	<line class="st1" x1="604.1" y1="460" x2="610.6" y2="460"/>
	<line class="st1" x1="604.1" y1="394.5" x2="610.6" y2="394.5"/>
	<line class="st1" x1="604.1" y1="328.9" x2="610.6" y2="328.9"/>
	<line class="st1" x1="604.1" y1="263.4" x2="610.6" y2="263.4"/>
	<line class="st1" x1="604.1" y1="197.9" x2="610.6" y2="197.9"/>
	<line class="st1" x1="604.1" y1="132.3" x2="610.6" y2="132.3"/>
	<line class="st1" x1="604.1" y1="66.8" x2="610.6" y2="66.8"/>
</g>
<g transform="translate(605.3333,834)">
	<path class="st2" d="M-14.9-111.4c0-1.2,0.1-2.2,0.3-3c0.3-0.8,0.6-1.4,1.1-1.7c0.5-0.4,1.1-0.6,1.9-0.6c0.6,0,1,0.1,1.5,0.3
		c0.4,0.3,0.8,0.5,1,0.9s0.5,0.9,0.7,1.5c0.2,0.6,0.3,1.5,0.3,2.5c0,1.2-0.1,2.2-0.3,3s-0.6,1.4-1.1,1.7c-0.5,0.4-1.1,0.6-1.9,0.6
		c-1,0-1.8-0.3-2.4-1C-14.6-108-14.9-109.4-14.9-111.4z M-13.6-111.4c0,1.7,0.2,2.8,0.6,3.4s0.9,0.9,1.5,0.9c0.6,0,1.1-0.3,1.5-0.9
		c0.4-0.6,0.6-1.7,0.6-3.4c0-1.7-0.2-2.8-0.6-3.4c-0.4-0.6-0.9-0.9-1.5-0.9c-0.4,0-0.9,0.3-1.3,0.8
		C-13.4-114.3-13.6-113.1-13.6-111.4z"/>
</g>
<g transform="translate(605.3333,757.6)">
	<path class="st2" d="M-26.9-100.5c0-1.2,0.1-2.2,0.3-3s0.6-1.4,1.1-1.7c0.5-0.4,1.1-0.6,1.9-0.6c0.6,0,1,0.1,1.5,0.3s0.8,0.5,1,0.9
		s0.5,0.9,0.7,1.5s0.3,1.5,0.3,2.5c0,1.2-0.1,2.2-0.3,3c-0.3,0.8-0.6,1.4-1.1,1.7c-0.5,0.4-1.1,0.6-1.9,0.6c-1,0-1.8-0.3-2.4-1
		C-26.6-97.2-26.9-98.6-26.9-100.5z M-25.6-100.5c0,1.7,0.2,2.8,0.6,3.4c0.4,0.6,0.9,0.9,1.5,0.9c0.6,0,1.1-0.3,1.5-0.9
		c0.4-0.6,0.6-1.7,0.6-3.4s-0.2-2.8-0.6-3.4c-0.4-0.6-0.9-0.9-1.5-0.9c-0.6,0-1,0.3-1.4,0.8C-25.4-103.4-25.6-102.2-25.6-100.5z
		 M-18.3-95.4v-1.5h1.5v1.5H-18.3z M-10.2-95.4h-1.3v-8.1c-0.3,0.3-0.7,0.6-1.2,0.9c-0.5,0.3-0.9,0.5-1.4,0.7v-1.3
		c0.7-0.3,1.4-0.8,1.9-1.2c0.6-0.5,0.9-0.9,1.2-1.4h0.9L-10.2-95.4L-10.2-95.4z"/>
</g>
<g transform="translate(605.3333,681.2)">
	<path class="st2" d="M-26.9-89.7c0-1.2,0.1-2.2,0.3-3c0.3-0.8,0.6-1.4,1.1-1.7c0.5-0.4,1.1-0.6,1.9-0.6c0.6,0,1,0.1,1.5,0.3
		s0.8,0.5,1,0.9s0.5,0.9,0.7,1.5c0.2,0.6,0.3,1.5,0.3,2.5c0,1.2-0.1,2.2-0.3,3c-0.3,0.8-0.6,1.4-1.1,1.7c-0.5,0.4-1.1,0.6-1.9,0.6
		c-1,0-1.8-0.3-2.4-1C-26.6-86.3-26.9-87.7-26.9-89.7z M-25.6-89.7c0,1.7,0.2,2.8,0.6,3.4s0.9,0.9,1.5,0.9c0.6,0,1.1-0.3,1.5-0.9
		c0.4-0.6,0.6-1.7,0.6-3.4c0-1.7-0.2-2.8-0.6-3.4c-0.4-0.6-0.9-0.9-1.5-0.9c-0.6,0-1,0.3-1.4,0.8C-25.4-92.6-25.6-91.4-25.6-89.7z
		 M-18.3-84.5V-86h1.5v1.5H-18.3z M-8.2-85.7v1.2h-6.9c0-0.3,0-0.6,0.2-0.9c0.2-0.5,0.4-0.9,0.9-1.4c0.3-0.5,0.9-1,1.5-1.6
		c1.1-0.9,1.9-1.6,2.3-2.2c0.4-0.5,0.6-1,0.6-1.5c0-0.5-0.2-0.9-0.5-1.3S-11-94-11.5-94c-0.6,0-1.1,0.2-1.5,0.5s-0.6,0.9-0.6,1.5
		l-1.3-0.2c0.1-0.9,0.4-1.7,1-2.2c0.6-0.5,1.4-0.8,2.4-0.8s1.8,0.3,2.4,0.9s0.9,1.2,0.9,2.1c0,0.4-0.1,0.9-0.3,1.2
		c-0.2,0.4-0.4,0.9-0.9,1.3c-0.4,0.4-1,1-2,1.8c-0.9,0.8-1.4,1.2-1.6,1.5s-0.4,0.4-0.5,0.7C-13.4-85.7-8.2-85.7-8.2-85.7z"/>
</g>
<g transform="translate(605.3333,604.8)">
	<path class="st2" d="M-26.9-78.8c0-1.2,0.1-2.2,0.3-3c0.3-0.8,0.6-1.4,1.1-1.7c0.5-0.4,1.1-0.6,1.9-0.6c0.6,0,1,0.1,1.5,0.3
		s0.8,0.5,1,0.9c0.3,0.4,0.5,0.9,0.7,1.5s0.3,1.5,0.3,2.5c0,1.2-0.1,2.2-0.3,3s-0.6,1.4-1.1,1.7c-0.5,0.4-1.1,0.6-1.9,0.6
		c-1,0-1.8-0.3-2.4-1C-26.6-75.5-26.9-76.8-26.9-78.8z M-25.6-78.8c0,1.7,0.2,2.8,0.6,3.4s0.9,0.9,1.5,0.9c0.6,0,1.1-0.3,1.5-0.9
		c0.4-0.6,0.6-1.7,0.6-3.4c0-1.7-0.2-2.8-0.6-3.4c-0.4-0.6-0.9-0.9-1.5-0.9c-0.6,0-1,0.3-1.4,0.8C-25.4-81.7-25.6-80.5-25.6-78.8z
		 M-18.3-73.7v-1.5h1.5v1.5H-18.3z M-15-76.4l1.3-0.2c0.2,0.7,0.4,1.2,0.8,1.5s0.8,0.5,1.3,0.5c0.6,0,1.1-0.2,1.5-0.6
		c0.3-0.4,0.6-0.9,0.6-1.6c0-0.6-0.2-1.1-0.6-1.5c-0.3-0.3-0.9-0.6-1.5-0.6c-0.3,0-0.5,0.1-0.9,0.2l0.2-1.1c0.1,0,0.2,0,0.2,0
		c0.5,0,1-0.2,1.5-0.4c0.4-0.3,0.7-0.7,0.7-1.3c0-0.4-0.2-0.9-0.5-1.2c-0.3-0.3-0.7-0.4-1.1-0.4c-0.4,0-0.9,0.2-1.3,0.5
		c-0.3,0.3-0.5,0.8-0.6,1.4l-1.3-0.3c0.2-0.9,0.5-1.5,1.1-2c0.5-0.5,1.3-0.7,2.1-0.7c0.6,0,1.1,0.1,1.5,0.3c0.5,0.3,0.9,0.6,1.1,1
		c0.3,0.4,0.3,0.9,0.3,1.3s-0.1,0.9-0.3,1.2s-0.6,0.7-1,0.9c0.5,0.3,1,0.5,1.4,0.9s0.5,1,0.5,1.7c0,0.9-0.3,1.7-1,2.3
		c-0.7,0.6-1.5,0.9-2.5,0.9c-0.9,0-1.6-0.3-2.3-0.9C-14.6-74.9-14.9-75.6-15-76.4z"/>
</g>
<g transform="translate(605.3333,528.4)">
	<path class="st2" d="M-26.9-68c0-1.2,0.1-2.2,0.3-3s0.6-1.4,1.1-1.7c0.5-0.4,1.1-0.6,1.9-0.6c0.6,0,1,0.1,1.5,0.3
		c0.4,0.3,0.8,0.5,1,0.9s0.5,0.9,0.7,1.5c0.2,0.6,0.3,1.5,0.3,2.5c0,1.2-0.1,2.2-0.3,3c-0.3,0.8-0.6,1.4-1.1,1.7
		c-0.5,0.4-1.1,0.6-1.9,0.6c-1,0-1.8-0.3-2.4-1C-26.6-64.6-26.9-66-26.9-68z M-25.6-68c0,1.7,0.2,2.8,0.6,3.4
		c0.4,0.6,0.9,0.9,1.5,0.9c0.6,0,1.1-0.3,1.5-0.9c0.4-0.6,0.6-1.7,0.6-3.4c0-1.7-0.2-2.8-0.6-3.4c-0.4-0.6-0.9-0.9-1.5-0.9
		c-0.6,0-1,0.3-1.4,0.8C-25.4-70.9-25.6-69.7-25.6-68z M-18.3-62.8v-1.5h1.5v1.5H-18.3z M-10.9-62.8v-2.5h-4.5v-1.2l4.7-6.8h1v6.8
		h1.5v1.2h-1.5v2.5C-9.7-62.8-10.9-62.8-10.9-62.8z M-10.9-66.5v-4.7l-3.3,4.7H-10.9z"/>
</g>
<g transform="translate(605.3333,452)">
	<path class="st2" d="M-26.9-57.1c0-1.2,0.1-2.2,0.3-3s0.6-1.4,1.1-1.7c0.5-0.4,1.1-0.6,1.9-0.6c0.6,0,1,0.1,1.5,0.3
		c0.4,0.3,0.8,0.5,1,0.9c0.3,0.4,0.5,0.9,0.7,1.5c0.2,0.6,0.3,1.5,0.3,2.5c0,1.2-0.1,2.2-0.3,3c-0.3,0.8-0.6,1.4-1.1,1.7
		c-0.5,0.4-1.1,0.6-1.9,0.6c-1,0-1.8-0.3-2.4-1C-26.6-53.7-26.9-55.1-26.9-57.1z M-25.6-57.1c0,1.7,0.2,2.8,0.6,3.4
		c0.4,0.6,0.9,0.9,1.5,0.9c0.6,0,1.1-0.3,1.5-0.9c0.4-0.6,0.6-1.7,0.6-3.4s-0.2-2.8-0.6-3.4c-0.4-0.6-0.9-0.9-1.5-0.9
		c-0.6,0-1,0.3-1.4,0.8C-25.4-60-25.6-58.8-25.6-57.1z M-18.3-51.9v-1.5h1.5v1.5H-18.3z M-15-54.7l1.4-0.1c0.1,0.6,0.3,1.1,0.7,1.5
		s0.8,0.5,1.3,0.5c0.6,0,1.1-0.3,1.5-0.7c0.4-0.4,0.7-1.1,0.7-1.9c0-0.7-0.2-1.3-0.6-1.7s-0.9-0.6-1.6-0.6c-0.4,0-0.8,0.1-1.1,0.3
		s-0.6,0.4-0.8,0.8l-1.2-0.2l0.9-5.4h5.1v1.2h-4.2l-0.6,2.8c0.6-0.4,1.3-0.7,2-0.7c0.9,0,1.7,0.3,2.3,0.9c0.6,0.6,0.9,1.5,0.9,2.4
		c0,0.9-0.3,1.8-0.9,2.5c-0.7,0.9-1.5,1.3-2.7,1.3c-0.9,0-1.7-0.3-2.3-0.8C-14.6-53.1-14.9-53.8-15-54.7z"/>
</g>
<g transform="translate(605.3333,375.6)">
	<path class="st2" d="M-26.9-46.2c0-1.2,0.1-2.2,0.3-3c0.3-0.8,0.6-1.4,1.1-1.7c0.5-0.4,1.1-0.6,1.9-0.6c0.6,0,1,0.1,1.5,0.3
		c0.4,0.3,0.8,0.5,1,0.9s0.5,0.9,0.7,1.5c0.2,0.6,0.3,1.5,0.3,2.5c0,1.2-0.1,2.2-0.3,3c-0.3,0.8-0.6,1.4-1.1,1.7
		c-0.5,0.4-1.1,0.6-1.9,0.6c-1,0-1.8-0.3-2.4-1C-26.6-42.9-26.9-44.3-26.9-46.2z M-25.6-46.2c0,1.7,0.2,2.8,0.6,3.4
		c0.4,0.6,0.9,0.9,1.5,0.9c0.6,0,1.1-0.3,1.5-0.9c0.4-0.6,0.6-1.7,0.6-3.4s-0.2-2.8-0.6-3.4c-0.4-0.6-0.9-0.9-1.5-0.9
		c-0.6,0-1,0.3-1.4,0.8C-25.4-49.1-25.6-47.9-25.6-46.2z M-18.3-41.1v-1.5h1.5v1.5H-18.3z M-8.4-49l-1.3,0.1
		c-0.1-0.5-0.3-0.9-0.5-1.1c-0.3-0.3-0.8-0.5-1.3-0.5c-0.4,0-0.8,0.1-1.1,0.3c-0.4,0.3-0.7,0.7-0.9,1.3c-0.1,0.6-0.3,1.4-0.3,2.4
		c0.3-0.4,0.7-0.8,1.1-1c0.5-0.3,0.9-0.3,1.5-0.3c0.9,0,1.5,0.3,2.1,0.9c0.6,0.6,0.9,1.5,0.9,2.4c0,0.7-0.2,1.3-0.4,1.8
		c-0.3,0.6-0.7,1-1.2,1.3c-0.5,0.3-1,0.4-1.7,0.4c-1,0-2-0.4-2.6-1.2c-0.6-0.8-1-2.1-1-3.9c0-2.1,0.3-3.5,1.1-4.4
		c0.7-0.8,1.5-1.2,2.7-1.2c0.9,0,1.5,0.3,2.1,0.7C-8.7-50.4-8.5-49.7-8.4-49z M-13.5-44.4c0,0.4,0.1,0.9,0.3,1.3
		c0.2,0.4,0.4,0.7,0.8,0.9c0.3,0.2,0.7,0.3,1,0.3c0.5,0,1-0.3,1.4-0.7c0.4-0.5,0.6-1.1,0.6-1.9c0-0.7-0.2-1.3-0.6-1.7
		c-0.3-0.4-0.9-0.6-1.5-0.6s-1,0.3-1.4,0.6C-13.4-45.7-13.5-45.1-13.5-44.4z"/>
</g>
<g transform="translate(605.3333,299.2)">
	<path class="st2" d="M-26.9-35.4c0-1.2,0.1-2.2,0.3-3c0.3-0.8,0.6-1.4,1.1-1.7c0.5-0.4,1.1-0.6,1.9-0.6c0.6,0,1,0.1,1.5,0.3
		s0.8,0.5,1,0.9c0.3,0.4,0.5,0.9,0.7,1.5c0.2,0.6,0.3,1.5,0.3,2.5c0,1.2-0.1,2.2-0.3,3c-0.3,0.8-0.6,1.4-1.1,1.7
		c-0.5,0.4-1.1,0.6-1.9,0.6c-1,0-1.8-0.3-2.4-1C-26.6-32-26.9-33.4-26.9-35.4z M-25.6-35.4c0,1.7,0.2,2.8,0.6,3.4
		c0.4,0.6,0.9,0.9,1.5,0.9c0.6,0,1.1-0.3,1.5-0.9c0.4-0.6,0.6-1.7,0.6-3.4c0-1.7-0.2-2.8-0.6-3.4c-0.4-0.6-0.9-0.9-1.5-0.9
		c-0.6,0-1,0.3-1.4,0.8C-25.4-38.3-25.6-37.1-25.6-35.4z M-18.3-30.2v-1.5h1.5v1.5H-18.3z M-14.9-39.3v-1.2h6.8v1
		c-0.7,0.7-1.4,1.6-2,2.7c-0.7,1.2-1.1,2.4-1.5,3.6c-0.3,0.9-0.4,1.8-0.5,2.8h-1.3c0-0.9,0.2-1.8,0.5-3s0.8-2.3,1.3-3.3
		c0.6-1.1,1.2-2,1.8-2.7L-14.9-39.3L-14.9-39.3z"/>
</g>
<g transform="translate(605.3333,222.8)">
	<path class="st2" d="M-26.9-24.5c0-1.2,0.1-2.2,0.3-3c0.3-0.8,0.6-1.4,1.1-1.7c0.5-0.4,1.1-0.6,1.9-0.6c0.6,0,1,0.1,1.5,0.3
		c0.4,0.3,0.8,0.5,1,0.9s0.5,0.9,0.7,1.5s0.3,1.5,0.3,2.5c0,1.2-0.1,2.2-0.3,3s-0.6,1.4-1.1,1.7c-0.5,0.4-1.1,0.6-1.9,0.6
		c-1,0-1.8-0.3-2.4-1C-26.6-21.2-26.9-22.5-26.9-24.5z M-25.6-24.5c0,1.7,0.2,2.8,0.6,3.4s0.9,0.9,1.5,0.9c0.6,0,1.1-0.3,1.5-0.9
		c0.4-0.6,0.6-1.7,0.6-3.4c0-1.7-0.2-2.8-0.6-3.4c-0.4-0.6-0.9-0.9-1.5-0.9c-0.6,0-1,0.3-1.4,0.8C-25.4-27.4-25.6-26.2-25.6-24.5z
		 M-18.3-19.4v-1.5h1.5v1.5H-18.3z M-13-25c-0.5-0.2-0.9-0.5-1.2-0.9c-0.3-0.3-0.3-0.8-0.3-1.3c0-0.8,0.3-1.4,0.9-1.9
		c0.5-0.5,1.3-0.8,2.1-0.8c0.9,0,1.6,0.3,2.2,0.8c0.5,0.5,0.9,1.2,0.9,1.9c0,0.5-0.1,0.9-0.3,1.3c-0.3,0.3-0.6,0.6-1.1,0.9
		c0.5,0.2,0.9,0.5,1.3,1c0.3,0.4,0.5,1,0.5,1.6c0,0.9-0.3,1.6-0.9,2.2s-1.5,0.9-2.5,0.9s-1.9-0.3-2.5-0.9c-0.7-0.6-0.9-1.4-0.9-2.2
		c0-0.7,0.2-1.3,0.5-1.7C-14.1-24.5-13.6-24.9-13-25z M-13.3-27.2c0,0.5,0.2,0.9,0.5,1.2c0.3,0.3,0.7,0.4,1.2,0.4
		c0.5,0,0.9-0.2,1.2-0.4c0.3-0.3,0.5-0.7,0.5-1.1c0-0.5-0.2-0.9-0.5-1.2c-0.3-0.3-0.8-0.5-1.2-0.5c-0.5,0-0.9,0.2-1.2,0.4
		C-13.1-28.1-13.3-27.6-13.3-27.2z M-13.7-22.4c0,0.3,0.1,0.7,0.3,1c0.2,0.3,0.4,0.6,0.8,0.8c0.3,0.2,0.7,0.3,1.1,0.3
		c0.6,0,1.1-0.2,1.5-0.6c0.4-0.4,0.6-0.9,0.6-1.5c0-0.6-0.2-1.1-0.6-1.5c-0.4-0.4-0.9-0.6-1.5-0.6s-1.1,0.2-1.5,0.6
		C-13.5-23.6-13.7-23-13.7-22.4z"/>
</g>
<g transform="translate(605.3333,146.4)">
	<path class="st2" d="M-26.9-13.7c0-1.2,0.1-2.2,0.3-3s0.6-1.4,1.1-1.7c0.5-0.4,1.1-0.6,1.9-0.6c0.6,0,1,0.1,1.5,0.3
		c0.4,0.3,0.8,0.5,1,0.9c0.3,0.4,0.5,0.9,0.7,1.5c0.2,0.6,0.3,1.5,0.3,2.5c0,1.2-0.1,2.2-0.3,3c-0.3,0.8-0.6,1.4-1.1,1.7
		c-0.5,0.4-1.1,0.6-1.9,0.6c-1,0-1.8-0.3-2.4-1C-26.6-10.3-26.9-11.7-26.9-13.7z M-25.6-13.7c0,1.7,0.2,2.8,0.6,3.4
		c0.4,0.6,0.9,0.9,1.5,0.9c0.6,0,1.1-0.3,1.5-0.9c0.4-0.6,0.6-1.7,0.6-3.4s-0.2-2.8-0.6-3.4c-0.4-0.6-0.9-0.9-1.5-0.9
		c-0.6,0-1,0.3-1.4,0.8C-25.4-16.6-25.6-15.4-25.6-13.7z M-18.3-8.5V-10h1.5v1.5H-18.3z M-14.8-10.9l1.2-0.1
		c0.2,0.5,0.3,0.9,0.7,1.2c0.3,0.3,0.7,0.4,1.1,0.4s0.8-0.1,1-0.3c0.3-0.2,0.5-0.4,0.7-0.8c0.3-0.3,0.3-0.7,0.5-1.2
		c0.1-0.5,0.2-1,0.2-1.5c0-0.1,0-0.2,0-0.3c-0.3,0.4-0.6,0.8-1,1c-0.4,0.3-0.9,0.3-1.5,0.3c-0.9,0-1.6-0.3-2.2-0.9
		c-0.6-0.6-0.9-1.5-0.9-2.5s0.3-1.9,0.9-2.6s1.4-0.9,2.3-0.9c0.7,0,1.3,0.2,1.9,0.5c0.6,0.3,1,0.9,1.3,1.5s0.4,1.6,0.4,2.9
		c0,1.4-0.2,2.4-0.4,3.2s-0.8,1.5-1.3,1.9c-0.6,0.4-1.2,0.6-2,0.6s-1.5-0.3-2-0.7C-14.4-9.4-14.7-10.1-14.8-10.9z M-9.6-15.5
		c0-0.8-0.2-1.3-0.6-1.7c-0.4-0.4-0.9-0.7-1.4-0.7c-0.6,0-1,0.3-1.5,0.7c-0.4,0.4-0.6,1-0.6,1.8c0,0.7,0.2,1.2,0.6,1.6
		c0.3,0.4,0.9,0.6,1.5,0.6c0.6,0,1.1-0.2,1.5-0.6S-9.6-14.8-9.6-15.5z"/>
</g>
<g transform="translate(605.3333,70)">
	<path class="st2" d="M-10.1,2.4h-1.3v-8.1c-0.3,0.3-0.7,0.6-1.2,0.9c-0.5,0.3-0.9,0.5-1.4,0.7v-1.3c0.8-0.3,1.4-0.7,1.9-1.2
		c0.5-0.5,0.9-0.9,1.1-1.4h0.9C-10.1-8.1-10.1,2.4-10.1,2.4z"/>
</g>
<g transform="translate(576.3333,451.9996) rotate(-90)">
	<path class="st2" d="M23-17.8c0,1.6,0,2.7,0,3.4s-0.1,1.2-0.1,1.5c-0.1,0.3-0.2,0.6-0.4,0.9s-0.6,0.4-1.2,0.7
		c0-0.5-0.6-0.9-1.9-1.3v-0.3c1,0.1,1.6,0.2,1.9,0.2s0.5-0.1,0.6-0.2c0.1-0.2,0.2-0.6,0.2-1.5c0-0.8,0-2.1,0-3.7h-4.3v10.4h4.7l1-1
		l1.4,1.4h-12c-0.5,0-1,0.1-1.5,0.2l-0.5-0.5h6v-10.4h-2.3c-0.5,0-1,0.1-1.5,0.2l-0.5-0.5h9.4l0.5-0.7l1,0.8L23-17.8z M29.9-18.8
		l1.4,0.8c-0.4,0.2-0.9,0.9-1.5,2.2h3.6c0-1.9,0-3.2-0.1-4l1.5,0.6l-0.5,0.4v3h3.4l0.9-0.9l1.1,1.3h-5.5v3.8h2.7l0.9-0.9l1.1,1.3
		h-4.8v4.4h4.4l0.9-0.9l1.2,1.4h-12c-0.5,0-1,0.1-1.5,0.2l-0.5-0.5h6.6V-11H31c-0.5,0-1,0.1-1.5,0.2L29-11.4h4.3v-3.8h-3.7
		c-0.9,1.7-1.7,3-2.5,3.7L27-11.6c0.7-1,1.3-2.2,1.7-3.4C29.3-16.5,29.6-17.7,29.9-18.8z M52.8-16.2l0.9-1.6h-4.5
		c-0.7,0.9-1.5,1.6-2.4,2.1l-0.1-0.1c0.7-0.6,1.2-1.2,1.5-1.9c0.4-0.7,0.7-1.4,0.9-2.1l1.1,0.6l-0.5,0.3l-0.6,0.7h4.3l0.5-0.7
		l1.1,0.9C54.6-17.8,53.9-17.2,52.8-16.2L52.8-16.2z M50.4-17.3l1.3,0.5l-0.4,0.3l-0.1,0.3c1,1.5,2.7,2.4,4.9,2.7v0.2
		c-0.7,0.1-1.1,0.3-1.3,0.8c-1.8-0.9-3.1-2-3.8-3.3c-0.7,1.7-2.6,2.7-5.7,3.1l-0.1-0.2c1.9-0.4,3.3-1,4-1.7
		C50.1-15.5,50.4-16.4,50.4-17.3z M43.9-19.2c1.1,0.2,1.7,0.4,1.9,0.6c0.2,0.2,0.3,0.3,0.3,0.5c0,0.1-0.1,0.3-0.2,0.5
		s-0.2,0.3-0.3,0.3s-0.3-0.2-0.3-0.4c-0.3-0.4-0.8-0.9-1.5-1.3L43.9-19.2z M47.7-18.6l0.2,0.1c-0.9,1.2-1.6,2-2.1,2.5
		c-0.4,0.5-0.7,0.9-0.8,1.3c-0.1,0.3-0.2,0.9-0.2,1.5c0,0.4-0.1,0.6-0.3,0.6c0,0-0.2-0.1-0.4-0.2c-0.3-0.2-0.3-0.3-0.3-0.5
		c0-0.2,0-0.3,0.1-0.5c0.2-0.4,0.3-0.8,0.3-1c0.1-0.3-0.3-0.5-1.2-0.8l0.1-0.2c0.6,0.1,0.9,0.1,1.1,0.1s0.3-0.1,0.6-0.2
		C45.1-16.1,46-17,47.7-18.6z M45.3-8c0-1,0.1-1.9,0.1-2.6c0-0.7,0-1.5-0.1-2.2l0.9,0.3h6.4l0.3-0.5l0.9,0.7l-0.5,0.4
		c0,1.4,0,2.4,0.1,3.2l-0.9,0.4v-3.8h-6.4v3.8L45.3-8z M48.9-11.6l1.5,0.8l-0.7,0.4c-0.2,1.3-0.4,2.1-0.9,2.7s-1.1,0.9-2.1,1.3
		c-0.9,0.3-2.1,0.6-3.8,0.8L43-5.8c1-0.2,2-0.5,2.9-0.9s1.6-0.8,2-1.2s0.6-0.9,0.7-1.5C48.7-9.8,48.9-10.7,48.9-11.6z M49.6-8v-0.3
		c1.5,0.3,2.7,0.5,3.6,0.7c0.9,0.2,1.4,0.4,1.5,0.7C54.9-6.6,55-6.3,55-6.1c0,0.3-0.1,0.4-0.2,0.4s-0.3-0.1-0.6-0.3
		c-0.6-0.4-1.2-0.8-1.9-1.1C51.6-7.3,50.7-7.6,49.6-8z M66.2-15.6v1.7h3.9v-1.7H66.2z M66.2-13.5v1.8h3.9v-1.8H66.2z M65.7-10.3
		l1.1,0.9c-0.4,0.2-0.9,0.6-1.4,1.1c-0.6,0.5-1.4,1.2-2.4,2l-0.1-0.2C64.3-7.9,65.2-9.2,65.7-10.3z M69.1-9.8l0.1-0.2
		c1.4,0.9,2.1,1.4,2.3,1.7c0.3,0.3,0.3,0.5,0.3,0.8c0,0.2-0.1,0.4-0.2,0.7s-0.3,0.4-0.3,0.4s-0.3-0.3-0.5-0.7
		C70.6-7.9,70-8.8,69.1-9.8z M65.3-10.7c0-1,0.1-2.1,0.1-2.9c0-0.9,0-1.9-0.1-2.8l0.9,0.5H67c0.4-0.9,0.6-1.6,0.7-2.1H64
		c0,1.6,0,3.3,0,4.7c0,1.5-0.3,2.9-0.9,4.1c-0.6,1.2-1.4,2.3-2.6,3.4L60.4-6c1-1.3,1.7-2.6,2.1-3.9s0.6-2.9,0.6-4.8s0-3.3-0.1-4.5
		l0.9,0.6h6.3l0.9-0.9l1.1,1.2h-4.3l0.9,0.5c-0.3,0.1-0.6,0.3-0.8,0.4c-0.2,0.2-0.4,0.5-0.9,1.1H70l0.4-0.6l0.9,0.8l-0.5,0.4
		c0,2.5,0,3.9,0.1,4.2L70-10.9v-0.6h-1.5v3.9c0,0.8-0.4,1.3-1.3,1.5c0-0.6-0.5-0.9-1.5-1.1v-0.3c0.7,0.3,1.1,0.3,1.5,0.3
		c0.3,0,0.5-0.2,0.5-0.4v-3.8h-1.5v0.3L65.3-10.7z M62.7-17.4c-1.2,4.4-1.9,6.9-2.1,7.4c0,0.5-0.1,1.2-0.1,1.9s0,1.2,0,1.5
		c0,0.2-0.1,0.3-0.3,0.3c-0.1,0-0.3-0.1-0.6-0.2c-0.2-0.1-0.3-0.3-0.3-0.7c0-0.3,0-0.6,0.1-0.9c0.1-0.4,0.2-0.7,0.2-0.9
		c0-0.3,0-0.4-0.3-0.6c-0.2-0.2-0.5-0.3-1.1-0.5v-0.3c0.7,0.1,1.2,0.1,1.4,0.1s0.3-0.2,0.6-0.5c0.3-0.3,1-2.6,2.3-6.7L62.7-17.4z
		 M58.2-15.8c1.4,0.7,2.1,1.2,2.1,1.5c0,0.4-0.1,0.7-0.3,0.9s-0.3,0.3-0.3,0.3s-0.3-0.2-0.3-0.6c-0.2-0.5-0.6-1.2-1.3-1.9L58.2-15.8
		z M59.5-19.2c1.2,0.5,1.8,0.9,1.9,1.2s0.1,0.7-0.1,0.9c-0.2,0.3-0.3,0.4-0.4,0.4c-0.2,0-0.3-0.2-0.3-0.5c-0.2-0.5-0.6-1.1-1.2-1.9
		L59.5-19.2z M77.3-18.5v1.5h3.5v-1.5H77.3z M81.5-18.5v1.5h3.6v-1.5H81.5z M77.3-16.6v1.4h3.5v-1.4H77.3z M81.5-16.6v1.4h3.6v-1.4
		H81.5z M85.9-18.3c0,0.6,0,1.2,0,1.8c0,0.6,0,1.3,0.1,1.9l-0.9,0.3v-0.7h-7.9v0.5l-0.9,0.3c0-1,0.1-2,0.1-3s0-1.8-0.1-2.3l0.9,0.5
		h7.8l0.4-0.5l0.9,0.7L85.9-18.3z M81.7-14.1c-0.5,0.1-1,0.2-1.5,0.4c-0.6,0.3-1.4,0.6-2.6,1l4.1-0.1c0.6-0.4,1.1-0.8,1.5-1.2
		l0.8,0.9c-0.3,0-1,0.3-2,0.7c-1,0.5-2.5,1.2-4.4,1.9l7-0.4c-0.3-0.4-0.8-0.8-1.1-1.2l0.2-0.1c1.2,0.6,1.9,1,2.1,1.3
		c0.3,0.3,0.3,0.6,0.3,0.9s-0.1,0.4-0.2,0.6c-0.1,0.2-0.2,0.3-0.2,0.3c-0.1,0-0.2-0.1-0.3-0.3c-0.3-0.3-0.4-0.6-0.7-0.9l-3.2,0.3
		v2.7c0.1,0.9-0.4,1.4-1.3,1.5c0-0.6-0.7-1-1.9-1.3v-0.3c1.1,0.1,1.8,0.2,2.1,0.2s0.4-0.3,0.4-0.7V-10c-0.8,0.1-1.5,0.2-2.4,0.3
		c-0.8,0.1-1.5,0.3-1.9,0.6l-0.7-1.3c0.6-0.1,1.3-0.3,2-0.5c0.7-0.3,1.8-0.8,3.3-1.5c-1.7,0.2-2.8,0.3-3.3,0.3
		c-0.5,0.1-0.9,0.2-1.1,0.3l-0.5-1.1c0.5,0,1.2-0.2,2.1-0.6c0.9-0.4,1.7-0.9,2.3-1.5L81.7-14.1z M79.6-8.3c-0.5,0.1-1.1,0.3-1.9,0.8
		c-0.8,0.5-1.8,1-3.2,1.5l-0.1-0.2c1-0.5,1.9-1.1,2.6-1.6c0.7-0.6,1.2-1.1,1.6-1.5L79.6-8.3z M83.1-9.2c1.5,0.5,2.5,0.9,3,1.2
		c0.5,0.3,0.8,0.6,0.9,0.9c0,0.3,0,0.5-0.1,0.7c-0.2,0.2-0.3,0.3-0.3,0.3c-0.2,0-0.3-0.2-0.7-0.6C85.5-7.4,84.5-8.2,83.1-9.2
		L83.1-9.2z M91.3-19.1l0.1-0.2c0.9,0.4,1.5,0.8,1.8,1s0.5,0.6,0.5,0.9s-0.1,0.5-0.2,0.6c-0.2,0.1-0.3,0.2-0.3,0.2
		c-0.2,0-0.4-0.3-0.5-0.7C92.4-18,92-18.5,91.3-19.1z M92.9-8l2.4-2.1l0.1,0.2c-1.4,1.8-2.3,3-2.6,3.6l-0.9-1
		c0.2-0.3,0.3-0.6,0.3-1.1v-5.4h-1.5h0.5c-0.3,0-0.6,0.1-1,0.2l-0.5-0.5h2.5l0.7-0.7l0.9,0.9l-0.6,0.4V-8H92.9z M98.3-14.1
		c0-2.7,0-4.5-0.1-5.2l1.5,0.7l-0.4,0.4v4.1h2.7l0.8-0.8l1.1,1.1h-4.5v5.5c0,0.8,0,1.5,0.1,2.2l-1,0.4c0-1.3,0.1-2.2,0.1-2.8v-5.3
		h-3.1h0.9c-0.5,0-0.9,0.1-1.4,0.2l-0.5-0.5H98.3z"/>
</g>
<g transform="translate(994.001,67.25)">
	<path d="M-95.2-5.7c0-0.7,0.1-2.6,0.1-5.6c-0.9,0.4-1.6,0.7-2.3,0.9l-0.1-0.2c1.8-0.7,3.5-1.8,5.1-3.5c-0.7-1-1.2-2.1-1.5-3
		c-0.7,1.3-1.4,2.3-2.1,3.2l-0.2-0.1c0.6-0.8,1-1.6,1.5-2.6c0.3-0.9,0.7-2,1-3.1l1.2,0.7l-0.5,0.3c-0.2,0.3-0.3,0.7-0.5,1.1h3.7
		l0.5-0.6l0.9,0.9l-0.5,0.3c-0.9,1.2-1.7,2.2-2.4,2.9c1.2,1.2,2.7,1.9,4.5,2v0.3c-0.7,0.1-1,0.4-1.1,0.9c-1.5-0.6-2.7-1.5-3.9-2.6
		c-1,0.9-2.1,1.7-3.2,2.3l0.7,0.3h4.3l0.5-0.5l0.9,0.8l-0.5,0.3c0,2.1,0,3.5,0.1,4.2l-0.9,0.3v-1.1h-4.5V-6L-95.2-5.7z M-94.4-10.6
		v3.3h4.5v-3.3H-94.4z M-93.7-17.2c0.5,1.1,1,2,1.7,2.7c0.7-0.7,1.4-1.6,2-2.7H-93.7z M-96.1-17c-1.5,4.4-2.2,6.8-2.3,7.3
		c-0.1,0.5-0.1,1.1-0.1,1.7c0,0.7,0,1.1,0,1.4c0,0.3-0.1,0.3-0.2,0.3s-0.3-0.1-0.5-0.3s-0.4-0.3-0.4-0.7c0-0.3,0-0.5,0.1-0.8
		c0.1-0.3,0.2-0.6,0.2-0.9s-0.1-0.4-0.3-0.7c-0.3,0-0.6-0.2-1.3-0.3v-0.3c0.7,0.1,1.2,0.1,1.4,0.1s0.4-0.3,0.7-0.6s1.1-2.5,2.6-6.4
		L-96.1-17z M-100.9-15.8c1.2,0.7,1.9,1.1,1.9,1.5c0,0.3-0.1,0.6-0.2,0.8c-0.2,0.2-0.3,0.3-0.3,0.3c-0.1,0-0.3-0.2-0.3-0.5
		c-0.2-0.5-0.5-1.1-1.1-1.8L-100.9-15.8z M-99.4-19.1c1,0.5,1.5,0.9,1.7,1c0.1,0.2,0.2,0.3,0.2,0.6c0,0.2-0.1,0.4-0.2,0.6
		c-0.1,0.2-0.3,0.3-0.3,0.3s-0.2-0.2-0.3-0.5c-0.2-0.5-0.6-1.1-1.2-1.8L-99.4-19.1z M-81.9-8.7c0,0.8,0,1.7,0.1,2.7l-0.9,0.5
		c0-1.3,0.1-2.3,0.1-3.2v-6.4c-0.8,1.3-1.5,2.3-2.3,3.2l-0.3-0.3c0.5-0.7,1.1-1.5,1.7-2.8c0.6-1.2,1.2-2.8,1.7-4.7l1.3,0.8l-0.5,0.3
		c-0.5,1.2-1,2.1-1.5,3l1.1,0.5l-0.5,0.4L-81.9-8.7L-81.9-8.7z M-75.7-18.9l-0.6,0.3c0.7,1.3,1.5,2.3,2.4,3.2
		c0.9,0.9,1.9,1.4,2.7,1.5v0.3c-0.7,0-1.1,0.3-1.3,0.7c-0.6-0.3-1.3-0.9-2-1.8c-0.7-0.9-1.4-2-2.1-3.5c-0.9,1.8-1.7,3.2-2.5,4
		c-0.8,0.9-1.6,1.5-2.5,2.1l-0.1-0.2c1-0.9,1.9-1.9,2.7-3.3c0.8-1.3,1.4-2.7,1.8-4L-75.7-18.9z M-73.3-12.2l-0.8,0.1
		c-1.4,0.8-2.7,1.4-3.9,1.9v2.3C-78.1-7.3-77.7-7-77-7h3.1c0.3-0.1,0.6-0.3,0.7-0.9s0.2-1.2,0.2-2h0.3c0,0.7,0,1.2,0.1,1.7
		s0.3,0.8,0.7,0.9c-0.3,0.6-0.7,0.9-1.3,0.9h-4.2c-0.9,0-1.4-0.3-1.4-1.1v-4c0-0.7,0-1.5-0.1-2.5l1.5,0.7l-0.5,0.4v2.4
		c1.5-0.8,2.7-1.7,3.6-2.7L-73.3-12.2z M-61.3-7.6c1.2,0,2.5-0.1,3.8-0.1c-0.3-0.9-0.7-1.5-1-2.1l0.2-0.1c1.5,1.2,2.1,2,2.1,2.5
		s-0.1,0.9-0.3,1c-0.2,0.2-0.3,0.3-0.4,0.3S-57-6.3-57-6.4c-0.1-0.3-0.2-0.6-0.3-1c-2.4,0.3-3.9,0.7-4.3,1l-0.7-1.3
		c0.4-0.2,0.9-0.5,1.3-1c0.4-0.5,1-1.5,1.9-2.9c-1.4,0.2-2.3,0.4-2.8,0.9l-0.7-1.2c0.3-0.1,0.5-0.3,0.8-0.5s0.5-0.8,0.9-1.5
		c0.4-0.8,0.7-1.5,0.8-2.1l1.2,0.8c-0.4,0.3-0.9,0.8-1.5,1.5c-0.5,0.9-0.9,1.5-1.3,1.8c0.9-0.1,1.7-0.1,2.7-0.1
		c0.5-0.9,0.9-1.6,1-2.2l1.1,0.9c-0.3,0.1-0.9,0.8-1.8,2.1C-59.6-9.8-60.5-8.7-61.3-7.6z M-68.5-7.5c0.4-0.1,0.9-0.3,1.2-0.8
		c0.3-0.4,1.1-1.5,2.3-3.4c-1.6,0.2-2.7,0.5-3,0.9l-0.7-1.1c0.6-0.1,1.1-0.7,1.6-1.6s0.9-1.8,1.1-2.5l1.2,0.9l-0.6,0.3
		c-1.2,1.7-2,2.7-2.3,3c0.9,0,1.8-0.1,2.7-0.1c0.4-0.8,0.7-1.5,0.9-2.1l1.1,0.9c-0.3,0.1-0.9,0.9-1.8,2.1c-0.9,1.4-1.8,2.6-2.7,3.6
		c1.2-0.1,2.3-0.2,3.3-0.2c-0.2-0.6-0.4-1.2-0.8-1.8l0.4-0.1c1.2,1.1,1.8,1.9,1.9,2.3c0.1,0.4,0,0.8-0.3,1C-63-6.1-63.2-6-63.3-6
		s-0.1-0.1-0.1-0.2c-0.1-0.3-0.2-0.7-0.3-1.3c-2.3,0.3-3.6,0.8-4,1.1L-68.5-7.5z M-66-19.3l0.2-0.1c0.7,0.3,1.2,0.7,1.6,1.1
		c0.3,0.3,0.6,0.7,0.6,0.9c0,0.3-0.2,0.7-0.5,1h2.7c0.7-1.4,1.2-2.5,1.3-3.3l1.3,0.9l-0.6,0.3c-0.7,0.9-1.2,1.6-1.6,2.1h3.3l0.9-1.1
		l1.3,1.3h-11.8c-0.5,0-1,0.1-1.5,0.2l-0.5-0.5h4.8c-0.2-0.4-0.3-0.9-0.5-1.4C-65.2-18.2-65.5-18.7-66-19.3z M-44.7-11.9v4.4h2.5
		v-4.4H-44.7z M-52.1-16.9l0.9,0.5h2.4c0-1.5,0-2.7-0.1-3.4l1.4,0.7l-0.5,0.4v2.3h2.5c0-1.6,0-2.7-0.1-3.4l1.5,0.7l-0.6,0.3v2.3h2.4
		l0.5-0.6l0.9,0.8l-0.5,0.4c0,5.2,0,8.3,0.1,9.3l-0.9,0.4v-1.1h-9v1l-0.9,0.4C-52-7.7-52-9.6-52-11.5S-52-15.2-52.1-16.9z M-51.1-16
		v3.7h2.4V-16H-51.1z M-47.9-16v3.7h2.5V-16H-47.9z M-44.7-16v3.7h2.5V-16H-44.7z M-51.1-11.9v4.4h2.4v-4.4H-51.1z M-47.9-11.9v4.4
		h2.5v-4.4H-47.9z M-29.3-15.4c0,0.6,0,1.3,0.1,2.2l2.8-0.3l0.8-0.9l1.2,1l-4.7,0.5c0.1,1.2,0.3,2.2,0.6,2.9
		c0.9-0.8,1.5-1.6,2.1-2.6l1.1,1.1l-0.5,0.1c-0.8,0.7-1.5,1.5-2.3,2.1c0.7,1,1.5,1.7,2.6,2.1l0.9-2.9l0.3,0.1
		c-0.1,0.9-0.2,1.7-0.2,2.3s0.1,1.1,0.3,1.5c0,0.1,0.1,0.2,0.1,0.2c0,0.2-0.2,0.2-0.6,0.2c-0.4-0.1-0.9-0.3-1.7-0.7
		c-0.7-0.4-1.5-1.1-2.1-2.1c-0.7,0.5-1.5,0.9-2.2,1.2c-0.8,0.3-1.7,0.7-2.8,0.9l-0.1-0.3c1.7-0.7,3.3-1.5,4.6-2.7
		c-0.3-1.1-0.6-2.2-0.7-3.5l-2.5,0.3l-0.5,0.3l-0.7-0.5l3.5-0.3c0-0.6-0.1-1.3-0.1-2.3l-1.7,0.1l-0.3,0.3l-0.5-0.5l2.7-0.2
		c0-1.4-0.1-2.8-0.1-4.2l1.4,0.7l-0.5,0.4c0,0.9,0,1.9,0.1,3.1l2.6-0.3l0.8-0.9l1.2,1.1L-29.3-15.4z M-28.4-18.8l0.1-0.2
		c1.3,0.3,2,0.6,2.1,0.8c0.1,0.3,0.2,0.4,0.2,0.6c0,0.2,0,0.4-0.1,0.6c-0.1,0.2-0.2,0.3-0.3,0.3c-0.1,0-0.2-0.2-0.3-0.5
		C-27.1-17.6-27.7-18.1-28.4-18.8z M-35.1-19.6l1.2,0.8c-0.3,0.1-0.7,0.5-1,1.2c-0.3,0.7-1,1.7-2,3.1l2.5-0.3
		c0.5-0.8,0.9-1.6,1.1-2.4l1.1,0.8c-0.3,0.2-0.8,0.8-1.5,1.7c-0.7,1-1.5,2.2-2.7,3.6c0.6-0.1,1.8-0.3,3.8-0.7v0.3
		c-1.1,0.3-2,0.5-2.6,0.8c-0.6,0.3-1.2,0.5-1.8,0.9l-0.7-1.3c0.4-0.1,0.9-0.6,1.5-1.3c0.6-0.8,1.1-1.5,1.5-2.2
		c-0.4,0.1-0.9,0.2-1.4,0.3c-0.5,0.2-0.9,0.4-1.3,0.8l-0.7-1.1c0.4-0.1,0.9-0.7,1.5-1.7C-35.8-17.3-35.3-18.4-35.1-19.6z M-38-8.1
		c1.1-0.2,2.1-0.3,2.7-0.4s1.8-0.3,3.3-0.7l0,0.3c-1.8,0.5-3.1,0.9-3.9,1.2c-0.9,0.3-1.4,0.5-1.5,0.8L-38-8.1z"/>
</g>
<g>
	<path class="st3" d="M604.1,722.2l46.8-46.8l46.8-46.8l46.8-46.8l46.8-46.8l46.8-46.8l46.8-46.8l46.7-46.7l46.8-46.8l46.8-46.8
		l46.8-46.8l46.8-46.8l46.8-46.8l46.8-46.8l46.7-46.7"/>
	<path class="st4" d="M604.1,718.2c2.1,0,3.9,1.8,3.9,3.9l0,0c0,2.1-1.8,3.9-3.9,3.9c-2.1,0-3.9-1.8-3.9-3.9
		C600.2,720,602,718.2,604.1,718.2z M604.1,717.5c-2.6,0-4.6,2.1-4.6,4.6s2.1,4.6,4.6,4.6s4.6-2.1,4.6-4.6l0,0
		C608.7,719.6,606.7,717.5,604.1,717.5z"/>
	<path class="st4" d="M651,716.6c2.1,0,3.9,1.8,3.9,3.9l0,0c0,2.1-1.8,3.9-3.9,3.9s-3.9-1.8-3.9-3.9S648.7,716.6,651,716.6z
		 M651,715.9c-2.6,0-4.6,2.1-4.6,4.6s2.1,4.6,4.6,4.6s4.6-2.1,4.6-4.6l0,0C655.6,718,653.5,715.9,651,715.9z"/>
	<path class="st4" d="M697.7,697.6c2.1,0,3.9,1.8,3.9,3.9l0,0c0,2.1-1.8,3.9-3.9,3.9c-2.1,0-3.9-1.8-3.9-3.9
		C693.8,699.4,695.6,697.6,697.7,697.6z M697.7,696.9c-2.6,0-4.6,2.1-4.6,4.6s2.1,4.6,4.6,4.6s4.6-2.1,4.6-4.6l0,0
		C702.4,698.9,700.3,696.9,697.7,696.9z"/>
	<path class="st4" d="M744.5,674.9c2.1,0,3.9,1.8,3.9,3.9l0,0c0,2.1-1.8,3.9-3.9,3.9c-2.1,0-3.9-1.8-3.9-3.9
		C740.6,676.7,742.4,674.9,744.5,674.9z M744.5,674.1c-2.6,0-4.6,2.1-4.6,4.6s2.1,4.6,4.6,4.6s4.6-2.1,4.6-4.6l0,0
		C749.2,676.3,747.1,674.1,744.5,674.1z"/>
	<path class="st4" d="M791.4,639.2c2.1,0,3.9,1.8,3.9,3.9l0,0c0,2.1-1.8,3.9-3.9,3.9s-3.9-1.8-3.9-3.9
		C787.4,641,789.2,639.2,791.4,639.2z M791.4,638.5c-2.6,0-4.6,2.1-4.6,4.6s2.1,4.6,4.6,4.6s4.6-2.1,4.6-4.6l0,0
		C796,640.6,794,638.5,791.4,638.5z"/>
	<path class="st4" d="M838.2,602.1c2.1,0,3.9,1.8,3.9,3.9l0,0c0,2.1-1.8,3.9-3.9,3.9c-2.1,0-3.9-1.8-3.9-3.9
		C834.3,603.9,836,602.1,838.2,602.1z M838.2,601.3c-2.6,0-4.6,2.1-4.6,4.6s2.1,4.6,4.6,4.6s4.6-2.1,4.6-4.6l0,0
		C842.9,603.5,840.7,601.3,838.2,601.3z"/>
	<path class="st4" d="M885,557c2.1,0,3.9,1.8,3.9,3.9l0,0c0,2.1-1.8,3.9-3.9,3.9c-2.1,0-3.9-1.8-3.9-3.9
		C881,558.8,882.8,557,885,557z M885,556.3c-2.6,0-4.6,2.1-4.6,4.6c0,2.6,2.1,4.6,4.6,4.6s4.6-2.1,4.6-4.6l0,0
		C889.6,558.3,887.5,556.3,885,556.3z"/>
	<path class="st4" d="M931.8,509.1c2.1,0,3.9,1.8,3.9,3.9l0,0c0,2.1-1.8,3.9-3.9,3.9c-2.1,0-3.9-1.8-3.9-3.9
		C927.9,510.9,929.7,509.1,931.8,509.1z M931.8,508.3c-2.6,0-4.6,2.1-4.6,4.6s2.1,4.6,4.6,4.6s4.6-2.1,4.6-4.6l0,0
		C936.4,510.5,934.4,508.3,931.8,508.3z"/>
	<path class="st4" d="M978.7,459.3c2.1,0,3.9,1.8,3.9,3.9l0,0c0,2.1-1.8,3.9-3.9,3.9s-3.9-1.8-3.9-3.9S976.4,459.3,978.7,459.3z
		 M978.7,458.6c-2.6,0-4.6,2.1-4.6,4.6c0,2.6,2.1,4.6,4.6,4.6s4.6-2.1,4.6-4.6l0,0C983.3,460.7,981.2,458.6,978.7,458.6z"/>
	<path class="st4" d="M1025.4,409.5c2.1,0,3.9,1.8,3.9,3.9l0,0c0,2.1-1.8,3.9-3.9,3.9s-3.9-1.8-3.9-3.9S1023.3,409.5,1025.4,409.5z
		 M1025.4,408.8c-2.6,0-4.6,2.1-4.6,4.6s2.1,4.6,4.6,4.6c2.6,0,4.6-2.1,4.6-4.6l0,0C1030.1,410.9,1028,408.8,1025.4,408.8z"/>
	<path class="st4" d="M1072.2,353c2.1,0,3.9,1.8,3.9,3.9l0,0c0,2.1-1.8,3.9-3.9,3.9s-3.9-1.8-3.9-3.9S1070.1,353,1072.2,353z
		 M1072.2,352.4c-2.6,0-4.6,2.1-4.6,4.6s2.1,4.6,4.6,4.6c2.6,0,4.6-2.1,4.6-4.6l0,0C1076.9,354.4,1074.8,352.4,1072.2,352.4z"/>
	<path class="st4" d="M1119.1,292c2.1,0,3.9,1.8,3.9,3.9l0,0c0,2.1-1.8,3.9-3.9,3.9c-2.1,0-3.9-1.8-3.9-3.9S1116.9,292,1119.1,292z
		 M1119.1,291.3c-2.6,0-4.6,2.1-4.6,4.6s2.1,4.6,4.6,4.6c2.6,0,4.6-2.1,4.6-4.6l0,0C1123.7,293.3,1121.7,291.3,1119.1,291.3z"/>
	<path class="st4" d="M1165.9,228c2.1,0,3.9,1.8,3.9,3.9l0,0c0,2.1-1.8,3.9-3.9,3.9s-3.9-1.8-3.9-3.9
		C1162,229.8,1163.7,228,1165.9,228z M1165.9,227.2c-2.6,0-4.6,2.1-4.6,4.6c0,2.6,2.1,4.6,4.6,4.6c2.6,0,4.6-2.1,4.6-4.6l0,0
		C1170.6,229.3,1168.4,227.2,1165.9,227.2z"/>
	<path class="st4" d="M1212.7,148.5c2.1,0,3.9,1.8,3.9,3.9l0,0c0,2.1-1.8,3.9-3.9,3.9c-2.1,0-3.9-1.8-3.9-3.9
		C1208.7,150.3,1210.5,148.5,1212.7,148.5z M1212.7,147.8c-2.6,0-4.6,2.1-4.6,4.6c0,2.6,2.1,4.6,4.6,4.6c2.6,0,4.6-2.1,4.6-4.6l0,0
		C1217.3,149.9,1215.2,147.8,1212.7,147.8z"/>
	<path class="st4" d="M1259.5,62.8c2.1,0,3.9,1.8,3.9,3.9l0,0c0,2.1-1.8,3.9-3.9,3.9s-3.9-1.8-3.9-3.9S1257.4,62.8,1259.5,62.8z
		 M1259.5,62.1c-2.6,0-4.6,2.1-4.6,4.6s2.1,4.6,4.6,4.6s4.6-2.1,4.6-4.6l0,0C1264.1,64.2,1262.1,62.1,1259.5,62.1z"/>
</g>
<g>
	<path class="st5" d="M623.5,720.3l2.5-0.3l4.4-0.4l4.4-0.5l4.4-0.6l4.4-0.7l4.4-0.8l4.4-0.9l4.4-1l4.4-1.1l4.4-1.2l4.4-1.4l4.4-1.5
		l4.4-1.5l4.4-1.6l4.4-1.7l4.4-1.8l4.4-1.9l4.4-1.9l4.4-2l4.4-2.1l4.4-2.1l4.4-2.2l4.4-2.3l4.4-2.3l4.4-2.4l4.4-2.5l4.4-2.6l4.4-2.7
		l4.4-2.7l4.4-2.8l4.4-2.9l4.4-3l4.4-3.1l4.4-3.2l4.4-3.2l4.4-3.3l4.4-3.3l4.4-3.3l4.4-3.4l4.4-3.4l4.4-3.4l4.4-3.5l4.4-3.5l4.4-3.6
		l4.4-3.6l4.4-3.7l4.4-3.7l4.4-3.8l4.4-3.9l4.4-3.9l4.4-3.9l4.4-4l4.4-4l4.4-4.1l4.4-4.1l4.4-4.2l4.4-4.2l4.4-4.3l4.4-4.3l4.4-4.3
		l4.4-4.4l4.4-4.4l4.4-4.4l4.4-4.5l4.4-4.5l4.4-4.5l4.4-4.5l4.4-4.5l4.4-4.5l4.4-4.5l4.4-4.5l4.4-4.5l4.4-4.5l4.4-4.5l4.4-4.5
		l4.4-4.6l4.4-4.6l4.4-4.6l4.4-4.6l4.4-4.6l4.4-4.6l4.4-4.6l4.4-4.6l4.4-4.6l4.4-4.7l4.4-4.7l4.4-4.7l4.4-4.7l4.4-4.8l4.4-4.8
		l4.4-4.9l4.4-4.9l4.4-5l4.4-5l4.4-5.1l4.4-5.1l4.4-5.1l4.4-5.1l4.4-5.2l4.4-5.2l4.4-5.3l4.4-5.3l4.4-5.4l4.4-5.4l4.4-5.5l4.4-5.5
		l4.4-5.6l4.4-5.6l4.4-5.7l4.4-5.7l4.4-5.7l4.4-5.7l4.4-5.8l4.4-5.8l4.4-5.9l4.4-5.9l4.4-6l4.4-6.1l4.4-6.1l4.4-6.2l4.4-6.3l4.4-6.4
		l4.4-6.5l4.4-6.6l4.4-6.7l4.4-6.9l4.4-6.9l4.4-7l4.4-7.1l4.4-7.2l4.4-7.3l4.4-7.4l4.4-7.5l4.4-7.5l4.4-7.6l4.4-7.7l4.4-7.8l4.4-7.8
		l4.4-7.9l4.4-7.9l4.4-8l4.4-8l4.4-8l4.4-8l4.4-8.1l4.4-8.1"/>
	<line class="st6" x1="604.1" y1="720.2" x2="1259.5" y2="64.8"/>
	<path class="st7" d="M604.1,720.2l46.8-1.6l46.8-19l46.8-22.7l46.8-35.7l46.8-37.1l46.8-45.1l46.8-47.9l46.8-49.8l46.8-49.8
		l46.8-56.4l46.8-61.1l46.8-64.1l46.8-79.4l46.5-85.6"/>
</g>
<g transform="translate(612,834)">
	<path class="st8" d="M-11.3-115.3v6.9h6.9v-6.9H-11.3z"/>
</g>
<g transform="translate(612,834)">
	<path class="st9" d="M-11.3-115.3v6.9h6.9v-6.9H-11.3z"/>
</g>
<g transform="translate(666.5714,832.0907)">
	<path class="st8" d="M-19.1-115v6.9h6.9v-6.9H-19.1z"/>
</g>
<g transform="translate(666.5714,832.0907)">
	<path class="st9" d="M-19.1-115v6.9h6.9v-6.9H-19.1z"/>
</g>
<g transform="translate(721.1429,809.921)">
	<path class="st8" d="M-26.8-111.8v6.9h6.9v-6.9H-26.8z"/>
</g>
<g transform="translate(721.1429,809.921)">
	<path class="st9" d="M-26.8-111.8v6.9h6.9v-6.9H-26.8z"/>
</g>
<g transform="translate(775.7143,783.4639)">
	<path class="st8" d="M-34.6-108.1v6.9h6.9v-6.9H-34.6z"/>
</g>
<g transform="translate(775.7143,783.4639)">
	<path class="st9" d="M-34.6-108.1v6.9h6.9v-6.9H-34.6z"/>
</g>
<g transform="translate(830.2857,741.9077)">
	<path class="st8" d="M-42.3-102.2v6.9h6.9v-6.9H-42.3z"/>
</g>
<g transform="translate(830.2857,741.9077)">
	<path class="st9" d="M-42.3-102.2v6.9h6.9v-6.9H-42.3z"/>
</g>
<g transform="translate(884.8572,698.5582)">
	<path class="st8" d="M-50.1-96v6.9h6.9V-96H-50.1z"/>
</g>
<g transform="translate(884.8572,698.5582)">
	<path class="st9" d="M-50.1-96v6.9h6.9V-96H-50.1z"/>
</g>
<g transform="translate(939.4286,645.9896)">
	<path class="st8" d="M-57.9-88.5v6.9h6.9v-6.9H-57.9z"/>
</g>
<g transform="translate(939.4286,645.9896)">
	<path class="st9" d="M-57.9-88.5v6.9h6.9v-6.9H-57.9z"/>
</g>
<g transform="translate(994,590.1661)">
	<path class="st8" d="M-65.6-80.6v6.9h6.9v-6.9H-65.6z"/>
</g>
<g transform="translate(994,590.1661)">
	<path class="st9" d="M-65.6-80.6v6.9h6.9v-6.9H-65.6z"/>
</g>
<g transform="translate(1048.5714,532.2104)">
	<path class="st8" d="M-73.4-72.4v6.9h6.9v-6.9H-73.4z"/>
</g>
<g transform="translate(1048.5714,532.2104)">
	<path class="st9" d="M-73.4-73.4v6.9h6.9v-6.9H-73.4z"/>
</g>
<g transform="translate(1103.1428,474.0919)">
	<path class="st8" d="M-81.1-64.1v6.9h6.9v-6.9H-81.1z"/>
</g>
<g transform="translate(1103.1428,474.0919)">
	<path class="st9" d="M-81.1-64.1v6.9h6.9v-6.9H-81.1z"/>
</g>
<g transform="translate(1157.7144,408.3)">
	<path class="st8" d="M-88.9-54.7v6.9h6.9v-6.9H-88.9z"/>
</g>
<g transform="translate(1157.7144,408.3)">
	<path class="st9" d="M-88.9-54.7v6.9h6.9v-6.9H-88.9z"/>
</g>
<g transform="translate(1212.2856,337.1281)">
	<path class="st8" d="M-96.6-44.6v6.9h6.9v-6.9H-96.6z"/>
</g>
<g transform="translate(1212.2856,337.1281)">
	<path class="st9" d="M-96.6-44.6v6.9h6.9v-6.9H-96.6z"/>
</g>
<g transform="translate(1266.8572,262.4446)">
	<path class="st8" d="M-104.4-34v6.9h6.9V-34H-104.4z"/>
</g>
<g transform="translate(1266.8572,262.4446)">
	<path class="st9" d="M-104.4-34v6.9h6.9V-34H-104.4z"/>
</g>
<g transform="translate(1321.4286,169.9247)">
	<path class="st8" d="M-112.2-20.9v6.9h6.9v-6.9H-112.2z"/>
</g>
<g transform="translate(1321.4286,169.9247)">
	<path class="st9" d="M-112.2-20.9v6.9h6.9v-6.9H-112.2z"/>
</g>
<g transform="translate(1376,70)">
	<path class="st8" d="M-119.9-6.7v6.9h6.9v-6.9H-119.9z"/>
</g>
<g transform="translate(1376,70)">
	<path class="st9" d="M-119.9-6.7v6.9h6.9v-6.9H-119.9z"/>
</g>
<g>
	<path class="st3" d="M604.1,722.2l46.8-46.8l46.8-46.8l46.8-46.8l46.8-46.8l46.8-46.8l46.8-46.8l46.7-46.7l46.8-46.8l46.8-46.8
		l46.8-46.8l46.8-46.8l46.8-46.8l46.8-46.8l46.7-46.7"/>
	<path class="st10" d="M604.1,718.2c2.1,0,3.9,1.8,3.9,3.9l0,0c0,2.1-1.8,3.9-3.9,3.9c-2.1,0-3.9-1.8-3.9-3.9
		C600.2,720,602,718.2,604.1,718.2z M604.1,717.5c-2.6,0-4.6,2.1-4.6,4.6s2.1,4.6,4.6,4.6s4.6-2.1,4.6-4.6l0,0
		C608.7,719.6,606.7,717.5,604.1,717.5z"/>
	<path class="st10" d="M651,709c2.1,0,3.9,1.8,3.9,3.9l0,0c0,2.1-1.8,3.9-3.9,3.9s-3.9-1.8-3.9-3.9C647,710.8,648.7,709,651,709z
		 M651,708.3c-2.6,0-4.6,2.1-4.6,4.6c0,2.6,2.1,4.6,4.6,4.6s4.6-2.1,4.6-4.6l0,0C655.6,710.3,653.5,708.3,651,708.3z"/>
	<path class="st10" d="M697.7,696.6c2.1,0,3.9,1.8,3.9,3.9l0,0c0,2.1-1.8,3.9-3.9,3.9c-2.1,0-3.9-1.8-3.9-3.9
		C693.8,698.4,695.6,696.6,697.7,696.6z M697.7,695.9c-2.6,0-4.6,2.1-4.6,4.6c0,2.6,2.1,4.6,4.6,4.6s4.6-2.1,4.6-4.6l0,0
		C702.4,698,700.3,695.9,697.7,695.9z"/>
	<path class="st10" d="M744.5,676.4c2.1,0,3.9,1.8,3.9,3.9l0,0c0,2.1-1.8,3.9-3.9,3.9c-2.1,0-3.9-1.8-3.9-3.9
		C740.6,678.2,742.4,676.4,744.5,676.4z M744.5,675.7c-2.6,0-4.6,2.1-4.6,4.6s2.1,4.6,4.6,4.6s4.6-2.1,4.6-4.6l0,0
		C749.2,677.7,747.1,675.7,744.5,675.7z"/>
	<path class="st10" d="M791.4,650.4c2.1,0,3.9,1.8,3.9,3.9l0,0c0,2.1-1.8,3.9-3.9,3.9s-3.9-1.8-3.9-3.9
		C787.4,652.2,789.2,650.4,791.4,650.4z M791.4,649.7c-2.6,0-4.6,2.1-4.6,4.6c0,2.6,2.1,4.6,4.6,4.6s4.6-2.1,4.6-4.6l0,0
		C796,651.7,794,649.7,791.4,649.7z"/>
	<path class="st10" d="M838.2,613.7c2.1,0,3.9,1.8,3.9,3.9l0,0c0,2.1-1.8,3.9-3.9,3.9c-2.1,0-3.9-1.8-3.9-3.9
		C834.3,615.5,836,613.7,838.2,613.7z M838.2,613.1c-2.6,0-4.6,2.1-4.6,4.6s2.1,4.6,4.6,4.6s4.6-2.1,4.6-4.6l0,0
		C842.9,615.1,840.7,613.1,838.2,613.1z"/>
	<path class="st10" d="M885,576.8c2.1,0,3.9,1.8,3.9,3.9l0,0c0,2.1-1.8,3.9-3.9,3.9c-2.1,0-3.9-1.8-3.9-3.9
		C881,578.6,882.8,576.8,885,576.8z M885,576.1c-2.6,0-4.6,2.1-4.6,4.6c0,2.6,2.1,4.6,4.6,4.6s4.6-2.1,4.6-4.6l0,0
		C889.6,578.1,887.5,576.1,885,576.1z"/>
	<path class="st10" d="M931.8,537.6c2.1,0,3.9,1.8,3.9,3.9l0,0c0,2.1-1.8,3.9-3.9,3.9c-2.1,0-3.9-1.8-3.9-3.9
		C927.9,539.4,929.7,537.6,931.8,537.6z M931.8,536.9c-2.6,0-4.6,2.1-4.6,4.6s2.1,4.6,4.6,4.6s4.6-2.1,4.6-4.6l0,0
		C936.4,538.9,934.4,536.9,931.8,536.9z"/>
	<path class="st10" d="M978.7,490.3c2.1,0,3.9,1.8,3.9,3.9l0,0c0,2.1-1.8,3.9-3.9,3.9s-3.9-1.8-3.9-3.9
		C974.7,492.1,976.4,490.3,978.7,490.3z M978.7,489.5c-2.6,0-4.6,2.1-4.6,4.6s2.1,4.6,4.6,4.6s4.6-2.1,4.6-4.6l0,0
		C983.3,491.7,981.2,489.5,978.7,489.5z"/>
	<path class="st10" d="M1025.4,439.9c2.1,0,3.9,1.8,3.9,3.9l0,0c0,2.1-1.8,3.9-3.9,3.9s-3.9-1.8-3.9-3.9
		C1021.5,441.7,1023.3,439.9,1025.4,439.9z M1025.4,439.2c-2.6,0-4.6,2.1-4.6,4.6c0,2.6,2.1,4.6,4.6,4.6c2.6,0,4.6-2.1,4.6-4.6l0,0
		C1030.1,441.2,1028,439.2,1025.4,439.2z"/>
	<path class="st10" d="M1072.2,379.8c2.1,0,3.9,1.8,3.9,3.9l0,0c0,2.1-1.8,3.9-3.9,3.9s-3.9-1.8-3.9-3.9S1070.1,379.8,1072.2,379.8z
		 M1072.2,379.1c-2.6,0-4.6,2.1-4.6,4.6s2.1,4.6,4.6,4.6c2.6,0,4.6-2.1,4.6-4.6l0,0C1076.9,381.2,1074.8,379.1,1072.2,379.1z"/>
	<path class="st10" d="M1119.1,317.6c2.1,0,3.9,1.8,3.9,3.9l0,0c0,2.1-1.8,3.9-3.9,3.9c-2.1,0-3.9-1.8-3.9-3.9
		S1116.9,317.6,1119.1,317.6z M1119.1,316.9c-2.6,0-4.6,2.1-4.6,4.6s2.1,4.6,4.6,4.6c2.6,0,4.6-2.1,4.6-4.6l0,0
		C1123.7,319,1121.7,316.9,1119.1,316.9z"/>
	<path class="st10" d="M1165.9,242.6c2.1,0,3.9,1.8,3.9,3.9l0,0c0,2.1-1.8,3.9-3.9,3.9s-3.9-1.8-3.9-3.9
		C1162,244.4,1163.7,242.6,1165.9,242.6z M1165.9,241.9c-2.6,0-4.6,2.1-4.6,4.6c0,2.6,2.1,4.6,4.6,4.6c2.6,0,4.6-2.1,4.6-4.6l0,0
		C1170.6,243.9,1168.4,241.9,1165.9,241.9z"/>
	<path class="st10" d="M1212.7,156.3c2.1,0,3.9,1.8,3.9,3.9l0,0c0,2.1-1.8,3.9-3.9,3.9c-2.1,0-3.9-1.8-3.9-3.9
		C1208.7,158.1,1210.5,156.3,1212.7,156.3z M1212.7,155.6c-2.6,0-4.6,2.1-4.6,4.6c0,2.6,2.1,4.6,4.6,4.6c2.6,0,4.6-2.1,4.6-4.6l0,0
		C1217.3,157.7,1215.2,155.6,1212.7,155.6z"/>
	<path class="st10" d="M1259.5,62.8c2.1,0,3.9,1.8,3.9,3.9l0,0c0,2.1-1.8,3.9-3.9,3.9s-3.9-1.8-3.9-3.9S1257.4,62.8,1259.5,62.8z
		 M1259.5,62.1c-2.6,0-4.6,2.1-4.6,4.6s2.1,4.6,4.6,4.6s4.6-2.1,4.6-4.6l0,0C1264.1,64.2,1262.1,62.1,1259.5,62.1z"/>
</g>
<g>
	<path class="st11" d="M605.6,722.3l2.9-0.5l4.4-0.9l4.4-0.9l4.4-0.9l4.4-0.9l4.4-0.9l4.4-0.9l4.4-0.9l4.4-0.9l4.4-0.9l4.4-0.9
		l4.4-1l4.4-1l4.4-1.1l4.4-1.1l4.4-1.2l4.4-1.2l4.4-1.3l4.4-1.3l4.4-1.4l4.4-1.5l4.4-1.5l4.4-1.5l4.4-1.6l4.4-1.7l4.4-1.7l4.4-1.8
		l4.4-1.9l4.4-2l4.4-2l4.4-2.1l4.4-2.1l4.4-2.2l4.4-2.2l4.4-2.3l4.4-2.4l4.4-2.5l4.4-2.6l4.4-2.6l4.4-2.7l4.4-2.7l4.4-2.8l4.4-2.9
		l4.4-3l4.4-3.1l4.4-3.1l4.4-3.2l4.4-3.3l4.4-3.3l4.4-3.3l4.4-3.3l4.4-3.3l4.4-3.4l4.4-3.4l4.4-3.4l4.4-3.4l4.4-3.4l4.4-3.4l4.4-3.5
		l4.4-3.5l4.4-3.5l4.4-3.5l4.4-3.5l4.4-3.6l4.4-3.6l4.4-3.6l4.4-3.6l4.4-3.7l4.4-3.7l4.4-3.8l4.4-3.8l4.4-3.9l4.4-3.9l4.4-3.9
		l4.4-3.9l4.4-4l4.4-4.1l4.4-4.1l4.4-4.2l4.4-4.3l4.4-4.3l4.4-4.4l4.4-4.4l4.4-4.5l4.4-4.5l4.4-4.5l4.4-4.5l4.4-4.6l4.4-4.7l4.4-4.7
		l4.4-4.8l4.4-4.8l4.4-4.9l4.4-5l4.4-5l4.4-5.1l4.4-5.1l4.4-5.2l4.4-5.2l4.4-5.3l4.4-5.4l4.4-5.4l4.4-5.5l4.4-5.5l4.4-5.6l4.4-5.6
		l4.4-5.7l4.4-5.7l4.4-5.7l4.4-5.7l4.4-5.8l4.4-5.9l4.4-6l4.4-6l4.4-6.1l4.4-6.2l4.4-6.3l4.4-6.4l4.4-6.5l4.4-6.6l4.4-6.7l4.4-6.8
		l4.4-6.9l4.4-7l4.4-7.1l4.4-7.2l4.4-7.3l4.4-7.5l4.4-7.5l4.4-7.6l4.4-7.7l4.4-7.8l4.4-7.9l4.4-8l4.4-8.1l4.4-8.1l4.4-8.2l4.4-8.3
		l4.4-8.4l4.4-8.4l4.4-8.5l4.4-8.6l4.4-8.6l4.4-8.6l4.4-8.7l4.4-8.7l4.4-8.7l4.4-8.8l4.4-8.8l4.4-8.8"/>
	<line class="st12" x1="604.1" y1="722.2" x2="1259.5" y2="66.8"/>
	<path class="st13" d="M604.1,722.2l46.8-9.3l46.8-12.4l46.8-20.2l46.8-26l46.8-36.6l46.8-37l46.8-39.2l46.8-47.4l46.8-50.4
		l46.8-60.1l46.8-62.2l46.8-75.1l46.8-86.3l46.5-93.3"/>
</g>
<g transform="translate(612,834)">
	<path class="st14" d="M-11.3-115.3v6.9h6.9v-6.9H-11.3z"/>
</g>
<g transform="translate(612,834)">
	<path class="st15" d="M-11.3-115.3v6.9h6.9v-6.9H-11.3z"/>
</g>
<g transform="translate(666.5714,823.2245)">
	<path class="st14" d="M-19.1-113.7v6.9h6.9v-6.9H-19.1z"/>
</g>
<g transform="translate(666.5714,823.2245)">
	<path class="st15" d="M-19.1-113.7v6.9h6.9v-6.9H-19.1z"/>
</g>
<g transform="translate(721.1429,808.7769)">
	<path class="st14" d="M-26.8-111.7v6.9h6.9v-6.9H-26.8z"/>
</g>
<g transform="translate(721.1429,808.7769)">
	<path class="st15" d="M-26.8-111.7v6.9h6.9v-6.9H-26.8z"/>
</g>
<g transform="translate(775.7143,785.2104)">
	<path class="st14" d="M-34.6-108.3v6.9h6.9v-6.9H-34.6z"/>
</g>
<g transform="translate(775.7143,785.2104)">
	<path class="st15" d="M-34.6-108.3v6.9h6.9v-6.9H-34.6z"/>
</g>
<g transform="translate(830.2857,754.9199)">
	<path class="st14" d="M-42.3-104v6.9h6.9v-6.9H-42.3z"/>
</g>
<g transform="translate(830.2857,754.9199)">
	<path class="st15" d="M-42.3-104v6.9h6.9v-6.9H-42.3z"/>
</g>
<g transform="translate(884.8572,712.1882)">
	<path class="st14" d="M-50.1-97.9v6.9h6.9v-6.9H-50.1z"/>
</g>
<g transform="translate(884.8572,712.1882)">
	<path class="st15" d="M-50.1-97.9v6.9h6.9v-6.9H-50.1z"/>
</g>
<g transform="translate(939.4286,669.0822)">
	<path class="st14" d="M-57.9-91.8v6.9h6.9v-6.9H-57.9z"/>
</g>
<g transform="translate(939.4286,669.0822)">
	<path class="st15" d="M-57.9-91.8v6.9h6.9v-6.9H-57.9z"/>
</g>
<g transform="translate(994,623.4304)">
	<path class="st14" d="M-65.6-85.3v6.9h6.9v-6.9H-65.6z"/>
</g>
<g transform="translate(994,623.4304)">
	<path class="st15" d="M-65.6-85.3v6.9h6.9v-6.9H-65.6z"/>
</g>
<g transform="translate(1048.5714,568.2637)">
	<path class="st14" d="M-73.4-77.5v6.9h6.9v-6.9H-73.4z"/>
</g>
<g transform="translate(1048.5714,568.2637)">
	<path class="st15" d="M-73.4-77.5v6.9h6.9v-6.9H-73.4z"/>
</g>
<g transform="translate(1103.1428,509.5339)">
	<path class="st14" d="M-81.1-69.1v6.9h6.9v-6.9H-81.1z"/>
</g>
<g transform="translate(1103.1428,509.5339)">
	<path class="st15" d="M-81.1-69.1v6.9h6.9v-6.9H-81.1z"/>
</g>
<g transform="translate(1157.7144,439.468)">
	<path class="st14" d="M-88.9-59.2v6.9h6.9v-6.9H-88.9z"/>
</g>
<g transform="translate(1157.7144,439.468)">
	<path class="st15" d="M-88.9-59.2v6.9h6.9v-6.9H-88.9z"/>
</g>
<g transform="translate(1212.2856,366.9749)">
	<path class="st14" d="M-96.6-48.9v6.9h6.9v-6.9H-96.6z"/>
</g>
<g transform="translate(1212.2856,366.9749)">
	<path class="st15" d="M-96.6-48.9v6.9h6.9v-6.9H-96.6z"/>
</g>
<g transform="translate(1266.8572,279.5082)">
	<path class="st14" d="M-104.4-36.4v6.9h6.9v-6.9H-104.4z"/>
</g>
<g transform="translate(1266.8572,279.5082)">
	<path class="st15" d="M-104.4-36.4v6.9h6.9v-6.9H-104.4z"/>
</g>
<g transform="translate(1321.4286,178.9424)">
	<path class="st14" d="M-112.2-22.1v6.9h6.9v-6.9H-112.2z"/>
</g>
<g transform="translate(1321.4286,178.9424)">
	<path class="st15" d="M-112.2-22.1v6.9h6.9v-6.9H-112.2z"/>
</g>
<g transform="translate(1376,70)">
	<path class="st14" d="M-119.9-6.7v6.9h6.9v-6.9H-119.9z"/>
</g>
<g transform="translate(1376,70)">
	<path class="st15" d="M-119.9-6.7v6.9h6.9v-6.9H-119.9z"/>
</g>
<g>
	<path class="st3" d="M604.1,722.2l46.8-46.8l46.8-46.8l46.8-46.8l46.8-46.8l46.8-46.8l46.8-46.8l46.7-46.7l46.8-46.8l46.8-46.8
		l46.8-46.8l46.8-46.8l46.8-46.8l46.8-46.8l46.7-46.7"/>
	<path class="st8" d="M604.1,718.2c2.1,0,3.9,1.8,3.9,3.9l0,0c0,2.1-1.8,3.9-3.9,3.9c-2.1,0-3.9-1.8-3.9-3.9
		C600.2,720,602,718.2,604.1,718.2z M604.1,717.5c-2.6,0-4.6,2.1-4.6,4.6s2.1,4.6,4.6,4.6s4.6-2.1,4.6-4.6l0,0
		C608.7,719.6,606.7,717.5,604.1,717.5z"/>
	<path class="st8" d="M651,708.5c2.1,0,3.9,1.8,3.9,3.9l0,0c0,2.1-1.8,3.9-3.9,3.9s-3.9-1.8-3.9-3.9S648.7,708.5,651,708.5z
		 M651,707.8c-2.6,0-4.6,2.1-4.6,4.6s2.1,4.6,4.6,4.6s4.6-2.1,4.6-4.6l0,0C655.6,709.8,653.5,707.8,651,707.8z"/>
	<path class="st8" d="M697.7,697.8c2.1,0,3.9,1.8,3.9,3.9l0,0c0,2.1-1.8,3.9-3.9,3.9c-2.1,0-3.9-1.8-3.9-3.9
		C693.8,699.6,695.6,697.8,697.7,697.8z M697.7,697.1c-2.6,0-4.6,2.1-4.6,4.6s2.1,4.6,4.6,4.6s4.6-2.1,4.6-4.6l0,0
		C702.4,699.2,700.3,697.1,697.7,697.1z"/>
	<path class="st8" d="M744.5,683c2.1,0,3.9,1.8,3.9,3.9l0,0c0,2.1-1.8,3.9-3.9,3.9c-2.1,0-3.9-1.8-3.9-3.9
		C740.6,684.8,742.4,683,744.5,683z M744.5,682.2c-2.6,0-4.6,2.1-4.6,4.6s2.1,4.6,4.6,4.6s4.6-2.1,4.6-4.6l0,0
		C749.2,684.3,747.1,682.2,744.5,682.2z"/>
	<path class="st8" d="M791.4,654.6c2.1,0,3.9,1.8,3.9,3.9l0,0c0,2.1-1.8,3.9-3.9,3.9s-3.9-1.8-3.9-3.9
		C787.4,656.4,789.2,654.6,791.4,654.6z M791.4,653.8c-2.6,0-4.6,2.1-4.6,4.6c0,2.6,2.1,4.6,4.6,4.6s4.6-2.1,4.6-4.6l0,0
		C796,656,794,653.8,791.4,653.8z"/>
	<path class="st8" d="M838.2,616.2c2.1,0,3.9,1.8,3.9,3.9l0,0c0,2.1-1.8,3.9-3.9,3.9c-2.1,0-3.9-1.8-3.9-3.9
		C834.3,618,836,616.2,838.2,616.2z M838.2,615.5c-2.6,0-4.6,2.1-4.6,4.6s2.1,4.6,4.6,4.6s4.6-2.1,4.6-4.6l0,0
		C842.9,617.6,840.7,615.5,838.2,615.5z"/>
	<path class="st8" d="M885,574.3c2.1,0,3.9,1.8,3.9,3.9l0,0c0,2.1-1.8,3.9-3.9,3.9c-2.1,0-3.9-1.8-3.9-3.9
		C881,576.1,882.8,574.3,885,574.3z M885,573.6c-2.6,0-4.6,2.1-4.6,4.6c0,2.6,2.1,4.6,4.6,4.6s4.6-2.1,4.6-4.6l0,0
		C889.6,575.7,887.5,573.6,885,573.6z"/>
	<path class="st8" d="M931.8,524.8c2.1,0,3.9,1.8,3.9,3.9l0,0c0,2.1-1.8,3.9-3.9,3.9c-2.1,0-3.9-1.8-3.9-3.9
		C927.9,526.6,929.7,524.8,931.8,524.8z M931.8,524.1c-2.6,0-4.6,2.1-4.6,4.6c0,2.6,2.1,4.6,4.6,4.6s4.6-2.1,4.6-4.6l0,0
		C936.4,526.2,934.4,524.1,931.8,524.1z"/>
	<path class="st8" d="M978.7,468.7c2.1,0,3.9,1.8,3.9,3.9l0,0c0,2.1-1.8,3.9-3.9,3.9s-3.9-1.8-3.9-3.9S976.4,468.7,978.7,468.7z
		 M978.7,468c-2.6,0-4.6,2.1-4.6,4.6s2.1,4.6,4.6,4.6s4.6-2.1,4.6-4.6l0,0C983.3,470.1,981.2,468,978.7,468z"/>
	<path class="st8" d="M1025.4,409.1c2.1,0,3.9,1.8,3.9,3.9l0,0c0,2.1-1.8,3.9-3.9,3.9s-3.9-1.8-3.9-3.9S1023.3,409.1,1025.4,409.1z
		 M1025.4,408.5c-2.6,0-4.6,2.1-4.6,4.6s2.1,4.6,4.6,4.6c2.6,0,4.6-2.1,4.6-4.6l0,0C1030.1,410.5,1028,408.5,1025.4,408.5z"/>
	<path class="st8" d="M1072.2,349.4c2.1,0,3.9,1.8,3.9,3.9l0,0c0,2.1-1.8,3.9-3.9,3.9s-3.9-1.8-3.9-3.9S1070.1,349.4,1072.2,349.4z
		 M1072.2,348.6c-2.6,0-4.6,2.1-4.6,4.6s2.1,4.6,4.6,4.6c2.6,0,4.6-2.1,4.6-4.6l0,0C1076.9,350.6,1074.8,348.6,1072.2,348.6z"/>
	<path class="st8" d="M1119.1,288.6c2.1,0,3.9,1.8,3.9,3.9l0,0c0,2.1-1.8,3.9-3.9,3.9c-2.1,0-3.9-1.8-3.9-3.9
		S1116.9,288.6,1119.1,288.6z M1119.1,287.8c-2.6,0-4.6,2.1-4.6,4.6s2.1,4.6,4.6,4.6c2.6,0,4.6-2.1,4.6-4.6l0,0
		C1123.7,289.9,1121.7,287.8,1119.1,287.8z"/>
	<path class="st8" d="M1165.9,225.4c2.1,0,3.9,1.8,3.9,3.9l0,0c0,2.1-1.8,3.9-3.9,3.9s-3.9-1.8-3.9-3.9
		C1162,227.2,1163.7,225.4,1165.9,225.4z M1165.9,224.6c-2.6,0-4.6,2.1-4.6,4.6c0,2.6,2.1,4.6,4.6,4.6c2.6,0,4.6-2.1,4.6-4.6l0,0
		C1170.6,226.8,1168.4,224.6,1165.9,224.6z"/>
	<path class="st8" d="M1212.7,148.5c2.1,0,3.9,1.8,3.9,3.9l0,0c0,2.1-1.8,3.9-3.9,3.9c-2.1,0-3.9-1.8-3.9-3.9
		C1208.7,150.3,1210.5,148.5,1212.7,148.5z M1212.7,147.8c-2.6,0-4.6,2.1-4.6,4.6c0,2.6,2.1,4.6,4.6,4.6c2.6,0,4.6-2.1,4.6-4.6l0,0
		C1217.3,149.9,1215.2,147.8,1212.7,147.8z"/>
	<path class="st8" d="M1259.5,62.8c2.1,0,3.9,1.8,3.9,3.9l0,0c0,2.1-1.8,3.9-3.9,3.9s-3.9-1.8-3.9-3.9S1257.4,62.8,1259.5,62.8z
		 M1259.5,62.1c-2.6,0-4.6,2.1-4.6,4.6s2.1,4.6,4.6,4.6s4.6-2.1,4.6-4.6l0,0C1264.1,64.2,1262.1,62.1,1259.5,62.1z"/>
</g>
<g>
	<path class="st16" d="M604.1,722.3l4.4-0.9l4.4-0.9l4.4-0.9l4.4-0.9l4.4-0.9l4.4-0.9l4.4-0.9l4.4-0.9l4.4-0.9l4.4-0.9l4.4-0.9
		l4.4-0.9l4.4-0.9l4.4-0.9l4.4-0.9l4.4-0.9l4.4-1l4.4-1l4.4-1l4.4-1.1l4.4-1.1l4.4-1.2l4.4-1.2l4.4-1.3l4.4-1.4l4.4-1.4l4.4-1.5
		l4.4-1.5l4.4-1.6l4.4-1.7l4.4-1.8l4.4-2l4.4-2.1l4.4-2.1l4.4-2.2l4.4-2.4l4.4-2.5l4.4-2.6l4.4-2.7l4.4-2.7l4.4-2.8l4.4-3l4.4-3.1
		l4.4-3.2l4.4-3.3l4.4-3.3l4.4-3.3l4.4-3.4l4.4-3.5l4.4-3.6l4.4-3.6l4.4-3.7l4.4-3.7l4.4-3.8l4.4-3.8l4.4-3.9l4.4-3.9l4.4-3.9l4.4-4
		l4.4-4l4.4-4.1l4.4-4.1l4.4-4.2l4.4-4.3l4.4-4.3l4.4-4.4l4.4-4.5l4.4-4.5l4.4-4.5l4.4-4.6l4.4-4.7l4.4-4.7l4.4-4.8l4.4-4.9l4.4-4.9
		l4.4-5l4.4-5.1l4.4-5.1l4.4-5.1l4.4-5.1l4.4-5.2l4.4-5.2l4.4-5.3l4.4-5.3l4.4-5.4l4.4-5.4l4.4-5.4l4.4-5.5l4.4-5.5l4.4-5.5l4.4-5.5
		l4.4-5.6l4.4-5.6l4.4-5.6l4.4-5.6l4.4-5.6l4.4-5.6l4.4-5.6l4.4-5.6l4.4-5.6l4.4-5.6l4.4-5.6l4.4-5.6l4.4-5.6l4.4-5.6l4.4-5.6
		l4.4-5.6l4.4-5.6l4.4-5.6l4.4-5.6l4.4-5.6l4.4-5.7l4.4-5.7l4.4-5.7l4.4-5.7l4.4-5.7l4.4-5.7l4.4-5.7l4.4-5.8l4.4-5.8l4.4-5.9
		l4.4-5.9l4.4-6l4.4-6.1l4.4-6.2l4.4-6.3l4.4-6.3l4.4-6.4l4.4-6.5l4.4-6.7l4.4-6.8l4.4-6.9l4.4-6.9l4.4-7l4.4-7.1l4.4-7.3l4.4-7.4
		l4.4-7.5l4.4-7.5l4.4-7.5l4.4-7.6l4.4-7.7l4.4-7.8l4.4-7.8l4.4-7.9l4.4-7.9l4.4-8l4.4-8l4.4-8l4.4-8"/>
	<line class="st17" x1="604.1" y1="722.2" x2="1259.5" y2="66.8"/>
	<path class="st18" d="M604.1,722.2l46.8-9.8l46.8-10.6l46.8-14.8l46.8-28.4l46.8-38.3l46.8-41.9l46.8-49.5l46.8-56.1l46.8-59.5
		l46.8-59.9l46.8-60.7l46.8-63.2l46.8-76.9l46.5-85.6"/>
</g>
<g transform="translate(612,834)">
	<path class="st19" d="M-11.3-115.3v6.9h6.9v-6.9H-11.3z"/>
</g>
<g transform="translate(612,834)">
	<path class="st20" d="M-11.3-115.3v6.9h6.9v-6.9H-11.3z"/>
</g>
<g transform="translate(666.5714,822.5768)">
	<path class="st19" d="M-19.1-113.6v6.9h6.9v-6.9H-19.1z"/>
</g>
<g transform="translate(666.5714,822.5768)">
	<path class="st20" d="M-19.1-113.6v6.9h6.9v-6.9H-19.1z"/>
</g>
<g transform="translate(721.1429,810.1983)">
	<path class="st19" d="M-26.8-111.9v6.9h6.9v-6.9H-26.8z"/>
</g>
<g transform="translate(721.1429,810.1983)">
	<path class="st20" d="M-26.8-111.9v6.9h6.9v-6.9H-26.8z"/>
</g>
<g transform="translate(775.7143,792.8571)">
	<path class="st19" d="M-34.6-109.4v6.9h6.9v-6.9H-34.6z"/>
</g>
<g transform="translate(775.7143,792.8571)">
	<path class="st20" d="M-34.6-109.4v6.9h6.9v-6.9H-34.6z"/>
</g>
<g transform="translate(830.2857,759.7666)">
	<path class="st19" d="M-42.3-104.7v6.9h6.9v-6.9H-42.3z"/>
</g>
<g transform="translate(830.2857,759.7666)">
	<path class="st20" d="M-42.3-104.7v6.9h6.9v-6.9H-42.3z"/>
</g>
<g transform="translate(884.8572,715.103)">
	<path class="st19" d="M-50.1-98.4v6.9h6.9v-6.9H-50.1z"/>
</g>
<g transform="translate(884.8572,715.103)">
	<path class="st20" d="M-50.1-98.4v6.9h6.9v-6.9H-50.1z"/>
</g>
<g transform="translate(939.4286,666.2119)">
	<path class="st19" d="M-57.9-91.4v6.9h6.9v-6.9H-57.9z"/>
</g>
<g transform="translate(939.4286,666.2119)">
	<path class="st20" d="M-57.9-91.4v6.9h6.9v-6.9H-57.9z"/>
</g>
<g transform="translate(994,608.4936)">
	<path class="st19" d="M-65.6-83.2v6.9h6.9v-6.9H-65.6z"/>
</g>
<g transform="translate(994,608.4936)">
	<path class="st20" d="M-65.6-83.2v6.9h6.9v-6.9H-65.6z"/>
</g>
<g transform="translate(1048.5714,543.0967)">
	<path class="st19" d="M-73.4-73.9v6.9h6.9v-6.9H-73.4z"/>
</g>
<g transform="translate(1048.5714,543.0967)">
	<path class="st20" d="M-73.4-73.9v6.9h6.9v-6.9H-73.4z"/>
</g>
<g transform="translate(1103.1428,473.6984)">
	<path class="st19" d="M-81.1-64v6.9h6.9V-64H-81.1z"/>
</g>
<g transform="translate(1103.1428,473.6984)">
	<path class="st20" d="M-81.1-64v6.9h6.9V-64H-81.1z"/>
</g>
<g transform="translate(1157.7144,403.9384)">
	<path class="st19" d="M-88.9-54.1v6.9h6.9v-6.9H-88.9z"/>
</g>
<g transform="translate(1157.7144,403.9384)">
	<path class="st20" d="M-88.9-54.1v6.9h6.9v-6.9H-88.9z"/>
</g>
<g transform="translate(1212.2856,333.1337)">
	<path class="st19" d="M-96.6-44.1v6.9h6.9v-6.9H-96.6z"/>
</g>
<g transform="translate(1212.2856,333.1337)">
	<path class="st20" d="M-96.6-44.1v6.9h6.9v-6.9H-96.6z"/>
</g>
<g transform="translate(1266.8572,259.4632)">
	<path class="st19" d="M-104.4-33.6v6.9h6.9v-6.9H-104.4z"/>
</g>
<g transform="translate(1266.8572,259.4632)">
	<path class="st20" d="M-104.4-33.6v6.9h6.9v-6.9H-104.4z"/>
</g>
<g transform="translate(1321.4286,169.8694)">
	<path class="st19" d="M-112.2-20.8v6.9h6.9v-6.9H-112.2z"/>
</g>
<g transform="translate(1321.4286,169.8694)">
	<path class="st20" d="M-112.2-20.8v6.9h6.9v-6.9H-112.2z"/>
</g>
<g transform="translate(1376,70)">
	<path class="st19" d="M-119.9-6.7v6.9h6.9v-6.9H-119.9z"/>
</g>
<g transform="translate(1376,70)">
	<path class="st20" d="M-119.9-6.7v6.9h6.9v-6.9H-119.9z"/>
</g>
<path class="st3" d="M604.1,722.2l46.8-46.8l46.8-46.8l46.8-46.8l46.8-46.8l46.8-46.8l46.8-46.8l46.7-46.7l46.8-46.8l46.8-46.8
	l46.8-46.8l46.8-46.8l46.8-46.8l46.8-46.8l46.7-46.7"/>
<path class="st21" d="M604.1,718.2c2.1,0,3.9,1.8,3.9,3.9l0,0c0,2.1-1.8,3.9-3.9,3.9c-2.1,0-3.9-1.8-3.9-3.9
	C600.2,720,602,718.2,604.1,718.2z M604.1,717.5c-2.6,0-4.6,2.1-4.6,4.6s2.1,4.6,4.6,4.6s4.6-2.1,4.6-4.6l0,0
	C608.7,719.6,606.7,717.5,604.1,717.5z"/>
<path class="st21" d="M651,713.7c2.1,0,3.9,1.8,3.9,3.9l0,0c0,2.1-1.8,3.9-3.9,3.9s-3.9-1.8-3.9-3.9
	C647,715.5,648.7,713.7,651,713.7z M651,713c-2.6,0-4.6,2.1-4.6,4.6s2.1,4.6,4.6,4.6s4.6-2.1,4.6-4.6l0,0
	C655.6,715.1,653.5,713,651,713z"/>
<path class="st21" d="M697.7,686c2.1,0,3.9,1.8,3.9,3.9l0,0c0,2.1-1.8,3.9-3.9,3.9c-2.1,0-3.9-1.8-3.9-3.9
	C693.8,687.8,695.6,686,697.7,686z M697.7,685.2c-2.6,0-4.6,2.1-4.6,4.6c0,2.6,2.1,4.6,4.6,4.6s4.6-2.1,4.6-4.6l0,0
	C702.4,687.4,700.3,685.2,697.7,685.2z"/>
<path class="st21" d="M744.5,653.6c2.1,0,3.9,1.8,3.9,3.9l0,0c0,2.1-1.8,3.9-3.9,3.9c-2.1,0-3.9-1.8-3.9-3.9
	C740.6,655.4,742.4,653.6,744.5,653.6z M744.5,653c-2.6,0-4.6,2.1-4.6,4.6c0,2.6,2.1,4.6,4.6,4.6s4.6-2.1,4.6-4.6l0,0
	C749.2,655,747.1,653,744.5,653z"/>
<path class="st21" d="M791.4,619.2c2.1,0,3.9,1.8,3.9,3.9l0,0c0,2.1-1.8,3.9-3.9,3.9s-3.9-1.8-3.9-3.9
	C787.4,621,789.2,619.2,791.4,619.2z M791.4,618.5c-2.6,0-4.6,2.1-4.6,4.6s2.1,4.6,4.6,4.6s4.6-2.1,4.6-4.6l0,0
	C796,620.5,794,618.5,791.4,618.5z"/>
<path class="st21" d="M838.2,583.6c2.1,0,3.9,1.8,3.9,3.9l0,0c0,2.1-1.8,3.9-3.9,3.9c-2.1,0-3.9-1.8-3.9-3.9
	C834.3,585.4,836,583.6,838.2,583.6z M838.2,582.9c-2.6,0-4.6,2.1-4.6,4.6s2.1,4.6,4.6,4.6s4.6-2.1,4.6-4.6l0,0
	C842.9,585,840.7,582.9,838.2,582.9z"/>
<path class="st21" d="M885,547.9c2.1,0,3.9,1.8,3.9,3.9l0,0c0,2.1-1.8,3.9-3.9,3.9c-2.1,0-3.9-1.8-3.9-3.9
	C881,549.8,882.8,547.9,885,547.9z M885,547.3c-2.6,0-4.6,2.1-4.6,4.6c0,2.6,2.1,4.6,4.6,4.6s4.6-2.1,4.6-4.6l0,0
	C889.6,549.3,887.5,547.3,885,547.3z"/>
<path class="st21" d="M931.8,511.9c2.1,0,3.9,1.8,3.9,3.9l0,0c0,2.1-1.8,3.9-3.9,3.9c-2.1,0-3.9-1.8-3.9-3.9
	S929.7,511.9,931.8,511.9z M931.8,511.1c-2.6,0-4.6,2.1-4.6,4.6s2.1,4.6,4.6,4.6s4.6-2.1,4.6-4.6l0,0
	C936.4,513.3,934.4,511.1,931.8,511.1z"/>
<path class="st21" d="M978.7,472.7c2.1,0,3.9,1.8,3.9,3.9l0,0c0,2.1-1.8,3.9-3.9,3.9s-3.9-1.8-3.9-3.9S976.4,472.7,978.7,472.7z
	 M978.7,471.9c-2.6,0-4.6,2.1-4.6,4.6c0,2.6,2.1,4.6,4.6,4.6s4.6-2.1,4.6-4.6l0,0C983.3,474,981.2,471.9,978.7,471.9z"/>
<path class="st21" d="M1025.4,427.9c2.1,0,3.9,1.8,3.9,3.9l0,0c0,2.1-1.8,3.9-3.9,3.9s-3.9-1.8-3.9-3.9
	C1021.5,429.7,1023.3,427.9,1025.4,427.9z M1025.4,427.2c-2.6,0-4.6,2.1-4.6,4.6s2.1,4.6,4.6,4.6c2.6,0,4.6-2.1,4.6-4.6l0,0
	C1030.1,429.3,1028,427.2,1025.4,427.2z"/>
<path class="st21" d="M1072.2,382.4c2.1,0,3.9,1.8,3.9,3.9l0,0c0,2.1-1.8,3.9-3.9,3.9s-3.9-1.8-3.9-3.9S1070.1,382.4,1072.2,382.4z
	 M1072.2,381.7c-2.6,0-4.6,2.1-4.6,4.6s2.1,4.6,4.6,4.6c2.6,0,4.6-2.1,4.6-4.6l0,0C1076.9,383.8,1074.8,381.7,1072.2,381.7z"/>
<path class="st21" d="M1119.1,335.5c2.1,0,3.9,1.8,3.9,3.9l0,0c0,2.1-1.8,3.9-3.9,3.9c-2.1,0-3.9-1.8-3.9-3.9
	C1115.1,337.3,1116.9,335.5,1119.1,335.5z M1119.1,334.7c-2.6,0-4.6,2.1-4.6,4.6c0,2.6,2.1,4.6,4.6,4.6c2.6,0,4.6-2.1,4.6-4.6l0,0
	C1123.7,336.8,1121.7,334.7,1119.1,334.7z"/>
<path class="st21" d="M1165.9,286.6c2.1,0,3.9,1.8,3.9,3.9l0,0c0,2.1-1.8,3.9-3.9,3.9s-3.9-1.8-3.9-3.9S1163.7,286.6,1165.9,286.6z
	 M1165.9,285.9c-2.6,0-4.6,2.1-4.6,4.6s2.1,4.6,4.6,4.6c2.6,0,4.6-2.1,4.6-4.6l0,0C1170.6,287.9,1168.4,285.9,1165.9,285.9z"/>
<path class="st21" d="M1259.5,62.8c2.1,0,3.9,1.8,3.9,3.9l0,0c0,2.1-1.8,3.9-3.9,3.9s-3.9-1.8-3.9-3.9S1257.4,62.8,1259.5,62.8z
	 M1259.5,62.1c-2.6,0-4.6,2.1-4.6,4.6s2.1,4.6,4.6,4.6s4.6-2.1,4.6-4.6l0,0C1264.1,64.2,1262.1,62.1,1259.5,62.1z"/>
<line class="st22" x1="604.1" y1="722.2" x2="1259.5" y2="66.8"/>
<path class="st23" d="M604.1,721.2l46.8-4.5l46.8-27.8l46.8-32.3l46.8-34.5l46.8-35.5l46.8-35.7l46.8-36l46.8-39.2l46.8-44.8
	l46.8-45.6l46.8-46.9l46.8-48.9l46.8-54.3l46.5-169.4"/>
<g transform="translate(612,834)">
	<path class="st24" d="M-11.3-115.3v6.9h6.9v-6.9H-11.3z"/>
</g>
<g transform="translate(612,834)">
	<path class="st25" d="M-11.3-115.3v6.9h6.9v-6.9H-11.3z"/>
</g>
<g transform="translate(666.5714,828.7076)">
	<path class="st24" d="M-19.1-114.5v6.9h6.9v-6.9H-19.1z"/>
</g>
<g transform="translate(666.5714,828.7076)">
	<path class="st25" d="M-19.1-114.5v6.9h6.9v-6.9H-19.1z"/>
</g>
<g transform="translate(721.1429,796.3488)">
	<path class="st24" d="M-26.8-109.9v6.9h6.9v-6.9H-26.8z"/>
</g>
<g transform="translate(721.1429,796.3488)">
	<path class="st25" d="M-26.8-109.9v6.9h6.9v-6.9H-26.8z"/>
</g>
<g transform="translate(775.7143,758.7063)">
	<path class="st24" d="M-34.6-104.5v6.9h6.9v-6.9H-34.6z"/>
</g>
<g transform="translate(775.7143,758.7063)">
	<path class="st25" d="M-34.6-104.5v6.9h6.9v-6.9H-34.6z"/>
</g>
<g transform="translate(830.2857,718.5061)">
	<path class="st24" d="M-42.3-98.8v6.9h6.9v-6.9H-42.3z"/>
</g>
<g transform="translate(830.2857,718.5061)">
	<path class="st25" d="M-42.3-98.8v6.9h6.9v-6.9H-42.3z"/>
</g>
<g transform="translate(884.8572,677.1121)">
	<path class="st24" d="M-50.1-93v6.9h6.9V-93H-50.1z"/>
</g>
<g transform="translate(884.8572,677.1121)">
	<path class="st25" d="M-50.1-93v6.9h6.9V-93H-50.1z"/>
</g>
<g transform="translate(939.4286,635.4895)">
	<path class="st24" d="M-57.9-87v6.9h6.9V-87H-57.9z"/>
</g>
<g transform="translate(939.4286,635.4895)">
	<path class="st25" d="M-57.9-87v6.9h6.9V-87H-57.9z"/>
</g>
<g transform="translate(994,593.4602)">
	<path class="st24" d="M-65.6-81.1v6.9h6.9v-6.9H-65.6z"/>
</g>
<g transform="translate(994,593.4602)">
	<path class="st25" d="M-65.6-81.1v6.9h6.9v-6.9H-65.6z"/>
</g>
<g transform="translate(1048.5714,547.7358)">
	<path class="st24" d="M-73.4-74.6v6.9h6.9v-6.9H-73.4z"/>
</g>
<g transform="translate(1048.5714,547.7358)">
	<path class="st25" d="M-73.4-74.6v6.9h6.9v-6.9H-73.4z"/>
</g>
<g transform="translate(1103.1428,495.5517)">
	<path class="st24" d="M-81.1-67.1v6.9h6.9v-6.9H-81.1z"/>
</g>
<g transform="translate(1103.1428,495.5517)">
	<path class="st25" d="M-81.1-67.1v6.9h6.9v-6.9H-81.1z"/>
</g>
<g transform="translate(1157.7144,442.4992)">
	<path class="st24" d="M-88.9-59.6v6.9h6.9v-6.9H-88.9z"/>
</g>
<g transform="translate(1157.7144,442.4992)">
	<path class="st25" d="M-88.9-59.6v6.9h6.9v-6.9H-88.9z"/>
</g>
<g transform="translate(1212.2856,387.7624)">
	<path class="st24" d="M-96.6-51.8v6.9h6.9v-6.9H-96.6z"/>
</g>
<g transform="translate(1212.2856,387.7624)">
	<path class="st25" d="M-96.6-51.8v6.9h6.9v-6.9H-96.6z"/>
</g>
<g transform="translate(1266.8572,330.7994)">
	<path class="st24" d="M-104.4-43.7v6.9h6.9v-6.9H-104.4z"/>
</g>
<g transform="translate(1266.8572,330.7994)">
	<path class="st25" d="M-104.4-43.7v6.9h6.9v-6.9H-104.4z"/>
</g>
<g transform="translate(1321.4286,267.4835)">
	<path class="st24" d="M-113.2-34.7v6.9h6.9v-6.9H-113.2z"/>
</g>
<g transform="translate(1321.4286,267.4835)">
	<path class="st25" d="M-114.2-34.7v6.9h6.9v-6.9H-114.2z"/>
</g>
<g transform="translate(1376,70)">
	<path class="st24" d="M-119.9-6.7v6.9h6.9v-6.9H-119.9z"/>
</g>
<g transform="translate(1376,70)">
	<path class="st25" d="M-119.9-6.7v6.9h6.9v-6.9H-119.9z"/>
</g>
<g>
	<path class="st7" d="M862.5,842.6h43H862.5z"/>
</g>
<g transform="translate(735.0684,212.0285)">
	<path class="st8" d="M143.8,627.1v6.9h6.9v-6.9H143.8z"/>
</g>
<g transform="translate(735.0684,212.0285)">
	<path class="st9" d="M144.7,627.1v6.9h6.9v-6.9H144.7z"/>
</g>
<g>
	<line class="st18" x1="679.9" y1="842.1" x2="722.9" y2="842.1"/>
</g>
<g transform="translate(735.0684,315.1844)">
	<path class="st19" d="M-37.1,523.5v6.9h6.9v-6.9H-37.1z"/>
</g>
<g transform="translate(735.0684,315.1844)">
	<path class="st20" d="M-37.1,523.5v6.9h6.9v-6.9H-37.1z"/>
</g>
<g>
	<line class="st23" x1="1022" y1="799.5" x2="1065" y2="799.5"/>
</g>
<g transform="translate(735.0684,418.3403)">
	<path class="st24" d="M305,377.7v6.9h6.9v-6.9H305z"/>
</g>
<g transform="translate(735.0684,418.3403)">
	<path class="st25" d="M305,377.7v6.9h6.9v-6.9H305z"/>
</g>
<g>
	<path class="st15" d="M863.3,799.4h43H863.3z"/>
</g>
<g transform="translate(735.0684,521.4963)">
	<path class="st14" d="M144.6,275v6.9h6.9V275H144.6z"/>
</g>
<path class="st15" d="M879.7,796.5v5.9h6.9v-5.9H879.7z"/>
<g>
	<line class="st22" x1="682.2" y1="801.7" x2="725.2" y2="801.7"/>
</g>
<text transform="matrix(1 0 0 1 741.6201 804.8554)" class="st26 st27">绝对平均线</text>
<text transform="matrix(1 0 0 1 737.5567 846.7396)" class="st26 st27">执业医师和注册护士</text>
<text transform="matrix(1 0 0 1 919.8314 847.0266)" class="st26 st27">床位</text>
<text transform="matrix(1 0 0 1 922.9856 801.1856)" class="st26 st27">医疗机构</text>
<text transform="matrix(1 0 0 1 1081.3341 805.0417)" class="st26 st27">医疗技术人员</text>
</svg>
