<?xml version="1.0" encoding="utf-8"?>
<!-- Generator: Adobe Illustrator 26.0.2, SVG Export Plug-In . SVG Version: 6.00 Build 0)  -->
<svg version="1.1" id="图层_1" xmlns="http://www.w3.org/2000/svg" xmlns:xlink="http://www.w3.org/1999/xlink" x="0px" y="0px"
	 viewBox="0 0 1920 937" style="enable-background:new 0 0 1920 937;" xml:space="preserve">
<style type="text/css">
	.st0{fill:none;stroke:#262626;stroke-width:0.8333;stroke-linejoin:round;stroke-miterlimit:10;stroke-opacity:0.149;}
	.st1{fill:none;stroke:#262626;stroke-width:0.8333;stroke-linecap:square;stroke-linejoin:round;stroke-miterlimit:10;}
	.st2{fill:#262626;}
	.st3{fill:none;stroke:#0000FF;stroke-width:0.8333;stroke-linejoin:bevel;stroke-miterlimit:1;stroke-dasharray:8,3,2,3;}
	.st4{fill:#D95319;}
	.st5{fill:none;stroke:#7E2F8E;stroke-width:0.8333;stroke-linejoin:round;stroke-miterlimit:10;}
	.st6{fill:none;stroke:#77AC30;stroke-width:3.3333;stroke-linejoin:round;stroke-miterlimit:10;}
	.st7{fill:#77AC30;}
	.st8{fill:none;stroke:#77AC30;stroke-width:3.3333;stroke-miterlimit:10;}
	.st9{fill:#A2142F;}
	.st10{fill:none;stroke:#D95319;stroke-width:0.8333;stroke-linejoin:round;stroke-miterlimit:10;}
	.st11{fill:none;stroke:#A2142F;stroke-width:3.3333;stroke-linejoin:round;stroke-miterlimit:10;}
	.st12{fill:none;stroke:#A2142F;stroke-width:3.3333;stroke-miterlimit:10;}
	.st13{fill:none;stroke:#A2142F;stroke-width:0.8333;stroke-linejoin:round;stroke-miterlimit:10;}
	.st14{fill:none;stroke:#808080;stroke-width:3.3333;stroke-linejoin:round;stroke-miterlimit:10;}
	.st15{fill:#808080;}
	.st16{fill:none;stroke:#808080;stroke-width:3.3333;stroke-miterlimit:10;}
	.st17{fill:#EDB120;}
	.st18{fill:none;stroke:#FF0000;stroke-width:3.3333;stroke-linejoin:round;stroke-miterlimit:10;}
	.st19{fill:none;stroke:#0072BD;stroke-width:3.3333;stroke-linejoin:round;stroke-miterlimit:10;}
	.st20{fill:#0072BD;}
	.st21{fill:none;stroke:#0072BD;stroke-width:3.3333;stroke-miterlimit:10;}
	.st22{fill:none;stroke:#262626;stroke-width:0.8333;stroke-miterlimit:10;}
	.st23{font-family:'AdobeSongStd-Light-GBpc-EUC-H';}
	.st24{font-size:12px;}
	.st25{font-size:17px;}
</style>
<g>
	<line class="st0" x1="612" y1="834" x2="612" y2="70"/>
	<line class="st0" x1="688.4" y1="834" x2="688.4" y2="70"/>
	<line class="st0" x1="764.8" y1="834" x2="764.8" y2="70"/>
	<line class="st0" x1="841.2" y1="834" x2="841.2" y2="70"/>
	<line class="st0" x1="917.6" y1="834" x2="917.6" y2="70"/>
	<line class="st0" x1="994" y1="834" x2="994" y2="70"/>
	<line class="st0" x1="1070.4" y1="834" x2="1070.4" y2="70"/>
	<line class="st0" x1="1146.8" y1="834" x2="1146.8" y2="70"/>
	<line class="st0" x1="1223.2" y1="834" x2="1223.2" y2="70"/>
	<line class="st0" x1="1299.6" y1="834" x2="1299.6" y2="70"/>
	<line class="st0" x1="1376" y1="834" x2="1376" y2="70"/>
	<line class="st0" x1="1376" y1="834" x2="612" y2="834"/>
	<line class="st0" x1="1376" y1="757.6" x2="612" y2="757.6"/>
	<line class="st0" x1="1376" y1="681.2" x2="612" y2="681.2"/>
	<line class="st0" x1="1376" y1="604.8" x2="612" y2="604.8"/>
	<line class="st0" x1="1376" y1="528.4" x2="612" y2="528.4"/>
	<line class="st0" x1="1376" y1="452" x2="612" y2="452"/>
	<line class="st0" x1="1376" y1="375.6" x2="612" y2="375.6"/>
	<line class="st0" x1="1376" y1="299.2" x2="612" y2="299.2"/>
	<line class="st0" x1="1376" y1="222.8" x2="612" y2="222.8"/>
	<line class="st0" x1="1376" y1="146.4" x2="612" y2="146.4"/>
	<line class="st0" x1="1376" y1="70" x2="612" y2="70"/>
	<line class="st1" x1="612" y1="834" x2="1376" y2="834"/>
	<line class="st1" x1="612" y1="834" x2="612" y2="826.4"/>
	<line class="st1" x1="688.4" y1="834" x2="688.4" y2="826.4"/>
	<line class="st1" x1="764.8" y1="834" x2="764.8" y2="826.4"/>
	<line class="st1" x1="841.2" y1="834" x2="841.2" y2="826.4"/>
	<line class="st1" x1="917.6" y1="834" x2="917.6" y2="826.4"/>
	<line class="st1" x1="994" y1="834" x2="994" y2="826.4"/>
	<line class="st1" x1="1070.4" y1="834" x2="1070.4" y2="826.4"/>
	<line class="st1" x1="1146.8" y1="834" x2="1146.8" y2="826.4"/>
	<line class="st1" x1="1223.2" y1="834" x2="1223.2" y2="826.4"/>
	<line class="st1" x1="1299.6" y1="834" x2="1299.6" y2="826.4"/>
	<line class="st1" x1="1376" y1="834" x2="1376" y2="826.4"/>
</g>
<g transform="translate(612,840.6667)">
	<path class="st2" d="M-4.3,11c0-1.4,0.1-2.6,0.4-3.5c0.3-0.9,0.7-1.6,1.3-2C-1.9,5-1.2,4.8-0.3,4.8c0.7,0,1.2,0.1,1.7,0.4
		c0.5,0.3,0.9,0.6,1.2,1.1s0.6,1.1,0.8,1.8S3.6,9.8,3.6,11c0,1.4-0.1,2.6-0.4,3.5c-0.3,0.9-0.7,1.6-1.3,2c-0.6,0.5-1.3,0.7-2.2,0.7
		c-1.2,0-2.1-0.4-2.8-1.2C-3.9,14.9-4.3,13.3-4.3,11z M-2.8,11c0,2,0.2,3.3,0.7,4s1,1,1.7,1c0.7,0,1.3-0.3,1.7-1
		c0.5-0.7,0.7-2,0.7-4c0-2-0.2-3.3-0.7-4C0.9,6.3,0.4,6-0.3,6C-1,6-1.6,6.3-2,6.9C-2.5,7.6-2.8,9-2.8,11z"/>
</g>
<g transform="translate(688.4,840.6667)">
	<path class="st2" d="M-11.3,11c0-1.4,0.1-2.6,0.4-3.5c0.3-0.9,0.7-1.6,1.3-2C-8.9,5-8.2,4.8-7.3,4.8c0.7,0,1.2,0.1,1.7,0.4
		c0.5,0.3,0.9,0.6,1.2,1.1c0.3,0.5,0.6,1.1,0.8,1.8s0.3,1.7,0.3,2.9c0,1.4-0.1,2.6-0.4,3.5c-0.3,0.9-0.7,1.6-1.3,2
		c-0.6,0.5-1.3,0.7-2.2,0.7c-1.2,0-2.1-0.4-2.8-1.2C-10.9,14.9-11.3,13.3-11.3,11z M-9.8,11c0,2,0.2,3.3,0.7,4s1,1,1.7,1
		c0.7,0,1.3-0.3,1.7-1c0.5-0.7,0.7-2,0.7-4c0-2-0.2-3.3-0.7-4c-0.5-0.7-1.1-1-1.8-1C-8,6-8.6,6.3-9,6.9C-9.5,7.6-9.8,9-9.8,11z
		 M-1.2,17v-1.7h1.7V17H-1.2z M8.2,17H6.7V7.5c-0.4,0.3-0.8,0.7-1.4,1S4.2,9.1,3.7,9.3V7.8C4.6,7.4,5.3,7,5.9,6.4
		C6.6,5.8,7,5.3,7.3,4.8h1V17z"/>
</g>
<g transform="translate(764.8,840.6667)">
	<path class="st2" d="M-11.3,11c0-1.4,0.1-2.6,0.4-3.5c0.3-0.9,0.7-1.6,1.3-2C-8.9,5-8.2,4.8-7.3,4.8c0.7,0,1.2,0.1,1.7,0.4
		c0.5,0.3,0.9,0.6,1.2,1.1c0.3,0.5,0.6,1.1,0.8,1.8s0.3,1.7,0.3,2.9c0,1.4-0.1,2.6-0.4,3.5c-0.3,0.9-0.7,1.6-1.3,2
		c-0.6,0.5-1.3,0.7-2.2,0.7c-1.2,0-2.1-0.4-2.8-1.2C-10.9,14.9-11.3,13.3-11.3,11z M-9.8,11c0,2,0.2,3.3,0.7,4s1,1,1.7,1
		c0.7,0,1.3-0.3,1.7-1c0.5-0.7,0.7-2,0.7-4c0-2-0.2-3.3-0.7-4c-0.5-0.7-1.1-1-1.8-1C-8,6-8.6,6.3-9,6.9C-9.5,7.6-9.8,9-9.8,11z
		 M-1.2,17v-1.7h1.7V17H-1.2z M10.5,15.6V17h-8c0-0.4,0-0.7,0.2-1c0.2-0.6,0.5-1.1,1-1.6c0.4-0.5,1.1-1.1,2-1.8
		c1.3-1.1,2.2-1.9,2.7-2.6c0.5-0.6,0.7-1.2,0.7-1.8c0-0.6-0.2-1.1-0.6-1.5C7.8,6.2,7.3,6,6.6,6C5.9,6,5.3,6.2,4.9,6.7
		c-0.4,0.4-0.7,1-0.7,1.8L2.7,8.3c0.1-1.1,0.5-2,1.2-2.6c0.7-0.6,1.6-0.9,2.8-0.9c1.2,0,2.1,0.3,2.8,1s1,1.4,1,2.4
		c0,0.5-0.1,1-0.3,1.4c-0.2,0.5-0.5,1-1,1.5c-0.5,0.5-1.2,1.2-2.3,2.1c-0.9,0.8-1.5,1.3-1.7,1.5c-0.3,0.3-0.5,0.5-0.6,0.8H10.5z"/>
</g>
<g transform="translate(841.2,840.6667)">
	<path class="st2" d="M-11.3,11c0-1.4,0.1-2.6,0.4-3.5c0.3-0.9,0.7-1.6,1.3-2C-8.9,5-8.2,4.8-7.3,4.8c0.7,0,1.2,0.1,1.7,0.4
		c0.5,0.3,0.9,0.6,1.2,1.1c0.3,0.5,0.6,1.1,0.8,1.8s0.3,1.7,0.3,2.9c0,1.4-0.1,2.6-0.4,3.5c-0.3,0.9-0.7,1.6-1.3,2
		c-0.6,0.5-1.3,0.7-2.2,0.7c-1.2,0-2.1-0.4-2.8-1.2C-10.9,14.9-11.3,13.3-11.3,11z M-9.8,11c0,2,0.2,3.3,0.7,4s1,1,1.7,1
		c0.7,0,1.3-0.3,1.7-1c0.5-0.7,0.7-2,0.7-4c0-2-0.2-3.3-0.7-4c-0.5-0.7-1.1-1-1.8-1C-8,6-8.6,6.3-9,6.9C-9.5,7.6-9.8,9-9.8,11z
		 M-1.2,17v-1.7h1.7V17H-1.2z M2.6,13.8l1.5-0.2C4.3,14.4,4.6,15,5,15.4C5.4,15.8,5.9,16,6.5,16c0.7,0,1.3-0.2,1.8-0.7
		C8.7,14.8,9,14.2,9,13.4c0-0.7-0.2-1.3-0.7-1.7c-0.4-0.4-1-0.7-1.7-0.7c-0.3,0-0.6,0.1-1.1,0.2l0.2-1.3c0.1,0,0.2,0,0.2,0
		c0.6,0,1.2-0.2,1.7-0.5c0.5-0.3,0.8-0.8,0.8-1.5c0-0.5-0.2-1-0.6-1.4C7.5,6.2,7,6,6.5,6S5.4,6.2,5,6.6C4.6,6.9,4.4,7.5,4.3,8.2
		L2.8,7.9c0.2-1,0.6-1.8,1.2-2.3c0.6-0.6,1.5-0.8,2.4-0.8c0.7,0,1.3,0.1,1.8,0.4c0.6,0.3,1,0.7,1.3,1.2s0.4,1,0.4,1.6
		c0,0.5-0.1,1-0.4,1.4c-0.3,0.4-0.7,0.8-1.2,1c0.7,0.2,1.3,0.5,1.7,1c0.4,0.5,0.6,1.2,0.6,2c0,1.1-0.4,2-1.2,2.7
		c-0.8,0.7-1.8,1.1-2.9,1.1c-1.1,0-1.9-0.3-2.7-1C3.1,15.6,2.7,14.8,2.6,13.8z"/>
</g>
<g transform="translate(917.6,840.6667)">
	<path class="st2" d="M-11.3,11c0-1.4,0.1-2.6,0.4-3.5c0.3-0.9,0.7-1.6,1.3-2C-8.9,5-8.2,4.8-7.3,4.8c0.7,0,1.2,0.1,1.7,0.4
		c0.5,0.3,0.9,0.6,1.2,1.1c0.3,0.5,0.6,1.1,0.8,1.8s0.3,1.7,0.3,2.9c0,1.4-0.1,2.6-0.4,3.5c-0.3,0.9-0.7,1.6-1.3,2
		c-0.6,0.5-1.3,0.7-2.2,0.7c-1.2,0-2.1-0.4-2.8-1.2C-10.9,14.9-11.3,13.3-11.3,11z M-9.8,11c0,2,0.2,3.3,0.7,4s1,1,1.7,1
		c0.7,0,1.3-0.3,1.7-1c0.5-0.7,0.7-2,0.7-4c0-2-0.2-3.3-0.7-4c-0.5-0.7-1.1-1-1.8-1C-8,6-8.6,6.3-9,6.9C-9.5,7.6-9.8,9-9.8,11z
		 M-1.2,17v-1.7h1.7V17H-1.2z M7.4,17v-2.9H2.1v-1.4l5.5-7.9h1.2v7.9h1.7v1.4H8.9V17H7.4z M7.4,12.7V7.2l-3.8,5.5H7.4z"/>
</g>
<g transform="translate(994,840.6667)">
	<path class="st2" d="M-11.3,11c0-1.4,0.1-2.6,0.4-3.5c0.3-0.9,0.7-1.6,1.3-2C-8.9,5-8.2,4.8-7.3,4.8c0.7,0,1.2,0.1,1.7,0.4
		c0.5,0.3,0.9,0.6,1.2,1.1c0.3,0.5,0.6,1.1,0.8,1.8s0.3,1.7,0.3,2.9c0,1.4-0.1,2.6-0.4,3.5c-0.3,0.9-0.7,1.6-1.3,2
		c-0.6,0.5-1.3,0.7-2.2,0.7c-1.2,0-2.1-0.4-2.8-1.2C-10.9,14.9-11.3,13.3-11.3,11z M-9.8,11c0,2,0.2,3.3,0.7,4s1,1,1.7,1
		c0.7,0,1.3-0.3,1.7-1c0.5-0.7,0.7-2,0.7-4c0-2-0.2-3.3-0.7-4c-0.5-0.7-1.1-1-1.8-1C-8,6-8.6,6.3-9,6.9C-9.5,7.6-9.8,9-9.8,11z
		 M-1.2,17v-1.7h1.7V17H-1.2z M2.6,13.8l1.6-0.1C4.3,14.4,4.6,15,5,15.4C5.4,15.8,5.9,16,6.5,16c0.7,0,1.3-0.3,1.8-0.8
		c0.5-0.5,0.8-1.3,0.8-2.2c0-0.8-0.2-1.5-0.7-2c-0.5-0.5-1.1-0.7-1.9-0.7c-0.5,0-0.9,0.1-1.3,0.3c-0.4,0.2-0.7,0.5-0.9,0.9l-1.4-0.2
		L4,5h6v1.4H5.2L4.6,9.7c0.7-0.5,1.5-0.8,2.3-0.8c1.1,0,2,0.4,2.7,1.1c0.7,0.7,1.1,1.7,1.1,2.8c0,1.1-0.3,2.1-1,2.9
		c-0.8,1-1.8,1.5-3.2,1.5c-1.1,0-2-0.3-2.7-0.9C3.1,15.7,2.7,14.8,2.6,13.8z"/>
</g>
<g transform="translate(1070.4,840.6667)">
	<path class="st2" d="M-11.3,11c0-1.4,0.1-2.6,0.4-3.5c0.3-0.9,0.7-1.6,1.3-2C-8.9,5-8.2,4.8-7.3,4.8c0.7,0,1.2,0.1,1.7,0.4
		c0.5,0.3,0.9,0.6,1.2,1.1c0.3,0.5,0.6,1.1,0.8,1.8s0.3,1.7,0.3,2.9c0,1.4-0.1,2.6-0.4,3.5c-0.3,0.9-0.7,1.6-1.3,2
		c-0.6,0.5-1.3,0.7-2.2,0.7c-1.2,0-2.1-0.4-2.8-1.2C-10.9,14.9-11.3,13.3-11.3,11z M-9.8,11c0,2,0.2,3.3,0.7,4s1,1,1.7,1
		c0.7,0,1.3-0.3,1.7-1c0.5-0.7,0.7-2,0.7-4c0-2-0.2-3.3-0.7-4c-0.5-0.7-1.1-1-1.8-1C-8,6-8.6,6.3-9,6.9C-9.5,7.6-9.8,9-9.8,11z
		 M-1.2,17v-1.7h1.7V17H-1.2z M10.3,7.8L8.9,7.9c-0.1-0.6-0.3-1-0.6-1.3C7.9,6.2,7.4,6,6.8,6C6.3,6,5.9,6.1,5.5,6.4
		C5.1,6.8,4.7,7.2,4.4,7.9C4.2,8.6,4,9.5,4,10.7c0.4-0.5,0.8-0.9,1.3-1.2C5.9,9.2,6.4,9.1,7,9.1c1,0,1.8,0.4,2.5,1.1
		c0.7,0.7,1,1.7,1,2.8c0,0.8-0.2,1.5-0.5,2.1c-0.3,0.7-0.8,1.2-1.4,1.5c-0.6,0.3-1.2,0.5-2,0.5c-1.2,0-2.3-0.5-3-1.4
		c-0.8-0.9-1.2-2.4-1.2-4.5C2.5,9,3,7.2,3.8,6.2c0.8-0.9,1.8-1.4,3.1-1.4c1,0,1.7,0.3,2.4,0.8C9.9,6.1,10.2,6.9,10.3,7.8z M4.3,13.1
		c0,0.5,0.1,1,0.3,1.5c0.2,0.5,0.5,0.8,0.9,1.1C5.9,15.9,6.3,16,6.7,16c0.6,0,1.2-0.3,1.6-0.8C8.8,14.7,9,14,9,13.1
		c0-0.8-0.2-1.5-0.7-2c-0.4-0.5-1-0.7-1.7-0.7S5.4,10.7,5,11.1C4.5,11.6,4.3,12.3,4.3,13.1z"/>
</g>
<g transform="translate(1146.8,840.6667)">
	<path class="st2" d="M-11.3,11c0-1.4,0.1-2.6,0.4-3.5c0.3-0.9,0.7-1.6,1.3-2C-8.9,5-8.2,4.8-7.3,4.8c0.7,0,1.2,0.1,1.7,0.4
		c0.5,0.3,0.9,0.6,1.2,1.1c0.3,0.5,0.6,1.1,0.8,1.8s0.3,1.7,0.3,2.9c0,1.4-0.1,2.6-0.4,3.5c-0.3,0.9-0.7,1.6-1.3,2
		c-0.6,0.5-1.3,0.7-2.2,0.7c-1.2,0-2.1-0.4-2.8-1.2C-10.9,14.9-11.3,13.3-11.3,11z M-9.8,11c0,2,0.2,3.3,0.7,4s1,1,1.7,1
		c0.7,0,1.3-0.3,1.7-1c0.5-0.7,0.7-2,0.7-4c0-2-0.2-3.3-0.7-4c-0.5-0.7-1.1-1-1.8-1C-8,6-8.6,6.3-9,6.9C-9.5,7.6-9.8,9-9.8,11z
		 M-1.2,17v-1.7h1.7V17H-1.2z M2.7,6.4V5h7.9v1.2C9.8,7,9,8.1,8.3,9.4c-0.8,1.4-1.3,2.8-1.8,4.2c-0.3,1-0.5,2.1-0.6,3.3H4.4
		c0-1,0.2-2.1,0.6-3.5c0.4-1.4,0.9-2.7,1.5-3.9c0.7-1.3,1.4-2.3,2.1-3.2H2.7z"/>
</g>
<g transform="translate(1223.2,840.6667)">
	<path class="st2" d="M-11.3,11c0-1.4,0.1-2.6,0.4-3.5c0.3-0.9,0.7-1.6,1.3-2C-8.9,5-8.2,4.8-7.3,4.8c0.7,0,1.2,0.1,1.7,0.4
		c0.5,0.3,0.9,0.6,1.2,1.1c0.3,0.5,0.6,1.1,0.8,1.8s0.3,1.7,0.3,2.9c0,1.4-0.1,2.6-0.4,3.5c-0.3,0.9-0.7,1.6-1.3,2
		c-0.6,0.5-1.3,0.7-2.2,0.7c-1.2,0-2.1-0.4-2.8-1.2C-10.9,14.9-11.3,13.3-11.3,11z M-9.8,11c0,2,0.2,3.3,0.7,4s1,1,1.7,1
		c0.7,0,1.3-0.3,1.7-1c0.5-0.7,0.7-2,0.7-4c0-2-0.2-3.3-0.7-4c-0.5-0.7-1.1-1-1.8-1C-8,6-8.6,6.3-9,6.9C-9.5,7.6-9.8,9-9.8,11z
		 M-1.2,17v-1.7h1.7V17H-1.2z M4.9,10.4c-0.6-0.2-1.1-0.6-1.4-1C3.2,9,3.1,8.5,3.1,7.9c0-0.9,0.3-1.6,1-2.2c0.6-0.6,1.5-0.9,2.5-0.9
		c1.1,0,1.9,0.3,2.6,0.9c0.6,0.6,1,1.4,1,2.2c0,0.6-0.1,1.1-0.4,1.5s-0.7,0.7-1.3,1c0.7,0.2,1.3,0.6,1.7,1.2
		c0.4,0.5,0.6,1.2,0.6,1.9c0,1-0.4,1.9-1.1,2.6c-0.7,0.7-1.7,1.1-2.9,1.1c-1.2,0-2.2-0.4-2.9-1.1c-0.7-0.7-1.1-1.6-1.1-2.7
		c0-0.8,0.2-1.5,0.6-2C3.6,11,4.2,10.6,4.9,10.4z M4.6,7.9c0,0.6,0.2,1,0.6,1.4C5.5,9.6,6,9.8,6.6,9.8c0.6,0,1-0.2,1.4-0.5
		C8.4,8.9,8.6,8.5,8.6,8c0-0.6-0.2-1-0.6-1.4C7.6,6.2,7.1,6,6.6,6C6,6,5.5,6.2,5.2,6.6S4.6,7.4,4.6,7.9z M4.1,13.5
		c0,0.4,0.1,0.8,0.3,1.2c0.2,0.4,0.5,0.7,0.9,0.9C5.7,15.9,6.2,16,6.6,16c0.7,0,1.3-0.2,1.8-0.7c0.5-0.5,0.7-1,0.7-1.8
		c0-0.7-0.2-1.3-0.7-1.8C7.9,11.3,7.3,11,6.6,11c-0.7,0-1.3,0.2-1.8,0.7S4.1,12.8,4.1,13.5z"/>
</g>
<g transform="translate(1299.6,840.6667)">
	<path class="st2" d="M-11.3,11c0-1.4,0.1-2.6,0.4-3.5c0.3-0.9,0.7-1.6,1.3-2C-8.9,5-8.2,4.8-7.3,4.8c0.7,0,1.2,0.1,1.7,0.4
		c0.5,0.3,0.9,0.6,1.2,1.1c0.3,0.5,0.6,1.1,0.8,1.8s0.3,1.7,0.3,2.9c0,1.4-0.1,2.6-0.4,3.5c-0.3,0.9-0.7,1.6-1.3,2
		c-0.6,0.5-1.3,0.7-2.2,0.7c-1.2,0-2.1-0.4-2.8-1.2C-10.9,14.9-11.3,13.3-11.3,11z M-9.8,11c0,2,0.2,3.3,0.7,4s1,1,1.7,1
		c0.7,0,1.3-0.3,1.7-1c0.5-0.7,0.7-2,0.7-4c0-2-0.2-3.3-0.7-4c-0.5-0.7-1.1-1-1.8-1C-8,6-8.6,6.3-9,6.9C-9.5,7.6-9.8,9-9.8,11z
		 M-1.2,17v-1.7h1.7V17H-1.2z M2.8,14.2L4.3,14c0.1,0.7,0.4,1.2,0.7,1.5C5.3,15.8,5.7,16,6.3,16c0.5,0,0.9-0.1,1.2-0.3
		c0.3-0.2,0.6-0.5,0.9-0.8c0.2-0.3,0.4-0.8,0.6-1.4c0.1-0.6,0.2-1.2,0.2-1.8c0-0.1,0-0.2,0-0.3c-0.3,0.5-0.7,0.9-1.2,1.2
		c-0.5,0.3-1.1,0.4-1.7,0.4c-1,0-1.9-0.4-2.6-1.1c-0.7-0.7-1-1.7-1-2.9c0-1.2,0.4-2.2,1.1-3c0.7-0.8,1.6-1.1,2.7-1.1
		c0.8,0,1.5,0.2,2.2,0.6c0.7,0.4,1.2,1,1.5,1.8s0.5,1.9,0.5,3.4c0,1.6-0.2,2.8-0.5,3.7c-0.3,0.9-0.8,1.6-1.5,2.1
		c-0.7,0.5-1.4,0.7-2.3,0.7c-0.9,0-1.7-0.3-2.3-0.8C3.3,15.9,2.9,15.1,2.8,14.2z M8.9,8.8c0-0.9-0.2-1.5-0.7-2C7.8,6.3,7.2,6,6.6,6
		C5.9,6,5.4,6.3,4.9,6.8S4.1,8.1,4.1,8.9c0,0.8,0.2,1.4,0.7,1.9c0.5,0.5,1,0.7,1.7,0.7c0.7,0,1.3-0.2,1.7-0.7
		C8.7,10.3,8.9,9.7,8.9,8.8z"/>
</g>
<g transform="translate(1376,840.6667)">
	<path class="st2" d="M1.3,17h-1.5V7.5c-0.4,0.3-0.8,0.7-1.4,1s-1.1,0.6-1.6,0.8V7.8C-2.3,7.4-1.6,7-1,6.4c0.6-0.6,1.1-1.1,1.3-1.6
		h1V17z"/>
</g>
<g>
	<line class="st1" x1="612" y1="834" x2="612" y2="70"/>
	<line class="st1" x1="612" y1="834" x2="619.6" y2="834"/>
	<line class="st1" x1="612" y1="757.6" x2="619.6" y2="757.6"/>
	<line class="st1" x1="612" y1="681.2" x2="619.6" y2="681.2"/>
	<line class="st1" x1="612" y1="604.8" x2="619.6" y2="604.8"/>
	<line class="st1" x1="612" y1="528.4" x2="619.6" y2="528.4"/>
	<line class="st1" x1="612" y1="452" x2="619.6" y2="452"/>
	<line class="st1" x1="612" y1="375.6" x2="619.6" y2="375.6"/>
	<line class="st1" x1="612" y1="299.2" x2="619.6" y2="299.2"/>
	<line class="st1" x1="612" y1="222.8" x2="619.6" y2="222.8"/>
	<line class="st1" x1="612" y1="146.4" x2="619.6" y2="146.4"/>
	<line class="st1" x1="612" y1="70" x2="619.6" y2="70"/>
</g>
<g transform="translate(605.3333,834)">
	<path class="st2" d="M-9.3,0.5c0-1.4,0.1-2.6,0.4-3.5c0.3-0.9,0.7-1.6,1.3-2c0.6-0.5,1.3-0.7,2.2-0.7c0.7,0,1.2,0.1,1.7,0.4
		c0.5,0.3,0.9,0.6,1.2,1.1s0.6,1.1,0.8,1.8s0.3,1.7,0.3,2.9c0,1.4-0.1,2.6-0.4,3.5s-0.7,1.6-1.3,2c-0.6,0.5-1.3,0.7-2.2,0.7
		c-1.2,0-2.1-0.4-2.8-1.2C-8.9,4.4-9.3,2.8-9.3,0.5z M-7.8,0.5c0,2,0.2,3.3,0.7,4s1,1,1.7,1c0.7,0,1.3-0.3,1.7-1
		c0.5-0.7,0.7-2,0.7-4c0-2-0.2-3.3-0.7-4c-0.5-0.7-1.1-1-1.8-1C-6-4.5-6.6-4.2-7-3.6C-7.5-2.9-7.8-1.5-7.8,0.5z"/>
</g>
<g transform="translate(605.3333,757.6)">
	<path class="st2" d="M-23.3,0.5c0-1.4,0.1-2.6,0.4-3.5c0.3-0.9,0.7-1.6,1.3-2c0.6-0.5,1.3-0.7,2.2-0.7c0.7,0,1.2,0.1,1.7,0.4
		c0.5,0.3,0.9,0.6,1.2,1.1s0.6,1.1,0.8,1.8c0.2,0.7,0.3,1.7,0.3,2.9c0,1.4-0.1,2.6-0.4,3.5c-0.3,0.9-0.7,1.6-1.3,2
		c-0.6,0.5-1.3,0.7-2.2,0.7c-1.2,0-2.1-0.4-2.8-1.2C-22.9,4.4-23.3,2.8-23.3,0.5z M-21.8,0.5c0,2,0.2,3.3,0.7,4c0.5,0.7,1,1,1.7,1
		c0.7,0,1.3-0.3,1.7-1c0.5-0.7,0.7-2,0.7-4c0-2-0.2-3.3-0.7-4c-0.5-0.7-1.1-1-1.8-1c-0.7,0-1.2,0.3-1.6,0.9
		C-21.5-2.9-21.8-1.5-21.8,0.5z M-13.2,6.5V4.8h1.7v1.7H-13.2z M-3.8,6.5h-1.5V-3c-0.4,0.3-0.8,0.7-1.4,1s-1.1,0.6-1.6,0.8v-1.5
		c0.8-0.4,1.6-0.9,2.2-1.4C-5.4-4.7-5-5.2-4.7-5.7h1V6.5z"/>
</g>
<g transform="translate(605.3333,681.2)">
	<path class="st2" d="M-23.3,0.5c0-1.4,0.1-2.6,0.4-3.5c0.3-0.9,0.7-1.6,1.3-2c0.6-0.5,1.3-0.7,2.2-0.7c0.7,0,1.2,0.1,1.7,0.4
		c0.5,0.3,0.9,0.6,1.2,1.1s0.6,1.1,0.8,1.8c0.2,0.7,0.3,1.7,0.3,2.9c0,1.4-0.1,2.6-0.4,3.5c-0.3,0.9-0.7,1.6-1.3,2
		c-0.6,0.5-1.3,0.7-2.2,0.7c-1.2,0-2.1-0.4-2.8-1.2C-22.9,4.4-23.3,2.8-23.3,0.5z M-21.8,0.5c0,2,0.2,3.3,0.7,4c0.5,0.7,1,1,1.7,1
		c0.7,0,1.3-0.3,1.7-1c0.5-0.7,0.7-2,0.7-4c0-2-0.2-3.3-0.7-4c-0.5-0.7-1.1-1-1.8-1c-0.7,0-1.2,0.3-1.6,0.9
		C-21.5-2.9-21.8-1.5-21.8,0.5z M-13.2,6.5V4.8h1.7v1.7H-13.2z M-1.5,5.1v1.4h-8c0-0.4,0-0.7,0.2-1c0.2-0.6,0.5-1.1,1-1.6
		C-8,3.3-7.3,2.7-6.5,2c1.3-1.1,2.2-1.9,2.7-2.6c0.5-0.6,0.7-1.2,0.7-1.8c0-0.6-0.2-1.1-0.6-1.5c-0.4-0.4-1-0.6-1.6-0.6
		c-0.7,0-1.3,0.2-1.7,0.6c-0.4,0.4-0.7,1-0.7,1.8l-1.5-0.2c0.1-1.1,0.5-2,1.2-2.6c0.7-0.6,1.6-0.9,2.8-0.9c1.2,0,2.1,0.3,2.8,1
		s1,1.4,1,2.4c0,0.5-0.1,1-0.3,1.4c-0.2,0.5-0.5,1-1,1.5c-0.5,0.5-1.2,1.2-2.3,2.1C-6.1,3.5-6.6,4-6.9,4.3c-0.3,0.3-0.5,0.5-0.6,0.8
		H-1.5z"/>
</g>
<g transform="translate(605.3333,604.8)">
	<path class="st2" d="M-23.3,0.5c0-1.4,0.1-2.6,0.4-3.5c0.3-0.9,0.7-1.6,1.3-2c0.6-0.5,1.3-0.7,2.2-0.7c0.7,0,1.2,0.1,1.7,0.4
		c0.5,0.3,0.9,0.6,1.2,1.1s0.6,1.1,0.8,1.8c0.2,0.7,0.3,1.7,0.3,2.9c0,1.4-0.1,2.6-0.4,3.5c-0.3,0.9-0.7,1.6-1.3,2
		c-0.6,0.5-1.3,0.7-2.2,0.7c-1.2,0-2.1-0.4-2.8-1.2C-22.9,4.4-23.3,2.8-23.3,0.5z M-21.8,0.5c0,2,0.2,3.3,0.7,4c0.5,0.7,1,1,1.7,1
		c0.7,0,1.3-0.3,1.7-1c0.5-0.7,0.7-2,0.7-4c0-2-0.2-3.3-0.7-4c-0.5-0.7-1.1-1-1.8-1c-0.7,0-1.2,0.3-1.6,0.9
		C-21.5-2.9-21.8-1.5-21.8,0.5z M-13.2,6.5V4.8h1.7v1.7H-13.2z M-9.4,3.3l1.5-0.2C-7.7,3.9-7.4,4.5-7,4.9s0.9,0.6,1.5,0.6
		c0.7,0,1.3-0.2,1.8-0.7C-3.3,4.3-3,3.7-3,2.9c0-0.7-0.2-1.3-0.7-1.7c-0.4-0.4-1-0.7-1.7-0.7c-0.3,0-0.6,0.1-1.1,0.2l0.2-1.3
		c0.1,0,0.2,0,0.2,0c0.6,0,1.2-0.2,1.7-0.5s0.8-0.8,0.8-1.5c0-0.5-0.2-1-0.6-1.4C-4.5-4.3-5-4.5-5.5-4.5S-6.6-4.3-7-3.9
		C-7.4-3.6-7.6-3-7.7-2.3l-1.5-0.3c0.2-1,0.6-1.8,1.3-2.3c0.6-0.6,1.5-0.8,2.4-0.8c0.7,0,1.3,0.1,1.8,0.4c0.6,0.3,1,0.7,1.3,1.2
		S-2-3.1-2-2.6c0,0.5-0.1,1-0.4,1.4s-0.7,0.8-1.2,1C-3,0.1-2.4,0.4-2,0.9s0.6,1.2,0.6,2c0,1.1-0.4,2-1.2,2.7
		c-0.8,0.7-1.8,1.1-2.9,1.1c-1.1,0-1.9-0.3-2.7-1C-8.9,5.1-9.3,4.3-9.4,3.3z"/>
</g>
<g transform="translate(605.3333,528.4)">
	<path class="st2" d="M-23.3,0.5c0-1.4,0.1-2.6,0.4-3.5c0.3-0.9,0.7-1.6,1.3-2c0.6-0.5,1.3-0.7,2.2-0.7c0.7,0,1.2,0.1,1.7,0.4
		c0.5,0.3,0.9,0.6,1.2,1.1s0.6,1.1,0.8,1.8c0.2,0.7,0.3,1.7,0.3,2.9c0,1.4-0.1,2.6-0.4,3.5c-0.3,0.9-0.7,1.6-1.3,2
		c-0.6,0.5-1.3,0.7-2.2,0.7c-1.2,0-2.1-0.4-2.8-1.2C-22.9,4.4-23.3,2.8-23.3,0.5z M-21.8,0.5c0,2,0.2,3.3,0.7,4c0.5,0.7,1,1,1.7,1
		c0.7,0,1.3-0.3,1.7-1c0.5-0.7,0.7-2,0.7-4c0-2-0.2-3.3-0.7-4c-0.5-0.7-1.1-1-1.8-1c-0.7,0-1.2,0.3-1.6,0.9
		C-21.5-2.9-21.8-1.5-21.8,0.5z M-13.2,6.5V4.8h1.7v1.7H-13.2z M-4.6,6.5V3.6h-5.3V2.2l5.5-7.9h1.2v7.9h1.7v1.4h-1.7v2.9H-4.6z
		 M-4.6,2.2v-5.5l-3.8,5.5H-4.6z"/>
</g>
<g transform="translate(605.3333,452)">
	<path class="st2" d="M-23.3,0.5c0-1.4,0.1-2.6,0.4-3.5c0.3-0.9,0.7-1.6,1.3-2c0.6-0.5,1.3-0.7,2.2-0.7c0.7,0,1.2,0.1,1.7,0.4
		c0.5,0.3,0.9,0.6,1.2,1.1s0.6,1.1,0.8,1.8c0.2,0.7,0.3,1.7,0.3,2.9c0,1.4-0.1,2.6-0.4,3.5c-0.3,0.9-0.7,1.6-1.3,2
		c-0.6,0.5-1.3,0.7-2.2,0.7c-1.2,0-2.1-0.4-2.8-1.2C-22.9,4.4-23.3,2.8-23.3,0.5z M-21.8,0.5c0,2,0.2,3.3,0.7,4c0.5,0.7,1,1,1.7,1
		c0.7,0,1.3-0.3,1.7-1c0.5-0.7,0.7-2,0.7-4c0-2-0.2-3.3-0.7-4c-0.5-0.7-1.1-1-1.8-1c-0.7,0-1.2,0.3-1.6,0.9
		C-21.5-2.9-21.8-1.5-21.8,0.5z M-13.2,6.5V4.8h1.7v1.7H-13.2z M-9.4,3.3l1.6-0.1C-7.7,3.9-7.4,4.5-7,4.9c0.4,0.4,0.9,0.6,1.5,0.6
		c0.7,0,1.3-0.3,1.8-0.8s0.8-1.3,0.8-2.2c0-0.8-0.2-1.5-0.7-2C-4.1,0-4.7-0.2-5.5-0.2c-0.5,0-0.9,0.1-1.3,0.3
		c-0.4,0.2-0.7,0.5-0.9,0.9l-1.4-0.2L-8-5.5h6v1.4h-4.9l-0.7,3.3c0.7-0.5,1.5-0.8,2.3-0.8c1.1,0,2,0.4,2.7,1.1
		c0.7,0.7,1.1,1.7,1.1,2.8c0,1.1-0.3,2.1-1,2.9c-0.8,1-1.8,1.5-3.2,1.5c-1.1,0-2-0.3-2.7-0.9C-8.9,5.2-9.3,4.3-9.4,3.3z"/>
</g>
<g transform="translate(605.3333,375.6)">
	<path class="st2" d="M-23.3,0.5c0-1.4,0.1-2.6,0.4-3.5c0.3-0.9,0.7-1.6,1.3-2c0.6-0.5,1.3-0.7,2.2-0.7c0.7,0,1.2,0.1,1.7,0.4
		c0.5,0.3,0.9,0.6,1.2,1.1s0.6,1.1,0.8,1.8c0.2,0.7,0.3,1.7,0.3,2.9c0,1.4-0.1,2.6-0.4,3.5c-0.3,0.9-0.7,1.6-1.3,2
		c-0.6,0.5-1.3,0.7-2.2,0.7c-1.2,0-2.1-0.4-2.8-1.2C-22.9,4.4-23.3,2.8-23.3,0.5z M-21.8,0.5c0,2,0.2,3.3,0.7,4c0.5,0.7,1,1,1.7,1
		c0.7,0,1.3-0.3,1.7-1c0.5-0.7,0.7-2,0.7-4c0-2-0.2-3.3-0.7-4c-0.5-0.7-1.1-1-1.8-1c-0.7,0-1.2,0.3-1.6,0.9
		C-21.5-2.9-21.8-1.5-21.8,0.5z M-13.2,6.5V4.8h1.7v1.7H-13.2z M-1.7-2.7l-1.5,0.1c-0.1-0.6-0.3-1-0.6-1.3c-0.4-0.4-0.9-0.6-1.5-0.6
		c-0.5,0-0.9,0.1-1.3,0.4c-0.5,0.3-0.8,0.8-1.1,1.5C-7.8-1.9-8-1-8,0.2C-7.6-0.3-7.2-0.7-6.7-1C-6.1-1.3-5.6-1.4-5-1.4
		c1,0,1.8,0.4,2.5,1.1c0.7,0.7,1,1.7,1,2.8c0,0.8-0.2,1.5-0.5,2.1c-0.3,0.7-0.8,1.2-1.4,1.5c-0.6,0.3-1.2,0.5-2,0.5
		c-1.2,0-2.3-0.5-3-1.4s-1.2-2.4-1.2-4.5c0-2.4,0.4-4.1,1.3-5.1c0.8-0.9,1.8-1.4,3.1-1.4c1,0,1.7,0.3,2.4,0.8
		C-2.1-4.4-1.8-3.6-1.7-2.7z M-7.7,2.6c0,0.5,0.1,1,0.3,1.5c0.2,0.5,0.5,0.8,0.9,1.1c0.4,0.2,0.8,0.4,1.2,0.4c0.6,0,1.2-0.3,1.6-0.8
		C-3.2,4.2-3,3.5-3,2.6c0-0.8-0.2-1.5-0.7-2c-0.4-0.5-1-0.7-1.7-0.7S-6.6,0.2-7,0.6C-7.5,1.1-7.7,1.8-7.7,2.6z"/>
</g>
<g transform="translate(605.3333,299.2)">
	<path class="st2" d="M-23.3,0.5c0-1.4,0.1-2.6,0.4-3.5c0.3-0.9,0.7-1.6,1.3-2c0.6-0.5,1.3-0.7,2.2-0.7c0.7,0,1.2,0.1,1.7,0.4
		c0.5,0.3,0.9,0.6,1.2,1.1s0.6,1.1,0.8,1.8c0.2,0.7,0.3,1.7,0.3,2.9c0,1.4-0.1,2.6-0.4,3.5c-0.3,0.9-0.7,1.6-1.3,2
		c-0.6,0.5-1.3,0.7-2.2,0.7c-1.2,0-2.1-0.4-2.8-1.2C-22.9,4.4-23.3,2.8-23.3,0.5z M-21.8,0.5c0,2,0.2,3.3,0.7,4c0.5,0.7,1,1,1.7,1
		c0.7,0,1.3-0.3,1.7-1c0.5-0.7,0.7-2,0.7-4c0-2-0.2-3.3-0.7-4c-0.5-0.7-1.1-1-1.8-1c-0.7,0-1.2,0.3-1.6,0.9
		C-21.5-2.9-21.8-1.5-21.8,0.5z M-13.2,6.5V4.8h1.7v1.7H-13.2z M-9.3-4.1v-1.4h7.9v1.2C-2.2-3.5-3-2.4-3.7-1.1
		c-0.8,1.4-1.3,2.8-1.8,4.2c-0.3,1-0.5,2.1-0.6,3.3h-1.5c0-1,0.2-2.1,0.6-3.5c0.4-1.4,0.9-2.7,1.5-3.9c0.7-1.3,1.4-2.3,2.1-3.2H-9.3
		z"/>
</g>
<g transform="translate(605.3333,222.8)">
	<path class="st2" d="M-23.3,0.5c0-1.4,0.1-2.6,0.4-3.5c0.3-0.9,0.7-1.6,1.3-2c0.6-0.5,1.3-0.7,2.2-0.7c0.7,0,1.2,0.1,1.7,0.4
		c0.5,0.3,0.9,0.6,1.2,1.1s0.6,1.1,0.8,1.8c0.2,0.7,0.3,1.7,0.3,2.9c0,1.4-0.1,2.6-0.4,3.5c-0.3,0.9-0.7,1.6-1.3,2
		c-0.6,0.5-1.3,0.7-2.2,0.7c-1.2,0-2.1-0.4-2.8-1.2C-22.9,4.4-23.3,2.8-23.3,0.5z M-21.8,0.5c0,2,0.2,3.3,0.7,4c0.5,0.7,1,1,1.7,1
		c0.7,0,1.3-0.3,1.7-1c0.5-0.7,0.7-2,0.7-4c0-2-0.2-3.3-0.7-4c-0.5-0.7-1.1-1-1.8-1c-0.7,0-1.2,0.3-1.6,0.9
		C-21.5-2.9-21.8-1.5-21.8,0.5z M-13.2,6.5V4.8h1.7v1.7H-13.2z M-7.1-0.1c-0.6-0.2-1.1-0.6-1.4-1C-8.8-1.5-8.9-2-8.9-2.6
		c0-0.9,0.3-1.6,1-2.2c0.6-0.6,1.5-0.9,2.5-0.9c1.1,0,1.9,0.3,2.6,0.9c0.6,0.6,1,1.4,1,2.2c0,0.6-0.1,1.1-0.4,1.5s-0.7,0.7-1.3,1
		C-2.9,0.1-2.4,0.5-2,1.1C-1.6,1.6-1.4,2.3-1.4,3c0,1-0.4,1.9-1.1,2.6c-0.7,0.7-1.7,1.1-2.9,1.1c-1.2,0-2.2-0.4-2.9-1.1
		C-9.1,4.9-9.4,4-9.4,3c0-0.8,0.2-1.5,0.6-2C-8.4,0.5-7.8,0.1-7.1-0.1z M-7.4-2.6c0,0.6,0.2,1,0.6,1.4C-6.5-0.9-6-0.7-5.4-0.7
		c0.6,0,1-0.2,1.4-0.5C-3.6-1.6-3.4-2-3.4-2.5c0-0.6-0.2-1-0.6-1.4s-0.9-0.6-1.4-0.6c-0.6,0-1,0.2-1.4,0.5S-7.4-3.1-7.4-2.6z
		 M-7.9,3c0,0.4,0.1,0.8,0.3,1.2c0.2,0.4,0.5,0.7,0.9,0.9c0.4,0.2,0.8,0.3,1.3,0.3c0.7,0,1.3-0.2,1.8-0.7c0.5-0.5,0.7-1,0.7-1.8
		c0-0.7-0.2-1.3-0.7-1.8c-0.5-0.5-1.1-0.7-1.8-0.7c-0.7,0-1.3,0.2-1.8,0.7S-7.9,2.3-7.9,3z"/>
</g>
<g transform="translate(605.3333,146.4)">
	<path class="st2" d="M-23.3,0.5c0-1.4,0.1-2.6,0.4-3.5c0.3-0.9,0.7-1.6,1.3-2c0.6-0.5,1.3-0.7,2.2-0.7c0.7,0,1.2,0.1,1.7,0.4
		c0.5,0.3,0.9,0.6,1.2,1.1s0.6,1.1,0.8,1.8c0.2,0.7,0.3,1.7,0.3,2.9c0,1.4-0.1,2.6-0.4,3.5c-0.3,0.9-0.7,1.6-1.3,2
		c-0.6,0.5-1.3,0.7-2.2,0.7c-1.2,0-2.1-0.4-2.8-1.2C-22.9,4.4-23.3,2.8-23.3,0.5z M-21.8,0.5c0,2,0.2,3.3,0.7,4c0.5,0.7,1,1,1.7,1
		c0.7,0,1.3-0.3,1.7-1c0.5-0.7,0.7-2,0.7-4c0-2-0.2-3.3-0.7-4c-0.5-0.7-1.1-1-1.8-1c-0.7,0-1.2,0.3-1.6,0.9
		C-21.5-2.9-21.8-1.5-21.8,0.5z M-13.2,6.5V4.8h1.7v1.7H-13.2z M-9.2,3.7l1.4-0.1C-7.6,4.2-7.4,4.7-7,5c0.3,0.3,0.8,0.5,1.3,0.5
		c0.5,0,0.9-0.1,1.2-0.3C-4.2,5-3.9,4.7-3.7,4.3C-3.4,4-3.3,3.5-3.1,2.9C-3,2.3-2.9,1.7-2.9,1.1c0-0.1,0-0.2,0-0.3
		c-0.3,0.5-0.7,0.9-1.2,1.2c-0.5,0.3-1.1,0.4-1.7,0.4c-1,0-1.9-0.4-2.6-1.1c-0.7-0.7-1-1.7-1-2.9c0-1.2,0.4-2.2,1.1-3
		c0.7-0.8,1.6-1.1,2.7-1.1c0.8,0,1.5,0.2,2.2,0.6c0.7,0.4,1.2,1,1.5,1.8s0.5,1.9,0.5,3.4c0,1.6-0.2,2.8-0.5,3.7S-2.8,5.5-3.4,6
		c-0.7,0.5-1.4,0.7-2.3,0.7c-0.9,0-1.7-0.3-2.3-0.8C-8.7,5.4-9.1,4.6-9.2,3.7z M-3.1-1.7c0-0.9-0.2-1.5-0.7-2s-1-0.8-1.6-0.8
		c-0.7,0-1.2,0.3-1.7,0.8s-0.7,1.2-0.7,2.1c0,0.8,0.2,1.4,0.7,1.9C-6.7,0.8-6.1,1-5.4,1c0.7,0,1.3-0.2,1.7-0.7
		C-3.3-0.2-3.1-0.8-3.1-1.7z"/>
</g>
<g transform="translate(605.3333,70)">
	<path class="st2" d="M-3.7,6.5h-1.5V-3C-5.5-2.7-6-2.3-6.6-2s-1.1,0.6-1.6,0.8v-1.5C-7.3-3.1-6.6-3.5-6-4.1
		c0.6-0.6,1.1-1.1,1.3-1.6h1V6.5z"/>
</g>
<g transform="translate(576.3333,451.9996) rotate(-90)">
	<path class="st2" d="M-40.2-17.5c0,1.9,0,3.2,0,4c0,0.8-0.1,1.4-0.1,1.8c-0.1,0.4-0.2,0.7-0.5,1c-0.3,0.3-0.7,0.5-1.4,0.8
		c0-0.6-0.7-1.1-2.2-1.5v-0.4c1.2,0.1,1.9,0.2,2.2,0.2s0.6-0.1,0.7-0.2c0.1-0.2,0.2-0.7,0.2-1.7c0-0.9,0-2.4,0-4.3h-5v12.1h5.5
		l1.2-1.2l1.6,1.6h-14c-0.6,0-1.2,0.1-1.7,0.2l-0.6-0.6h7v-12.1H-50c-0.6,0-1.2,0.1-1.7,0.2l-0.6-0.6h11l0.6-0.8l1.2,0.9L-40.2-17.5
		z M-32.2-18.6l1.6,0.9c-0.5,0.2-1,1.1-1.7,2.6h4.2c0-2.2,0-3.7-0.1-4.7l1.7,0.7l-0.6,0.5v3.5h4l1-1l1.3,1.5h-6.4v4.4h3.2l1.1-1
		l1.3,1.5h-5.6v5.1h5.1l1.1-1.1l1.4,1.6h-14c-0.6,0-1.2,0.1-1.7,0.2l-0.6-0.6h7.7v-5.1h-2.7c-0.6,0-1.2,0.1-1.7,0.2l-0.6-0.6h5v-4.4
		h-4.3c-1.1,2-2,3.5-2.9,4.3l-0.2-0.1c0.8-1.2,1.5-2.6,2-4C-32.9-15.9-32.5-17.3-32.2-18.6z M-5.5-15.6l1.1-1.9h-5.2
		c-0.8,1-1.7,1.9-2.8,2.5l-0.1-0.1c0.8-0.7,1.4-1.4,1.8-2.2c0.5-0.8,0.8-1.6,1.1-2.4l1.3,0.7l-0.6,0.3l-0.7,0.8h5l0.6-0.8l1.3,1.1
		c-0.7,0.1-1.5,0.8-2.7,2.1L-5.5-15.6z M-8.3-16.9l1.5,0.6L-7.3-16l-0.1,0.3c1.2,1.7,3.1,2.8,5.7,3.1v0.2C-2.5-12.3-3-12-3.2-11.5
		c-2.1-1-3.6-2.3-4.4-3.9c-0.8,2-3,3.2-6.6,3.6l-0.1-0.2c2.2-0.5,3.8-1.2,4.7-2S-8.3-15.8-8.3-16.9z M-15.9-19.1
		c1.3,0.2,2,0.5,2.2,0.7c0.2,0.2,0.3,0.4,0.3,0.6c0,0.1-0.1,0.3-0.2,0.6c-0.1,0.3-0.2,0.4-0.3,0.4c-0.1,0-0.3-0.2-0.4-0.5
		c-0.3-0.5-0.9-1-1.7-1.5L-15.9-19.1z M-11.5-18.4l0.2,0.1c-1.1,1.4-1.9,2.3-2.4,2.9c-0.5,0.6-0.8,1.1-0.9,1.5
		c-0.1,0.4-0.2,1-0.2,1.7c0,0.5-0.1,0.7-0.4,0.7c0,0-0.2-0.1-0.5-0.2c-0.3-0.2-0.4-0.4-0.4-0.6c0-0.2,0-0.4,0.1-0.6
		c0.2-0.5,0.3-0.9,0.4-1.2c0.1-0.3-0.4-0.6-1.4-0.9l0.1-0.2c0.7,0.1,1.1,0.1,1.3,0.1c0.2,0,0.4-0.1,0.7-0.2
		C-14.5-15.5-13.4-16.5-11.5-18.4z M-14.3-6.1c0-1.2,0.1-2.2,0.1-3c0-0.8,0-1.7-0.1-2.6l1,0.4h7.5l0.4-0.6l1.1,0.8l-0.6,0.5
		c0,1.6,0,2.8,0.1,3.7l-1,0.5v-4.4h-7.5v4.4L-14.3-6.1z M-10-10.2l1.8,0.9L-9-8.8C-9.2-7.3-9.5-6.3-10-5.7c-0.5,0.6-1.3,1.1-2.4,1.5
		c-1.1,0.4-2.5,0.7-4.4,0.9l-0.1-0.2c1.2-0.2,2.3-0.6,3.4-1c1.1-0.4,1.9-0.9,2.3-1.4c0.4-0.5,0.7-1.1,0.8-1.7S-10-9.2-10-10.2z
		 M-9.2-6v-0.3C-7.4-6-6-5.7-5-5.5c1,0.2,1.6,0.5,1.8,0.8C-3-4.4-2.9-4.1-2.9-3.8c0,0.3-0.1,0.5-0.2,0.5c-0.1,0-0.4-0.1-0.7-0.3
		C-4.5-4.1-5.2-4.5-6-4.9C-6.9-5.2-7.9-5.6-9.2-6z M10.1-14.9v2h4.6v-2H10.1z M10.1-12.5v2.1h4.6v-2.1H10.1z M9.5-8.7l1.3,1
		c-0.5,0.2-1.1,0.7-1.6,1.3C8.5-5.8,7.6-5,6.4-4.1L6.3-4.3C7.9-5.9,9-7.4,9.5-8.7z M13.5-8.2l0.1-0.2c1.6,1,2.5,1.6,2.7,2
		c0.3,0.3,0.4,0.6,0.4,0.9c0,0.2-0.1,0.5-0.2,0.8c-0.1,0.3-0.3,0.5-0.4,0.5c-0.1,0-0.3-0.3-0.6-0.8C15.3-5.9,14.6-7,13.5-8.2z
		 M9.1-9.2c0-1.2,0.1-2.4,0.1-3.4s0-2.2-0.1-3.3l1,0.6h1c0.5-1.1,0.7-1.9,0.8-2.5H7.6c0,1.9,0,3.8,0,5.5c0,1.8-0.4,3.4-1,4.8
		c-0.7,1.4-1.6,2.7-3,4L3.4-3.7c1.2-1.5,2-3,2.5-4.5c0.5-1.5,0.7-3.4,0.7-5.6c0-2.2,0-3.9-0.1-5.2l1,0.7h7.3l1-1l1.3,1.4h-5l1.1,0.6
		c-0.4,0.1-0.7,0.3-0.9,0.5c-0.2,0.2-0.5,0.6-1,1.3h3.2l0.5-0.7l1,0.9l-0.6,0.5c0,2.9,0,4.5,0.1,4.9l-1,0.5v-0.7h-1.8v4.6
		c0,0.9-0.5,1.5-1.5,1.8c0-0.7-0.6-1.1-1.7-1.3v-0.3C10.3-5,10.8-5,11.3-5c0.4,0,0.6-0.2,0.6-0.5v-4.4h-1.8v0.3L9.1-9.2z M6-17
		c-1.4,5.1-2.2,8-2.4,8.6C3.6-7.8,3.5-7,3.5-6.2c0,0.8,0,1.4,0,1.8c0,0.2-0.1,0.3-0.3,0.3c-0.1,0-0.4-0.1-0.7-0.2
		C2.3-4.4,2.1-4.7,2.1-5.1c0-0.3,0-0.7,0.1-1c0.1-0.5,0.2-0.8,0.2-1.1S2.4-7.7,2.1-7.9C1.9-8.1,1.5-8.3,0.8-8.5v-0.3
		c0.8,0.1,1.4,0.1,1.6,0.1c0.2,0,0.4-0.2,0.7-0.6c0.3-0.4,1.2-3,2.7-7.8L6-17z M0.8-15.1c1.6,0.8,2.5,1.4,2.5,1.8
		c0,0.5-0.1,0.8-0.3,1c-0.2,0.2-0.3,0.3-0.4,0.3c-0.1,0-0.3-0.2-0.4-0.7c-0.2-0.6-0.7-1.4-1.5-2.2L0.8-15.1z M2.3-19.1
		c1.4,0.6,2.1,1,2.2,1.4c0.1,0.4,0.1,0.8-0.1,1.1c-0.2,0.3-0.4,0.5-0.5,0.5c-0.2,0-0.3-0.2-0.4-0.6c-0.2-0.6-0.7-1.3-1.4-2.2
		L2.3-19.1z M23-18.3v1.8h4.1v-1.8H23z M28-18.3v1.8h4.2v-1.8H28z M23-16.1v1.6h4.1v-1.6H23z M28-16.1v1.6h4.2v-1.6H28z M33.1-18
		c0,0.7,0,1.4,0,2.1s0,1.5,0.1,2.2l-1,0.4v-0.8H23v0.6l-1,0.3c0-1.2,0.1-2.3,0.1-3.5c0-1.2,0-2.1-0.1-2.7l1,0.6h9.1l0.5-0.6l1,0.8
		L33.1-18z M28.2-13.1c-0.6,0.1-1.2,0.2-1.8,0.5c-0.7,0.3-1.6,0.7-3,1.2l4.8-0.1c0.7-0.5,1.3-0.9,1.8-1.4l0.9,1.1
		c-0.4,0-1.2,0.3-2.3,0.8c-1.2,0.6-2.9,1.4-5.1,2.2l8.2-0.5c-0.4-0.5-0.9-0.9-1.3-1.4l0.2-0.1c1.4,0.7,2.2,1.2,2.5,1.5
		c0.3,0.4,0.4,0.7,0.4,1c0,0.3-0.1,0.5-0.2,0.7c-0.1,0.2-0.2,0.3-0.2,0.3c-0.1,0-0.2-0.1-0.3-0.4C32.5-8,32.3-8.4,32-8.8l-3.7,0.3
		v3.2c0.1,1-0.5,1.6-1.5,1.8c0-0.7-0.8-1.2-2.2-1.5v-0.3c1.3,0.1,2.1,0.2,2.4,0.2c0.3,0,0.5-0.3,0.5-0.8v-2.5
		c-0.9,0.1-1.8,0.2-2.8,0.4c-0.9,0.1-1.7,0.4-2.2,0.7l-0.8-1.5c0.7-0.1,1.5-0.3,2.3-0.6c0.8-0.3,2.1-0.9,3.9-1.7
		c-2,0.2-3.3,0.3-3.9,0.4c-0.6,0.1-1,0.2-1.3,0.4l-0.6-1.3c0.6,0,1.4-0.2,2.5-0.7c1.1-0.5,2-1.1,2.7-1.8L28.2-13.1z M25.7-6.4
		c-0.6,0.1-1.3,0.4-2.2,0.9c-0.9,0.6-2.1,1.2-3.7,1.8l-0.1-0.2c1.2-0.6,2.2-1.3,3-1.9c0.8-0.7,1.4-1.3,1.9-1.8L25.7-6.4z M29.8-7.5
		c1.7,0.6,2.9,1.1,3.5,1.4c0.6,0.4,0.9,0.7,1,1.1c0,0.4,0,0.6-0.1,0.8C34-4,33.9-3.9,33.9-3.9c-0.2,0-0.4-0.2-0.8-0.7
		c-0.5-0.8-1.7-1.7-3.4-2.8L29.8-7.5z M39.4-19l0.1-0.2c1,0.5,1.7,0.9,2.1,1.2s0.6,0.7,0.6,1c0,0.3-0.1,0.6-0.2,0.7
		c-0.2,0.1-0.3,0.2-0.3,0.2c-0.2,0-0.5-0.3-0.6-0.8C40.7-17.7,40.2-18.3,39.4-19z M41.3-6.1l2.8-2.4l0.1,0.2c-1.6,2.1-2.7,3.5-3,4.2
		l-1-1.2c0.2-0.3,0.3-0.7,0.3-1.3v-6.3h-1.8h0.6c-0.3,0-0.7,0.1-1.2,0.2l-0.6-0.6h2.9l0.8-0.8l1,1l-0.7,0.5V-6.1z M47.5-13.2
		c0-3.1,0-5.2-0.1-6.1l1.7,0.8L48.6-18v4.8h3.2l0.9-0.9l1.3,1.3h-5.3v6.4c0,0.9,0,1.8,0.1,2.6l-1.2,0.5c0-1.5,0.1-2.6,0.1-3.3v-6.2
		h-3.6h1c-0.6,0-1.1,0.1-1.6,0.2l-0.6-0.6H47.5z"/>
</g>
<g transform="translate(994.001,67.25)">
	<path d="M-38.5-3.4c0-0.8,0.1-3,0.1-6.5c-1,0.5-1.9,0.8-2.7,1l-0.1-0.2c2.1-0.8,4.1-2.1,6-4.1c-0.8-1.2-1.4-2.4-1.7-3.5
		c-0.8,1.5-1.6,2.7-2.5,3.7l-0.2-0.1c0.7-0.9,1.2-1.9,1.7-3c0.4-1.1,0.8-2.3,1.2-3.6l1.4,0.8l-0.6,0.4c-0.2,0.4-0.4,0.8-0.6,1.3h4.3
		l0.6-0.7l1.1,1.1l-0.6,0.3c-1.1,1.4-2,2.6-2.8,3.4c1.4,1.4,3.1,2.2,5.2,2.3v0.3c-0.8,0.1-1.2,0.5-1.3,1c-1.7-0.7-3.2-1.7-4.5-3
		c-1.2,1.1-2.4,2-3.7,2.7l0.8,0.4h5l0.6-0.6l1,0.9l-0.6,0.4c0,2.5,0,4.1,0.1,4.9l-1,0.4v-1.3h-5.2v1L-38.5-3.4z M-37.5-9.1v3.9h5.2
		v-3.9H-37.5z M-36.7-16.8c0.6,1.3,1.2,2.3,2,3.1c0.8-0.8,1.6-1.9,2.3-3.1H-36.7z M-39.5-16.5c-1.7,5.1-2.6,7.9-2.7,8.5
		c-0.1,0.6-0.1,1.3-0.1,2c0,0.8,0,1.3,0,1.6s-0.1,0.4-0.2,0.4c-0.1,0-0.3-0.1-0.6-0.3c-0.3-0.2-0.5-0.4-0.5-0.8c0-0.3,0-0.6,0.1-0.9
		c0.1-0.4,0.2-0.7,0.2-1c0-0.3-0.1-0.5-0.4-0.8C-44-7.8-44.4-8-45.2-8.2v-0.3c0.8,0.1,1.4,0.1,1.6,0.1c0.2,0,0.5-0.3,0.8-0.7
		c0.3-0.4,1.3-2.9,3-7.5L-39.5-16.5z M-45.1-15.1c1.4,0.8,2.2,1.3,2.2,1.7c0,0.4-0.1,0.7-0.2,0.9c-0.2,0.2-0.3,0.3-0.4,0.3
		c-0.1,0-0.3-0.2-0.4-0.6c-0.2-0.6-0.6-1.3-1.3-2.1L-45.1-15.1z M-43.4-19c1.2,0.6,1.8,1,2,1.2c0.1,0.2,0.2,0.4,0.2,0.7
		c0,0.2-0.1,0.5-0.2,0.7c-0.1,0.2-0.3,0.4-0.4,0.4c-0.1,0-0.2-0.2-0.3-0.6c-0.2-0.6-0.7-1.3-1.4-2.1L-43.4-19z M-23-6.9
		c0,0.9,0,2,0.1,3.2l-1.1,0.6c0-1.5,0.1-2.7,0.1-3.7v-7.5c-0.9,1.5-1.8,2.7-2.7,3.7L-27-11c0.6-0.8,1.3-1.8,2-3.3
		c0.7-1.4,1.4-3.3,2-5.5l1.5,0.9l-0.6,0.4c-0.6,1.4-1.2,2.5-1.7,3.5l1.3,0.6l-0.6,0.5V-6.9z M-15.8-18.7l-0.7,0.3
		c0.8,1.5,1.7,2.7,2.8,3.7c1.1,1,2.2,1.6,3.2,1.8v0.3c-0.8,0-1.3,0.3-1.5,0.8c-0.7-0.4-1.5-1.1-2.3-2.1c-0.8-1-1.6-2.3-2.4-4.1
		c-1,2.1-2,3.7-2.9,4.7s-1.9,1.8-2.9,2.4l-0.1-0.2c1.2-1,2.2-2.2,3.1-3.8c0.9-1.5,1.6-3.1,2.1-4.7L-15.8-18.7z M-13-10.9l-0.9,0.1
		c-1.6,0.9-3.1,1.6-4.5,2.2v2.7c-0.1,0.7,0.3,1,1.1,1h3.6c0.4-0.1,0.7-0.4,0.8-1c0.1-0.6,0.2-1.4,0.2-2.3h0.3c0,0.8,0,1.4,0.1,2
		c0.1,0.6,0.3,0.9,0.8,1c-0.3,0.7-0.8,1-1.5,1.1h-4.9c-1.1,0-1.6-0.4-1.6-1.3v-4.7c0-0.8,0-1.8-0.1-2.9l1.7,0.8l-0.6,0.5v2.8
		c1.7-0.9,3.1-2,4.2-3.2L-13-10.9z M1-5.6c1.4,0,2.9-0.1,4.4-0.1C5.1-6.7,4.6-7.5,4.2-8.2l0.2-0.1C6.1-6.9,6.9-6,6.9-5.4
		c0,0.6-0.1,1-0.3,1.2S6.2-3.9,6.1-3.9C6-3.9,6-4,6-4.2C5.9-4.5,5.8-4.9,5.6-5.4C2.8-5,1.1-4.6,0.6-4.2l-0.8-1.5
		c0.5-0.2,1-0.6,1.5-1.2c0.5-0.6,1.2-1.7,2.2-3.4c-1.6,0.2-2.7,0.5-3.3,1.1l-0.8-1.4c0.3-0.1,0.6-0.3,0.9-0.6s0.6-0.9,1.1-1.7
		c0.5-0.9,0.8-1.7,0.9-2.4l1.4,0.9c-0.5,0.3-1.1,0.9-1.7,1.8c-0.6,1-1.1,1.7-1.5,2.1c1-0.1,2-0.1,3.1-0.1c0.6-1,1-1.9,1.2-2.6
		l1.3,1.1C5.7-12,5-11.2,4-9.6C3-8.1,2-6.8,1-5.6z M-7.4-5.5c0.5-0.1,1-0.4,1.4-0.9s1.3-1.8,2.7-4c-1.9,0.2-3.1,0.6-3.5,1l-0.8-1.3
		c0.7-0.1,1.3-0.8,1.9-1.9c0.6-1.1,1-2.1,1.3-2.9l1.4,1l-0.7,0.3c-1.4,2-2.3,3.1-2.7,3.5c1.1,0,2.1-0.1,3.2-0.1
		c0.5-0.9,0.8-1.7,1.1-2.5l1.3,1c-0.4,0.1-1.1,1-2.1,2.5c-1,1.6-2.1,3-3.2,4.2c1.4-0.1,2.7-0.2,3.9-0.2c-0.2-0.7-0.5-1.4-0.9-2.1
		L-2.6-8c1.4,1.3,2.1,2.2,2.2,2.7c0.1,0.5,0,0.9-0.3,1.2C-1-3.8-1.2-3.7-1.3-3.7c-0.1,0-0.1-0.1-0.1-0.2c-0.1-0.3-0.2-0.8-0.4-1.5
		C-4.5-5-6-4.5-6.5-4.1L-7.4-5.5z M-4.4-19.2l0.2-0.1c0.8,0.4,1.4,0.8,1.9,1.3c0.4,0.4,0.7,0.8,0.7,1.1c0,0.4-0.2,0.8-0.6,1.2h3.2
		c0.8-1.6,1.4-2.9,1.5-3.8l1.5,1l-0.7,0.3c-0.8,1-1.4,1.9-1.9,2.5h3.8L6.3-17l1.5,1.5H-6c-0.6,0-1.2,0.1-1.7,0.2l-0.6-0.6h5.6
		C-2.9-16.4-3-17-3.3-17.5C-3.5-17.9-3.9-18.5-4.4-19.2z M20.4-10.6v5.1h2.9v-5.1H20.4z M11.8-16.4l1.1,0.6h2.8c0-1.7,0-3.1-0.1-4
		l1.6,0.8l-0.6,0.5v2.7h2.9c0-1.9,0-3.2-0.1-4l1.7,0.8l-0.7,0.4v2.7h2.8l0.6-0.7l1.1,0.9l-0.6,0.5c0,6.1,0,9.7,0.1,10.8l-1,0.5v-1.3
		H12.9V-4l-1.1,0.5c0.1-2.2,0.1-4.4,0.1-6.6C11.9-12.3,11.9-14.4,11.8-16.4z M12.9-15.3v4.3h2.8v-4.3H12.9z M16.6-15.3v4.3h2.9v-4.3
		H16.6z M20.4-15.3v4.3h2.9v-4.3H20.4z M12.9-10.6v5.1h2.8v-5.1H12.9z M16.6-10.6v5.1h2.9v-5.1H16.6z M38.3-14.6
		c0,0.7,0,1.5,0.1,2.6l3.3-0.3l0.9-1.1l1.4,1.2l-5.5,0.6c0.1,1.4,0.4,2.6,0.7,3.4c1-0.9,1.8-1.9,2.5-3l1.3,1.3l-0.6,0.1
		c-0.9,0.8-1.8,1.7-2.7,2.5c0.8,1.2,1.8,2,3,2.5l1-3.4l0.3,0.1c-0.1,1.1-0.2,2-0.2,2.7c0,0.7,0.1,1.3,0.3,1.7c0,0.1,0.1,0.2,0.1,0.2
		c0,0.2-0.2,0.2-0.7,0.2c-0.5-0.1-1.1-0.4-2-0.8c-0.8-0.5-1.7-1.3-2.5-2.4c-0.8,0.6-1.7,1-2.6,1.4c-0.9,0.4-2,0.8-3.3,1.1L33-4.3
		c2-0.8,3.8-1.8,5.4-3.1c-0.4-1.3-0.7-2.6-0.8-4.1l-2.9,0.3l-0.6,0.3l-0.8-0.6l4.1-0.4c0-0.7-0.1-1.5-0.1-2.7l-2,0.1l-0.4,0.3
		l-0.6-0.6l3.1-0.2c0-1.6-0.1-3.3-0.1-4.9l1.6,0.8l-0.6,0.5c0,1,0,2.2,0.1,3.6l3-0.3l0.9-1l1.4,1.3L38.3-14.6z M39.4-18.6l0.1-0.2
		c1.5,0.4,2.3,0.7,2.4,0.9c0.1,0.3,0.2,0.5,0.2,0.7c0,0.2,0,0.5-0.1,0.7c-0.1,0.2-0.2,0.4-0.3,0.4s-0.2-0.2-0.4-0.6
		C40.9-17.2,40.2-17.8,39.4-18.6z M31.6-19.5l1.4,0.9c-0.4,0.1-0.8,0.6-1.2,1.4c-0.4,0.8-1.2,2-2.3,3.6l2.9-0.3
		c0.6-0.9,1-1.9,1.3-2.8l1.3,0.9c-0.3,0.2-0.9,0.9-1.7,2c-0.8,1.2-1.8,2.6-3.1,4.2c0.7-0.1,2.1-0.4,4.4-0.8v0.3
		c-1.3,0.3-2.3,0.6-3,0.9c-0.7,0.3-1.4,0.6-2.1,1.1l-0.8-1.5c0.5-0.1,1.1-0.7,1.8-1.5c0.7-0.9,1.3-1.7,1.8-2.6
		c-0.5,0.1-1,0.2-1.6,0.4c-0.6,0.2-1.1,0.5-1.5,0.9l-0.8-1.3c0.5-0.1,1.1-0.8,1.8-2C30.8-16.9,31.3-18.2,31.6-19.5z M28.2-6.1
		c1.3-0.2,2.4-0.4,3.2-0.5s2.1-0.4,3.9-0.8L35.3-7c-2.1,0.6-3.6,1.1-4.6,1.4c-1,0.3-1.6,0.6-1.8,0.9L28.2-6.1z"/>
</g>
<g>
	<path class="st3" d="M612,834l54.6-54.6l54.6-54.6l54.6-54.6l54.6-54.6l54.6-54.6l54.6-54.6L994,452l54.6-54.6l54.6-54.6l54.6-54.6
		l54.6-54.6l54.6-54.6l54.6-54.6L1376,70"/>
	<path class="st4" d="M612,829.4c2.5,0,4.6,2.1,4.6,4.6l0,0c0,2.5-2.1,4.6-4.6,4.6s-4.6-2.1-4.6-4.6S609.5,829.4,612,829.4z
		 M612,828.6c-3,0-5.4,2.4-5.4,5.4s2.4,5.4,5.4,5.4s5.4-2.4,5.4-5.4l0,0C617.4,831,615,828.6,612,828.6z"/>
	<path class="st4" d="M666.6,826.3c2.5,0,4.6,2.1,4.6,4.6l0,0c0,2.5-2.1,4.6-4.6,4.6s-4.6-2.1-4.6-4.6S664,826.3,666.6,826.3z
		 M666.6,825.5c-3,0-5.4,2.4-5.4,5.4s2.4,5.4,5.4,5.4s5.4-2.4,5.4-5.4l0,0C672,827.9,669.6,825.5,666.6,825.5z"/>
	<path class="st4" d="M721.1,821.6c2.5,0,4.6,2.1,4.6,4.6l0,0c0,2.5-2.1,4.6-4.6,4.6s-4.6-2.1-4.6-4.6S718.6,821.6,721.1,821.6z
		 M721.1,820.8c-3,0-5.4,2.4-5.4,5.4s2.4,5.4,5.4,5.4s5.4-2.4,5.4-5.4l0,0C726.6,823.2,724.1,820.8,721.1,820.8z"/>
	<path class="st4" d="M775.7,812.5c2.5,0,4.6,2.1,4.6,4.6l0,0c0,2.5-2.1,4.6-4.6,4.6s-4.6-2.1-4.6-4.6S773.2,812.5,775.7,812.5z
		 M775.7,811.6c-3,0-5.4,2.4-5.4,5.4s2.4,5.4,5.4,5.4s5.4-2.4,5.4-5.4l0,0C781.1,814.1,778.7,811.6,775.7,811.6z"/>
	<path class="st4" d="M830.3,798.1c2.5,0,4.6,2.1,4.6,4.6l0,0c0,2.5-2.1,4.6-4.6,4.6s-4.6-2.1-4.6-4.6S827.8,798.1,830.3,798.1z
		 M830.3,797.2c-3,0-5.4,2.4-5.4,5.4s2.4,5.4,5.4,5.4s5.4-2.4,5.4-5.4l0,0C835.7,799.7,833.3,797.2,830.3,797.2z"/>
	<path class="st4" d="M884.9,779.6c2.5,0,4.6,2.1,4.6,4.6l0,0c0,2.5-2.1,4.6-4.6,4.6s-4.6-2.1-4.6-4.6S882.3,779.6,884.9,779.6z
		 M884.9,778.7c-3,0-5.4,2.4-5.4,5.4s2.4,5.4,5.4,5.4s5.4-2.4,5.4-5.4l0,0C890.3,781.2,887.8,778.7,884.9,778.7z"/>
	<path class="st4" d="M939.4,760.6c2.5,0,4.6,2.1,4.6,4.6l0,0c0,2.5-2.1,4.6-4.6,4.6s-4.6-2.1-4.6-4.6S936.9,760.6,939.4,760.6z
		 M939.4,759.8c-3,0-5.4,2.4-5.4,5.4s2.4,5.4,5.4,5.4s5.4-2.4,5.4-5.4l0,0C944.8,762.2,942.4,759.8,939.4,759.8z"/>
	<path class="st4" d="M994,741.5c2.5,0,4.6,2.1,4.6,4.6l0,0c0,2.5-2.1,4.6-4.6,4.6s-4.6-2.1-4.6-4.6S991.5,741.5,994,741.5z
		 M994,740.7c-3,0-5.4,2.4-5.4,5.4s2.4,5.4,5.4,5.4s5.4-2.4,5.4-5.4l0,0C999.4,743.1,997,740.7,994,740.7z"/>
	<path class="st4" d="M1048.6,718.7c2.5,0,4.6,2.1,4.6,4.6l0,0c0,2.5-2.1,4.6-4.6,4.6s-4.6-2.1-4.6-4.6S1046,718.7,1048.6,718.7z
		 M1048.6,717.8c-3,0-5.4,2.4-5.4,5.4s2.4,5.4,5.4,5.4s5.4-2.4,5.4-5.4l0,0C1054,720.3,1051.6,717.8,1048.6,717.8z"/>
	<path class="st4" d="M1103.1,681c2.5,0,4.6,2.1,4.6,4.6l0,0c0,2.5-2.1,4.6-4.6,4.6s-4.6-2.1-4.6-4.6S1100.6,681,1103.1,681z
		 M1103.1,680.2c-3,0-5.4,2.4-5.4,5.4s2.4,5.4,5.4,5.4s5.4-2.4,5.4-5.4l0,0C1108.6,682.6,1106.1,680.2,1103.1,680.2z"/>
	<path class="st4" d="M1157.7,642.3c2.5,0,4.6,2.1,4.6,4.6l0,0c0,2.5-2.1,4.6-4.6,4.6s-4.6-2.1-4.6-4.6S1155.2,642.3,1157.7,642.3z
		 M1157.7,641.5c-3,0-5.4,2.4-5.4,5.4s2.4,5.4,5.4,5.4s5.4-2.4,5.4-5.4l0,0C1163.1,643.9,1160.7,641.5,1157.7,641.5z"/>
	<path class="st4" d="M1212.3,591.6c2.5,0,4.6,2.1,4.6,4.6l0,0c0,2.5-2.1,4.6-4.6,4.6s-4.6-2.1-4.6-4.6S1209.8,591.6,1212.3,591.6z
		 M1212.3,590.7c-3,0-5.4,2.4-5.4,5.4s2.4,5.4,5.4,5.4s5.4-2.4,5.4-5.4l0,0C1217.7,593.2,1215.3,590.7,1212.3,590.7z"/>
	<path class="st4" d="M1266.9,539.1c2.5,0,4.6,2.1,4.6,4.6l0,0c0,2.5-2.1,4.6-4.6,4.6s-4.6-2.1-4.6-4.6S1264.3,539.1,1266.9,539.1z
		 M1266.9,538.3c-3,0-5.4,2.4-5.4,5.4s2.4,5.4,5.4,5.4s5.4-2.4,5.4-5.4l0,0C1272.3,540.7,1269.8,538.3,1266.9,538.3z"/>
	<path class="st4" d="M1321.4,474.5c2.5,0,4.6,2.1,4.6,4.6l0,0c0,2.5-2.1,4.6-4.6,4.6s-4.6-2.1-4.6-4.6S1318.9,474.5,1321.4,474.5z
		 M1321.4,473.7c-3,0-5.4,2.4-5.4,5.4s2.4,5.4,5.4,5.4s5.4-2.4,5.4-5.4l0,0C1326.8,476.1,1324.4,473.7,1321.4,473.7z"/>
	<path class="st4" d="M1376,65.4c2.5,0,4.6,2.1,4.6,4.6l0,0c0,2.5-2.1,4.6-4.6,4.6s-4.6-2.1-4.6-4.6S1373.5,65.4,1376,65.4z
		 M1376,64.6c-3,0-5.4,2.4-5.4,5.4s2.4,5.4,5.4,5.4s5.4-2.4,5.4-5.4l0,0C1381.4,67,1379,64.6,1376,64.6z"/>
</g>
<g>
	<line class="st5" x1="612" y1="834" x2="1376" y2="70"/>
	<path class="st6" d="M612,834l54.6-3.1l54.6-4.7l54.6-9.1l54.6-14.4l54.6-18.5l54.6-19l54.6-19.1l54.6-22.8l54.6-37.7l54.6-38.7
		l54.6-50.7l54.6-52.5l54.6-64.6L1376,70"/>
</g>
<g transform="translate(612,834)">
	<path class="st7" d="M-4-4v8h8v-8H-4z"/>
</g>
<g transform="translate(612,834)">
	<path class="st8" d="M-4-4v8h8v-8H-4z"/>
</g>
<g transform="translate(666.5714,830.9086)">
	<path class="st7" d="M-4-4v8h8v-8H-4z"/>
</g>
<g transform="translate(666.5714,830.9086)">
	<path class="st8" d="M-4-4v8h8v-8H-4z"/>
</g>
<g transform="translate(721.1429,826.212)">
	<path class="st7" d="M-4-4v8h8v-8H-4z"/>
</g>
<g transform="translate(721.1429,826.212)">
	<path class="st8" d="M-4-4v8h8v-8H-4z"/>
</g>
<g transform="translate(775.7143,817.0623)">
	<path class="st7" d="M-4-4v8h8v-8H-4z"/>
</g>
<g transform="translate(775.7143,817.0623)">
	<path class="st8" d="M-4-4v8h8v-8H-4z"/>
</g>
<g transform="translate(830.2857,802.6631)">
	<path class="st7" d="M-4-4v8h8v-8H-4z"/>
</g>
<g transform="translate(830.2857,802.6631)">
	<path class="st8" d="M-4-4v8h8v-8H-4z"/>
</g>
<g transform="translate(884.8572,784.1559)">
	<path class="st7" d="M-4-4v8h8v-8H-4z"/>
</g>
<g transform="translate(884.8572,784.1559)">
	<path class="st8" d="M-4-4v8h8v-8H-4z"/>
</g>
<g transform="translate(939.4286,765.202)">
	<path class="st7" d="M-4-4v8h8v-8H-4z"/>
</g>
<g transform="translate(939.4286,765.202)">
	<path class="st8" d="M-4-4v8h8v-8H-4z"/>
</g>
<g transform="translate(994,746.0991)">
	<path class="st7" d="M-4-4v8h8v-8H-4z"/>
</g>
<g transform="translate(994,746.0991)">
	<path class="st8" d="M-4-4v8h8v-8H-4z"/>
</g>
<g transform="translate(1048.5714,723.2619)">
	<path class="st7" d="M-4-4v8h8v-8H-4z"/>
</g>
<g transform="translate(1048.5714,723.2619)">
	<path class="st8" d="M-4-4v8h8v-8H-4z"/>
</g>
<g transform="translate(1103.1428,685.6041)">
	<path class="st7" d="M-4-4v8h8v-8H-4z"/>
</g>
<g transform="translate(1103.1428,685.6041)">
	<path class="st8" d="M-4-4v8h8v-8H-4z"/>
</g>
<g transform="translate(1157.7144,646.8784)">
	<path class="st7" d="M-4-4v8h8v-8H-4z"/>
</g>
<g transform="translate(1157.7144,646.8784)">
	<path class="st8" d="M-4-4v8h8v-8H-4z"/>
</g>
<g transform="translate(1212.2856,596.152)">
	<path class="st7" d="M-4-4v8h8v-8H-4z"/>
</g>
<g transform="translate(1212.2856,596.152)">
	<path class="st8" d="M-4-4v8h8v-8H-4z"/>
</g>
<g transform="translate(1266.8572,543.6992)">
	<path class="st7" d="M-4-4v8h8v-8H-4z"/>
</g>
<g transform="translate(1266.8572,543.6992)">
	<path class="st8" d="M-4-4v8h8v-8H-4z"/>
</g>
<g transform="translate(1321.4286,479.0827)">
	<path class="st7" d="M-4-4v8h8v-8H-4z"/>
</g>
<g transform="translate(1321.4286,479.0827)">
	<path class="st8" d="M-4-4v8h8v-8H-4z"/>
</g>
<g transform="translate(1376,70)">
	<path class="st7" d="M-4-4v8h8v-8H-4z"/>
</g>
<g transform="translate(1376,70)">
	<path class="st8" d="M-4-4v8h8v-8H-4z"/>
</g>
<g>
	<path class="st3" d="M612,834l54.6-54.6l54.6-54.6l54.6-54.6l54.6-54.6l54.6-54.6l54.6-54.6L994,452l54.6-54.6l54.6-54.6l54.6-54.6
		l54.6-54.6l54.6-54.6l54.6-54.6L1376,70"/>
	<path class="st9" d="M612,829.4c2.5,0,4.6,2.1,4.6,4.6l0,0c0,2.5-2.1,4.6-4.6,4.6s-4.6-2.1-4.6-4.6S609.5,829.4,612,829.4z
		 M612,828.6c-3,0-5.4,2.4-5.4,5.4s2.4,5.4,5.4,5.4s5.4-2.4,5.4-5.4l0,0C617.4,831,615,828.6,612,828.6z"/>
	<path class="st9" d="M666.6,827.9c2.5,0,4.6,2.1,4.6,4.6l0,0c0,2.5-2.1,4.6-4.6,4.6s-4.6-2.1-4.6-4.6S664,827.9,666.6,827.9z
		 M666.6,827.1c-3,0-5.4,2.4-5.4,5.4s2.4,5.4,5.4,5.4s5.4-2.4,5.4-5.4l0,0C672,829.5,669.6,827.1,666.6,827.1z"/>
	<path class="st9" d="M721.1,825.5c2.5,0,4.6,2.1,4.6,4.6l0,0c0,2.5-2.1,4.6-4.6,4.6s-4.6-2.1-4.6-4.6S718.6,825.5,721.1,825.5z
		 M721.1,824.7c-3,0-5.4,2.4-5.4,5.4s2.4,5.4,5.4,5.4s5.4-2.4,5.4-5.4l0,0C726.6,827.1,724.1,824.7,721.1,824.7z"/>
	<path class="st9" d="M775.7,819.1c2.5,0,4.6,2.1,4.6,4.6l0,0c0,2.5-2.1,4.6-4.6,4.6s-4.6-2.1-4.6-4.6S773.2,819.1,775.7,819.1z
		 M775.7,818.3c-3,0-5.4,2.4-5.4,5.4s2.4,5.4,5.4,5.4s5.4-2.4,5.4-5.4l0,0C781.1,820.7,778.7,818.3,775.7,818.3z"/>
	<path class="st9" d="M830.3,812.4c2.5,0,4.6,2.1,4.6,4.6l0,0c0,2.5-2.1,4.6-4.6,4.6s-4.6-2.1-4.6-4.6S827.8,812.4,830.3,812.4z
		 M830.3,811.6c-3,0-5.4,2.4-5.4,5.4s2.4,5.4,5.4,5.4s5.4-2.4,5.4-5.4l0,0C835.7,814,833.3,811.6,830.3,811.6z"/>
	<path class="st9" d="M884.9,805.7c2.5,0,4.6,2.1,4.6,4.6l0,0c0,2.5-2.1,4.6-4.6,4.6s-4.6-2.1-4.6-4.6S882.3,805.7,884.9,805.7z
		 M884.9,804.8c-3,0-5.4,2.4-5.4,5.4s2.4,5.4,5.4,5.4s5.4-2.4,5.4-5.4l0,0C890.3,807.3,887.8,804.8,884.9,804.8z"/>
	<path class="st9" d="M939.4,798.6c2.5,0,4.6,2.1,4.6,4.6l0,0c0,2.5-2.1,4.6-4.6,4.6s-4.6-2.1-4.6-4.6S936.9,798.6,939.4,798.6z
		 M939.4,797.7c-3,0-5.4,2.4-5.4,5.4s2.4,5.4,5.4,5.4s5.4-2.4,5.4-5.4l0,0C944.8,800.1,942.4,797.7,939.4,797.7z"/>
	<path class="st9" d="M994,785.2c2.5,0,4.6,2.1,4.6,4.6l0,0c0,2.5-2.1,4.6-4.6,4.6s-4.6-2.1-4.6-4.6S991.5,785.2,994,785.2z
		 M994,784.4c-3,0-5.4,2.4-5.4,5.4s2.4,5.4,5.4,5.4s5.4-2.4,5.4-5.4l0,0C999.4,786.8,997,784.4,994,784.4z"/>
	<path class="st9" d="M1048.6,769.9c2.5,0,4.6,2.1,4.6,4.6l0,0c0,2.5-2.1,4.6-4.6,4.6s-4.6-2.1-4.6-4.6S1046,769.9,1048.6,769.9z
		 M1048.6,769c-3,0-5.4,2.4-5.4,5.4s2.4,5.4,5.4,5.4s5.4-2.4,5.4-5.4l0,0C1054,771.4,1051.6,769,1048.6,769z"/>
	<path class="st9" d="M1103.1,752.3c2.5,0,4.6,2.1,4.6,4.6l0,0c0,2.5-2.1,4.6-4.6,4.6s-4.6-2.1-4.6-4.6S1100.6,752.3,1103.1,752.3z
		 M1103.1,751.4c-3,0-5.4,2.4-5.4,5.4s2.4,5.4,5.4,5.4s5.4-2.4,5.4-5.4l0,0C1108.6,753.9,1106.1,751.4,1103.1,751.4z"/>
	<path class="st9" d="M1157.7,733.6c2.5,0,4.6,2.1,4.6,4.6l0,0c0,2.5-2.1,4.6-4.6,4.6s-4.6-2.1-4.6-4.6S1155.2,733.6,1157.7,733.6z
		 M1157.7,732.8c-3,0-5.4,2.4-5.4,5.4s2.4,5.4,5.4,5.4s5.4-2.4,5.4-5.4l0,0C1163.1,735.2,1160.7,732.8,1157.7,732.8z"/>
	<path class="st9" d="M1212.3,711.7c2.5,0,4.6,2.1,4.6,4.6l0,0c0,2.5-2.1,4.6-4.6,4.6s-4.6-2.1-4.6-4.6S1209.8,711.7,1212.3,711.7z
		 M1212.3,710.9c-3,0-5.4,2.4-5.4,5.4s2.4,5.4,5.4,5.4s5.4-2.4,5.4-5.4l0,0C1217.7,713.3,1215.3,710.9,1212.3,710.9z"/>
	<path class="st9" d="M1266.9,689.5c2.5,0,4.6,2.1,4.6,4.6l0,0c0,2.5-2.1,4.6-4.6,4.6s-4.6-2.1-4.6-4.6S1264.3,689.5,1266.9,689.5z
		 M1266.9,688.7c-3,0-5.4,2.4-5.4,5.4s2.4,5.4,5.4,5.4s5.4-2.4,5.4-5.4l0,0C1272.3,691.1,1269.8,688.7,1266.9,688.7z"/>
	<path class="st9" d="M1321.4,610.1c2.5,0,4.6,2.1,4.6,4.6l0,0c0,2.5-2.1,4.6-4.6,4.6s-4.6-2.1-4.6-4.6S1318.9,610.1,1321.4,610.1z
		 M1321.4,609.3c-3,0-5.4,2.4-5.4,5.4s2.4,5.4,5.4,5.4s5.4-2.4,5.4-5.4l0,0C1326.8,611.7,1324.4,609.3,1321.4,609.3z"/>
	<path class="st9" d="M1376,65.4c2.5,0,4.6,2.1,4.6,4.6l0,0c0,2.5-2.1,4.6-4.6,4.6s-4.6-2.1-4.6-4.6S1373.5,65.4,1376,65.4z
		 M1376,64.6c-3,0-5.4,2.4-5.4,5.4s2.4,5.4,5.4,5.4s5.4-2.4,5.4-5.4l0,0C1381.4,67,1379,64.6,1376,64.6z"/>
</g>
<g>
	<line class="st10" x1="612" y1="834" x2="1376" y2="70"/>
	<path class="st11" d="M612,834l54.6-1.5l54.6-2.4l54.6-6.4l54.6-6.7l54.6-6.8l54.6-7.1l54.6-13.3l54.6-15.4l54.6-17.6l54.6-18.6
		l54.6-21.9l54.6-22.2l54.6-79.5L1376,70"/>
</g>
<g transform="translate(612,834)">
	<path class="st9" d="M-4-4v8h8v-8H-4z"/>
</g>
<g transform="translate(612,834)">
	<path class="st12" d="M-4-4v8h8v-8H-4z"/>
</g>
<g transform="translate(666.5714,832.5038)">
	<path class="st9" d="M-4-4v8h8v-8H-4z"/>
</g>
<g transform="translate(666.5714,832.5038)">
	<path class="st12" d="M-4-4v8h8v-8H-4z"/>
</g>
<g transform="translate(721.1429,830.1287)">
	<path class="st9" d="M-4-4v8h8v-8H-4z"/>
</g>
<g transform="translate(721.1429,830.1287)">
	<path class="st12" d="M-4-4v8h8v-8H-4z"/>
</g>
<g transform="translate(775.7143,823.7227)">
	<path class="st9" d="M-4-4v8h8v-8H-4z"/>
</g>
<g transform="translate(775.7143,823.7227)">
	<path class="st12" d="M-4-4v8h8v-8H-4z"/>
</g>
<g transform="translate(830.2857,817.0078)">
	<path class="st9" d="M-4-4v8h8v-8H-4z"/>
</g>
<g transform="translate(830.2857,817.0078)">
	<path class="st12" d="M-4-4v8h8v-8H-4z"/>
</g>
<g transform="translate(884.8572,810.2578)">
	<path class="st9" d="M-4-4v8h8v-8H-4z"/>
</g>
<g transform="translate(884.8572,810.2578)">
	<path class="st12" d="M-4-4v8h8v-8H-4z"/>
</g>
<g transform="translate(939.4286,803.1365)">
	<path class="st9" d="M-4-4v8h8v-8H-4z"/>
</g>
<g transform="translate(939.4286,803.1365)">
	<path class="st12" d="M-4-4v8h8v-8H-4z"/>
</g>
<g transform="translate(994,789.8165)">
	<path class="st9" d="M-4-4v8h8v-8H-4z"/>
</g>
<g transform="translate(994,789.8165)">
	<path class="st12" d="M-4-4v8h8v-8H-4z"/>
</g>
<g transform="translate(1048.5714,774.4358)">
	<path class="st9" d="M-4-4v8h8v-8H-4z"/>
</g>
<g transform="translate(1048.5714,774.4358)">
	<path class="st12" d="M-4-4v8h8v-8H-4z"/>
</g>
<g transform="translate(1103.1428,756.8658)">
	<path class="st9" d="M-4-4v8h8v-8H-4z"/>
</g>
<g transform="translate(1103.1428,756.8658)">
	<path class="st12" d="M-4-4v8h8v-8H-4z"/>
</g>
<g transform="translate(1157.7144,738.2258)">
	<path class="st9" d="M-4-4v8h8v-8H-4z"/>
</g>
<g transform="translate(1157.7144,738.2258)">
	<path class="st12" d="M-4-4v8h8v-8H-4z"/>
</g>
<g transform="translate(1212.2856,716.3114)">
	<path class="st9" d="M-4-4v8h8v-8H-4z"/>
</g>
<g transform="translate(1212.2856,716.3114)">
	<path class="st12" d="M-4-4v8h8v-8H-4z"/>
</g>
<g transform="translate(1266.8572,694.1261)">
	<path class="st9" d="M-4-4v8h8v-8H-4z"/>
</g>
<g transform="translate(1266.8572,694.1261)">
	<path class="st12" d="M-4-4v8h8v-8H-4z"/>
</g>
<g transform="translate(1321.4286,614.6685)">
	<path class="st9" d="M-4-4v8h8v-8H-4z"/>
</g>
<g transform="translate(1321.4286,614.6685)">
	<path class="st12" d="M-4-4v8h8v-8H-4z"/>
</g>
<g transform="translate(1376,70)">
	<path class="st9" d="M-4-4v8h8v-8H-4z"/>
</g>
<g transform="translate(1376,70)">
	<path class="st12" d="M-4-4v8h8v-8H-4z"/>
</g>
<g>
	<path class="st3" d="M612,834l54.6-54.6l54.6-54.6l54.6-54.6l54.6-54.6l54.6-54.6l54.6-54.6L994,452l54.6-54.6l54.6-54.6l54.6-54.6
		l54.6-54.6l54.6-54.6l54.6-54.6L1376,70"/>
	<path class="st7" d="M612,829.4c2.5,0,4.6,2.1,4.6,4.6l0,0c0,2.5-2.1,4.6-4.6,4.6s-4.6-2.1-4.6-4.6S609.5,829.4,612,829.4z
		 M612,828.6c-3,0-5.4,2.4-5.4,5.4s2.4,5.4,5.4,5.4s5.4-2.4,5.4-5.4l0,0C617.4,831,615,828.6,612,828.6z"/>
	<path class="st7" d="M666.6,828.6c2.5,0,4.6,2.1,4.6,4.6l0,0c0,2.5-2.1,4.6-4.6,4.6s-4.6-2.1-4.6-4.6S664,828.6,666.6,828.6z
		 M666.6,827.8c-3,0-5.4,2.4-5.4,5.4s2.4,5.4,5.4,5.4s5.4-2.4,5.4-5.4l0,0C672,830.2,669.6,827.8,666.6,827.8z"/>
	<path class="st7" d="M721.1,825.9c2.5,0,4.6,2.1,4.6,4.6l0,0c0,2.5-2.1,4.6-4.6,4.6s-4.6-2.1-4.6-4.6S718.6,825.9,721.1,825.9z
		 M721.1,825.1c-3,0-5.4,2.4-5.4,5.4s2.4,5.4,5.4,5.4s5.4-2.4,5.4-5.4l0,0C726.6,827.5,724.1,825.1,721.1,825.1z"/>
	<path class="st7" d="M775.7,820c2.5,0,4.6,2.1,4.6,4.6l0,0c0,2.5-2.1,4.6-4.6,4.6s-4.6-2.1-4.6-4.6S773.2,820,775.7,820z
		 M775.7,819.2c-3,0-5.4,2.4-5.4,5.4s2.4,5.4,5.4,5.4s5.4-2.4,5.4-5.4l0,0C781.1,821.6,778.7,819.2,775.7,819.2z"/>
	<path class="st7" d="M830.3,813.8c2.5,0,4.6,2.1,4.6,4.6l0,0c0,2.5-2.1,4.6-4.6,4.6s-4.6-2.1-4.6-4.6S827.8,813.8,830.3,813.8z
		 M830.3,812.9c-3,0-5.4,2.4-5.4,5.4s2.4,5.4,5.4,5.4s5.4-2.4,5.4-5.4l0,0C835.7,815.4,833.3,812.9,830.3,812.9z"/>
	<path class="st7" d="M884.9,806.9c2.5,0,4.6,2.1,4.6,4.6l0,0c0,2.5-2.1,4.6-4.6,4.6s-4.6-2.1-4.6-4.6S882.3,806.9,884.9,806.9z
		 M884.9,806.1c-3,0-5.4,2.4-5.4,5.4s2.4,5.4,5.4,5.4s5.4-2.4,5.4-5.4l0,0C890.3,808.5,887.8,806.1,884.9,806.1z"/>
	<path class="st7" d="M939.4,799.6c2.5,0,4.6,2.1,4.6,4.6l0,0c0,2.5-2.1,4.6-4.6,4.6s-4.6-2.1-4.6-4.6S936.9,799.6,939.4,799.6z
		 M939.4,798.8c-3,0-5.4,2.4-5.4,5.4s2.4,5.4,5.4,5.4s5.4-2.4,5.4-5.4l0,0C944.8,801.2,942.4,798.8,939.4,798.8z"/>
	<path class="st7" d="M994,791.8c2.5,0,4.6,2.1,4.6,4.6l0,0c0,2.5-2.1,4.6-4.6,4.6s-4.6-2.1-4.6-4.6S991.5,791.8,994,791.8z
		 M994,790.9c-3,0-5.4,2.4-5.4,5.4s2.4,5.4,5.4,5.4s5.4-2.4,5.4-5.4l0,0C999.4,793.4,997,790.9,994,790.9z"/>
	<path class="st7" d="M1048.6,780c2.5,0,4.6,2.1,4.6,4.6l0,0c0,2.5-2.1,4.6-4.6,4.6s-4.6-2.1-4.6-4.6S1046,780,1048.6,780z
		 M1048.6,779.1c-3,0-5.4,2.4-5.4,5.4s2.4,5.4,5.4,5.4s5.4-2.4,5.4-5.4l0,0C1054,781.6,1051.6,779.1,1048.6,779.1z"/>
	<path class="st7" d="M1103.1,767.9c2.5,0,4.6,2.1,4.6,4.6l0,0c0,2.5-2.1,4.6-4.6,4.6s-4.6-2.1-4.6-4.6S1100.6,767.9,1103.1,767.9z
		 M1103.1,767c-3,0-5.4,2.4-5.4,5.4s2.4,5.4,5.4,5.4s5.4-2.4,5.4-5.4l0,0C1108.6,769.4,1106.1,767,1103.1,767z"/>
	<path class="st7" d="M1157.7,749.6c2.5,0,4.6,2.1,4.6,4.6l0,0c0,2.5-2.1,4.6-4.6,4.6s-4.6-2.1-4.6-4.6S1155.2,749.6,1157.7,749.6z
		 M1157.7,748.8c-3,0-5.4,2.4-5.4,5.4s2.4,5.4,5.4,5.4s5.4-2.4,5.4-5.4l0,0C1163.1,751.2,1160.7,748.8,1157.7,748.8z"/>
	<path class="st7" d="M1212.3,725.4c2.5,0,4.6,2.1,4.6,4.6l0,0c0,2.5-2.1,4.6-4.6,4.6s-4.6-2.1-4.6-4.6S1209.8,725.4,1212.3,725.4z
		 M1212.3,724.6c-3,0-5.4,2.4-5.4,5.4s2.4,5.4,5.4,5.4s5.4-2.4,5.4-5.4l0,0C1217.7,727,1215.3,724.6,1212.3,724.6z"/>
	<path class="st7" d="M1266.9,700.8c2.5,0,4.6,2.1,4.6,4.6l0,0c0,2.5-2.1,4.6-4.6,4.6s-4.6-2.1-4.6-4.6S1264.3,700.8,1266.9,700.8z
		 M1266.9,700c-3,0-5.4,2.4-5.4,5.4s2.4,5.4,5.4,5.4s5.4-2.4,5.4-5.4l0,0C1272.3,702.4,1269.8,700,1266.9,700z"/>
	<path class="st7" d="M1321.4,615.9c2.5,0,4.6,2.1,4.6,4.6l0,0c0,2.5-2.1,4.6-4.6,4.6s-4.6-2.1-4.6-4.6S1318.9,615.9,1321.4,615.9z
		 M1321.4,615.1c-3,0-5.4,2.4-5.4,5.4s2.4,5.4,5.4,5.4s5.4-2.4,5.4-5.4l0,0C1326.8,617.5,1324.4,615.1,1321.4,615.1z"/>
	<path class="st7" d="M1376,65.4c2.5,0,4.6,2.1,4.6,4.6l0,0c0,2.5-2.1,4.6-4.6,4.6s-4.6-2.1-4.6-4.6S1373.5,65.4,1376,65.4z
		 M1376,64.6c-3,0-5.4,2.4-5.4,5.4s2.4,5.4,5.4,5.4s5.4-2.4,5.4-5.4l0,0C1381.4,67,1379,64.6,1376,64.6z"/>
</g>
<g>
	<line class="st13" x1="612" y1="834" x2="1376" y2="70"/>
	<path class="st14" d="M612,834l54.6-0.8l54.6-2.7l54.6-5.9l54.6-6.2l54.6-6.9l54.6-7.3l54.6-7.9l54.6-11.8l54.6-12.1l54.6-18.2
		l54.6-24.2l54.6-24.6l54.6-84.9L1376,70"/>
</g>
<g transform="translate(612,834)">
	<path class="st15" d="M-4-4v8h8v-8H-4z"/>
</g>
<g transform="translate(612,834)">
	<path class="st16" d="M-4-4v8h8v-8H-4z"/>
</g>
<g transform="translate(666.5714,833.1897)">
	<path class="st15" d="M-4-4v8h8v-8H-4z"/>
</g>
<g transform="translate(666.5714,833.1897)">
	<path class="st16" d="M-4-4v8h8v-8H-4z"/>
</g>
<g transform="translate(721.1429,830.506)">
	<path class="st15" d="M-4-4v8h8v-8H-4z"/>
</g>
<g transform="translate(721.1429,830.506)">
	<path class="st16" d="M-4-4v8h8v-8H-4z"/>
</g>
<g transform="translate(775.7143,824.5952)">
	<path class="st15" d="M-4-4v8h8v-8H-4z"/>
</g>
<g transform="translate(775.7143,824.5952)">
	<path class="st16" d="M-4-4v8h8v-8H-4z"/>
</g>
<g transform="translate(830.2857,818.3507)">
	<path class="st15" d="M-4-4v8h8v-8H-4z"/>
</g>
<g transform="translate(830.2857,818.3507)">
	<path class="st16" d="M-4-4v8h8v-8H-4z"/>
</g>
<g transform="translate(884.8572,811.4755)">
	<path class="st15" d="M-4-4v8h8v-8H-4z"/>
</g>
<g transform="translate(884.8572,811.4755)">
	<path class="st16" d="M-4-4v8h8v-8H-4z"/>
</g>
<g transform="translate(939.4286,804.217)">
	<path class="st15" d="M-4-4v8h8v-8H-4z"/>
</g>
<g transform="translate(939.4286,804.217)">
	<path class="st16" d="M-4-4v8h8v-8H-4z"/>
</g>
<g transform="translate(994,796.3608)">
	<path class="st15" d="M-4-4v8h8v-8H-4z"/>
</g>
<g transform="translate(994,796.3608)">
	<path class="st16" d="M-4-4v8h8v-8H-4z"/>
</g>
<g transform="translate(1048.5714,784.5663)">
	<path class="st15" d="M-4-4v8h8v-8H-4z"/>
</g>
<g transform="translate(1048.5714,784.5663)">
	<path class="st16" d="M-4-4v8h8v-8H-4z"/>
</g>
<g transform="translate(1103.1428,772.4374)">
	<path class="st15" d="M-4-4v8h8v-8H-4z"/>
</g>
<g transform="translate(1103.1428,772.4374)">
	<path class="st16" d="M-4-4v8h8v-8H-4z"/>
</g>
<g transform="translate(1157.7144,754.2325)">
	<path class="st15" d="M-4-4v8h8v-8H-4z"/>
</g>
<g transform="translate(1157.7144,754.2325)">
	<path class="st16" d="M-4-4v8h8v-8H-4z"/>
</g>
<g transform="translate(1212.2856,730.0077)">
	<path class="st15" d="M-4-4v8h8v-8H-4z"/>
</g>
<g transform="translate(1212.2856,730.0077)">
	<path class="st16" d="M-4-4v8h8v-8H-4z"/>
</g>
<g transform="translate(1266.8572,705.4011)">
	<path class="st15" d="M-4-4v8h8v-8H-4z"/>
</g>
<g transform="translate(1266.8572,705.4011)">
	<path class="st16" d="M-4-4v8h8v-8H-4z"/>
</g>
<g transform="translate(1321.4286,620.4988)">
	<path class="st15" d="M-4-4v8h8v-8H-4z"/>
</g>
<g transform="translate(1321.4286,620.4988)">
	<path class="st16" d="M-4-4v8h8v-8H-4z"/>
</g>
<g transform="translate(1376,70)">
	<path class="st15" d="M-4-4v8h8v-8H-4z"/>
</g>
<g transform="translate(1376,70)">
	<path class="st16" d="M-4-4v8h8v-8H-4z"/>
</g>
<g>
	<path class="st3" d="M612,834l54.6-54.6l54.6-54.6l54.6-54.6l54.6-54.6l54.6-54.6l54.6-54.6L994,452l54.6-54.6l54.6-54.6l54.6-54.6
		l54.6-54.6l54.6-54.6l54.6-54.6L1376,70"/>
	<path class="st17" d="M612,829.4c2.5,0,4.6,2.1,4.6,4.6l0,0c0,2.5-2.1,4.6-4.6,4.6s-4.6-2.1-4.6-4.6S609.5,829.4,612,829.4z
		 M612,828.6c-3,0-5.4,2.4-5.4,5.4s2.4,5.4,5.4,5.4s5.4-2.4,5.4-5.4l0,0C617.4,831,615,828.6,612,828.6z"/>
	<path class="st17" d="M666.6,828.1c2.5,0,4.6,2.1,4.6,4.6l0,0c0,2.5-2.1,4.6-4.6,4.6s-4.6-2.1-4.6-4.6S664,828.1,666.6,828.1z
		 M666.6,827.3c-3,0-5.4,2.4-5.4,5.4s2.4,5.4,5.4,5.4s5.4-2.4,5.4-5.4l0,0C672,829.7,669.6,827.3,666.6,827.3z"/>
	<path class="st17" d="M721.1,823.2c2.5,0,4.6,2.1,4.6,4.6l0,0c0,2.5-2.1,4.6-4.6,4.6s-4.6-2.1-4.6-4.6S718.6,823.2,721.1,823.2z
		 M721.1,822.4c-3,0-5.4,2.4-5.4,5.4s2.4,5.4,5.4,5.4s5.4-2.4,5.4-5.4l0,0C726.6,824.8,724.1,822.4,721.1,822.4z"/>
	<path class="st17" d="M775.7,818.2c2.5,0,4.6,2.1,4.6,4.6l0,0c0,2.5-2.1,4.6-4.6,4.6s-4.6-2.1-4.6-4.6S773.2,818.2,775.7,818.2z
		 M775.7,817.3c-3,0-5.4,2.4-5.4,5.4s2.4,5.4,5.4,5.4s5.4-2.4,5.4-5.4l0,0C781.1,819.8,778.7,817.3,775.7,817.3z"/>
	<path class="st17" d="M830.3,813c2.5,0,4.6,2.1,4.6,4.6l0,0c0,2.5-2.1,4.6-4.6,4.6s-4.6-2.1-4.6-4.6S827.8,813,830.3,813z
		 M830.3,812.1c-3,0-5.4,2.4-5.4,5.4s2.4,5.4,5.4,5.4s5.4-2.4,5.4-5.4l0,0C835.7,814.6,833.3,812.1,830.3,812.1z"/>
	<path class="st17" d="M884.9,806.3c2.5,0,4.6,2.1,4.6,4.6l0,0c0,2.5-2.1,4.6-4.6,4.6s-4.6-2.1-4.6-4.6S882.3,806.3,884.9,806.3z
		 M884.9,805.5c-3,0-5.4,2.4-5.4,5.4s2.4,5.4,5.4,5.4s5.4-2.4,5.4-5.4l0,0C890.3,807.9,887.8,805.5,884.9,805.5z"/>
	<path class="st17" d="M939.4,796.2c2.5,0,4.6,2.1,4.6,4.6l0,0c0,2.5-2.1,4.6-4.6,4.6s-4.6-2.1-4.6-4.6S936.9,796.2,939.4,796.2z
		 M939.4,795.4c-3,0-5.4,2.4-5.4,5.4s2.4,5.4,5.4,5.4s5.4-2.4,5.4-5.4l0,0C944.8,797.8,942.4,795.4,939.4,795.4z"/>
	<path class="st17" d="M994,784.8c2.5,0,4.6,2.1,4.6,4.6l0,0c0,2.5-2.1,4.6-4.6,4.6s-4.6-2.1-4.6-4.6S991.5,784.8,994,784.8z
		 M994,783.9c-3,0-5.4,2.4-5.4,5.4s2.4,5.4,5.4,5.4s5.4-2.4,5.4-5.4l0,0C999.4,786.4,997,783.9,994,783.9z"/>
	<path class="st17" d="M1048.6,771.1c2.5,0,4.6,2.1,4.6,4.6l0,0c0,2.5-2.1,4.6-4.6,4.6s-4.6-2.1-4.6-4.6S1046,771.1,1048.6,771.1z
		 M1048.6,770.3c-3,0-5.4,2.4-5.4,5.4s2.4,5.4,5.4,5.4s5.4-2.4,5.4-5.4l0,0C1054,772.7,1051.6,770.3,1048.6,770.3z"/>
	<path class="st17" d="M1103.1,756c2.5,0,4.6,2.1,4.6,4.6l0,0c0,2.5-2.1,4.6-4.6,4.6s-4.6-2.1-4.6-4.6S1100.6,756,1103.1,756z
		 M1103.1,755.2c-3,0-5.4,2.4-5.4,5.4s2.4,5.4,5.4,5.4s5.4-2.4,5.4-5.4l0,0C1108.6,757.6,1106.1,755.2,1103.1,755.2z"/>
	<path class="st17" d="M1157.7,739.9c2.5,0,4.6,2.1,4.6,4.6l0,0c0,2.5-2.1,4.6-4.6,4.6s-4.6-2.1-4.6-4.6S1155.2,739.9,1157.7,739.9z
		 M1157.7,739c-3,0-5.4,2.4-5.4,5.4s2.4,5.4,5.4,5.4s5.4-2.4,5.4-5.4l0,0C1163.1,741.5,1160.7,739,1157.7,739z"/>
	<path class="st17" d="M1212.3,714.1c2.5,0,4.6,2.1,4.6,4.6l0,0c0,2.5-2.1,4.6-4.6,4.6s-4.6-2.1-4.6-4.6S1209.8,714.1,1212.3,714.1z
		 M1212.3,713.3c-3,0-5.4,2.4-5.4,5.4s2.4,5.4,5.4,5.4s5.4-2.4,5.4-5.4l0,0C1217.7,715.7,1215.3,713.3,1212.3,713.3z"/>
	<path class="st17" d="M1266.9,672c2.5,0,4.6,2.1,4.6,4.6l0,0c0,2.5-2.1,4.6-4.6,4.6s-4.6-2.1-4.6-4.6S1264.3,672,1266.9,672z
		 M1266.9,671.1c-3,0-5.4,2.4-5.4,5.4s2.4,5.4,5.4,5.4s5.4-2.4,5.4-5.4l0,0C1272.3,673.6,1269.8,671.1,1266.9,671.1z"/>
	<path class="st17" d="M1321.4,618.5c2.5,0,4.6,2.1,4.6,4.6l0,0c0,2.5-2.1,4.6-4.6,4.6s-4.6-2.1-4.6-4.6S1318.9,618.5,1321.4,618.5z
		 M1321.4,617.7c-3,0-5.4,2.4-5.4,5.4s2.4,5.4,5.4,5.4s5.4-2.4,5.4-5.4l0,0C1326.8,620.1,1324.4,617.7,1321.4,617.7z"/>
	<path class="st17" d="M1376,65.4c2.5,0,4.6,2.1,4.6,4.6l0,0c0,2.5-2.1,4.6-4.6,4.6s-4.6-2.1-4.6-4.6S1373.5,65.4,1376,65.4z
		 M1376,64.6c-3,0-5.4,2.4-5.4,5.4s2.4,5.4,5.4,5.4s5.4-2.4,5.4-5.4l0,0C1381.4,67,1379,64.6,1376,64.6z"/>
</g>
<g>
	<line class="st18" x1="612" y1="834" x2="1376" y2="70"/>
	<path class="st19" d="M612,834l54.6-1.3l54.6-4.9l54.6-5l54.6-5.2l54.6-6.7l54.6-10.1l54.6-11.5l54.6-13.6l54.6-15.1l54.6-16.1
		l54.6-25.7l54.6-42.2l54.6-53.5L1376,70"/>
</g>
<g transform="translate(612,834)">
	<path class="st20" d="M-4-4v8h8v-8H-4z"/>
</g>
<g transform="translate(612,834)">
	<path class="st21" d="M-4-4v8h8v-8H-4z"/>
</g>
<g transform="translate(666.5714,832.6779)">
	<path class="st20" d="M-4-4v8h8v-8H-4z"/>
</g>
<g transform="translate(666.5714,832.6779)">
	<path class="st21" d="M-4-4v8h8v-8H-4z"/>
</g>
<g transform="translate(721.1429,827.7924)">
	<path class="st20" d="M-4-4v8h8v-8H-4z"/>
</g>
<g transform="translate(721.1429,827.7924)">
	<path class="st21" d="M-4-4v8h8v-8H-4z"/>
</g>
<g transform="translate(775.7143,822.7507)">
	<path class="st20" d="M-4-4v8h8v-8H-4z"/>
</g>
<g transform="translate(775.7143,822.7507)">
	<path class="st21" d="M-4-4v8h8v-8H-4z"/>
</g>
<g transform="translate(830.2857,817.5641)">
	<path class="st20" d="M-4-4v8h8v-8H-4z"/>
</g>
<g transform="translate(830.2857,817.5641)">
	<path class="st21" d="M-4-4v8h8v-8H-4z"/>
</g>
<g transform="translate(884.8572,810.8885)">
	<path class="st20" d="M-4-4v8h8v-8H-4z"/>
</g>
<g transform="translate(884.8572,810.8885)">
	<path class="st21" d="M-4-4v8h8v-8H-4z"/>
</g>
<g transform="translate(939.4286,800.8237)">
	<path class="st20" d="M-4-4v8h8v-8H-4z"/>
</g>
<g transform="translate(939.4286,800.8237)">
	<path class="st21" d="M-4-4v8h8v-8H-4z"/>
</g>
<g transform="translate(994,789.3467)">
	<path class="st20" d="M-4-4v8h8v-8H-4z"/>
</g>
<g transform="translate(994,789.3467)">
	<path class="st21" d="M-4-4v8h8v-8H-4z"/>
</g>
<g transform="translate(1048.5714,775.7274)">
	<path class="st20" d="M-4-4v8h8v-8H-4z"/>
</g>
<g transform="translate(1048.5714,775.7274)">
	<path class="st21" d="M-4-4v8h8v-8H-4z"/>
</g>
<g transform="translate(1103.1428,760.5931)">
	<path class="st20" d="M-4-4v8h8v-8H-4z"/>
</g>
<g transform="translate(1103.1428,760.5931)">
	<path class="st21" d="M-4-4v8h8v-8H-4z"/>
</g>
<g transform="translate(1157.7144,744.4565)">
	<path class="st20" d="M-4-4v8h8v-8H-4z"/>
</g>
<g transform="translate(1157.7144,744.4565)">
	<path class="st21" d="M-4-4v8h8v-8H-4z"/>
</g>
<g transform="translate(1212.2856,718.7302)">
	<path class="st20" d="M-4-4v8h8v-8H-4z"/>
</g>
<g transform="translate(1212.2856,718.7302)">
	<path class="st21" d="M-4-4v8h8v-8H-4z"/>
</g>
<g transform="translate(1266.8572,676.5639)">
	<path class="st20" d="M-4-4v8h8v-8H-4z"/>
</g>
<g transform="translate(1266.8572,676.5639)">
	<path class="st21" d="M-4-4v8h8v-8H-4z"/>
</g>
<g transform="translate(1321.4286,623.0778)">
	<path class="st20" d="M-4-4v8h8v-8H-4z"/>
</g>
<g transform="translate(1321.4286,623.0778)">
	<path class="st21" d="M-4-4v8h8v-8H-4z"/>
</g>
<g transform="translate(1376,70)">
	<path class="st20" d="M-4-4v8h8v-8H-4z"/>
</g>
<g transform="translate(1376,70)">
	<path class="st21" d="M-4-4v8h8v-8H-4z"/>
</g>
<g>
	<g>
		<path class="st6" d="M727.5,246.3h50.1H727.5z"/>
	</g>
	<g transform="translate(735.0684,212.0285)">
		<path class="st7" d="M11.5,30.3v8h8v-8H11.5z"/>
	</g>
	<g transform="translate(735.0684,212.0285)">
		<path class="st8" d="M12.5,30.3v8h8v-8H12.5z"/>
	</g>
	<g>
		<line class="st14" x1="725.5" y1="216.2" x2="775.7" y2="216.2"/>
	</g>
	<g transform="translate(735.0684,315.1844)">
		<path class="st15" d="M11.5-103v8h8v-8H11.5z"/>
	</g>
	<g transform="translate(735.0684,315.1844)">
		<path class="st16" d="M11.5-103v8h8v-8H11.5z"/>
	</g>
	<g>
		<line class="st19" x1="726.6" y1="189.9" x2="776.7" y2="189.9"/>
	</g>
	<g transform="translate(735.0684,418.3403)">
		<path class="st20" d="M12.5-232.5v8h8v-8H12.5z"/>
	</g>
	<g transform="translate(735.0684,418.3403)">
		<path class="st21" d="M12.5-232.5v8h8v-8H12.5z"/>
	</g>
	<g>
		<path class="st12" d="M727.7,166.2h50.1H727.7z"/>
	</g>
	<g transform="translate(735.0684,521.4963)">
		<path class="st9" d="M11.7-358.7v8h8v-8H11.7z"/>
	</g>
	<path class="st9" d="M746.8,162.8v6.9h8v-6.9H746.8z"/>
	<path class="st22" d="M694.6,285.3V121.7h213.5v163.6H694.6z"/>
	<g>
		<line class="st18" x1="727.6" y1="143.4" x2="777.7" y2="143.4"/>
	</g>
	<text transform="matrix(1 0 0 1 792.7982 142.3773)" class="st23 st24">绝对平均线</text>
	<text transform="matrix(1 0 0 1 790.5084 193.8704)" class="st23 st24">执业医师和注册护士</text>
	<text transform="matrix(1 0 0 1 790.3618 251.4831)" class="st23 st24">床位</text>
	<text transform="matrix(1 0 0 1 792.225 168.2606)" class="st23 st24">医疗机构</text>
	<text transform="matrix(1 0 0 1 789.8921 220.4937)" class="st23 st24">医疗技术人员</text>
</g>
<text transform="matrix(1 0 0 1 944.4289 884.9347)" class="st23 st25">地理面积累计</text>
</svg>
