<?xml version="1.0" encoding="utf-8"?>
<!-- Generator: Adobe Illustrator 26.0.2, SVG Export Plug-In . SVG Version: 6.00 Build 0)  -->
<svg version="1.1" id="图层_1" xmlns="http://www.w3.org/2000/svg" xmlns:xlink="http://www.w3.org/1999/xlink" x="0px" y="0px"
	 viewBox="0 0 1920 937" style="enable-background:new 0 0 1920 937;" xml:space="preserve">
<style type="text/css">
	.st0{fill:none;stroke:#262626;stroke-width:0.8333;stroke-linejoin:round;stroke-miterlimit:10;stroke-opacity:0.149;}
	.st1{fill:none;stroke:#262626;stroke-width:0.8333;stroke-linecap:square;stroke-linejoin:round;stroke-miterlimit:10;}
	.st2{fill:#262626;}
	.st3{fill:none;stroke:#0000FF;stroke-width:0.8333;stroke-linejoin:bevel;stroke-miterlimit:1;stroke-dasharray:8,3,2,3;}
	.st4{fill:#D95319;}
	.st5{fill:none;stroke:#7E2F8E;stroke-width:0.8333;stroke-linejoin:round;stroke-miterlimit:10;}
	.st6{fill:none;stroke:#77AC30;stroke-width:3.3333;stroke-linejoin:round;stroke-miterlimit:10;}
	.st7{fill:#77AC30;}
	.st8{fill:none;stroke:#77AC30;stroke-width:3.3333;stroke-miterlimit:10;}
	.st9{fill:#A2142F;}
	.st10{fill:none;stroke:#D95319;stroke-width:0.8333;stroke-linejoin:round;stroke-miterlimit:10;}
	.st11{fill:none;stroke:#EDB120;stroke-width:3.3333;stroke-linejoin:round;stroke-miterlimit:10;}
	.st12{fill:#EDB120;}
	.st13{fill:none;stroke:#EDB120;stroke-width:3.3333;stroke-miterlimit:10;}
	.st14{fill:none;stroke:#A2142F;stroke-width:0.8333;stroke-linejoin:round;stroke-miterlimit:10;}
	.st15{fill:none;stroke:#808080;stroke-width:3.3333;stroke-linejoin:round;stroke-miterlimit:10;}
	.st16{fill:#808080;}
	.st17{fill:none;stroke:#808080;stroke-width:3.3333;stroke-miterlimit:10;}
	.st18{fill:none;stroke:#FF0000;stroke-width:3.3333;stroke-linejoin:round;stroke-miterlimit:10;}
	.st19{fill:none;stroke:#0072BD;stroke-width:3.3333;stroke-linejoin:round;stroke-miterlimit:10;}
	.st20{fill:#0072BD;}
	.st21{fill:none;stroke:#0072BD;stroke-width:3.3333;stroke-miterlimit:10;}
	.st22{font-family:'AdobeSongStd-Light-GBpc-EUC-H';}
	.st23{font-size:10.2942px;}
</style>
<g>
	<line class="st0" x1="608.7" y1="787.3" x2="608.7" y2="68.7"/>
	<line class="st0" x1="680.6" y1="787.3" x2="680.6" y2="68.7"/>
	<line class="st0" x1="752.4" y1="787.3" x2="752.4" y2="68.7"/>
	<line class="st0" x1="824.3" y1="787.3" x2="824.3" y2="68.7"/>
	<line class="st0" x1="896.2" y1="787.3" x2="896.2" y2="68.7"/>
	<line class="st0" x1="968.1" y1="787.3" x2="968.1" y2="68.7"/>
	<line class="st0" x1="1039.9" y1="787.3" x2="1039.9" y2="68.7"/>
	<line class="st0" x1="1111.8" y1="787.3" x2="1111.8" y2="68.7"/>
	<line class="st0" x1="1183.7" y1="787.3" x2="1183.7" y2="68.7"/>
	<line class="st0" x1="1255.5" y1="787.3" x2="1255.5" y2="68.7"/>
	<line class="st0" x1="1327.4" y1="787.3" x2="1327.4" y2="68.7"/>
	<line class="st0" x1="1327.4" y1="787.3" x2="608.7" y2="787.3"/>
	<line class="st0" x1="1327.4" y1="715.5" x2="608.7" y2="715.5"/>
	<line class="st0" x1="1327.4" y1="643.6" x2="608.7" y2="643.6"/>
	<line class="st0" x1="1327.4" y1="571.7" x2="608.7" y2="571.7"/>
	<line class="st0" x1="1327.4" y1="499.9" x2="608.7" y2="499.9"/>
	<line class="st0" x1="1327.4" y1="428" x2="608.7" y2="428"/>
	<line class="st0" x1="1327.4" y1="356.1" x2="608.7" y2="356.1"/>
	<line class="st0" x1="1327.4" y1="284.3" x2="608.7" y2="284.3"/>
	<line class="st0" x1="1327.4" y1="212.4" x2="608.7" y2="212.4"/>
	<line class="st0" x1="1327.4" y1="140.5" x2="608.7" y2="140.5"/>
	<line class="st0" x1="1327.4" y1="68.7" x2="608.7" y2="68.7"/>
	<line class="st1" x1="608.7" y1="787.3" x2="1327.4" y2="787.3"/>
	<line class="st1" x1="608.7" y1="787.3" x2="608.7" y2="780.2"/>
	<line class="st1" x1="680.6" y1="787.3" x2="680.6" y2="780.2"/>
	<line class="st1" x1="752.4" y1="787.3" x2="752.4" y2="780.2"/>
	<line class="st1" x1="824.3" y1="787.3" x2="824.3" y2="780.2"/>
	<line class="st1" x1="896.2" y1="787.3" x2="896.2" y2="780.2"/>
	<line class="st1" x1="968.1" y1="787.3" x2="968.1" y2="780.2"/>
	<line class="st1" x1="1039.9" y1="787.3" x2="1039.9" y2="780.2"/>
	<line class="st1" x1="1111.8" y1="787.3" x2="1111.8" y2="780.2"/>
	<line class="st1" x1="1183.7" y1="787.3" x2="1183.7" y2="780.2"/>
	<line class="st1" x1="1255.5" y1="787.3" x2="1255.5" y2="780.2"/>
	<line class="st1" x1="1327.4" y1="787.3" x2="1327.4" y2="780.2"/>
</g>
<g transform="translate(612,840.6667)">
	<path class="st2" d="M-7.3-36.7c0-1.3,0.1-2.4,0.4-3.3c0.3-0.8,0.7-1.5,1.2-1.9c0.7-0.5,1.3-0.7,2.2-0.7c0.7,0,1.1,0.1,1.6,0.4
		s0.8,0.6,1.1,1c0.3,0.5,0.6,1,0.8,1.7s0.2,1.6,0.2,2.7c0,1.3-0.1,2.4-0.4,3.3c-0.3,0.8-0.7,1.5-1.2,1.9c-0.6,0.5-1.2,0.7-2.1,0.7
		c-1.1,0-2-0.4-2.6-1.1C-7-33-7.3-34.5-7.3-36.7z M-5.9-36.7c0,1.9,0.2,3.1,0.7,3.8c0.5,0.7,0.9,0.9,1.6,0.9s1.2-0.3,1.6-0.9
		c0.5-0.7,0.7-1.9,0.7-3.8c0-1.9-0.2-3.1-0.7-3.8c-0.4-0.7-0.8-0.9-1.5-0.9s-1.2,0.3-1.6,0.8C-5.6-39.9-5.9-38.6-5.9-36.7z"/>
</g>
<g transform="translate(688.4,840.6667)">
	<path class="st2" d="M-18.5-36.7c0-1.3,0.1-2.4,0.4-3.3c0.3-0.8,0.7-1.5,1.2-1.9c0.7-0.5,1.3-0.7,2.2-0.7c0.7,0,1.1,0.1,1.6,0.4
		s0.8,0.6,1.1,1c0.3,0.5,0.6,1,0.8,1.7s0.3,1.6,0.3,2.7c0,1.3-0.1,2.4-0.4,3.3c-0.3,0.8-0.7,1.5-1.2,1.9c-0.6,0.5-1.2,0.7-2.1,0.7
		c-1.1,0-2-0.4-2.6-1.1C-18.1-33-18.5-34.5-18.5-36.7z M-17-36.7c0,1.9,0.2,3.1,0.7,3.8c0.5,0.7,0.9,0.9,1.6,0.9
		c0.7,0,1.2-0.3,1.6-0.9c0.5-0.7,0.7-1.9,0.7-3.8c0-1.9-0.2-3.1-0.7-3.8c-0.5-0.7-1-0.9-1.7-0.9c-0.5,0-1,0.3-1.4,0.8
		C-16.8-39.9-17-38.6-17-36.7z M-9-31.1v-1.6h1.6v1.6H-9z M-0.1-31.1h-1.4V-40c-0.4,0.3-0.8,0.7-1.3,0.9c-0.6,0.3-1,0.6-1.5,0.8
		v-1.4c0.8-0.4,1.5-0.8,2.1-1.3c0.7-0.6,1-1,1.3-1.5H0L-0.1-31.1L-0.1-31.1z"/>
</g>
<g transform="translate(764.8,840.6667)">
	<path class="st2" d="M-23-36.7c0-1.3,0.1-2.4,0.4-3.3c0.3-0.8,0.7-1.5,1.2-1.9c0.7-0.5,1.3-0.7,2.2-0.7c0.7,0,1.1,0.1,1.6,0.4
		s0.8,0.6,1.1,1c0.3,0.5,0.6,1,0.8,1.7s0.3,1.6,0.3,2.7c0,1.3-0.1,2.4-0.4,3.3c-0.3,0.8-0.7,1.5-1.2,1.9c-0.6,0.5-1.2,0.7-2.1,0.7
		c-1.1,0-2-0.4-2.6-1.1C-22.6-33-23-34.5-23-36.7z M-21.6-36.7c0,1.9,0.2,3.1,0.7,3.8c0.5,0.7,0.9,0.9,1.6,0.9s1.2-0.3,1.6-0.9
		c0.5-0.7,0.7-1.9,0.7-3.8c0-1.9-0.2-3.1-0.7-3.8c-0.5-0.7-1-0.9-1.7-0.9c-0.5,0-1,0.3-1.4,0.8C-21.3-39.9-21.6-38.6-21.6-36.7z
		 M-13.5-31.1v-1.6h1.6v1.6H-13.5z M-2.5-32.4v1.3H-10c0-0.4,0-0.7,0.2-0.9c0.2-0.6,0.5-1,0.9-1.5c0.4-0.5,1-1,1.9-1.7
		c1.2-1,2.1-1.8,2.5-2.4c0.5-0.6,0.7-1.1,0.7-1.7s-0.2-1-0.6-1.4c-0.7-0.5-1.1-0.7-1.8-0.7s-1.2,0.2-1.6,0.7
		c-0.4,0.4-0.7,0.9-0.7,1.7l-1.4-0.2c0.1-1,0.5-1.9,1.1-2.4s1.5-0.8,2.6-0.8s2,0.3,2.6,0.9c0.7,0.7,0.9,1.3,0.9,2.3
		c0,0.5-0.1,0.9-0.3,1.3c-0.2,0.5-0.5,0.9-0.9,1.4c-0.5,0.5-1.1,1.1-2.2,2c-0.8,0.8-1.4,1.2-1.6,1.4c-0.3,0.3-0.5,0.5-0.6,0.8
		L-2.5-32.4L-2.5-32.4z"/>
</g>
<g transform="translate(841.2,840.6667)">
	<path class="st2" d="M-27.5-36.7c0-1.3,0.1-2.4,0.4-3.3c0.3-0.8,0.7-1.5,1.2-1.9c0.7-0.5,1.3-0.7,2.2-0.7c0.7,0,1.1,0.1,1.6,0.4
		c0.5,0.3,0.8,0.6,1.1,1c0.3,0.5,0.6,1,0.8,1.7s0.3,1.6,0.3,2.7c0,1.3-0.1,2.4-0.4,3.3c-0.3,0.8-0.7,1.5-1.2,1.9
		c-0.6,0.5-1.2,0.7-2.1,0.7c-1.1,0-2-0.4-2.6-1.1C-27.1-33-27.5-34.5-27.5-36.7z M-26.1-36.7c0,1.9,0.2,3.1,0.7,3.8
		c0.5,0.7,0.9,0.9,1.6,0.9s1.2-0.3,1.6-0.9c0.5-0.7,0.7-1.9,0.7-3.8c0-1.9-0.2-3.1-0.7-3.8c-0.5-0.7-1-0.9-1.7-0.9
		c-0.5,0-1,0.3-1.4,0.8C-25.8-39.9-26.1-38.6-26.1-36.7z M-18-31.1v-1.6h1.6v1.6H-18z M-14.4-34.1l1.4-0.2c0.2,0.8,0.5,1.3,0.8,1.7
		s0.8,0.6,1.4,0.6c0.7,0,1.2-0.2,1.7-0.7c0.4-0.5,0.7-1,0.7-1.8c0-0.7-0.2-1.2-0.7-1.6c-0.4-0.4-0.9-0.7-1.6-0.7
		c-0.3,0-0.6,0.1-1,0.2l0.2-1.2c0.1,0,0.2,0,0.2,0c0.6,0,1.1-0.2,1.6-0.5C-9.3-38.5-9-39-9-39.6c0-0.5-0.2-0.9-0.6-1.3
		c-0.3-0.3-0.8-0.5-1.2-0.5s-1,0.2-1.4,0.6c-0.4,0.3-0.6,0.8-0.7,1.5l-1.4-0.3c0.2-0.9,0.6-1.7,1.1-2.2c0.6-0.6,1.4-0.8,2.3-0.8
		c0.7,0,1.2,0.1,1.7,0.4c0.6,0.3,0.9,0.7,1.2,1.1c0.3,0.5,0.4,0.9,0.4,1.5c0,0.5-0.1,0.9-0.4,1.3c-0.3,0.4-0.7,0.8-1.1,0.9
		c0.7,0.2,1.2,0.5,1.6,0.9c0.4,0.5,0.6,1.1,0.6,1.9c0,1-0.4,1.9-1.1,2.5c-0.8,0.7-1.7,1-2.7,1s-1.8-0.3-2.5-0.9
		C-14-32.4-14.3-33.1-14.4-34.1z"/>
</g>
<g transform="translate(917.6,840.6667)">
	<path class="st2" d="M-32-36.7c0-1.3,0.1-2.4,0.4-3.3c0.3-0.8,0.7-1.5,1.2-1.9c0.7-0.5,1.3-0.7,2.2-0.7c0.7,0,1.1,0.1,1.6,0.4
		c0.5,0.3,0.8,0.6,1.1,1c0.3,0.5,0.6,1,0.8,1.7s0.3,1.6,0.3,2.7c0,1.3-0.1,2.4-0.4,3.3c-0.3,0.8-0.7,1.5-1.2,1.9
		c-0.6,0.5-1.2,0.7-2.1,0.7c-1.1,0-2-0.4-2.6-1.1C-31.7-33-32-34.5-32-36.7z M-30.6-36.7c0,1.9,0.2,3.1,0.7,3.8
		c0.5,0.7,0.9,0.9,1.6,0.9s1.2-0.3,1.6-0.9c0.5-0.7,0.7-1.9,0.7-3.8c0-1.9-0.2-3.1-0.7-3.8c-0.5-0.7-1-0.9-1.7-0.9
		c-0.5,0-1,0.3-1.4,0.8C-30.4-39.9-30.6-38.6-30.6-36.7z M-22.5-31.1v-1.6h1.6v1.6H-22.5z M-14.5-31.1v-2.7h-5v-1.3l5.2-7.4h1.1v7.4
		h1.6v1.3H-13v2.7H-14.5z M-14.5-35.1v-5.2l-3.6,5.2H-14.5z"/>
</g>
<g transform="translate(994,840.6667)">
	<path class="st2" d="M-36.6-36.7c0-1.3,0.1-2.4,0.4-3.3c0.3-0.8,0.7-1.5,1.2-1.9c0.7-0.5,1.3-0.7,2.2-0.7c0.7,0,1.1,0.1,1.6,0.4
		s0.8,0.6,1.1,1c0.3,0.5,0.6,1,0.8,1.7c0.2,0.7,0.3,1.6,0.3,2.7c0,1.3-0.1,2.4-0.4,3.3c-0.3,0.8-0.7,1.5-1.2,1.9
		c-0.6,0.5-1.2,0.7-2.1,0.7c-1.1,0-2-0.4-2.6-1.1C-36.2-33-36.6-34.5-36.6-36.7z M-35.2-36.7c0,1.9,0.2,3.1,0.7,3.8
		c0.5,0.7,0.9,0.9,1.6,0.9c0.7,0,1.2-0.3,1.6-0.9c0.5-0.7,0.7-1.9,0.7-3.8c0-1.9-0.2-3.1-0.7-3.8c-0.5-0.7-1-0.9-1.7-0.9
		c-0.5,0-1,0.3-1.4,0.8C-34.9-39.9-35.2-38.6-35.2-36.7z M-27.1-31.1v-1.6h1.6v1.6H-27.1z M-23.5-34.1l1.5-0.1
		c0.1,0.7,0.4,1.2,0.8,1.6s0.8,0.6,1.4,0.6c0.7,0,1.2-0.3,1.7-0.8c0.5-0.5,0.8-1.2,0.8-2.1c0-0.8-0.2-1.4-0.7-1.9
		c-0.5-0.5-1-0.7-1.8-0.7c-0.5,0-0.8,0.1-1.2,0.3c-0.4,0.2-0.7,0.5-0.8,0.8l-1.3-0.2l1-5.9h5.6v1.3h-4.5l-0.6,3.1
		c0.7-0.5,1.4-0.8,2.2-0.8c1,0,1.9,0.4,2.5,1c0.7,0.7,1,1.6,1,2.6c0,1-0.3,2-0.9,2.7c-0.8,0.9-1.7,1.4-3,1.4c-1,0-1.9-0.3-2.5-0.8
		S-23.4-33.1-23.5-34.1z"/>
</g>
<g transform="translate(1070.4,840.6667)">
	<path class="st2" d="M-41.1-36.7c0-1.3,0.1-2.4,0.4-3.3c0.3-0.8,0.7-1.5,1.2-1.9c0.7-0.5,1.3-0.7,2.2-0.7c0.7,0,1.1,0.1,1.6,0.4
		s0.8,0.6,1.1,1c0.3,0.5,0.6,1,0.8,1.7s0.3,1.6,0.3,2.7c0,1.3-0.1,2.4-0.4,3.3c-0.3,0.8-0.7,1.5-1.2,1.9c-0.6,0.5-1.2,0.7-2.1,0.7
		c-1.1,0-2-0.4-2.6-1.1C-40.7-33-41.1-34.5-41.1-36.7z M-39.7-36.7c0,1.9,0.2,3.1,0.7,3.8c0.5,0.7,0.9,0.9,1.6,0.9
		c0.7,0,1.2-0.3,1.6-0.9c0.5-0.7,0.7-1.9,0.7-3.8c0-1.9-0.2-3.1-0.7-3.8c-0.5-0.7-1-0.9-1.7-0.9c-0.5,0-1,0.3-1.4,0.8
		C-39.4-39.9-39.7-38.6-39.7-36.7z M-31.6-31.1v-1.6h1.6v1.6H-31.6z M-20.8-39.7l-1.3,0.1c-0.1-0.6-0.3-0.9-0.6-1.2
		c-0.4-0.4-0.8-0.6-1.4-0.6c-0.5,0-0.8,0.1-1.2,0.4c-0.4,0.4-0.8,0.8-1,1.4c-0.2,0.7-0.4,1.5-0.4,2.6c0.4-0.5,0.8-0.8,1.2-1.1
		c0.6-0.3,1-0.4,1.6-0.4c0.9,0,1.7,0.4,2.4,1c0.7,0.7,0.9,1.6,0.9,2.6c0,0.8-0.2,1.4-0.5,2c-0.3,0.7-0.8,1.1-1.3,1.4
		c-0.6,0.3-1.1,0.5-1.9,0.5c-1.1,0-2.2-0.5-2.8-1.3c-0.8-0.8-1.1-2.3-1.1-4.2c0.1-2.1,0.6-3.8,1.3-4.7c0.8-0.8,1.7-1.3,2.9-1.3
		c0.9,0,1.6,0.3,2.3,0.8C-21.2-41.3-20.9-40.6-20.8-39.7z M-26.4-34.7c0,0.5,0.1,0.9,0.3,1.4c0.2,0.5,0.5,0.8,0.8,1
		c0.4,0.2,0.8,0.3,1.1,0.3c0.6,0,1.1-0.3,1.5-0.8c0.5-0.5,0.7-1.1,0.7-2c0-0.8-0.2-1.4-0.7-1.9c-0.4-0.5-0.9-0.7-1.6-0.7
		s-1.1,0.3-1.5,0.7C-26.2-36.1-26.4-35.5-26.4-34.7z"/>
</g>
<g transform="translate(1146.8,840.6667)">
	<path class="st2" d="M-45.6-36.7c0-1.3,0.1-2.4,0.4-3.3c0.3-0.8,0.7-1.5,1.2-1.9c0.7-0.5,1.3-0.7,2.2-0.7c0.7,0,1.1,0.1,1.6,0.4
		c0.5,0.3,0.8,0.6,1.1,1c0.3,0.5,0.6,1,0.8,1.7s0.3,1.6,0.3,2.7c0,1.3-0.1,2.4-0.4,3.3c-0.3,0.8-0.7,1.5-1.2,1.9
		c-0.6,0.5-1.2,0.7-2.1,0.7c-1.1,0-2-0.4-2.6-1.1C-45.3-33-45.6-34.5-45.6-36.7z M-44.2-36.7c0,1.9,0.2,3.1,0.7,3.8
		c0.5,0.7,0.9,0.9,1.6,0.9c0.7,0,1.2-0.3,1.6-0.9c0.5-0.7,0.7-1.9,0.7-3.8c0-1.9-0.2-3.1-0.7-3.8c-0.5-0.7-1-0.9-1.7-0.9
		c-0.5,0-1,0.3-1.4,0.8C-43.9-39.9-44.2-38.6-44.2-36.7z M-36.1-31.1v-1.6h1.6v1.6H-36.1z M-32.5-41v-1.3h7.4v1.1
		c-0.8,0.8-1.5,1.8-2.2,3c-0.8,1.3-1.2,2.6-1.7,4c-0.3,0.9-0.5,2-0.6,3.1h-1.4c0-0.9,0.2-2,0.6-3.3s0.8-2.5,1.4-3.7
		c0.7-1.2,1.3-2.2,2-3L-32.5-41L-32.5-41z"/>
</g>
<g transform="translate(1223.2,840.6667)">
	<path class="st2" d="M-50.2-36.7c0-1.3,0.1-2.4,0.4-3.3c0.3-0.8,0.7-1.5,1.2-1.9c0.7-0.5,1.3-0.7,2.2-0.7c0.7,0,1.1,0.1,1.6,0.4
		c0.5,0.3,0.8,0.6,1.1,1c0.3,0.5,0.6,1,0.8,1.7s0.3,1.6,0.3,2.7c0,1.3-0.1,2.4-0.4,3.3c-0.3,0.8-0.7,1.5-1.2,1.9
		c-0.6,0.5-1.2,0.7-2.1,0.7c-1.1,0-2-0.4-2.6-1.1C-49.8-33-50.2-34.5-50.2-36.7z M-48.8-36.7c0,1.9,0.2,3.1,0.7,3.8
		c0.5,0.7,0.9,0.9,1.6,0.9c0.7,0,1.2-0.3,1.6-0.9c0.5-0.7,0.7-1.9,0.7-3.8c0-1.9-0.2-3.1-0.7-3.8c-0.5-0.7-1-0.9-1.7-0.9
		c-0.5,0-1,0.3-1.4,0.8C-48.5-39.9-48.8-38.6-48.8-36.7z M-40.7-31.1v-1.6h1.6v1.6H-40.7z M-34.9-37.3c-0.6-0.2-1-0.6-1.3-0.9
		c-0.3-0.4-0.4-0.8-0.4-1.4c0-0.8,0.3-1.5,0.9-2.1c0.6-0.6,1.4-0.8,2.4-0.8c1,0,1.8,0.3,2.4,0.8c0.6,0.6,0.9,1.3,0.9,2.1
		c0,0.6-0.1,1-0.4,1.4c-0.3,0.4-0.7,0.7-1.2,0.9c0.7,0.2,1.2,0.6,1.6,1.1c0.4,0.5,0.6,1.1,0.6,1.8c0,0.9-0.4,1.8-1,2.4
		c-0.7,0.7-1.6,1-2.7,1c-1.1,0-2.1-0.4-2.7-1c-0.7-0.7-1-1.5-1-2.5c0-0.8,0.2-1.4,0.6-1.9C-36.2-36.7-35.6-37.1-34.9-37.3z
		 M-35.2-39.6c0,0.6,0.2,0.9,0.6,1.3c0.3,0.3,0.8,0.5,1.3,0.5s0.9-0.2,1.3-0.5c0.4-0.4,0.6-0.8,0.6-1.2c0-0.6-0.2-0.9-0.6-1.3
		c-0.4-0.4-0.8-0.6-1.3-0.6c-0.6,0-1,0.2-1.3,0.6C-34.9-40.5-35.2-40.1-35.2-39.6z M-35.7-34.4c0,0.4,0.1,0.8,0.3,1.1
		s0.5,0.7,0.8,0.8c0.4,0.3,0.8,0.4,1.2,0.4c0.7,0,1.2-0.2,1.7-0.7c0.5-0.5,0.7-0.9,0.7-1.7c0-0.7-0.2-1.2-0.7-1.7
		c-0.5-0.4-1-0.7-1.7-0.7c-0.7,0-1.2,0.2-1.7,0.7C-35.5-35.6-35.7-35-35.7-34.4z"/>
</g>
<g transform="translate(1299.6,840.6667)">
	<path class="st2" d="M-54.7-36.7c0-1.3,0.1-2.4,0.4-3.3c0.3-0.8,0.7-1.5,1.2-1.9c0.7-0.5,1.3-0.7,2.2-0.7c0.7,0,1.1,0.1,1.6,0.4
		c0.5,0.3,0.8,0.6,1.1,1c0.3,0.5,0.6,1,0.8,1.7c0.2,0.7,0.3,1.6,0.3,2.7c0,1.3-0.1,2.4-0.4,3.3c-0.3,0.8-0.7,1.5-1.2,1.9
		c-0.6,0.5-1.2,0.7-2.1,0.7c-1.1,0-2-0.4-2.6-1.1C-54.3-33-54.7-34.5-54.7-36.7z M-53.3-36.7c0,1.9,0.2,3.1,0.7,3.8
		c0.5,0.7,0.9,0.9,1.6,0.9c0.7,0,1.2-0.3,1.6-0.9c0.5-0.7,0.7-1.9,0.7-3.8c0-1.9-0.2-3.1-0.7-3.8c-0.5-0.7-1-0.9-1.7-0.9
		c-0.5,0-1,0.3-1.4,0.8C-53-39.9-53.3-38.6-53.3-36.7z M-45.2-31.1v-1.6h1.6v1.6H-45.2z M-41.4-33.7l1.4-0.2
		c0.1,0.7,0.4,1.1,0.7,1.4c0.3,0.3,0.7,0.5,1.2,0.5c0.5,0,0.8-0.1,1.1-0.3c0.3-0.2,0.6-0.5,0.8-0.8c0.2-0.3,0.4-0.8,0.6-1.3
		c0.1-0.6,0.2-1.1,0.2-1.7c0-0.1,0-0.2,0-0.3c-0.3,0.5-0.7,0.8-1.1,1.1c-0.5,0.3-1,0.4-1.6,0.4c-0.9,0-1.8-0.4-2.4-1
		c-0.7-0.7-0.9-1.6-0.9-2.7s0.4-2.1,1-2.8c0.7-0.8,1.5-1,2.5-1c0.8,0,1.4,0.2,2.1,0.6c0.7,0.4,1.1,0.9,1.4,1.7
		c0.3,0.8,0.5,1.8,0.5,3.2c0,1.5-0.2,2.6-0.5,3.5c-0.3,0.8-0.8,1.5-1.4,2c-0.7,0.5-1.3,0.7-2.2,0.7c-0.8,0-1.6-0.3-2.2-0.8
		C-41-32.1-41.3-32.9-41.4-33.7z M-35.7-38.8c0-0.8-0.2-1.4-0.7-1.9c-0.4-0.5-0.9-0.8-1.5-0.8c-0.7,0-1.1,0.3-1.6,0.8
		c-0.5,0.5-0.8,1.2-0.8,2s0.2,1.3,0.7,1.8c0.5,0.5,0.9,0.7,1.6,0.7s1.2-0.2,1.6-0.7C-35.9-37.4-35.7-37.9-35.7-38.8z"/>
</g>
<g transform="translate(1376,840.6667)">
	<path class="st2" d="M-47.4-31.1h-1.4V-40c-0.4,0.3-0.8,0.7-1.3,0.9c-0.6,0.3-1,0.6-1.5,0.8v-1.4c0.8-0.4,1.5-0.8,2.1-1.3
		s1-1,1.2-1.5h0.9V-31.1z"/>
</g>
<g transform="translate(994.0004,863.3333)">
	<path class="st2" d="M-66.2-34.6c1,0.1,1.7,0.2,1.8,0.1c0.1,0,0.2-0.2,0.2-0.5v-4.8l-2.4,0.9c0,2.9,0,5,0.1,6.1l-1,0.5
		c0.1-1.5,0.1-3.7,0.1-6.3l-2.1,0.8v6.4c0,0.6,0.3,0.8,0.8,0.8h5c0.5-0.1,0.8-0.5,0.8-1c0.1-0.7,0.1-1.3,0.1-2.2h0.3
		c0.1,0.8,0.1,1.5,0.2,2c0.1,0.5,0.3,0.8,0.8,0.9c-0.4,0.8-0.8,1.1-1.5,1.1h-6c-0.9,0-1.4-0.5-1.4-1.5v-6.2l-1.4,0.6l-0.4,0.3
		l-0.7-0.3l2.5-0.9v-2.4c0-0.6,0-1.2-0.1-2.1l1.4,0.8l-0.5,0.4v3.1l2.1-0.8V-42c0-0.8,0-1.5-0.1-2.3l1.5,0.7l-0.6,0.6v3.9l2.2-0.9
		l0.6-0.7l1,0.8l-0.6,0.6v5c0,0.3-0.1,0.6-0.3,0.8c-0.2,0.3-0.5,0.5-0.8,0.7c-0.1-0.5-0.6-0.9-1.7-1.2V-34.6z M-73.5-32.5l2.6-0.9
		l0.1,0.3c-3.2,1.4-5,2.4-5.4,2.8l-0.8-1.2c0.6-0.1,1.4-0.4,2.5-0.8v-5.9h-0.3c-0.6,0-1.1,0.1-1.6,0.2l-0.6-0.6h2.4v-3
		c0-0.7,0-1.4-0.1-2.3l1.5,0.8l-0.6,0.5v4.1h0.7l0.8-0.8l1.1,1.1h-2.5V-32.5z M-59.5-32c1.3-0.4,2.3-0.7,2.7-0.8v-4.4h-0.3
		c-0.6,0-1.1,0.1-1.6,0.2l-0.6-0.6h2.5v-4.1h-0.5c-0.6,0-1.1,0.1-1.6,0.2l-0.6-0.6h4.1l0.8-0.8l1.1,1.2h-2.5v4h0.7l0.8-0.8l1.1,1.2
		h-2.5v4.1l2.7-0.9l0.1,0.3c-1.7,0.8-3.4,1.5-5,2.4l-0.6,0.6L-59.5-32z M-53-35.3c0.1-1.4,0.1-2.8,0.1-4.1s0-2.7-0.1-4.1l0.8,0.6
		h5.5l0.5-0.6l0.9,0.8l-0.6,0.4v3.1c0,1.4,0,2.5,0.1,3.3l-0.8,0.4v-0.8H-49v2.8h1.9l0.8-0.8l1.1,1.2h-3.9v2.7h2.8l0.8-0.8l1.2,1.2
		h-9c-0.6,0-1.1,0.1-1.6,0.2l-0.6-0.6h5.6v-2.7h-1.4c-0.6,0-1.1,0.1-1.6,0.2l-0.6-0.6h3.7v-2.8h-2.4v0.7L-53-35.3z M-52.2-42.5v2.6
		h2.4v-2.6H-52.2z M-48.9-42.5v2.6h2.4v-2.6H-48.9z M-52.2-39.5v2.8h2.4v-2.8H-52.2z M-48.9-39.5v2.8h2.4v-2.8H-48.9z M-36.2-33.6
		v2.9h2.8v-2.9C-33.4-33.6-36.2-33.6-36.2-33.6z M-36.7-40c0.4-1,0.6-2,0.8-2.8h-4.2c-0.7,0-1.2,0.1-1.7,0.2l-0.6-0.6h13.3l1-1
		l1.2,1.4h-8.3l1,0.6l-0.7,0.2c-0.6,0.8-0.9,1.5-1.3,2.1h6.5l0.5-0.7l1,0.8l-0.5,0.5c0,4,0,7.2,0.1,9.9l-0.9,0.5v-1.3h-10.3v0.9
		l-0.9,0.5c0-1.5,0.1-3.5,0.1-5.9s0-4.3-0.1-5.6l0.9,0.6C-39.7-40-36.7-40-36.7-40z M-39.9-39.6v8.8h2.8v-8.8H-39.9z M-32.5-39.6
		v8.8h2.9v-8.8H-32.5z M-36.2-39.6v2.4h2.8v-2.4H-36.2z M-36.2-36.6v2.6h2.8v-2.6H-36.2z M-17.7-35.1c0-1.3,0.1-2.6,0.1-4
		s0-2.6-0.1-4l0.9,0.6h4.6l0.7-0.7l0.9,1l-0.7,0.3c0,3.5,0,5.5,0.1,6l-0.9,0.4v-0.8h-4.7v0.8L-17.7-35.1z M-16.7-42.1v5.5h4.8v-5.5
		H-16.7z M-15.8-35l1.2,1l-0.6,0.2c-1.7,2.3-3.3,3.9-5,4.7l-0.1-0.3c1.1-0.8,2-1.8,2.7-2.8C-16.7-33.3-16.2-34.1-15.8-35z
		 M-13.5-34.8c1.8,1.7,2.8,2.7,3,3.3c0.2,0.5,0.4,0.9,0.4,1.1c0,0.3-0.1,0.5-0.2,0.7c-0.1,0.2-0.3,0.3-0.4,0.3
		c-0.1,0-0.2-0.2-0.4-0.6c-0.2-0.6-0.5-1.2-0.8-1.9c-0.3-0.7-0.9-1.6-1.9-2.8L-13.5-34.8z M-21-37.3c0,4.1,0,6.8,0.1,7.9l-0.9,0.6
		c0-1.3,0.1-4,0.1-7.9c-0.9,1.9-2.1,3.4-3.3,4.5l-0.3-0.2c0.7-0.8,1.3-1.9,1.9-3.1c0.6-1.2,1-2.4,1.4-3.6h-0.9
		c-0.6,0-1.1,0.1-1.6,0.2l-0.7-0.5h3.3v-3c-1.1,0.2-2,0.3-2.6,0.4v-0.3c0.9-0.2,1.9-0.4,2.6-0.7c0.8-0.4,1.5-0.8,2.3-1.2l0.9,1.2
		c-0.6,0-1.3,0.1-2.3,0.4v3.2h0.9l0.8-0.8L-18-39H-21v1.4c1,0.5,1.7,0.9,2,1.2c0.3,0.3,0.4,0.6,0.4,0.8s-0.1,0.5-0.2,0.7
		c-0.2,0.2-0.3,0.4-0.3,0.4c-0.2,0-0.3-0.2-0.5-0.7C-19.9-36-20.3-36.6-21-37.3z M-4.3-43v1.7h3.9V-43H-4.3z M0.4-43v1.7h4V-43H0.4z
		 M-4.3-41v1.5h3.9V-41H-4.3z M0.4-41v1.5h4V-41H0.4z M5.2-42.8c0,0.7,0,1.3,0,2c0,0.7,0,1.4,0.1,2.1l-0.9,0.4v-0.8h-8.7v0.6
		l-0.9,0.3c0-1.1,0.1-2.2,0.1-3.3s0-2-0.1-2.5l0.9,0.6h8.6l0.5-0.6l0.9,0.8L5.2-42.8z M0.6-38.1C0-38.1-0.5-38-1.1-37.7
		c-0.7,0.3-1.5,0.7-2.8,1.1l4.5-0.1c0.7-0.5,1.2-0.8,1.7-1.3l0.8,1c-0.4,0-1.1,0.3-2.2,0.8c-1.1,0.6-2.7,1.3-4.8,2.1l7.7-0.5
		C3.5-35,3-35.4,2.6-35.9L2.8-36c1.3,0.7,2.1,1.1,2.4,1.4c0.3,0.4,0.4,0.7,0.4,0.9c0,0.3-0.1,0.5-0.2,0.7c-0.1,0.2-0.2,0.3-0.2,0.3
		c-0.1,0-0.2-0.1-0.3-0.4c-0.2-0.4-0.5-0.8-0.7-1l-3.5,0.3v3c0.1,0.9-0.5,1.5-1.4,1.7c0-0.7-0.8-1.1-2.1-1.4v-0.3
		c1.2,0.1,2,0.2,2.3,0.2S0-30.9,0-31.4v-2.4c-0.8,0.1-1.7,0.2-2.6,0.4c-0.8,0.1-1.6,0.4-2.1,0.7l-0.8-1.4c0.7-0.1,1.4-0.3,2.2-0.6
		c0.8-0.3,2-0.8,3.7-1.6c-1.9,0.2-3.1,0.3-3.7,0.4c-0.6,0.1-0.9,0.2-1.2,0.4l-0.6-1.2c0.6,0,1.3-0.2,2.4-0.7c1-0.5,1.9-1,2.5-1.7
		L0.6-38.1z M-1.8-31.8C-2.3-31.7-3-31.5-3.8-31c-0.8,0.6-2,1.1-3.5,1.7l-0.1-0.2c1.1-0.6,2.1-1.2,2.8-1.8c0.8-0.7,1.3-1.2,1.8-1.7
		L-1.8-31.8z M2.1-32.9c1.6,0.6,2.7,1,3.3,1.3c0.6,0.4,0.8,0.7,0.9,1c0,0.4,0,0.6-0.1,0.8S6-29.5,6-29.5c-0.2,0-0.4-0.2-0.8-0.7
		C4.8-30.9,3.7-31.7,2.1-32.9L2.1-32.9z M11.1-43.7l0.1-0.2c0.9,0.5,1.6,0.8,2,1.1c0.4,0.3,0.6,0.7,0.6,0.9c0,0.3-0.1,0.6-0.2,0.7
		c-0.2,0.1-0.3,0.2-0.3,0.2c-0.2,0-0.5-0.3-0.6-0.8C12.3-42.5,11.9-43,11.1-43.7z M12.9-31.6l2.6-2.3l0.1,0.2c-1.5,2-2.5,3.3-2.8,4
		l-0.9-1.1c0.2-0.3,0.3-0.7,0.3-1.2V-38h-1.7H11c-0.3,0-0.7,0.1-1.1,0.2l-0.6-0.6h2.7l0.6-0.8l0.9,0.9l-0.7,0.5V-31.6z M18.7-38.2
		c0-2.9,0-4.9-0.1-5.7l1.6,0.8l-0.5,0.5v4.5h3l0.8-0.8l1.2,1.2h-5v6c0,0.8,0,1.7,0.1,2.4l-1.1,0.5c0-1.4,0.1-2.4,0.1-3.1v-5.8h-3.4
		h0.9c-0.6,0-1,0.1-1.5,0.2l-0.6-0.6C14.4-38.2,18.7-38.2,18.7-38.2z"/>
</g>
<g>
	<line class="st1" x1="608.7" y1="787.3" x2="608.7" y2="68.7"/>
	<line class="st1" x1="608.7" y1="787.3" x2="615.9" y2="787.3"/>
	<line class="st1" x1="608.7" y1="715.5" x2="615.9" y2="715.5"/>
	<line class="st1" x1="608.7" y1="643.6" x2="615.9" y2="643.6"/>
	<line class="st1" x1="608.7" y1="571.7" x2="615.9" y2="571.7"/>
	<line class="st1" x1="608.7" y1="499.9" x2="615.9" y2="499.9"/>
	<line class="st1" x1="608.7" y1="428" x2="615.9" y2="428"/>
	<line class="st1" x1="608.7" y1="356.1" x2="615.9" y2="356.1"/>
	<line class="st1" x1="608.7" y1="284.3" x2="615.9" y2="284.3"/>
	<line class="st1" x1="608.7" y1="212.4" x2="615.9" y2="212.4"/>
	<line class="st1" x1="608.7" y1="140.5" x2="615.9" y2="140.5"/>
	<line class="st1" x1="608.7" y1="68.7" x2="615.9" y2="68.7"/>
</g>
<g transform="translate(605.3333,834)">
	<path class="st2" d="M-11.6-46.2c0-1.3,0.1-2.4,0.4-3.3s0.7-1.5,1.2-1.9C-9.5-51.8-8.8-52-8-52c0.7,0,1.1,0.1,1.6,0.4
		c0.5,0.3,0.8,0.6,1.1,1c0.3,0.5,0.6,1,0.8,1.7c0.2,0.7,0.3,1.6,0.3,2.7c0,1.3-0.1,2.4-0.4,3.3c-0.3,0.8-0.7,1.5-1.2,1.9
		c-0.6,0.5-1.2,0.7-2.1,0.7c-1.1,0-2-0.4-2.6-1.1C-11.3-42.5-11.6-44-11.6-46.2z M-10.2-46.2c0,1.9,0.2,3.1,0.7,3.8
		c0.5,0.7,0.9,0.9,1.6,0.9s1.2-0.3,1.6-0.9c0.5-0.7,0.7-1.9,0.7-3.8s-0.2-3.1-0.7-3.8c-0.5-0.7-1-0.9-1.7-0.9c-0.5,0-1,0.3-1.4,0.8
		C-9.9-49.4-10.2-48.1-10.2-46.2z"/>
</g>
<g transform="translate(605.3333,757.6)">
	<path class="st2" d="M-24.8-41.7c0-1.3,0.1-2.4,0.4-3.3c0.3-0.8,0.7-1.5,1.2-1.9c0.6-0.5,1.2-0.7,2.1-0.7c0.7,0,1.1,0.1,1.6,0.4
		c0.5,0.3,0.8,0.6,1.1,1c0.3,0.5,0.6,1,0.8,1.7c0.2,0.7,0.3,1.6,0.3,2.7c0,1.3-0.1,2.4-0.4,3.3c-0.3,0.8-0.7,1.5-1.2,1.9
		c-0.6,0.5-1.2,0.7-2.1,0.7c-1.1,0-2-0.4-2.6-1.1C-24.4-38-24.8-39.5-24.8-41.7z M-23.4-41.7c0,1.9,0.2,3.1,0.7,3.8
		c0.5,0.7,0.9,0.9,1.6,0.9c0.7,0,1.2-0.3,1.6-0.9c0.5-0.7,0.7-1.9,0.7-3.8c0-1.9-0.2-3.1-0.7-3.8c-0.5-0.7-1-0.9-1.7-0.9
		s-1.1,0.3-1.5,0.8C-23.1-44.9-23.4-43.5-23.4-41.7z M-15.3-36v-1.6h1.6v1.6H-15.3z M-6.5-36h-1.4V-45c-0.4,0.3-0.8,0.7-1.3,0.9
		c-0.6,0.3-1,0.6-1.5,0.8v-1.4c0.8-0.4,1.5-0.8,2.1-1.3c0.7-0.6,1-1,1.3-1.5h0.9L-6.5-36L-6.5-36z"/>
</g>
<g transform="translate(605.3333,681.2)">
	<path class="st2" d="M-24.8-37.1c0-1.3,0.1-2.4,0.4-3.3c0.3-0.8,0.7-1.5,1.2-1.9c0.6-0.5,1.2-0.7,2.1-0.7c0.7,0,1.1,0.1,1.6,0.4
		s0.8,0.6,1.1,1c0.3,0.5,0.6,1,0.8,1.7c0.2,0.7,0.3,1.6,0.3,2.7c0,1.3-0.1,2.4-0.4,3.3C-18-33-18.4-32.3-19-32
		c-0.6,0.5-1.2,0.7-2.1,0.7c-1.1,0-2-0.4-2.6-1.1C-24.4-33.5-24.8-35-24.8-37.1z M-23.4-37.1c0,1.9,0.2,3.1,0.7,3.8
		c0.5,0.7,0.9,0.9,1.6,0.9c0.7,0,1.2-0.3,1.6-0.9c0.5-0.7,0.7-1.9,0.7-3.8c0-1.9-0.2-3.1-0.7-3.8c-0.5-0.7-1-0.9-1.7-0.9
		s-1.1,0.3-1.5,0.8C-23.1-40.3-23.4-39-23.4-37.1z M-15.3-31.5v-1.6h1.6v1.6H-15.3z M-4.3-32.8v1.3h-7.5c0-0.4,0-0.7,0.2-0.9
		c0.2-0.6,0.5-1,0.9-1.5c0.3-0.6,0.9-1.1,1.7-1.8c1.2-1,2.1-1.8,2.5-2.4c0.5-0.6,0.7-1.1,0.7-1.7s-0.2-1-0.6-1.4s-0.9-0.6-1.5-0.6
		c-0.7,0-1.2,0.2-1.6,0.6c-0.4,0.4-0.7,0.9-0.7,1.7l-1.4-0.2c0.1-1,0.5-1.9,1.1-2.4s1.5-0.8,2.6-0.8s2,0.3,2.6,0.9
		c0.7,0.7,0.9,1.3,0.9,2.3c0,0.5-0.1,0.9-0.3,1.3c-0.2,0.5-0.5,0.9-0.9,1.4c-0.5,0.5-1.1,1.1-2.2,2c-1,0.8-1.5,1.3-1.8,1.6
		c-0.3,0.3-0.5,0.5-0.6,0.8C-9.9-32.8-4.3-32.8-4.3-32.8z"/>
</g>
<g transform="translate(605.3333,604.8)">
	<path class="st2" d="M-24.8-32.6c0-1.3,0.1-2.4,0.4-3.3c0.3-0.8,0.7-1.5,1.2-1.9c0.6-0.5,1.2-0.7,2.1-0.7c0.7,0,1.1,0.1,1.6,0.4
		c0.5,0.3,0.8,0.6,1.1,1c0.3,0.5,0.6,1,0.8,1.7c0.2,0.7,0.3,1.6,0.3,2.7c0,1.3-0.1,2.4-0.4,3.3c-0.3,0.8-0.7,1.5-1.2,1.9
		c-0.6,0.5-1.2,0.7-2.1,0.7c-1.1,0-2-0.4-2.6-1.1C-24.4-28.9-24.8-30.4-24.8-32.6z M-23.4-32.6c0,1.9,0.2,3.1,0.7,3.8
		s0.9,0.9,1.6,0.9c0.7,0,1.2-0.3,1.6-0.9c0.5-0.7,0.7-1.9,0.7-3.8c0-1.9-0.2-3.1-0.7-3.8c-0.5-0.7-1-0.9-1.7-0.9s-1.1,0.3-1.5,0.8
		C-23.1-35.8-23.4-34.5-23.4-32.6z M-15.3-27v-1.6h1.6v1.6H-15.3z M-11.7-30l1.4-0.2c0.2,0.8,0.5,1.3,0.8,1.7s0.8,0.6,1.4,0.6
		c0.7,0,1.2-0.2,1.7-0.7c0.4-0.5,0.7-1,0.7-1.8c0-0.7-0.2-1.2-0.7-1.6c-0.4-0.4-0.9-0.7-1.6-0.7c-0.3,0-0.6,0.1-1,0.2l0.2-1.2
		c0.1,0,0.2,0,0.2,0c0.6,0,1.1-0.2,1.6-0.5c0.5-0.3,0.8-0.8,0.8-1.4c0-0.5-0.2-0.9-0.6-1.3c-0.3-0.3-0.8-0.5-1.2-0.5
		c-0.5,0-1,0.2-1.4,0.6c-0.4,0.3-0.6,0.8-0.7,1.5l-1.4-0.3c0.2-0.9,0.6-1.7,1.2-2.2c0.6-0.6,1.4-0.8,2.3-0.8c0.7,0,1.2,0.1,1.7,0.4
		c0.6,0.3,0.9,0.7,1.2,1.1c0.3,0.5,0.4,0.9,0.4,1.4c0,0.5-0.1,0.9-0.4,1.3c-0.3,0.4-0.7,0.8-1.1,0.9c0.6,0.3,1.1,0.6,1.5,1
		c0.4,0.5,0.6,1.1,0.6,1.9c0,1-0.4,1.9-1.1,2.5s-1.7,1-2.7,1s-1.8-0.3-2.5-0.9C-11.3-28.3-11.6-29-11.7-30z"/>
</g>
<g transform="translate(605.3333,528.4)">
	<path class="st2" d="M-24.8-28.1c0-1.3,0.1-2.4,0.4-3.3s0.7-1.5,1.2-1.9c0.6-0.5,1.2-0.7,2.1-0.7c0.7,0,1.1,0.1,1.6,0.4
		c0.5,0.3,0.8,0.6,1.1,1c0.3,0.5,0.6,1,0.8,1.7s0.3,1.6,0.3,2.7c0,1.3-0.1,2.4-0.4,3.3c-0.3,0.8-0.7,1.5-1.2,1.9
		c-0.6,0.5-1.2,0.7-2.1,0.7c-1.1,0-2-0.4-2.6-1.1C-24.4-24.4-24.8-25.9-24.8-28.1z M-23.4-28.1c0,1.9,0.2,3.1,0.7,3.8
		s0.9,0.9,1.6,0.9c0.7,0,1.2-0.3,1.6-0.9c0.5-0.7,0.7-1.9,0.7-3.8s-0.2-3.1-0.7-3.8c-0.5-0.7-1-0.9-1.7-0.9s-1.1,0.3-1.5,0.8
		C-23.1-31.3-23.4-29.9-23.4-28.1z M-15.3-22.4V-24h1.6v1.6H-15.3z M-7.2-22.4v-2.7h-5v-1.3l5.2-7.4h1.1v7.4h1.6v1.3h-1.6v2.7
		C-5.9-22.4-7.2-22.4-7.2-22.4z M-7.2-26.5v-5.2l-3.6,5.2H-7.2z"/>
</g>
<g transform="translate(605.3333,452)">
	<path class="st2" d="M-24.8-23.5c0-1.3,0.1-2.4,0.4-3.3s0.7-1.5,1.2-1.9c0.6-0.5,1.2-0.7,2.1-0.7c0.7,0,1.1,0.1,1.6,0.4
		c0.5,0.3,0.8,0.6,1.1,1c0.3,0.5,0.6,1,0.8,1.7s0.3,1.6,0.3,2.7c0,1.3-0.1,2.4-0.4,3.3c-0.3,0.8-0.7,1.5-1.2,1.9
		c-0.6,0.5-1.2,0.7-2.1,0.7c-1.1,0-2-0.4-2.6-1.1C-24.4-19.9-24.8-21.4-24.8-23.5z M-23.4-23.5c0,1.9,0.2,3.1,0.7,3.8
		s0.9,0.9,1.6,0.9c0.7,0,1.2-0.3,1.6-0.9c0.5-0.7,0.7-1.9,0.7-3.8c0-1.9-0.2-3.1-0.7-3.8s-1-0.9-1.7-0.9s-1.1,0.3-1.5,0.8
		C-23.1-26.7-23.4-25.4-23.4-23.5z M-15.3-17.9v-1.6h1.6v1.6H-15.3z M-11.7-20.9l1.5-0.1c0.1,0.7,0.4,1.2,0.8,1.6s0.8,0.6,1.4,0.6
		c0.7,0,1.2-0.3,1.7-0.8s0.8-1.2,0.8-2.1c0-0.8-0.2-1.4-0.7-1.9s-1-0.7-1.8-0.7c-0.5,0-0.8,0.1-1.2,0.3s-0.7,0.5-0.8,0.8l-1.3-0.2
		l1-5.9h5.6v1.3h-4.6l-0.7,3.1c0.7-0.5,1.4-0.8,2.2-0.8c1,0,1.9,0.4,2.5,1s1,1.6,1,2.6s-0.3,2-0.9,2.7c-0.8,0.9-1.7,1.4-3,1.4
		c-1,0-1.9-0.3-2.5-0.8C-11.3-19.1-11.6-20-11.7-20.9z"/>
</g>
<g transform="translate(605.3333,375.6)">
	<path class="st2" d="M-24.8-19c0-1.3,0.1-2.4,0.4-3.3c0.3-0.8,0.7-1.5,1.2-1.9c0.6-0.5,1.2-0.7,2.1-0.7c0.7,0,1.1,0.1,1.6,0.4
		s0.8,0.6,1.1,1c0.3,0.5,0.6,1,0.8,1.7c0.2,0.7,0.3,1.6,0.3,2.7c0,1.3-0.1,2.4-0.4,3.3c-0.3,0.8-0.7,1.5-1.2,1.9
		c-0.6,0.5-1.2,0.7-2.1,0.7c-1.1,0-2-0.4-2.6-1.1C-24.4-15.3-24.8-16.8-24.8-19z M-23.4-19c0,1.9,0.2,3.1,0.7,3.8s0.9,0.9,1.6,0.9
		c0.7,0,1.2-0.3,1.6-0.9c0.5-0.7,0.7-1.9,0.7-3.8s-0.2-3.1-0.7-3.8s-1-0.9-1.7-0.9s-1.1,0.3-1.5,0.8C-23.1-22.2-23.4-20.9-23.4-19z
		 M-15.3-13.4V-15h1.6v1.6H-15.3z M-4.5-22l-1.4,0.1c-0.1-0.6-0.3-0.9-0.6-1.2c-0.4-0.4-0.8-0.6-1.4-0.6c-0.5,0-0.8,0.1-1.2,0.4
		c-0.5,0.3-0.8,0.8-1,1.4c-0.1,0.7-0.3,1.5-0.3,2.6c0.4-0.5,0.8-0.8,1.2-1.1c0.6-0.3,1-0.4,1.6-0.4c0.9,0,1.7,0.4,2.4,1
		s0.9,1.6,0.9,2.6c0,0.8-0.2,1.4-0.5,2c-0.3,0.7-0.8,1.1-1.3,1.4s-1.1,0.5-1.9,0.5c-1.1,0-2.2-0.5-2.8-1.3c-0.7-0.8-1.1-2.3-1.1-4.2
		c0-2.3,0.4-3.9,1.2-4.8c0.8-0.8,1.7-1.3,2.9-1.3c0.9,0,1.6,0.3,2.3,0.8C-4.9-23.6-4.6-22.9-4.5-22z M-10.1-17
		c0,0.5,0.1,0.9,0.3,1.4c0.2,0.5,0.5,0.8,0.8,1c0.4,0.2,0.8,0.4,1.1,0.4c0.6,0,1.1-0.3,1.5-0.8c0.5-0.6,0.7-1.2,0.7-2.1
		c0-0.8-0.2-1.4-0.7-1.9c-0.4-0.5-0.9-0.7-1.6-0.7s-1.1,0.3-1.5,0.7C-9.9-18.4-10.1-17.8-10.1-17z"/>
</g>
<g transform="translate(605.3333,299.2)">
	<path class="st2" d="M-24.8-14.5c0-1.3,0.1-2.4,0.4-3.3s0.7-1.5,1.2-1.9c0.6-0.5,1.2-0.7,2.1-0.7c0.7,0,1.1,0.1,1.6,0.4
		s0.8,0.6,1.1,1c0.3,0.5,0.6,1,0.8,1.7s0.3,1.6,0.3,2.7c0,1.3-0.1,2.4-0.4,3.3c-0.3,0.8-0.7,1.5-1.2,1.9c-0.6,0.5-1.2,0.7-2.1,0.7
		c-1.1,0-2-0.4-2.6-1.1C-24.4-10.8-24.8-12.3-24.8-14.5z M-23.4-14.5c0,1.9,0.2,3.1,0.7,3.8c0.5,0.7,0.9,0.9,1.6,0.9
		c0.7,0,1.2-0.3,1.6-0.9c0.5-0.7,0.7-1.9,0.7-3.8s-0.2-3.1-0.7-3.8s-1-0.9-1.7-0.9s-1.1,0.3-1.5,0.8C-23.1-17.7-23.4-16.3-23.4-14.5
		z M-15.3-8.8v-1.6h1.6v1.6H-15.3z M-11.6-18.8v-1.3h7.4v1.1c-0.8,0.8-1.5,1.8-2.2,3c-0.8,1.3-1.2,2.6-1.7,4c-0.3,0.9-0.5,2-0.6,3.1
		H-10c0-0.9,0.2-2,0.6-3.3s0.8-2.5,1.4-3.7c0.7-1.2,1.3-2.2,2-3L-11.6-18.8L-11.6-18.8z"/>
</g>
<g transform="translate(605.3333,222.8)">
	<path class="st2" d="M-24.8-9.9c0-1.3,0.1-2.4,0.4-3.3s0.7-1.5,1.2-1.9c0.6-0.5,1.2-0.7,2.1-0.7c0.7,0,1.1,0.1,1.6,0.4
		c0.5,0.3,0.8,0.6,1.1,1c0.3,0.5,0.6,1,0.8,1.7c0.2,0.7,0.3,1.6,0.3,2.7c0,1.3-0.1,2.4-0.4,3.3C-18-5.8-18.4-5.1-19-4.8
		c-0.6,0.5-1.2,0.7-2.1,0.7c-1.1,0-2-0.4-2.6-1.1C-24.4-6.3-24.8-7.8-24.8-9.9z M-23.4-9.9c0,1.9,0.2,3.1,0.7,3.8s0.9,0.9,1.6,0.9
		c0.7,0,1.2-0.3,1.6-0.9c0.5-0.7,0.7-1.9,0.7-3.8s-0.2-3.1-0.7-3.8s-1-0.9-1.7-0.9s-1.1,0.3-1.5,0.8C-23.1-13.1-23.4-11.8-23.4-9.9z
		 M-15.3-4.3v-1.6h1.6v1.6H-15.3z M-9.6-10.5c-0.6-0.2-1-0.6-1.3-0.9c-0.3-0.4-0.4-0.8-0.4-1.4c0-0.8,0.3-1.5,0.9-2.1
		c0.6-0.6,1.4-0.8,2.4-0.8c1,0,1.8,0.3,2.4,0.8c0.6,0.6,0.9,1.3,0.9,2.1c0,0.6-0.1,1-0.4,1.4c-0.3,0.4-0.7,0.7-1.2,0.9
		c0.6,0.2,1,0.6,1.4,1.1c0.4,0.5,0.6,1.1,0.6,1.8c0,0.9-0.4,1.8-1,2.4s-1.6,1-2.7,1s-2.1-0.4-2.7-1c-0.8-0.7-1-1.5-1-2.4
		c0-0.8,0.2-1.4,0.6-1.9C-10.8-9.9-10.2-10.3-9.6-10.5z M-9.9-12.9c0,0.6,0.2,0.9,0.6,1.3c0.3,0.3,0.8,0.5,1.3,0.5s0.9-0.2,1.3-0.5
		c0.4-0.4,0.6-0.8,0.6-1.2c0-0.6-0.2-0.9-0.6-1.3C-7-14.5-7.5-14.6-8-14.6c-0.6,0-0.9,0.2-1.3,0.5C-9.7-13.9-9.9-13.3-9.9-12.9z
		 M-10.3-7.6c0,0.4,0.1,0.8,0.3,1.1c0.2,0.4,0.5,0.7,0.8,0.8C-8.8-5.4-8.4-5.3-8-5.3c0.7,0,1.2-0.2,1.7-0.7c0.5-0.5,0.7-0.9,0.7-1.7
		c0-0.7-0.2-1.2-0.7-1.7C-6.8-9.8-7.3-10-8-10s-1.2,0.2-1.7,0.7C-10.1-8.9-10.3-8.2-10.3-7.6z"/>
</g>
<g transform="translate(605.3333,146.4)">
	<path class="st2" d="M-24.8-5.4c0-1.3,0.1-2.4,0.4-3.3c0.3-0.8,0.7-1.5,1.2-1.9c0.6-0.5,1.2-0.7,2.1-0.7c0.7,0,1.1,0.1,1.6,0.4
		c0.5,0.3,0.8,0.6,1.1,1c0.3,0.5,0.6,1,0.8,1.7s0.3,1.6,0.3,2.7c0,1.3-0.1,2.4-0.4,3.3C-18-1.3-18.4-0.6-19-0.2
		c-0.6,0.5-1.2,0.7-2.1,0.7c-1.1,0-2-0.4-2.6-1.1C-24.4-1.7-24.8-3.2-24.8-5.4z M-23.4-5.4c0,1.9,0.2,3.1,0.7,3.8s0.9,0.9,1.6,0.9
		c0.7,0,1.2-0.3,1.6-0.9c0.5-0.7,0.7-1.9,0.7-3.8s-0.2-3.1-0.7-3.8s-1-0.9-1.7-0.9s-1.1,0.3-1.5,0.8C-23.1-8.6-23.4-7.3-23.4-5.4z
		 M-15.3,0.2v-1.6h1.6v1.6H-15.3z M-11.5-2.4l1.3-0.1c0.2,0.6,0.4,1,0.8,1.3c0.3,0.3,0.8,0.5,1.2,0.5c0.5,0,0.8-0.1,1.1-0.3
		c0.3-0.2,0.6-0.5,0.8-0.8C-6.1-2.1-6-2.6-5.8-3.1c0.1-0.6,0.2-1.1,0.2-1.7c0-0.1,0-0.2,0-0.3C-5.9-4.7-6.3-4.3-6.8-4
		c-0.5,0.3-1,0.4-1.6,0.4c-0.9,0-1.8-0.4-2.4-1c-0.7-0.7-0.9-1.6-0.9-2.7s0.4-2.1,1-2.8c0.7-0.8,1.5-1,2.5-1c0.8,0,1.4,0.2,2.1,0.6
		S-5-9.7-4.7-9s0.5,1.8,0.5,3.2c0,1.5-0.2,2.6-0.5,3.5s-0.8,1.6-1.4,2.1c-0.7,0.5-1.3,0.7-2.2,0.7s-1.6-0.3-2.2-0.8
		C-11.1-0.8-11.5-1.5-11.5-2.4z M-5.8-7.5c0-0.8-0.2-1.4-0.7-1.9c-0.5-0.5-0.9-0.8-1.5-0.8c-0.7,0-1.1,0.3-1.6,0.8
		c-0.5,0.5-0.7,1.1-0.7,2c0,0.8,0.2,1.3,0.7,1.8C-9.2-5.1-8.6-4.9-8-4.9s1.2-0.2,1.6-0.7C-6-6.1-5.8-6.6-5.8-7.5z"/>
</g>
<g transform="translate(605.3333,70)">
	<path class="st2" d="M-6.4,4.8h-1.4v-8.9c-0.3,0.3-0.8,0.7-1.3,0.9s-1,0.6-1.5,0.8v-1.4c0.8-0.4,1.5-0.8,2.1-1.3s1-1,1.2-1.5h0.9
		C-6.4-6.7-6.4,4.8-6.4,4.8z"/>
</g>
<g transform="translate(576.3333,451.9996) rotate(-90)">
	<path class="st2" d="M-13.8-17.6c0,1.8,0,3,0,3.8c0,0.8-0.1,1.3-0.1,1.7c-0.1,0.4-0.2,0.7-0.5,0.9c-0.3,0.3-0.7,0.5-1.3,0.8
		c0-0.6-0.7-1-2.1-1.4v-0.4c1.1,0.1,1.8,0.2,2.1,0.2s0.6-0.1,0.7-0.2c0.1-0.2,0.2-0.7,0.2-1.6c0-0.8,0-2.3,0-4h-4.7v11.4h5.2
		l1.1-1.1l1.5,1.5h-13.2c-0.6,0-1.1,0.1-1.6,0.2l-0.6-0.6h6.6v-11.4H-23c-0.6,0-1.1,0.1-1.6,0.2l-0.6-0.6h10.3l0.6-0.8l1.1,0.8
		L-13.8-17.6z M-6.3-18.7l1.5,0.8c-0.5,0.2-0.9,1-1.6,2.4h4c0-2.1,0-3.5-0.1-4.4l1.6,0.7l-0.6,0.5v3.3h3.8l0.9-0.9l1.2,1.4h-6v4.1h3
		l1-0.9l1.2,1.4h-5.3v4.8h4.8l1-1L5.6-5H-7.6c-0.6,0-1.1,0.1-1.6,0.2l-0.6-0.6h7.2v-4.8h-2.5c-0.6,0-1.1,0.1-1.6,0.2l-0.6-0.6h4.7
		v-4.1h-4c-1,1.9-1.9,3.3-2.7,4l-0.2-0.1c0.8-1.1,1.4-2.4,1.9-3.8C-6.9-16.1-6.6-17.4-6.3-18.7z M18.8-15.8l1-1.8H15
		c-0.8,0.9-1.6,1.8-2.6,2.4l-0.1-0.1c0.8-0.7,1.3-1.3,1.7-2.1c0.5-0.8,0.8-1.5,1-2.3l1.2,0.7l-0.6,0.3L15-18h4.7l0.6-0.8l1.2,1
		C20.8-17.6,20.1-17,18.8-15.8L18.8-15.8z M16.2-17.1l1.4,0.6l-0.5,0.3L17-15.9c1.1,1.6,2.9,2.6,5.4,2.9v0.2
		c-0.8,0.1-1.2,0.4-1.4,0.8c-2-0.9-3.4-2.2-4.1-3.7c-0.8,1.9-2.8,3-6.2,3.4l-0.1-0.2c2.1-0.5,3.6-1.1,4.4-1.9
		C15.8-15.1,16.2-16,16.2-17.1z M9-19.1c1.2,0.2,1.9,0.5,2.1,0.7s0.3,0.4,0.3,0.6c0,0.1-0.1,0.3-0.2,0.6C11.1-17.1,11-17,10.9-17
		c-0.1,0-0.3-0.2-0.4-0.5c-0.3-0.5-0.8-0.9-1.6-1.4L9-19.1z M13.2-18.5l0.2,0.1c-1,1.3-1.8,2.2-2.3,2.7c-0.5,0.6-0.8,1-0.8,1.4
		c-0.1,0.4-0.2,0.9-0.2,1.6c0,0.5-0.1,0.7-0.4,0.7c0,0-0.2-0.1-0.5-0.2c-0.3-0.2-0.4-0.4-0.4-0.6c0-0.2,0-0.4,0.1-0.6
		c0.2-0.5,0.3-0.8,0.4-1.1C9.4-14.7,9-15,8-15.3l0.1-0.2c0.7,0.1,1,0.1,1.2,0.1s0.4-0.1,0.7-0.2C10.4-15.8,11.4-16.7,13.2-18.5z
		 M10.5-6.9c0-1.1,0.1-2.1,0.1-2.8c0-0.8,0-1.6-0.1-2.4l0.9,0.4h7.1l0.4-0.6l1,0.8l-0.6,0.5c0,1.5,0,2.6,0.1,3.5l-0.9,0.5v-4.1h-7.1
		v4.1L10.5-6.9z M14.6-10.8l1.7,0.8l-0.8,0.5c-0.2,1.4-0.5,2.4-0.9,2.9s-1.2,1-2.3,1.4S10-4.5,8.2-4.3L8.1-4.5
		c1.1-0.2,2.2-0.6,3.2-0.9c1-0.4,1.8-0.8,2.2-1.3c0.4-0.5,0.7-1,0.8-1.6C14.3-8.9,14.6-9.8,14.6-10.8z M15.3-6.8v-0.3
		c1.7,0.3,3,0.6,4,0.8c0.9,0.2,1.5,0.5,1.7,0.8c0.2,0.3,0.3,0.6,0.3,0.8s-0.1,0.5-0.2,0.5s-0.4-0.1-0.7-0.3
		c-0.7-0.5-1.3-0.8-2.1-1.2C17.5-6.1,16.6-6.4,15.3-6.8z M33.5-15.2v1.9h4.3v-1.9H33.5z M33.5-12.9v2h4.3v-2H33.5z M32.9-9.4
		l1.2,0.9c-0.5,0.2-1,0.7-1.5,1.2C32-6.6,31.2-5.9,30-5l-0.1-0.2C31.4-6.7,32.5-8.1,32.9-9.4z M36.7-8.9l0.1-0.2
		c1.5,0.9,2.4,1.5,2.5,1.9c0.3,0.3,0.4,0.6,0.4,0.8c0,0.2-0.1,0.5-0.2,0.8c-0.1,0.3-0.3,0.5-0.4,0.5c-0.1,0-0.3-0.3-0.6-0.8
		C38.4-6.7,37.7-7.8,36.7-8.9z M32.6-9.8c0-1.1,0.1-2.3,0.1-3.2c0-0.9,0-2.1-0.1-3.1l0.9,0.6h0.9c0.5-1,0.7-1.8,0.8-2.4h-4
		c0,1.8,0,3.6,0,5.2c0,1.7-0.4,3.2-0.9,4.5c-0.7,1.3-1.5,2.5-2.8,3.8l-0.2-0.2c1.1-1.4,1.9-2.8,2.4-4.2s0.7-3.2,0.7-5.3
		s0-3.7-0.1-4.9l0.9,0.7h6.9l0.9-0.9l1.2,1.3h-4.7l1,0.6c-0.4,0.1-0.7,0.3-0.8,0.5c-0.2,0.2-0.5,0.6-0.9,1.2h3l0.5-0.7l0.9,0.8
		l-0.6,0.5c0,2.7,0,4.2,0.1,4.6L37.6-10v-0.7h-1.7v4.3c0,0.8-0.5,1.4-1.4,1.7c0-0.7-0.6-1-1.6-1.2v-0.3c0.8,0.3,1.2,0.3,1.7,0.3
		c0.4,0,0.6-0.2,0.6-0.5v-4.1h-1.7v0.3L32.6-9.8z M29.6-17.2c-1.3,4.8-2.1,7.5-2.3,8.1c0,0.6-0.1,1.3-0.1,2.1s0,1.3,0,1.7
		C27.3-5.1,27.2-5,27-5c-0.1,0-0.4-0.1-0.7-0.2C26.2-5.3,26-5.6,26-6c0-0.3,0-0.7,0.1-0.9c0.1-0.5,0.2-0.8,0.2-1
		c0-0.3,0-0.5-0.3-0.7c-0.2-0.2-0.6-0.4-1.2-0.6v-0.3c0.8,0.1,1.3,0.1,1.5,0.1s0.4-0.2,0.7-0.6c0.3-0.4,1.1-2.8,2.5-7.3L29.6-17.2z
		 M24.8-15.4c1.5,0.8,2.4,1.3,2.4,1.7c0,0.5-0.1,0.8-0.3,0.9c-0.2,0.2-0.3,0.3-0.4,0.3s-0.3-0.2-0.4-0.7c-0.2-0.6-0.7-1.3-1.4-2.1
		L24.8-15.4z M26.2-19.1c1.3,0.6,2,0.9,2.1,1.3c0.1,0.4,0.1,0.8-0.1,1c-0.2,0.3-0.4,0.5-0.5,0.5c-0.2,0-0.3-0.2-0.4-0.6
		c-0.2-0.6-0.7-1.2-1.3-2.1L26.2-19.1z M45.6-18.4v1.7h3.9v-1.7H45.6z M50.3-18.4v1.7h4v-1.7H50.3z M45.6-16.3v1.5h3.9v-1.5H45.6z
		 M50.3-16.3v1.5h4v-1.5H50.3z M55.1-18.1c0,0.7,0,1.3,0,2c0,0.7,0,1.4,0.1,2.1l-0.9,0.4v-0.8h-8.7v0.6l-0.9,0.3
		c0-1.1,0.1-2.2,0.1-3.3s0-2-0.1-2.5l0.9,0.6h8.6l0.5-0.6l0.9,0.8L55.1-18.1z M50.5-13.5c-0.6,0.1-1.1,0.2-1.7,0.5
		c-0.7,0.3-1.5,0.7-2.8,1.1l4.5-0.1c0.7-0.5,1.2-0.8,1.7-1.3l0.8,1c-0.4,0-1.1,0.3-2.2,0.8c-1.1,0.6-2.7,1.3-4.8,2.1l7.7-0.5
		c-0.4-0.5-0.8-0.8-1.2-1.3l0.2-0.1c1.3,0.7,2.1,1.1,2.4,1.4c0.3,0.4,0.4,0.7,0.4,0.9s-0.1,0.5-0.2,0.7S55.1-8,55.1-8
		C55-8,55-8.1,54.9-8.4c-0.3-0.3-0.5-0.7-0.8-1l-3.5,0.3v3c0.1,0.9-0.5,1.5-1.4,1.7c0-0.7-0.8-1.1-2.1-1.4v-0.3
		c1.2,0.1,2,0.2,2.3,0.2c0.3,0,0.5-0.3,0.5-0.8v-2.4C49-9,48.2-8.9,47.2-8.7c-0.8,0.1-1.6,0.4-2.1,0.7l-0.8-1.4
		c0.7-0.1,1.4-0.3,2.2-0.6s2-0.8,3.7-1.6c-1.9,0.2-3.1,0.3-3.7,0.4s-0.9,0.2-1.2,0.4l-0.6-1.2c0.6,0,1.3-0.2,2.4-0.7
		c1-0.5,1.9-1,2.5-1.7L50.5-13.5z M48.2-7.2c-0.6,0.1-1.2,0.4-2.1,0.8c-0.8,0.6-2,1.1-3.5,1.7l-0.1-0.2c1.1-0.6,2.1-1.2,2.8-1.8
		c0.8-0.7,1.3-1.2,1.8-1.7L48.2-7.2z M52-8.2c1.6,0.6,2.7,1,3.3,1.3c0.6,0.4,0.8,0.7,0.9,1c0,0.4,0,0.6-0.1,0.8
		c-0.2,0.2-0.3,0.3-0.3,0.3c-0.2,0-0.4-0.2-0.8-0.7C54.7-6.3,53.5-7.1,52-8.2L52-8.2z M61.1-19l0.1-0.2c0.9,0.5,1.6,0.8,2,1.1
		c0.4,0.3,0.6,0.7,0.6,0.9s-0.1,0.6-0.2,0.7c-0.2,0.1-0.3,0.2-0.3,0.2c-0.2,0-0.5-0.3-0.6-0.8C62.3-17.8,61.8-18.4,61.1-19z
		 M62.9-6.9l2.6-2.3L65.6-9c-1.5,2-2.5,3.3-2.8,4l-0.9-1.1c0.2-0.3,0.3-0.7,0.3-1.2v-5.9h-1.7H61c-0.3,0-0.7,0.1-1.1,0.2l-0.6-0.6
		H62l0.8-0.8l0.9,0.9L63-13v6.1H62.9z M68.7-13.6c0-2.9,0-4.9-0.1-5.7l1.6,0.8l-0.5,0.5v4.5h3l0.8-0.8l1.2,1.2h-5v6
		c0,0.8,0,1.7,0.1,2.4l-1.1,0.5c0-1.4,0.1-2.4,0.1-3.1v-5.8h-3.4h0.9c-0.6,0-1,0.1-1.5,0.2l-0.6-0.6H68.7z"/>
</g>
<g transform="translate(994.001,67.25)">
	<path d="M-62.2-4.4c0-0.8,0.1-2.8,0.1-6.1c-0.9,0.5-1.8,0.8-2.5,0.9l-0.1-0.2c2-0.8,3.9-2,5.6-3.9c-0.8-1.1-1.3-2.3-1.6-3.3
		c-0.8,1.4-1.5,2.5-2.4,3.5l-0.2-0.1c0.7-0.8,1.1-1.8,1.6-2.8c0.4-1,0.8-2.2,1.1-3.4l1.3,0.8l-0.6,0.4c-0.2,0.4-0.4,0.8-0.6,1.2h4
		l0.6-0.7l1,1l-0.6,0.3c-1,1.3-1.9,2.4-2.6,3.2c1.3,1.3,2.9,2.1,4.9,2.2v0.3c-0.8,0.1-1.1,0.5-1.2,0.9c-1.6-0.7-3-1.6-4.2-2.8
		c-1.1,1-2.3,1.9-3.5,2.5l0.8,0.4h4.7l0.6-0.6l0.9,0.8l-0.6,0.4c0,2.4,0,3.9,0.1,4.6l-0.9,0.4v-1.2h-4.9v0.9L-62.2-4.4z M-61.2-9.7
		v3.7h4.9v-3.7H-61.2z M-60.5-17c0.6,1.2,1.1,2.2,1.9,2.9c0.8-0.8,1.5-1.8,2.2-2.9H-60.5z M-63.1-16.7c-1.6,4.8-2.4,7.4-2.5,8
		c-0.1,0.6-0.1,1.2-0.1,1.9c0,0.8,0,1.2,0,1.5c0,0.3-0.1,0.4-0.2,0.4s-0.3-0.1-0.6-0.3C-66.8-5.4-67-5.6-67-6c0-0.3,0-0.6,0.1-0.8
		c0.1-0.4,0.2-0.7,0.2-0.9c0-0.3-0.1-0.5-0.4-0.8c-0.3,0-0.7-0.2-1.4-0.4v-0.3c0.8,0.1,1.3,0.1,1.5,0.1c0.2,0,0.5-0.3,0.8-0.7
		c0.3-0.4,1.2-2.7,2.8-7.1L-63.1-16.7z M-68.4-15.4c1.3,0.8,2.1,1.2,2.1,1.6s-0.1,0.7-0.2,0.8c-0.2,0.2-0.3,0.3-0.4,0.3
		c-0.1,0-0.3-0.2-0.4-0.6c-0.2-0.6-0.6-1.2-1.2-2L-68.4-15.4z M-66.8-19.1c1.1,0.6,1.7,0.9,1.9,1.1c0.1,0.2,0.2,0.4,0.2,0.7
		c0,0.2-0.1,0.5-0.2,0.7c-0.1,0.2-0.3,0.4-0.4,0.4s-0.2-0.2-0.3-0.6c-0.2-0.6-0.7-1.2-1.3-2L-66.8-19.1z M-47.6-7.7
		c0,0.8,0,1.9,0.1,3l-1,0.6c0-1.4,0.1-2.5,0.1-3.5v-7.1c-0.8,1.4-1.7,2.5-2.5,3.5l-0.4-0.4c0.6-0.8,1.2-1.7,1.9-3.1
		c0.7-1.3,1.3-3.1,1.9-5.2l1.4,0.8l-0.6,0.4c-0.6,1.3-1.1,2.4-1.6,3.3l1.2,0.6l-0.6,0.5L-47.6-7.7L-47.6-7.7z M-40.8-18.8l-0.7,0.3
		c0.8,1.4,1.6,2.5,2.6,3.5c1,0.9,2.1,1.5,3,1.7v0.3c-0.8,0-1.2,0.3-1.4,0.8c-0.7-0.4-1.4-1-2.2-2s-1.5-2.2-2.3-3.9
		c-0.9,2-1.9,3.5-2.7,4.4c-0.8,0.9-1.8,1.7-2.7,2.3l-0.1-0.2c1.1-0.9,2.1-2.1,2.9-3.6c0.8-1.4,1.5-2.9,2-4.4L-40.8-18.8z
		 M-38.2-11.4l-0.8,0.1c-1.5,0.8-2.9,1.5-4.2,2.1v2.5c-0.1,0.7,0.3,0.9,1,0.9h3.4c0.4-0.1,0.7-0.4,0.8-0.9c0.1-0.6,0.2-1.3,0.2-2.2
		h0.3c0,0.8,0,1.3,0.1,1.9c0.1,0.6,0.3,0.8,0.8,0.9c-0.3,0.7-0.8,0.9-1.4,1h-4.6c-1,0-1.5-0.4-1.5-1.2v-4.4c0-0.8,0-1.7-0.1-2.7
		l1.6,0.8l-0.6,0.5v2.6c1.6-0.8,2.9-1.9,4-3L-38.2-11.4z M-25-6.4c1.3,0,2.7-0.1,4.1-0.1c-0.3-0.9-0.8-1.7-1.1-2.4l0.2-0.1
		c1.6,1.3,2.4,2.2,2.4,2.7s-0.1,0.9-0.3,1.1s-0.4,0.3-0.5,0.3s-0.1-0.1-0.1-0.3c-0.1-0.3-0.2-0.7-0.4-1.1c-2.6,0.4-4.2,0.8-4.7,1.1
		l-0.8-1.4c0.5-0.2,0.9-0.6,1.4-1.1s1.1-1.6,2.1-3.2c-1.5,0.2-2.5,0.5-3.1,1l-0.8-1.3c0.3-0.1,0.6-0.3,0.8-0.6
		c0.3-0.3,0.6-0.8,1-1.6c0.5-0.8,0.8-1.6,0.8-2.3l1.3,0.8c-0.5,0.3-1,0.8-1.6,1.7c-0.6,0.9-1,1.6-1.4,2c0.9-0.1,1.9-0.1,2.9-0.1
		c0.6-0.9,0.9-1.8,1.1-2.4l1.2,1c-0.4,0.1-1,0.8-2,2.4C-23.1-8.8-24.1-7.6-25-6.4z M-32.9-6.4c0.5-0.1,0.9-0.4,1.3-0.8
		s1.2-1.7,2.5-3.8c-1.8,0.2-2.9,0.6-3.3,0.9l-0.8-1.2c0.7-0.1,1.2-0.8,1.8-1.8c0.6-1,0.9-2,1.2-2.7l1.3,0.9l-0.7,0.3
		c-1.3,1.9-2.2,2.9-2.5,3.3c1,0,2-0.1,3-0.1c0.5-0.8,0.8-1.6,1-2.4l1.2,0.9c-0.4,0.1-1,0.9-2,2.4c-0.9,1.5-2,2.8-3,4
		c1.3-0.1,2.5-0.2,3.7-0.2c-0.2-0.7-0.5-1.3-0.8-2l0.5-0.1c1.3,1.2,2,2.1,2.1,2.5c0.1,0.5,0,0.8-0.3,1.1c-0.3,0.3-0.5,0.4-0.6,0.4
		s-0.1-0.1-0.1-0.2c-0.1-0.3-0.2-0.8-0.4-1.4c-2.5,0.4-4,0.8-4.4,1.2L-32.9-6.4z M-30.1-19.2l0.2-0.1c0.8,0.4,1.3,0.8,1.8,1.2
		c0.4,0.4,0.7,0.8,0.7,1c0,0.4-0.2,0.8-0.6,1.1h3c0.8-1.5,1.3-2.7,1.4-3.6l1.4,0.9l-0.7,0.3c-0.8,0.9-1.3,1.8-1.8,2.4h3.6l1-1.2
		l1.4,1.4h-13c-0.6,0-1.1,0.1-1.6,0.2l-0.6-0.6h5.3c-0.2-0.5-0.3-1-0.6-1.5C-29.2-18-29.6-18.6-30.1-19.2z M-6.8-11.2v4.8H-4v-4.8
		H-6.8z M-14.8-16.6l1,0.6h2.6c0-1.6,0-2.9-0.1-3.8l1.5,0.8l-0.6,0.5v2.5h2.7c0-1.8,0-3-0.1-3.8l1.6,0.8l-0.7,0.4v2.5h2.6l0.6-0.7
		l1,0.8l-0.6,0.5c0,5.7,0,9.1,0.1,10.2l-0.9,0.5v-1.2h-9.9v1.1l-1,0.5c0.1-2.1,0.1-4.1,0.1-6.2S-14.8-14.7-14.8-16.6z M-13.8-15.6v4
		h2.6v-4H-13.8z M-10.3-15.6v4h2.7v-4H-10.3z M-6.8-15.6v4H-4v-4H-6.8z M-13.8-11.2v4.8h2.6v-4.8H-13.8z M-10.3-11.2v4.8h2.7v-4.8
		H-10.3z M10.1-14.9c0,0.7,0,1.4,0.1,2.4l3.1-0.3l0.8-1l1.3,1.1l-5.2,0.6c0.1,1.3,0.4,2.4,0.7,3.2c0.9-0.8,1.7-1.8,2.4-2.8l1.2,1.2
		l-0.6,0.1c-0.8,0.8-1.7,1.6-2.5,2.4c0.8,1.1,1.7,1.9,2.8,2.4l0.9-3.2l0.3,0.1c-0.1,1-0.2,1.9-0.2,2.5s0.1,1.2,0.3,1.6
		c0,0.1,0.1,0.2,0.1,0.2c0,0.2-0.2,0.2-0.7,0.2c-0.5-0.1-1-0.4-1.9-0.8c-0.8-0.5-1.6-1.2-2.4-2.3C10-6.7,9.1-6.4,8.3-6
		c-0.8,0.4-1.9,0.8-3.1,1L5.1-5.2C7-6,8.7-6.9,10.2-8.1C9.8-9.4,9.5-10.6,9.4-12l-2.7,0.3l-0.6,0.3L5.4-12l3.9-0.4
		c0-0.7-0.1-1.4-0.1-2.5l-1.9,0.1l-0.4,0.3l-0.6-0.6l2.9-0.2c0-1.5-0.1-3.1-0.1-4.6l1.5,0.8l-0.6,0.5c0,0.9,0,2.1,0.1,3.4l2.8-0.3
		l0.8-0.9l1.3,1.2L10.1-14.9z M11.1-18.7l0.1-0.2c1.4,0.4,2.2,0.7,2.3,0.8c0.1,0.3,0.2,0.5,0.2,0.7c0,0.2,0,0.5-0.1,0.7
		c-0.1,0.2-0.2,0.4-0.3,0.4c-0.1,0-0.2-0.2-0.4-0.6C12.5-17.4,11.9-17.9,11.1-18.7z M3.8-19.5l1.3,0.8c-0.4,0.1-0.8,0.6-1.1,1.3
		c-0.4,0.8-1.1,1.9-2.2,3.4l2.7-0.3c0.6-0.8,0.9-1.8,1.2-2.6L7-16c-0.3,0.2-0.8,0.8-1.6,1.9c-0.8,1.1-1.7,2.4-2.9,4
		c0.7-0.1,2-0.4,4.1-0.8v0.3c-1.2,0.3-2.2,0.6-2.8,0.8c-0.7,0.3-1.3,0.6-2,1L1-10.2c0.5-0.1,1-0.7,1.7-1.4c0.7-0.8,1.2-1.6,1.7-2.4
		C4-14,3.5-13.9,2.9-13.7s-1,0.5-1.4,0.8l-0.8-1.2c0.5-0.1,1-0.8,1.7-1.9C3-17.1,3.5-18.3,3.8-19.5z M0.6-6.9c1.2-0.2,2.3-0.4,3-0.5
		c0.8-0.1,2-0.4,3.7-0.8l0,0.4c-2,0.6-3.4,1-4.3,1.3C2-6.2,1.4-5.9,1.2-5.6L0.6-6.9z"/>
</g>
<g>
	<path class="st3" d="M608.7,787.3l51.4-51.4l51.4-51.4l51.4-51.4l51.4-51.4l51.4-51.4l51.4-51.4l51.2-51.2l51.4-51.4l51.4-51.4
		l51.4-51.4l51.4-51.4l51.4-51.4l51.4-51.4l51.2-51.2"/>
	<path class="st4" d="M608.7,783c2.4,0,4.3,2,4.3,4.3l0,0c0,2.4-2,4.3-4.3,4.3c-2.4,0-4.3-2-4.3-4.3C604.4,785,606.4,783,608.7,783z
		 M608.7,782.3c-2.8,0-5.1,2.3-5.1,5.1c0,2.8,2.3,5.1,5.1,5.1s5.1-2.3,5.1-5.1l0,0C613.8,784.5,611.5,782.3,608.7,782.3z"/>
	<path class="st4" d="M660.1,782.4c2.4,0,4.3,2,4.3,4.3l0,0c0,2.4-2,4.3-4.3,4.3c-2.4,0-4.3-2-4.3-4.3S657.6,782.4,660.1,782.4z
		 M660.1,781.6c-2.8,0-5.1,2.3-5.1,5.1s2.3,5.1,5.1,5.1c2.8,0,5.1-2.3,5.1-5.1l0,0C665.2,783.9,662.9,781.6,660.1,781.6z"/>
	<path class="st4" d="M711.3,777.7c2.4,0,4.3,2,4.3,4.3l0,0c0,2.4-2,4.3-4.3,4.3c-2.4,0-4.3-2-4.3-4.3
		C707,779.7,709,777.7,711.3,777.7z M711.3,777c-2.8,0-5.1,2.3-5.1,5.1c0,2.8,2.3,5.1,5.1,5.1c2.8,0,5.1-2.3,5.1-5.1l0,0
		C716.5,779.3,714.2,777,711.3,777z"/>
	<path class="st4" d="M762.7,769.2c2.4,0,4.3,2,4.3,4.3l0,0c0,2.4-2,4.3-4.3,4.3c-2.4,0-4.3-2-4.3-4.3
		C758.4,771.2,760.3,769.2,762.7,769.2z M762.7,768.4c-2.8,0-5.1,2.3-5.1,5.1c0,2.8,2.3,5.1,5.1,5.1c2.8,0,5.1-2.3,5.1-5.1l0,0
		C767.8,770.7,765.5,768.4,762.7,768.4z"/>
	<path class="st4" d="M814.1,755.1c2.4,0,4.3,2,4.3,4.3l0,0c0,2.4-2,4.3-4.3,4.3c-2.4,0-4.3-2-4.3-4.3
		C809.7,757.1,811.7,755.1,814.1,755.1z M814.1,754.3c-2.8,0-5.1,2.3-5.1,5.1c0,2.8,2.3,5.1,5.1,5.1c2.8,0,5.1-2.3,5.1-5.1l0,0
		C819.1,756.6,816.9,754.3,814.1,754.3z"/>
	<path class="st4" d="M865.4,737.9c2.4,0,4.3,2,4.3,4.3l0,0c0,2.4-2,4.3-4.3,4.3c-2.4,0-4.3-2-4.3-4.3
		C861.1,739.8,863,737.9,865.4,737.9z M865.4,737.1c-2.8,0-5.1,2.3-5.1,5.1c0,2.8,2.3,5.1,5.1,5.1c2.8,0,5.1-2.3,5.1-5.1l0,0
		C870.5,739.4,868.2,737.1,865.4,737.1z"/>
	<path class="st4" d="M916.7,720.3c2.4,0,4.3,2,4.3,4.3l0,0c0,2.4-2,4.3-4.3,4.3c-2.4,0-4.3-2-4.3-4.3
		C912.4,722.2,914.3,720.3,916.7,720.3z M916.7,719.4c-2.8,0-5.1,2.3-5.1,5.1c0,2.8,2.3,5.1,5.1,5.1c2.8,0,5.1-2.3,5.1-5.1l0,0
		C921.8,721.8,919.5,719.4,916.7,719.4z"/>
	<path class="st4" d="M968.1,702.1c2.4,0,4.3,2,4.3,4.3l0,0c0,2.4-2,4.3-4.3,4.3c-2.4,0-4.3-2-4.3-4.3
		C963.7,704.1,965.7,702.1,968.1,702.1z M968.1,701.4c-2.8,0-5.1,2.3-5.1,5.1c0,2.8,2.3,5.1,5.1,5.1c2.8,0,5.1-2.3,5.1-5.1l0,0
		C973.1,703.6,970.9,701.4,968.1,701.4z"/>
	<path class="st4" d="M1019.4,679.7c2.4,0,4.3,2,4.3,4.3l0,0c0,2.4-2,4.3-4.3,4.3c-2.4,0-4.3-2-4.3-4.3
		C1015.1,681.7,1017,679.7,1019.4,679.7z M1019.4,678.9c-2.8,0-5.1,2.3-5.1,5.1c0,2.8,2.3,5.1,5.1,5.1s5.1-2.3,5.1-5.1l0,0
		C1024.5,681.1,1022.2,678.9,1019.4,678.9z"/>
	<path class="st4" d="M1070.7,642.7c2.4,0,4.3,2,4.3,4.3l0,0c0,2.4-2,4.3-4.3,4.3s-4.3-2-4.3-4.3
		C1066.4,644.6,1068.3,642.7,1070.7,642.7z M1070.7,641.9c-2.8,0-5.1,2.3-5.1,5.1c0,2.8,2.3,5.1,5.1,5.1c2.8,0,5.1-2.3,5.1-5.1l0,0
		C1075.9,644.2,1073.5,641.9,1070.7,641.9z"/>
	<path class="st4" d="M1122,605.3c2.4,0,4.3,2,4.3,4.3l0,0c0,2.4-2,4.3-4.3,4.3s-4.3-2-4.3-4.3
		C1117.7,607.3,1119.7,605.3,1122,605.3z M1122,604.6c-2.8,0-5.1,2.3-5.1,5.1c0,2.8,2.3,5.1,5.1,5.1s5.1-2.3,5.1-5.1l0,0
		C1127.1,606.8,1124.9,604.6,1122,604.6z"/>
	<path class="st4" d="M1173.4,561.5c2.4,0,4.3,2,4.3,4.3l0,0c0,2.4-2,4.3-4.3,4.3c-2.4,0-4.3-2-4.3-4.3
		C1169.1,563.5,1171.1,561.5,1173.4,561.5z M1173.4,560.7c-2.8,0-5.1,2.3-5.1,5.1c0,2.8,2.3,5.1,5.1,5.1c2.8,0,5.1-2.3,5.1-5.1l0,0
		C1178.5,563,1176.2,560.7,1173.4,560.7z"/>
	<path class="st4" d="M1224.8,509.7c2.4,0,4.3,2,4.3,4.3l0,0c0,2.4-2,4.3-4.3,4.3s-4.3-2-4.3-4.3
		C1220.4,511.7,1222.3,509.7,1224.8,509.7z M1224.8,509c-2.8,0-5.1,2.3-5.1,5.1c0,2.8,2.3,5.1,5.1,5.1s5.1-2.3,5.1-5.1l0,0
		C1229.8,511.2,1227.5,509,1224.8,509z"/>
	<path class="st4" d="M1276,445.2c2.4,0,4.3,2,4.3,4.3l0,0c0,2.4-2,4.3-4.3,4.3c-2.4,0-4.3-2-4.3-4.3
		C1271.7,447.2,1273.7,445.2,1276,445.2z M1276,444.4c-2.8,0-5.1,2.3-5.1,5.1s2.3,5.1,5.1,5.1c2.8,0,5.1-2.3,5.1-5.1l0,0
		C1281.1,446.7,1278.9,444.4,1276,444.4z"/>
	<path class="st4" d="M1327.4,64.3c2.4,0,4.3,2,4.3,4.3l0,0c0,2.4-2,4.3-4.3,4.3s-4.3-2-4.3-4.3C1323.1,66.3,1325,64.3,1327.4,64.3z
		 M1327.4,63.6c-2.8,0-5.1,2.3-5.1,5.1c0,2.8,2.3,5.1,5.1,5.1s5.1-2.3,5.1-5.1l0,0C1332.5,65.8,1330.2,63.6,1327.4,63.6z"/>
</g>
<line class="st5" x1="608.7" y1="784.3" x2="1327.4" y2="65.7"/>
<path class="st6" d="M608.7,784.3l51.4-0.7l51.4-4.6l51.4-8.6l51.4-14l51.4-17.2l51.4-17.7l51.2-18.2l51.4-22.5l51.4-37l51.4-37.3
	l51.4-43.8l51.4-51.7l51.4-64.6l51.2-380.8"/>
<g transform="translate(612,834)">
	<path class="st7" d="M-7.1-50.4v7.5h7.5v-7.5H-7.1z"/>
</g>
<g transform="translate(612,834)">
	<path class="st8" d="M-7.1-50.4v7.5h7.5v-7.5H-7.1z"/>
</g>
<g transform="translate(666.5714,833.3167)">
	<path class="st7" d="M-10.3-50.4v7.5h7.5v-7.5H-10.3z"/>
</g>
<g transform="translate(666.5714,833.3167)">
	<path class="st8" d="M-10.3-50.4v7.5h7.5v-7.5H-10.3z"/>
</g>
<g transform="translate(721.1429,828.4006)">
	<path class="st7" d="M-13.5-50.1v7.5H-6v-7.5H-13.5z"/>
</g>
<g transform="translate(721.1429,828.4006)">
	<path class="st8" d="M-13.5-50.1v7.5H-6v-7.5H-13.5z"/>
</g>
<g transform="translate(775.7143,819.2769)">
	<path class="st7" d="M-16.8-49.5v7.5h7.5v-7.5H-16.8z"/>
</g>
<g transform="translate(775.7143,819.2769)">
	<path class="st8" d="M-16.8-49.5v7.5h7.5v-7.5H-16.8z"/>
</g>
<g transform="translate(830.2857,804.3298)">
	<path class="st7" d="M-20-48.7v7.5h7.5v-7.5H-20z"/>
</g>
<g transform="translate(830.2857,804.3298)">
	<path class="st8" d="M-20-48.7v7.5h7.5v-7.5H-20z"/>
</g>
<g transform="translate(884.8572,786.0087)">
	<path class="st7" d="M-23.2-47.6v7.5h7.5v-7.5H-23.2z"/>
</g>
<g transform="translate(884.8572,786.0087)">
	<path class="st8" d="M-23.2-47.6v7.5h7.5v-7.5H-23.2z"/>
</g>
<g transform="translate(939.4286,767.2531)">
	<path class="st7" d="M-26.5-46.5v7.5h7.5v-7.5H-26.5z"/>
</g>
<g transform="translate(939.4286,767.2531)">
	<path class="st8" d="M-26.5-46.5v7.5h7.5v-7.5H-26.5z"/>
</g>
<g transform="translate(994,748.0104)">
	<path class="st7" d="M-29.7-45.3v7.5h7.5v-7.5H-29.7z"/>
</g>
<g transform="translate(994,748.0104)">
	<path class="st8" d="M-29.7-45.3v7.5h7.5v-7.5H-29.7z"/>
</g>
<g transform="translate(1048.5714,724.1376)">
	<path class="st7" d="M-32.9-43.9v7.5h7.5v-7.5H-32.9z"/>
</g>
<g transform="translate(1048.5714,724.1376)">
	<path class="st8" d="M-32.9-43.9v7.5h7.5v-7.5H-32.9z"/>
</g>
<g transform="translate(1103.1428,684.7911)">
	<path class="st7" d="M-36.2-41.6v7.5h7.5v-7.5H-36.2z"/>
</g>
<g transform="translate(1103.1428,684.7911)">
	<path class="st8" d="M-36.2-41.6v7.5h7.5v-7.5H-36.2z"/>
</g>
<g transform="translate(1157.7144,645.0952)">
	<path class="st7" d="M-39.4-39.2v7.5h7.5v-7.5H-39.4z"/>
</g>
<g transform="translate(1157.7144,645.0952)">
	<path class="st8" d="M-39.4-39.2v7.5h7.5v-7.5H-39.4z"/>
</g>
<g transform="translate(1212.2856,598.5245)">
	<path class="st7" d="M-42.7-36.5v7.5h7.5v-7.5H-42.7z"/>
</g>
<g transform="translate(1212.2856,598.5245)">
	<path class="st8" d="M-42.7-36.5v7.5h7.5v-7.5H-42.7z"/>
</g>
<g transform="translate(1266.8572,543.518)">
	<path class="st7" d="M-45.9-33.2v7.5h7.5v-7.5H-45.9z"/>
</g>
<g transform="translate(1266.8572,543.518)">
	<path class="st8" d="M-45.9-33.2v7.5h7.5v-7.5H-45.9z"/>
</g>
<g transform="translate(1321.4286,474.8466)">
	<path class="st7" d="M-49.1-29.1v7.5h7.5v-7.5H-49.1z"/>
</g>
<g transform="translate(1321.4286,474.8466)">
	<path class="st8" d="M-49.1-29.1v7.5h7.5v-7.5H-49.1z"/>
</g>
<g transform="translate(1376,70)">
	<path class="st7" d="M-52.4-5.1v7.5h7.5v-7.5H-52.4z"/>
</g>
<g transform="translate(1376,70)">
	<path class="st8" d="M-52.4-5.1v7.5h7.5v-7.5H-52.4z"/>
</g>
<g>
	<path class="st3" d="M608.7,787.3l51.4-51.4l51.4-51.4l51.4-51.4l51.4-51.4l51.4-51.4l51.4-51.4l51.2-51.2l51.4-51.4l51.4-51.4
		l51.4-51.4l51.4-51.4l51.4-51.4l51.4-51.4l51.2-51.2"/>
	<path class="st9" d="M608.7,783c2.4,0,4.3,2,4.3,4.3l0,0c0,2.4-2,4.3-4.3,4.3c-2.4,0-4.3-2-4.3-4.3C604.4,785,606.4,783,608.7,783z
		 M608.7,782.3c-2.8,0-5.1,2.3-5.1,5.1c0,2.8,2.3,5.1,5.1,5.1s5.1-2.3,5.1-5.1l0,0C613.8,784.5,611.5,782.3,608.7,782.3z"/>
	<path class="st9" d="M660.1,781.7c2.4,0,4.3,2,4.3,4.3l0,0c0,2.4-2,4.3-4.3,4.3c-2.4,0-4.3-2-4.3-4.3
		C655.7,783.7,657.6,781.7,660.1,781.7z M660.1,780.9c-2.8,0-5.1,2.3-5.1,5.1c0,2.8,2.3,5.1,5.1,5.1c2.8,0,5.1-2.3,5.1-5.1l0,0
		C665.2,783.2,662.9,780.9,660.1,780.9z"/>
	<path class="st9" d="M711.3,779.7c2.4,0,4.3,2,4.3,4.3l0,0c0,2.4-2,4.3-4.3,4.3c-2.4,0-4.3-2-4.3-4.3
		C707,781.7,709,779.7,711.3,779.7z M711.3,779c-2.8,0-5.1,2.3-5.1,5.1s2.3,5.1,5.1,5.1c2.8,0,5.1-2.3,5.1-5.1l0,0
		C716.5,781.2,714.2,779,711.3,779z"/>
	<path class="st9" d="M762.7,774.5c2.4,0,4.3,2,4.3,4.3l0,0c0,2.4-2,4.3-4.3,4.3c-2.4,0-4.3-2-4.3-4.3
		C758.4,776.4,760.3,774.5,762.7,774.5z M762.7,773.7c-2.8,0-5.1,2.3-5.1,5.1c0,2.8,2.3,5.1,5.1,5.1c2.8,0,5.1-2.3,5.1-5.1l0,0
		C767.8,776,765.5,773.7,762.7,773.7z"/>
	<path class="st9" d="M814.1,769c2.4,0,4.3,2,4.3,4.3l0,0c0,2.4-2,4.3-4.3,4.3c-2.4,0-4.3-2-4.3-4.3C809.7,771,811.7,769,814.1,769z
		 M814.1,768.2c-2.8,0-5.1,2.3-5.1,5.1c0,2.8,2.3,5.1,5.1,5.1c2.8,0,5.1-2.3,5.1-5.1l0,0C819.1,770.5,816.9,768.2,814.1,768.2z"/>
	<path class="st9" d="M865.4,762.1c2.4,0,4.3,2,4.3,4.3l0,0c0,2.4-2,4.3-4.3,4.3c-2.4,0-4.3-2-4.3-4.3
		C861.1,764.1,863,762.1,865.4,762.1z M865.4,761.3c-2.8,0-5.1,2.3-5.1,5.1s2.3,5.1,5.1,5.1c2.8,0,5.1-2.3,5.1-5.1l0,0
		C870.5,763.6,868.2,761.3,865.4,761.3z"/>
	<path class="st9" d="M916.7,754.9c2.4,0,4.3,2,4.3,4.3l0,0c0,2.4-2,4.3-4.3,4.3c-2.4,0-4.3-2-4.3-4.3
		C912.4,756.9,914.3,754.9,916.7,754.9z M916.7,754c-2.8,0-5.1,2.3-5.1,5.1s2.3,5.1,5.1,5.1c2.8,0,5.1-2.3,5.1-5.1l0,0
		C921.8,756.4,919.5,754,916.7,754z"/>
	<path class="st9" d="M968.1,742.9c2.4,0,4.3,2,4.3,4.3l0,0c0,2.4-2,4.3-4.3,4.3c-2.4,0-4.3-2-4.3-4.3
		C963.7,744.9,965.7,742.9,968.1,742.9z M968.1,742.2c-2.8,0-5.1,2.3-5.1,5.1c0,2.8,2.3,5.1,5.1,5.1c2.8,0,5.1-2.3,5.1-5.1l0,0
		C973.1,744.4,970.9,742.2,968.1,742.2z"/>
	<path class="st9" d="M1019.4,730.2c2.4,0,4.3,2,4.3,4.3l0,0c0,2.4-2,4.3-4.3,4.3c-2.4,0-4.3-2-4.3-4.3
		C1015.1,732.2,1017,730.2,1019.4,730.2z M1019.4,729.4c-2.8,0-5.1,2.3-5.1,5.1c0,2.8,2.3,5.1,5.1,5.1s5.1-2.3,5.1-5.1l0,0
		C1024.5,731.7,1022.2,729.4,1019.4,729.4z"/>
	<path class="st9" d="M1070.7,716.2c2.4,0,4.3,2,4.3,4.3l0,0c0,2.4-2,4.3-4.3,4.3s-4.3-2-4.3-4.3
		C1066.4,718.2,1068.3,716.2,1070.7,716.2z M1070.7,715.5c-2.8,0-5.1,2.3-5.1,5.1s2.3,5.1,5.1,5.1c2.8,0,5.1-2.3,5.1-5.1l0,0
		C1075.9,717.7,1073.5,715.5,1070.7,715.5z"/>
	<path class="st9" d="M1122,701.9c2.4,0,4.3,2,4.3,4.3l0,0c0,2.4-2,4.3-4.3,4.3s-4.3-2-4.3-4.3
		C1117.7,703.9,1119.7,701.9,1122,701.9z M1122,701.2c-2.8,0-5.1,2.3-5.1,5.1c0,2.8,2.3,5.1,5.1,5.1s5.1-2.3,5.1-5.1l0,0
		C1127.1,703.4,1124.9,701.2,1122,701.2z"/>
	<path class="st9" d="M1173.4,686.3c2.4,0,4.3,2,4.3,4.3l0,0c0,2.4-2,4.3-4.3,4.3c-2.4,0-4.3-2-4.3-4.3
		C1169.1,688.3,1171.1,686.3,1173.4,686.3z M1173.4,685.5c-2.8,0-5.1,2.3-5.1,5.1c0,2.8,2.3,5.1,5.1,5.1c2.8,0,5.1-2.3,5.1-5.1l0,0
		C1178.5,687.7,1176.2,685.5,1173.4,685.5z"/>
	<path class="st9" d="M1224.8,669.8c2.4,0,4.3,2,4.3,4.3l0,0c0,2.4-2,4.3-4.3,4.3s-4.3-2-4.3-4.3
		C1220.4,671.7,1222.3,669.8,1224.8,669.8z M1224.8,668.9c-2.8,0-5.1,2.3-5.1,5.1c0,2.8,2.3,5.1,5.1,5.1s5.1-2.3,5.1-5.1l0,0
		C1229.8,671.3,1227.5,668.9,1224.8,668.9z"/>
	<path class="st9" d="M1276,596c2.4,0,4.3,2,4.3,4.3l0,0c0,2.4-2,4.3-4.3,4.3c-2.4,0-4.3-2-4.3-4.3C1271.7,598,1273.7,596,1276,596z
		 M1276,595.3c-2.8,0-5.1,2.3-5.1,5.1s2.3,5.1,5.1,5.1c2.8,0,5.1-2.3,5.1-5.1l0,0C1281.1,597.5,1278.9,595.3,1276,595.3z"/>
	<path class="st9" d="M1327.4,64.3c2.4,0,4.3,2,4.3,4.3l0,0c0,2.4-2,4.3-4.3,4.3s-4.3-2-4.3-4.3C1323.1,66.3,1325,64.3,1327.4,64.3z
		 M1327.4,63.6c-2.8,0-5.1,2.3-5.1,5.1c0,2.8,2.3,5.1,5.1,5.1s5.1-2.3,5.1-5.1l0,0C1332.5,65.8,1330.2,63.6,1327.4,63.6z"/>
</g>
<line class="st10" x1="608.7" y1="787.3" x2="1327.4" y2="68.7"/>
<path class="st11" d="M610.7,786.3l51.4-1.3l51.4-2l51.4-5.3l51.4-5.6l51.4-6.9l51.4-7.2l51.4-11.9l51.4-12.7l51.4-13.9l51.4-14.3
	l51.4-15.7L1227,673l51.4-73.7l51-531.6"/>
<g transform="translate(612,834)">
	<path class="st12" d="M-7.1-50.4v7.5h7.5v-7.5H-7.1z"/>
</g>
<g transform="translate(612,834)">
	<path class="st13" d="M-7.1-50.4v7.5h7.5v-7.5H-7.1z"/>
</g>
<g transform="translate(666.5714,832.5768)">
	<path class="st12" d="M-10.3-50.3v7.5h7.5v-7.5H-10.3z"/>
</g>
<g transform="translate(666.5714,832.5768)">
	<path class="st13" d="M-10.3-50.3v7.5h7.5v-7.5H-10.3z"/>
</g>
<g transform="translate(721.1429,830.523)">
	<path class="st12" d="M-13.5-50.2v7.5H-6v-7.5H-13.5z"/>
</g>
<g transform="translate(721.1429,830.523)">
	<path class="st13" d="M-13.5-50.2v7.5H-6v-7.5H-13.5z"/>
</g>
<g transform="translate(775.7143,824.9273)">
	<path class="st12" d="M-16.8-49.9v7.5h7.5v-7.5H-16.8z"/>
</g>
<g transform="translate(775.7143,824.9273)">
	<path class="st13" d="M-16.8-49.9v7.5h7.5v-7.5H-16.8z"/>
</g>
<g transform="translate(830.2857,819.057)">
	<path class="st12" d="M-20-49.5v7.5h7.5v-7.5H-20z"/>
</g>
<g transform="translate(830.2857,819.057)">
	<path class="st13" d="M-20-49.5v7.5h7.5v-7.5H-20z"/>
</g>
<g transform="translate(884.8572,811.745)">
	<path class="st12" d="M-23.2-49.1v7.5h7.5v-7.5H-23.2z"/>
</g>
<g transform="translate(884.8572,811.745)">
	<path class="st13" d="M-23.2-49.1v7.5h7.5v-7.5H-23.2z"/>
</g>
<g transform="translate(939.4286,804.0453)">
	<path class="st12" d="M-26.5-48.6v7.5h7.5v-7.5H-26.5z"/>
</g>
<g transform="translate(939.4286,804.0453)">
	<path class="st13" d="M-26.5-48.6v7.5h7.5v-7.5H-26.5z"/>
</g>
<g transform="translate(994,791.3754)">
	<path class="st12" d="M-29.7-47.9v7.5h7.5v-7.5H-29.7z"/>
</g>
<g transform="translate(994,791.3754)">
	<path class="st13" d="M-29.7-47.9v7.5h7.5v-7.5H-29.7z"/>
</g>
<g transform="translate(1048.5714,777.8462)">
	<path class="st12" d="M-32.9-47.1v7.5h7.5v-7.5H-32.9z"/>
</g>
<g transform="translate(1048.5714,777.8462)">
	<path class="st13" d="M-32.9-47.1v7.5h7.5v-7.5H-32.9z"/>
</g>
<g transform="translate(1103.1428,763.0142)">
	<path class="st12" d="M-36.2-46.2v7.5h7.5v-7.5H-36.2z"/>
</g>
<g transform="translate(1103.1428,763.0142)">
	<path class="st13" d="M-36.2-46.2v7.5h7.5v-7.5H-36.2z"/>
</g>
<g transform="translate(1157.7144,747.7869)">
	<path class="st12" d="M-39.4-45.3v7.5h7.5v-7.5H-39.4z"/>
</g>
<g transform="translate(1157.7144,747.7869)">
	<path class="st13" d="M-39.4-45.3v7.5h7.5v-7.5H-39.4z"/>
</g>
<g transform="translate(1212.2856,731.1356)">
	<path class="st12" d="M-42.7-44.3v7.5h7.5v-7.5H-42.7z"/>
</g>
<g transform="translate(1212.2856,731.1356)">
	<path class="st13" d="M-42.7-44.3v7.5h7.5v-7.5H-42.7z"/>
</g>
<g transform="translate(1266.8572,713.5664)">
	<path class="st12" d="M-45.9-43.3v7.5h7.5v-7.5H-45.9z"/>
</g>
<g transform="translate(1266.8572,713.5664)">
	<path class="st13" d="M-45.9-43.3v7.5h7.5v-7.5H-45.9z"/>
</g>
<g transform="translate(1321.4286,635.1871)">
	<path class="st12" d="M-49.1-38.6v7.5h7.5v-7.5H-49.1z"/>
</g>
<g transform="translate(1321.4286,635.1871)">
	<path class="st13" d="M-49.1-38.6v7.5h7.5v-7.5H-49.1z"/>
</g>
<g transform="translate(1376,70)">
	<path class="st12" d="M-52.4-5.1v7.5h7.5v-7.5H-52.4z"/>
</g>
<g transform="translate(1376,70)">
	<path class="st13" d="M-52.4-5.1v7.5h7.5v-7.5H-52.4z"/>
</g>
<g>
	<path class="st3" d="M608.7,787.3l51.4-51.4l51.4-51.4l51.4-51.4l51.4-51.4l51.4-51.4l51.4-51.4l51.2-51.2l51.4-51.4l51.4-51.4
		l51.4-51.4l51.4-51.4l51.4-51.4l51.4-51.4l51.2-51.2"/>
	<path class="st7" d="M608.7,783c2.4,0,4.3,2,4.3,4.3l0,0c0,2.4-2,4.3-4.3,4.3c-2.4,0-4.3-2-4.3-4.3C604.4,785,606.4,783,608.7,783z
		 M608.7,782.3c-2.8,0-5.1,2.3-5.1,5.1c0,2.8,2.3,5.1,5.1,5.1s5.1-2.3,5.1-5.1l0,0C613.8,784.5,611.5,782.3,608.7,782.3z"/>
	<path class="st7" d="M660.1,782.4c2.4,0,4.3,2,4.3,4.3l0,0c0,2.4-2,4.3-4.3,4.3c-2.4,0-4.3-2-4.3-4.3S657.6,782.4,660.1,782.4z
		 M660.1,781.5c-2.8,0-5.1,2.3-5.1,5.1c0,2.8,2.3,5.1,5.1,5.1c2.8,0,5.1-2.3,5.1-5.1l0,0C665.2,783.8,662.9,781.5,660.1,781.5z"/>
	<path class="st7" d="M711.3,780.2c2.4,0,4.3,2,4.3,4.3l0,0c0,2.4-2,4.3-4.3,4.3c-2.4,0-4.3-2-4.3-4.3
		C707,782.2,709,780.2,711.3,780.2z M711.3,779.4c-2.8,0-5.1,2.3-5.1,5.1c0,2.8,2.3,5.1,5.1,5.1c2.8,0,5.1-2.3,5.1-5.1l0,0
		C716.5,781.7,714.2,779.4,711.3,779.4z"/>
	<path class="st7" d="M762.7,774.6c2.4,0,4.3,2,4.3,4.3l0,0c0,2.4-2,4.3-4.3,4.3c-2.4,0-4.3-2-4.3-4.3
		C758.4,776.6,760.3,774.6,762.7,774.6z M762.7,773.9c-2.8,0-5.1,2.3-5.1,5.1c0,2.8,2.3,5.1,5.1,5.1c2.8,0,5.1-2.3,5.1-5.1l0,0
		C767.8,776.1,765.5,773.9,762.7,773.9z"/>
	<path class="st7" d="M814.1,768.3c2.4,0,4.3,2,4.3,4.3l0,0c0,2.4-2,4.3-4.3,4.3c-2.4,0-4.3-2-4.3-4.3
		C809.7,770.3,811.7,768.3,814.1,768.3z M814.1,767.6c-2.8,0-5.1,2.3-5.1,5.1c0,2.8,2.3,5.1,5.1,5.1c2.8,0,5.1-2.3,5.1-5.1l0,0
		C819.1,769.8,816.9,767.6,814.1,767.6z"/>
	<path class="st7" d="M865.4,761.8c2.4,0,4.3,2,4.3,4.3l0,0c0,2.4-2,4.3-4.3,4.3c-2.4,0-4.3-2-4.3-4.3
		C861.1,763.8,863,761.8,865.4,761.8z M865.4,761.1c-2.8,0-5.1,2.3-5.1,5.1c0,2.8,2.3,5.1,5.1,5.1c2.8,0,5.1-2.3,5.1-5.1l0,0
		C870.5,763.4,868.2,761.1,865.4,761.1z"/>
	<path class="st7" d="M916.7,752.2c2.4,0,4.3,2,4.3,4.3l0,0c0,2.4-2,4.3-4.3,4.3c-2.4,0-4.3-2-4.3-4.3
		C912.4,754.1,914.3,752.2,916.7,752.2z M916.7,751.4c-2.8,0-5.1,2.3-5.1,5.1s2.3,5.1,5.1,5.1c2.8,0,5.1-2.3,5.1-5.1l0,0
		C921.8,753.7,919.5,751.4,916.7,751.4z"/>
	<path class="st7" d="M968.1,742c2.4,0,4.3,2,4.3,4.3l0,0c0,2.4-2,4.3-4.3,4.3c-2.4,0-4.3-2-4.3-4.3C963.7,744,965.7,742,968.1,742z
		 M968.1,741.2c-2.8,0-5.1,2.3-5.1,5.1c0,2.8,2.3,5.1,5.1,5.1c2.8,0,5.1-2.3,5.1-5.1l0,0C973.1,743.5,970.9,741.2,968.1,741.2z"/>
	<path class="st7" d="M1019.4,731.3c2.4,0,4.3,2,4.3,4.3l0,0c0,2.4-2,4.3-4.3,4.3c-2.4,0-4.3-2-4.3-4.3
		C1015.1,733.3,1017,731.3,1019.4,731.3z M1019.4,730.5c-2.8,0-5.1,2.3-5.1,5.1c0,2.8,2.3,5.1,5.1,5.1s5.1-2.3,5.1-5.1l0,0
		C1024.5,732.8,1022.2,730.5,1019.4,730.5z"/>
	<path class="st7" d="M1070.7,719.3c2.4,0,4.3,2,4.3,4.3l0,0c0,2.4-2,4.3-4.3,4.3s-4.3-2-4.3-4.3
		C1066.4,721.3,1068.3,719.3,1070.7,719.3z M1070.7,718.5c-2.8,0-5.1,2.3-5.1,5.1c0,2.8,2.3,5.1,5.1,5.1c2.8,0,5.1-2.3,5.1-5.1l0,0
		C1075.9,720.8,1073.5,718.5,1070.7,718.5z"/>
	<path class="st7" d="M1122,702.1c2.4,0,4.3,2,4.3,4.3l0,0c0,2.4-2,4.3-4.3,4.3s-4.3-2-4.3-4.3
		C1117.7,704.1,1119.7,702.1,1122,702.1z M1122,701.4c-2.8,0-5.1,2.3-5.1,5.1c0,2.8,2.3,5.1,5.1,5.1s5.1-2.3,5.1-5.1l0,0
		C1127.1,703.6,1124.9,701.4,1122,701.4z"/>
	<path class="st7" d="M1173.4,681c2.4,0,4.3,2,4.3,4.3l0,0c0,2.4-2,4.3-4.3,4.3c-2.4,0-4.3-2-4.3-4.3
		C1169.1,683,1171.1,681,1173.4,681z M1173.4,680.3c-2.8,0-5.1,2.3-5.1,5.1c0,2.8,2.3,5.1,5.1,5.1c2.8,0,5.1-2.3,5.1-5.1l0,0
		C1178.5,682.5,1176.2,680.3,1173.4,680.3z"/>
	<path class="st7" d="M1224.8,659.5c2.4,0,4.3,2,4.3,4.3l0,0c0,2.4-2,4.3-4.3,4.3s-4.3-2-4.3-4.3
		C1220.4,661.5,1222.3,659.5,1224.8,659.5z M1224.8,658.7c-2.8,0-5.1,2.3-5.1,5.1s2.3,5.1,5.1,5.1s5.1-2.3,5.1-5.1l0,0
		C1229.8,661,1227.5,658.7,1224.8,658.7z"/>
	<path class="st7" d="M1276,563.1c2.4,0,4.3,2,4.3,4.3l0,0c0,2.4-2,4.3-4.3,4.3c-2.4,0-4.3-2-4.3-4.3
		C1271.7,565.1,1273.7,563.1,1276,563.1z M1276,562.2c-2.8,0-5.1,2.3-5.1,5.1c0,2.8,2.3,5.1,5.1,5.1c2.8,0,5.1-2.3,5.1-5.1l0,0
		C1281.1,564.5,1278.9,562.2,1276,562.2z"/>
	<path class="st7" d="M1327.4,64.3c2.4,0,4.3,2,4.3,4.3l0,0c0,2.4-2,4.3-4.3,4.3s-4.3-2-4.3-4.3C1323.1,66.3,1325,64.3,1327.4,64.3z
		 M1327.4,63.6c-2.8,0-5.1,2.3-5.1,5.1c0,2.8,2.3,5.1,5.1,5.1s5.1-2.3,5.1-5.1l0,0C1332.5,65.8,1330.2,63.6,1327.4,63.6z"/>
</g>
<g>
	<line class="st14" x1="608.7" y1="787.3" x2="1327.4" y2="68.7"/>
	<path class="st15" d="M608.7,787.3l51.4-0.8l51.4-2.1l51.4-5.6l51.4-6.3l51.4-6.5l51.4-9.7l51.4-10.2l51.4-10.7l51.4-11.9
		l51.4-17.1l51.4-21.1l51.4-21.5l51.4-96.4l51-498.8"/>
</g>
<g transform="translate(612,834)">
	<path class="st16" d="M-7.1-50.4v7.5h7.5v-7.5H-7.1z"/>
</g>
<g transform="translate(612,834)">
	<path class="st17" d="M-7.1-50.4v7.5h7.5v-7.5H-7.1z"/>
</g>
<g transform="translate(666.5714,833.2351)">
	<path class="st16" d="M-10.3-50.4v7.5h7.5v-7.5H-10.3z"/>
</g>
<g transform="translate(666.5714,833.2351)">
	<path class="st17" d="M-10.3-50.4v7.5h7.5v-7.5H-10.3z"/>
</g>
<g transform="translate(721.1429,831.0074)">
	<path class="st16" d="M-13.5-50.2v7.5H-6v-7.5H-13.5z"/>
</g>
<g transform="translate(721.1429,831.0074)">
	<path class="st17" d="M-13.5-50.2v7.5H-6v-7.5H-13.5z"/>
</g>
<g transform="translate(775.7143,825.0713)">
	<path class="st16" d="M-16.8-49.9v7.5h7.5v-7.5H-16.8z"/>
</g>
<g transform="translate(775.7143,825.0713)">
	<path class="st17" d="M-16.8-49.9v7.5h7.5v-7.5H-16.8z"/>
</g>
<g transform="translate(830.2857,818.383)">
	<path class="st16" d="M-20-49.5v7.5h7.5v-7.5H-20z"/>
</g>
<g transform="translate(830.2857,818.383)">
	<path class="st17" d="M-20-49.5v7.5h7.5v-7.5H-20z"/>
</g>
<g transform="translate(884.8572,811.5107)">
	<path class="st16" d="M-23.2-49.1v7.5h7.5v-7.5H-23.2z"/>
</g>
<g transform="translate(884.8572,811.5107)">
	<path class="st17" d="M-23.2-49.1v7.5h7.5v-7.5H-23.2z"/>
</g>
<g transform="translate(939.4286,801.1891)">
	<path class="st16" d="M-26.5-48.5v7.5h7.5v-7.5H-26.5z"/>
</g>
<g transform="translate(939.4286,801.1891)">
	<path class="st17" d="M-26.5-48.5v7.5h7.5v-7.5H-26.5z"/>
</g>
<g transform="translate(994,790.4062)">
	<path class="st16" d="M-29.7-47.8v7.5h7.5v-7.5H-29.7z"/>
</g>
<g transform="translate(994,790.4062)">
	<path class="st17" d="M-29.7-47.8v7.5h7.5v-7.5H-29.7z"/>
</g>
<g transform="translate(1048.5714,778.9926)">
	<path class="st16" d="M-32.9-47.2v7.5h7.5v-7.5H-32.9z"/>
</g>
<g transform="translate(1048.5714,778.9926)">
	<path class="st17" d="M-32.9-47.2v7.5h7.5v-7.5H-32.9z"/>
</g>
<g transform="translate(1103.1428,766.2429)">
	<path class="st16" d="M-36.2-46.4v7.5h7.5v-7.5H-36.2z"/>
</g>
<g transform="translate(1103.1428,766.2429)">
	<path class="st17" d="M-36.2-46.4v7.5h7.5v-7.5H-36.2z"/>
</g>
<g transform="translate(1157.7144,747.9965)">
	<path class="st16" d="M-39.4-45.3v7.5h7.5v-7.5H-39.4z"/>
</g>
<g transform="translate(1157.7144,747.9965)">
	<path class="st17" d="M-39.4-45.3v7.5h7.5v-7.5H-39.4z"/>
</g>
<g transform="translate(1212.2856,725.6194)">
	<path class="st16" d="M-42.7-44v7.5h7.5V-44H-42.7z"/>
</g>
<g transform="translate(1212.2856,725.6194)">
	<path class="st17" d="M-42.7-44v7.5h7.5V-44H-42.7z"/>
</g>
<g transform="translate(1266.8572,702.6822)">
	<path class="st16" d="M-45.9-42.6v7.5h7.5v-7.5H-45.9z"/>
</g>
<g transform="translate(1266.8572,702.6822)">
	<path class="st17" d="M-45.9-42.6v7.5h7.5v-7.5H-45.9z"/>
</g>
<g transform="translate(1321.4286,600.1334)">
	<path class="st16" d="M-49.1-36.6v7.5h7.5v-7.5H-49.1z"/>
</g>
<g transform="translate(1321.4286,600.1334)">
	<path class="st17" d="M-49.1-36.6v7.5h7.5v-7.5H-49.1z"/>
</g>
<g transform="translate(1376,70)">
	<path class="st16" d="M-52.4-5.1v7.5h7.5v-7.5H-52.4z"/>
</g>
<g transform="translate(1376,70)">
	<path class="st17" d="M-52.4-5.1v7.5h7.5v-7.5H-52.4z"/>
</g>
<g>
	<path class="st3" d="M608.7,787.3l51.4-51.4l51.4-51.4l51.4-51.4l51.4-51.4l51.4-51.4l51.4-51.4l51.2-51.2l51.4-51.4l51.4-51.4
		l51.4-51.4l51.4-51.4l51.4-51.4l51.4-51.4l51.2-51.2"/>
	<path class="st12" d="M608.7,783c2.4,0,4.3,2,4.3,4.3l0,0c0,2.4-2,4.3-4.3,4.3c-2.4,0-4.3-2-4.3-4.3C604.4,785,606.4,783,608.7,783
		z M608.7,782.3c-2.8,0-5.1,2.3-5.1,5.1c0,2.8,2.3,5.1,5.1,5.1s5.1-2.3,5.1-5.1l0,0C613.8,784.5,611.5,782.3,608.7,782.3z"/>
	<path class="st12" d="M660.1,780.4c2.4,0,4.3,2,4.3,4.3l0,0c0,2.4-2,4.3-4.3,4.3c-2.4,0-4.3-2-4.3-4.3
		C655.7,782.4,657.6,780.4,660.1,780.4z M660.1,779.6c-2.8,0-5.1,2.3-5.1,5.1c0,2.8,2.3,5.1,5.1,5.1c2.8,0,5.1-2.3,5.1-5.1l0,0
		C665.2,781.9,662.9,779.6,660.1,779.6z"/>
	<path class="st12" d="M711.3,776.1c2.4,0,4.3,2,4.3,4.3l0,0c0,2.4-2,4.3-4.3,4.3c-2.4,0-4.3-2-4.3-4.3
		C707,778.1,709,776.1,711.3,776.1z M711.3,775.4c-2.8,0-5.1,2.3-5.1,5.1c0,2.8,2.3,5.1,5.1,5.1c2.8,0,5.1-2.3,5.1-5.1l0,0
		C716.5,777.7,714.2,775.4,711.3,775.4z"/>
	<path class="st12" d="M762.7,771.8c2.4,0,4.3,2,4.3,4.3l0,0c0,2.4-2,4.3-4.3,4.3c-2.4,0-4.3-2-4.3-4.3
		C758.4,773.8,760.3,771.8,762.7,771.8z M762.7,771c-2.8,0-5.1,2.3-5.1,5.1c0,2.8,2.3,5.1,5.1,5.1c2.8,0,5.1-2.3,5.1-5.1l0,0
		C767.8,773.3,765.5,771,762.7,771z"/>
	<path class="st12" d="M814.1,766.2c2.4,0,4.3,2,4.3,4.3l0,0c0,2.4-2,4.3-4.3,4.3c-2.4,0-4.3-2-4.3-4.3
		C809.7,768.2,811.7,766.2,814.1,766.2z M814.1,765.4c-2.8,0-5.1,2.3-5.1,5.1s2.3,5.1,5.1,5.1c2.8,0,5.1-2.3,5.1-5.1l0,0
		C819.1,767.7,816.9,765.4,814.1,765.4z"/>
	<path class="st12" d="M865.4,756.2c2.4,0,4.3,2,4.3,4.3l0,0c0,2.4-2,4.3-4.3,4.3c-2.4,0-4.3-2-4.3-4.3
		C861.1,758.2,863,756.2,865.4,756.2z M865.4,755.5c-2.8,0-5.1,2.3-5.1,5.1c0,2.8,2.3,5.1,5.1,5.1c2.8,0,5.1-2.3,5.1-5.1l0,0
		C870.5,757.7,868.2,755.5,865.4,755.5z"/>
	<path class="st12" d="M916.7,745.8c2.4,0,4.3,2,4.3,4.3l0,0c0,2.4-2,4.3-4.3,4.3c-2.4,0-4.3-2-4.3-4.3
		C912.4,747.7,914.3,745.8,916.7,745.8z M916.7,745c-2.8,0-5.1,2.3-5.1,5.1c0,2.8,2.3,5.1,5.1,5.1c2.8,0,5.1-2.3,5.1-5.1l0,0
		C921.8,747.3,919.5,745,916.7,745z"/>
	<path class="st12" d="M968.1,734.1c2.4,0,4.3,2,4.3,4.3l0,0c0,2.4-2,4.3-4.3,4.3c-2.4,0-4.3-2-4.3-4.3
		C963.7,736.1,965.7,734.1,968.1,734.1z M968.1,733.3c-2.8,0-5.1,2.3-5.1,5.1c0,2.8,2.3,5.1,5.1,5.1c2.8,0,5.1-2.3,5.1-5.1l0,0
		C973.1,735.6,970.9,733.3,968.1,733.3z"/>
	<path class="st12" d="M1019.4,720.8c2.4,0,4.3,2,4.3,4.3l0,0c0,2.4-2,4.3-4.3,4.3c-2.4,0-4.3-2-4.3-4.3
		C1015.1,722.8,1017,720.8,1019.4,720.8z M1019.4,720.1c-2.8,0-5.1,2.3-5.1,5.1c0,2.8,2.3,5.1,5.1,5.1s5.1-2.3,5.1-5.1l0,0
		C1024.5,722.3,1022.2,720.1,1019.4,720.1z"/>
	<path class="st12" d="M1070.7,702.9c2.4,0,4.3,2,4.3,4.3l0,0c0,2.4-2,4.3-4.3,4.3s-4.3-2-4.3-4.3
		C1066.4,704.8,1068.3,702.9,1070.7,702.9z M1070.7,702c-2.8,0-5.1,2.3-5.1,5.1c0,2.8,2.3,5.1,5.1,5.1c2.8,0,5.1-2.3,5.1-5.1l0,0
		C1075.9,704.4,1073.5,702,1070.7,702z"/>
	<path class="st12" d="M1122,678.8c2.4,0,4.3,2,4.3,4.3l0,0c0,2.4-2,4.3-4.3,4.3s-4.3-2-4.3-4.3S1119.7,678.8,1122,678.8z M1122,678
		c-2.8,0-5.1,2.3-5.1,5.1s2.3,5.1,5.1,5.1s5.1-2.3,5.1-5.1l0,0C1127.1,680.3,1124.9,678,1122,678z"/>
	<path class="st12" d="M1173.4,644.2c2.4,0,4.3,2,4.3,4.3l0,0c0,2.4-2,4.3-4.3,4.3c-2.4,0-4.3-2-4.3-4.3
		C1169.1,646.1,1171.1,644.2,1173.4,644.2z M1173.4,643.3c-2.8,0-5.1,2.3-5.1,5.1c0,2.8,2.3,5.1,5.1,5.1c2.8,0,5.1-2.3,5.1-5.1l0,0
		C1178.5,645.6,1176.2,643.3,1173.4,643.3z"/>
	<path class="st12" d="M1224.8,595c2.4,0,4.3,2,4.3,4.3l0,0c0,2.4-2,4.3-4.3,4.3s-4.3-2-4.3-4.3C1220.4,596.9,1222.3,595,1224.8,595
		z M1224.8,594.2c-2.8,0-5.1,2.3-5.1,5.1s2.3,5.1,5.1,5.1s5.1-2.3,5.1-5.1l0,0C1229.8,596.5,1227.5,594.2,1224.8,594.2z"/>
	<path class="st12" d="M1276,510.1c2.4,0,4.3,2,4.3,4.3l0,0c0,2.4-2,4.3-4.3,4.3c-2.4,0-4.3-2-4.3-4.3
		C1271.7,512.1,1273.7,510.1,1276,510.1z M1276,509.4c-2.8,0-5.1,2.3-5.1,5.1c0,2.8,2.3,5.1,5.1,5.1c2.8,0,5.1-2.3,5.1-5.1l0,0
		C1281.1,511.6,1278.9,509.4,1276,509.4z"/>
	<path class="st12" d="M1327.4,64.3c2.4,0,4.3,2,4.3,4.3l0,0c0,2.4-2,4.3-4.3,4.3s-4.3-2-4.3-4.3C1323.1,66.3,1325,64.3,1327.4,64.3
		z M1327.4,63.6c-2.8,0-5.1,2.3-5.1,5.1c0,2.8,2.3,5.1,5.1,5.1s5.1-2.3,5.1-5.1l0,0C1332.5,65.8,1330.2,63.6,1327.4,63.6z"/>
</g>
<line class="st18" x1="607.7" y1="787.3" x2="1326.4" y2="68.7"/>
<path class="st19" d="M607.7,787.3l51.4-2.6l51.4-4.2l51.4-4.3l51.4-5.6l51.4-10l51.4-10.4l51.2-11.7l51.4-13.3l51.4-18l51.4-24.1
	l51.4-34.7l51.4-49.1l51.4-84.8l51.2-445.8"/>
<g transform="translate(612,834)">
	<path class="st20" d="M-7.1-50.4v7.5h7.5v-7.5H-7.1z"/>
</g>
<g transform="translate(612,834)">
	<path class="st21" d="M-7.1-50.4v7.5h7.5v-7.5H-7.1z"/>
</g>
<g transform="translate(666.5714,831.215)">
	<path class="st20" d="M-10.3-50.3v7.5h7.5v-7.5H-10.3z"/>
</g>
<g transform="translate(666.5714,831.215)">
	<path class="st21" d="M-10.3-50.3v7.5h7.5v-7.5H-10.3z"/>
</g>
<g transform="translate(721.1429,826.6749)">
	<path class="st20" d="M-13.5-50v7.5H-6V-50H-13.5z"/>
</g>
<g transform="translate(721.1429,826.6749)">
	<path class="st21" d="M-13.5-50v7.5H-6V-50H-13.5z"/>
</g>
<g transform="translate(775.7143,822.0526)">
	<path class="st20" d="M-16.8-49.7v7.5h7.5v-7.5H-16.8z"/>
</g>
<g transform="translate(775.7143,822.0526)">
	<path class="st21" d="M-16.8-49.7v7.5h7.5v-7.5H-16.8z"/>
</g>
<g transform="translate(830.2857,816.0832)">
	<path class="st20" d="M-20-49.4v7.5h7.5v-7.5H-20z"/>
</g>
<g transform="translate(830.2857,816.0832)">
	<path class="st21" d="M-20-49.4v7.5h7.5v-7.5H-20z"/>
</g>
<g transform="translate(884.8572,805.4854)">
	<path class="st20" d="M-23.2-48.7v7.5h7.5v-7.5H-23.2z"/>
</g>
<g transform="translate(884.8572,805.4854)">
	<path class="st21" d="M-23.2-48.7v7.5h7.5v-7.5H-23.2z"/>
</g>
<g transform="translate(939.4286,794.4312)">
	<path class="st20" d="M-26.5-48.1v7.5h7.5v-7.5H-26.5z"/>
</g>
<g transform="translate(939.4286,794.4312)">
	<path class="st21" d="M-26.5-48.1v7.5h7.5v-7.5H-26.5z"/>
</g>
<g transform="translate(994,781.9874)">
	<path class="st20" d="M-29.7-47.3v7.5h7.5v-7.5H-29.7z"/>
</g>
<g transform="translate(994,781.9874)">
	<path class="st21" d="M-29.7-47.3v7.5h7.5v-7.5H-29.7z"/>
</g>
<g transform="translate(1048.5714,767.8814)">
	<path class="st20" d="M-32.9-46.5v7.5h7.5v-7.5H-32.9z"/>
</g>
<g transform="translate(1048.5714,767.8814)">
	<path class="st21" d="M-32.9-46.5v7.5h7.5v-7.5H-32.9z"/>
</g>
<g transform="translate(1103.1428,748.7568)">
	<path class="st20" d="M-36.2-45.4v7.5h7.5v-7.5H-36.2z"/>
</g>
<g transform="translate(1103.1428,748.7568)">
	<path class="st21" d="M-36.2-45.4v7.5h7.5v-7.5H-36.2z"/>
</g>
<g transform="translate(1157.7144,723.2065)">
	<path class="st20" d="M-39.4-43.9v7.5h7.5v-7.5H-39.4z"/>
</g>
<g transform="translate(1157.7144,723.2065)">
	<path class="st21" d="M-39.4-43.9v7.5h7.5v-7.5H-39.4z"/>
</g>
<g transform="translate(1212.2856,686.3411)">
	<path class="st20" d="M-42.7-41.7v7.5h7.5v-7.5H-42.7z"/>
</g>
<g transform="translate(1212.2856,686.3411)">
	<path class="st21" d="M-42.7-41.7v7.5h7.5v-7.5H-42.7z"/>
</g>
<g transform="translate(1266.8572,634.1165)">
	<path class="st20" d="M-45.9-38.6v7.5h7.5v-7.5H-45.9z"/>
</g>
<g transform="translate(1266.8572,634.1165)">
	<path class="st21" d="M-45.9-38.6v7.5h7.5v-7.5H-45.9z"/>
</g>
<g transform="translate(1321.4286,543.9098)">
	<path class="st20" d="M-49.1-33.2v7.5h7.5v-7.5H-49.1z"/>
</g>
<g transform="translate(1321.4286,543.9098)">
	<path class="st21" d="M-49.1-33.2v7.5h7.5v-7.5H-49.1z"/>
</g>
<g transform="translate(1376,70)">
	<path class="st20" d="M-52.4-5.1v7.5h7.5v-7.5H-52.4z"/>
</g>
<g transform="translate(1376,70)">
	<path class="st21" d="M-52.4-5.1v7.5h7.5v-7.5H-52.4z"/>
</g>
<g>
	<path class="st6" d="M910.1,909.4h43H910.1z"/>
</g>
<g transform="translate(735.0684,212.0285)">
	<path class="st7" d="M191.4,693.9v6.9h6.9v-6.9H191.4z"/>
</g>
<g transform="translate(735.0684,212.0285)">
	<path class="st8" d="M192.3,693.9v6.9h6.9v-6.9H192.3z"/>
</g>
<g>
	<line class="st15" x1="727.5" y1="908.9" x2="770.5" y2="908.9"/>
</g>
<g transform="translate(735.0684,315.1844)">
	<path class="st16" d="M10.5,590.3v6.9h6.9v-6.9H10.5z"/>
</g>
<g transform="translate(735.0684,315.1844)">
	<path class="st17" d="M10.5,590.3v6.9h6.9v-6.9H10.5z"/>
</g>
<g transform="translate(735.0684,418.3403)">
	<path class="st20" d="M352.6,444.5v6.9h6.9v-6.9H352.6z"/>
</g>
<g transform="translate(735.0684,418.3403)">
	<path class="st21" d="M352.6,444.5v6.9h6.9v-6.9H352.6z"/>
</g>
<g transform="translate(735.0684,521.4963)">
	<path class="st13" d="M192.2,341.8v6.9h6.9v-6.9H192.2z"/>
</g>
<path class="st12" d="M927.3,863.3v5.9h6.9v-5.9H927.3z"/>
<g>
	<line class="st18" x1="729.8" y1="868.5" x2="772.8" y2="868.5"/>
</g>
<text transform="matrix(1 0 0 1 789.2092 871.6183)" class="st22 st23">绝对平均线</text>
<text transform="matrix(1 0 0 1 785.1458 913.5025)" class="st22 st23">执业医师和注册护士</text>
<text transform="matrix(1 0 0 1 967.4204 913.7896)" class="st22 st23">床位</text>
<text transform="matrix(1 0 0 1 970.5746 867.9485)" class="st22 st23">医疗机构</text>
<text transform="matrix(1 0 0 1 1128.9231 871.8046)" class="st22 st23">医疗技术人员</text>
<g>
	<line class="st13" x1="908.7" y1="866.3" x2="951.7" y2="866.3"/>
</g>
<g>
	<line class="st21" x1="1070.7" y1="866.7" x2="1113.6" y2="866.7"/>
</g>
</svg>
